G04 #@! TF.GenerationSoftware,KiCad,Pcbnew,5.0.1-33cea8e~68~ubuntu16.04.1*
G04 #@! TF.CreationDate,2018-11-17T04:31:05+03:00*
G04 #@! TF.ProjectId,ayx,6179782E6B696361645F706362000000,rev?*
G04 #@! TF.SameCoordinates,Original*
G04 #@! TF.FileFunction,Legend,Bot*
G04 #@! TF.FilePolarity,Positive*
%FSLAX46Y46*%
G04 Gerber Fmt 4.6, Leading zero omitted, Abs format (unit mm)*
G04 Created by KiCad (PCBNEW 5.0.1-33cea8e~68~ubuntu16.04.1) date Сб 17 ноя 2018 04:31:05*
%MOMM*%
%LPD*%
G01*
G04 APERTURE LIST*
%ADD10C,0.200000*%
%ADD11C,0.150000*%
%ADD12C,0.250000*%
%ADD13C,0.120000*%
%ADD14C,0.100000*%
%ADD15O,2.000000X2.000000*%
%ADD16R,2.000000X2.000000*%
%ADD17O,2.100000X2.100000*%
%ADD18R,2.100000X2.100000*%
%ADD19R,1.600000X1.300000*%
%ADD20O,1.750000X1.750000*%
%ADD21R,1.750000X1.750000*%
%ADD22R,1.600000X1.600000*%
%ADD23R,0.900000X1.300000*%
%ADD24C,1.400000*%
G04 APERTURE END LIST*
D10*
X149275800Y-93192600D02*
X149275800Y-87934800D01*
D11*
X152247066Y-104129895D02*
X152208971Y-104091800D01*
X152132780Y-104053704D01*
X151942304Y-104053704D01*
X151866114Y-104091800D01*
X151828019Y-104129895D01*
X151789923Y-104206085D01*
X151789923Y-104282276D01*
X151828019Y-104396561D01*
X152285161Y-104853704D01*
X151789923Y-104853704D01*
X151332780Y-104396561D02*
X151408971Y-104358466D01*
X151447066Y-104320371D01*
X151485161Y-104244180D01*
X151485161Y-104206085D01*
X151447066Y-104129895D01*
X151408971Y-104091800D01*
X151332780Y-104053704D01*
X151180400Y-104053704D01*
X151104209Y-104091800D01*
X151066114Y-104129895D01*
X151028019Y-104206085D01*
X151028019Y-104244180D01*
X151066114Y-104320371D01*
X151104209Y-104358466D01*
X151180400Y-104396561D01*
X151332780Y-104396561D01*
X151408971Y-104434657D01*
X151447066Y-104472752D01*
X151485161Y-104548942D01*
X151485161Y-104701323D01*
X151447066Y-104777514D01*
X151408971Y-104815609D01*
X151332780Y-104853704D01*
X151180400Y-104853704D01*
X151104209Y-104815609D01*
X151066114Y-104777514D01*
X151028019Y-104701323D01*
X151028019Y-104548942D01*
X151066114Y-104472752D01*
X151104209Y-104434657D01*
X151180400Y-104396561D01*
X150075638Y-104320371D02*
X150075638Y-105120371D01*
X150075638Y-104358466D02*
X149999447Y-104320371D01*
X149847066Y-104320371D01*
X149770876Y-104358466D01*
X149732780Y-104396561D01*
X149694685Y-104472752D01*
X149694685Y-104701323D01*
X149732780Y-104777514D01*
X149770876Y-104815609D01*
X149847066Y-104853704D01*
X149999447Y-104853704D01*
X150075638Y-104815609D01*
X149351828Y-104853704D02*
X149351828Y-104320371D01*
X149351828Y-104053704D02*
X149389923Y-104091800D01*
X149351828Y-104129895D01*
X149313733Y-104091800D01*
X149351828Y-104053704D01*
X149351828Y-104129895D01*
X148970876Y-104320371D02*
X148970876Y-104853704D01*
X148970876Y-104396561D02*
X148932780Y-104358466D01*
X148856590Y-104320371D01*
X148742304Y-104320371D01*
X148666114Y-104358466D01*
X148628019Y-104434657D01*
X148628019Y-104853704D01*
X147713733Y-104320371D02*
X147523257Y-104853704D01*
X147332780Y-104320371D01*
X146723257Y-104815609D02*
X146799447Y-104853704D01*
X146951828Y-104853704D01*
X147028019Y-104815609D01*
X147066114Y-104739419D01*
X147066114Y-104434657D01*
X147028019Y-104358466D01*
X146951828Y-104320371D01*
X146799447Y-104320371D01*
X146723257Y-104358466D01*
X146685161Y-104434657D01*
X146685161Y-104510847D01*
X147066114Y-104587038D01*
X146342304Y-104853704D02*
X146342304Y-104320371D01*
X146342304Y-104472752D02*
X146304209Y-104396561D01*
X146266114Y-104358466D01*
X146189923Y-104320371D01*
X146113733Y-104320371D01*
X145885161Y-104815609D02*
X145808971Y-104853704D01*
X145656590Y-104853704D01*
X145580400Y-104815609D01*
X145542304Y-104739419D01*
X145542304Y-104701323D01*
X145580400Y-104625133D01*
X145656590Y-104587038D01*
X145770876Y-104587038D01*
X145847066Y-104548942D01*
X145885161Y-104472752D01*
X145885161Y-104434657D01*
X145847066Y-104358466D01*
X145770876Y-104320371D01*
X145656590Y-104320371D01*
X145580400Y-104358466D01*
X145199447Y-104853704D02*
X145199447Y-104320371D01*
X145199447Y-104053704D02*
X145237542Y-104091800D01*
X145199447Y-104129895D01*
X145161352Y-104091800D01*
X145199447Y-104053704D01*
X145199447Y-104129895D01*
X144704209Y-104853704D02*
X144780400Y-104815609D01*
X144818495Y-104777514D01*
X144856590Y-104701323D01*
X144856590Y-104472752D01*
X144818495Y-104396561D01*
X144780400Y-104358466D01*
X144704209Y-104320371D01*
X144589923Y-104320371D01*
X144513733Y-104358466D01*
X144475638Y-104396561D01*
X144437542Y-104472752D01*
X144437542Y-104701323D01*
X144475638Y-104777514D01*
X144513733Y-104815609D01*
X144589923Y-104853704D01*
X144704209Y-104853704D01*
X144094685Y-104320371D02*
X144094685Y-104853704D01*
X144094685Y-104396561D02*
X144056590Y-104358466D01*
X143980400Y-104320371D01*
X143866114Y-104320371D01*
X143789923Y-104358466D01*
X143751828Y-104434657D01*
X143751828Y-104853704D01*
X151942304Y-106203704D02*
X151942304Y-105403704D01*
X151942304Y-105708466D02*
X151866114Y-105670371D01*
X151713733Y-105670371D01*
X151637542Y-105708466D01*
X151599447Y-105746561D01*
X151561352Y-105822752D01*
X151561352Y-106051323D01*
X151599447Y-106127514D01*
X151637542Y-106165609D01*
X151713733Y-106203704D01*
X151866114Y-106203704D01*
X151942304Y-106165609D01*
X151294685Y-105670371D02*
X151104209Y-106203704D01*
X150913733Y-105670371D02*
X151104209Y-106203704D01*
X151180400Y-106394180D01*
X151218495Y-106432276D01*
X151294685Y-106470371D01*
X149999447Y-106203704D02*
X149999447Y-105403704D01*
X149923257Y-105898942D02*
X149694685Y-106203704D01*
X149694685Y-105670371D02*
X149999447Y-105975133D01*
X149237542Y-106203704D02*
X149313733Y-106165609D01*
X149351828Y-106127514D01*
X149389923Y-106051323D01*
X149389923Y-105822752D01*
X149351828Y-105746561D01*
X149313733Y-105708466D01*
X149237542Y-105670371D01*
X149123257Y-105670371D01*
X149047066Y-105708466D01*
X149008971Y-105746561D01*
X148970876Y-105822752D01*
X148970876Y-106051323D01*
X149008971Y-106127514D01*
X149047066Y-106165609D01*
X149123257Y-106203704D01*
X149237542Y-106203704D01*
X148704209Y-105670371D02*
X148551828Y-106203704D01*
X148399447Y-105822752D01*
X148247066Y-106203704D01*
X148094685Y-105670371D01*
X147447066Y-106203704D02*
X147447066Y-105784657D01*
X147485161Y-105708466D01*
X147561352Y-105670371D01*
X147713733Y-105670371D01*
X147789923Y-105708466D01*
X147447066Y-106165609D02*
X147523257Y-106203704D01*
X147713733Y-106203704D01*
X147789923Y-106165609D01*
X147828019Y-106089419D01*
X147828019Y-106013228D01*
X147789923Y-105937038D01*
X147713733Y-105898942D01*
X147523257Y-105898942D01*
X147447066Y-105860847D01*
X146951828Y-106203704D02*
X147028019Y-106165609D01*
X147066114Y-106089419D01*
X147066114Y-105403704D01*
X146685161Y-106165609D02*
X146608971Y-106203704D01*
X146456590Y-106203704D01*
X146380400Y-106165609D01*
X146342304Y-106089419D01*
X146342304Y-106051323D01*
X146380400Y-105975133D01*
X146456590Y-105937038D01*
X146570876Y-105937038D01*
X146647066Y-105898942D01*
X146685161Y-105822752D01*
X146685161Y-105784657D01*
X146647066Y-105708466D01*
X146570876Y-105670371D01*
X146456590Y-105670371D01*
X146380400Y-105708466D01*
X145999447Y-106203704D02*
X145999447Y-105403704D01*
X145923257Y-105898942D02*
X145694685Y-106203704D01*
X145694685Y-105670371D02*
X145999447Y-105975133D01*
X145351828Y-106203704D02*
X145351828Y-105670371D01*
X145351828Y-105403704D02*
X145389923Y-105441800D01*
X145351828Y-105479895D01*
X145313733Y-105441800D01*
X145351828Y-105403704D01*
X145351828Y-105479895D01*
X145085161Y-105479895D02*
X144932780Y-105365609D01*
X144780400Y-105479895D01*
X144628019Y-105670371D02*
X144323257Y-105670371D01*
X144513733Y-105403704D02*
X144513733Y-106089419D01*
X144475638Y-106165609D01*
X144399447Y-106203704D01*
X144323257Y-106203704D01*
X143942304Y-106203704D02*
X144018495Y-106165609D01*
X144056590Y-106089419D01*
X144056590Y-105403704D01*
X152894685Y-107553704D02*
X152894685Y-107134657D01*
X152932780Y-107058466D01*
X153008971Y-107020371D01*
X153161352Y-107020371D01*
X153237542Y-107058466D01*
X152894685Y-107515609D02*
X152970876Y-107553704D01*
X153161352Y-107553704D01*
X153237542Y-107515609D01*
X153275638Y-107439419D01*
X153275638Y-107363228D01*
X153237542Y-107287038D01*
X153161352Y-107248942D01*
X152970876Y-107248942D01*
X152894685Y-107210847D01*
X152399447Y-107553704D02*
X152475638Y-107515609D01*
X152513733Y-107439419D01*
X152513733Y-106753704D01*
X151789923Y-107515609D02*
X151866114Y-107553704D01*
X152018495Y-107553704D01*
X152094685Y-107515609D01*
X152132780Y-107439419D01*
X152132780Y-107134657D01*
X152094685Y-107058466D01*
X152018495Y-107020371D01*
X151866114Y-107020371D01*
X151789923Y-107058466D01*
X151751828Y-107134657D01*
X151751828Y-107210847D01*
X152132780Y-107287038D01*
X151485161Y-107553704D02*
X151066114Y-107020371D01*
X151485161Y-107020371D02*
X151066114Y-107553704D01*
X150418495Y-107553704D02*
X150418495Y-107134657D01*
X150456590Y-107058466D01*
X150532780Y-107020371D01*
X150685161Y-107020371D01*
X150761352Y-107058466D01*
X150418495Y-107515609D02*
X150494685Y-107553704D01*
X150685161Y-107553704D01*
X150761352Y-107515609D01*
X150799447Y-107439419D01*
X150799447Y-107363228D01*
X150761352Y-107287038D01*
X150685161Y-107248942D01*
X150494685Y-107248942D01*
X150418495Y-107210847D01*
X150037542Y-107020371D02*
X150037542Y-107553704D01*
X150037542Y-107096561D02*
X149999447Y-107058466D01*
X149923257Y-107020371D01*
X149808971Y-107020371D01*
X149732780Y-107058466D01*
X149694685Y-107134657D01*
X149694685Y-107553704D01*
X148970876Y-107553704D02*
X148970876Y-106753704D01*
X148970876Y-107515609D02*
X149047066Y-107553704D01*
X149199447Y-107553704D01*
X149275638Y-107515609D01*
X149313733Y-107477514D01*
X149351828Y-107401323D01*
X149351828Y-107172752D01*
X149313733Y-107096561D01*
X149275638Y-107058466D01*
X149199447Y-107020371D01*
X149047066Y-107020371D01*
X148970876Y-107058466D01*
X148285161Y-107515609D02*
X148361352Y-107553704D01*
X148513733Y-107553704D01*
X148589923Y-107515609D01*
X148628019Y-107439419D01*
X148628019Y-107134657D01*
X148589923Y-107058466D01*
X148513733Y-107020371D01*
X148361352Y-107020371D01*
X148285161Y-107058466D01*
X148247066Y-107134657D01*
X148247066Y-107210847D01*
X148628019Y-107287038D01*
X147904209Y-107553704D02*
X147904209Y-107020371D01*
X147904209Y-107172752D02*
X147866114Y-107096561D01*
X147828019Y-107058466D01*
X147751828Y-107020371D01*
X147675638Y-107020371D01*
X147408971Y-107553704D02*
X147408971Y-106753704D01*
X147332780Y-107248942D02*
X147104209Y-107553704D01*
X147104209Y-107020371D02*
X147408971Y-107325133D01*
X146761352Y-107477514D02*
X146723257Y-107515609D01*
X146761352Y-107553704D01*
X146799447Y-107515609D01*
X146761352Y-107477514D01*
X146761352Y-107553704D01*
X146380400Y-107553704D02*
X146380400Y-107020371D01*
X146380400Y-107172752D02*
X146342304Y-107096561D01*
X146304209Y-107058466D01*
X146228019Y-107020371D01*
X146151828Y-107020371D01*
X145542304Y-107020371D02*
X145542304Y-107553704D01*
X145885161Y-107020371D02*
X145885161Y-107439419D01*
X145847066Y-107515609D01*
X145770876Y-107553704D01*
X145656590Y-107553704D01*
X145580400Y-107515609D01*
X145542304Y-107477514D01*
X144589923Y-106715609D02*
X145275638Y-107744180D01*
X143980400Y-107553704D02*
X143980400Y-107134657D01*
X144018495Y-107058466D01*
X144094685Y-107020371D01*
X144247066Y-107020371D01*
X144323257Y-107058466D01*
X143980400Y-107515609D02*
X144056590Y-107553704D01*
X144247066Y-107553704D01*
X144323257Y-107515609D01*
X144361352Y-107439419D01*
X144361352Y-107363228D01*
X144323257Y-107287038D01*
X144247066Y-107248942D01*
X144056590Y-107248942D01*
X143980400Y-107210847D01*
X143675638Y-107020371D02*
X143485161Y-107553704D01*
X143294685Y-107020371D02*
X143485161Y-107553704D01*
X143561352Y-107744180D01*
X143599447Y-107782276D01*
X143675638Y-107820371D01*
X143066114Y-107553704D02*
X142647066Y-107020371D01*
X143066114Y-107020371D02*
X142647066Y-107553704D01*
X152539133Y-100880580D02*
X152615323Y-100842485D01*
X152767704Y-100842485D01*
X152843895Y-100880580D01*
X152920085Y-100956771D01*
X152958180Y-101032961D01*
X152958180Y-101185342D01*
X152920085Y-101261533D01*
X152843895Y-101337723D01*
X152767704Y-101375819D01*
X152615323Y-101375819D01*
X152539133Y-101337723D01*
X152691514Y-100575819D02*
X152881990Y-100613914D01*
X153072466Y-100728200D01*
X153186752Y-100918676D01*
X153224847Y-101109152D01*
X153186752Y-101299628D01*
X153072466Y-101490104D01*
X152881990Y-101604390D01*
X152691514Y-101642485D01*
X152501038Y-101604390D01*
X152310561Y-101490104D01*
X152196276Y-101299628D01*
X152158180Y-101109152D01*
X152196276Y-100918676D01*
X152310561Y-100728200D01*
X152501038Y-100613914D01*
X152691514Y-100575819D01*
X151243895Y-100766295D02*
X151205800Y-100728200D01*
X151129609Y-100690104D01*
X150939133Y-100690104D01*
X150862942Y-100728200D01*
X150824847Y-100766295D01*
X150786752Y-100842485D01*
X150786752Y-100918676D01*
X150824847Y-101032961D01*
X151281990Y-101490104D01*
X150786752Y-101490104D01*
X150291514Y-100690104D02*
X150215323Y-100690104D01*
X150139133Y-100728200D01*
X150101038Y-100766295D01*
X150062942Y-100842485D01*
X150024847Y-100994866D01*
X150024847Y-101185342D01*
X150062942Y-101337723D01*
X150101038Y-101413914D01*
X150139133Y-101452009D01*
X150215323Y-101490104D01*
X150291514Y-101490104D01*
X150367704Y-101452009D01*
X150405800Y-101413914D01*
X150443895Y-101337723D01*
X150481990Y-101185342D01*
X150481990Y-100994866D01*
X150443895Y-100842485D01*
X150405800Y-100766295D01*
X150367704Y-100728200D01*
X150291514Y-100690104D01*
X149262942Y-101490104D02*
X149720085Y-101490104D01*
X149491514Y-101490104D02*
X149491514Y-100690104D01*
X149567704Y-100804390D01*
X149643895Y-100880580D01*
X149720085Y-100918676D01*
X148805800Y-101032961D02*
X148881990Y-100994866D01*
X148920085Y-100956771D01*
X148958180Y-100880580D01*
X148958180Y-100842485D01*
X148920085Y-100766295D01*
X148881990Y-100728200D01*
X148805800Y-100690104D01*
X148653419Y-100690104D01*
X148577228Y-100728200D01*
X148539133Y-100766295D01*
X148501038Y-100842485D01*
X148501038Y-100880580D01*
X148539133Y-100956771D01*
X148577228Y-100994866D01*
X148653419Y-101032961D01*
X148805800Y-101032961D01*
X148881990Y-101071057D01*
X148920085Y-101109152D01*
X148958180Y-101185342D01*
X148958180Y-101337723D01*
X148920085Y-101413914D01*
X148881990Y-101452009D01*
X148805800Y-101490104D01*
X148653419Y-101490104D01*
X148577228Y-101452009D01*
X148539133Y-101413914D01*
X148501038Y-101337723D01*
X148501038Y-101185342D01*
X148539133Y-101109152D01*
X148577228Y-101071057D01*
X148653419Y-101032961D01*
X147662942Y-100690104D02*
X147205800Y-100690104D01*
X147434371Y-101490104D02*
X147434371Y-100690104D01*
X146977228Y-101452009D02*
X146862942Y-101490104D01*
X146672466Y-101490104D01*
X146596276Y-101452009D01*
X146558180Y-101413914D01*
X146520085Y-101337723D01*
X146520085Y-101261533D01*
X146558180Y-101185342D01*
X146596276Y-101147247D01*
X146672466Y-101109152D01*
X146824847Y-101071057D01*
X146901038Y-101032961D01*
X146939133Y-100994866D01*
X146977228Y-100918676D01*
X146977228Y-100842485D01*
X146939133Y-100766295D01*
X146901038Y-100728200D01*
X146824847Y-100690104D01*
X146634371Y-100690104D01*
X146520085Y-100728200D01*
X146177228Y-101185342D02*
X145567704Y-101185342D01*
X144805800Y-101490104D02*
X145186752Y-101490104D01*
X145186752Y-100690104D01*
X144196276Y-101490104D02*
X144196276Y-101071057D01*
X144234371Y-100994866D01*
X144310561Y-100956771D01*
X144462942Y-100956771D01*
X144539133Y-100994866D01*
X144196276Y-101452009D02*
X144272466Y-101490104D01*
X144462942Y-101490104D01*
X144539133Y-101452009D01*
X144577228Y-101375819D01*
X144577228Y-101299628D01*
X144539133Y-101223438D01*
X144462942Y-101185342D01*
X144272466Y-101185342D01*
X144196276Y-101147247D01*
X143815323Y-101490104D02*
X143815323Y-100690104D01*
X143815323Y-100994866D02*
X143739133Y-100956771D01*
X143586752Y-100956771D01*
X143510561Y-100994866D01*
X143472466Y-101032961D01*
X143434371Y-101109152D01*
X143434371Y-101337723D01*
X143472466Y-101413914D01*
X143510561Y-101452009D01*
X143586752Y-101490104D01*
X143739133Y-101490104D01*
X143815323Y-101452009D01*
X143129609Y-101452009D02*
X143053419Y-101490104D01*
X142901038Y-101490104D01*
X142824847Y-101452009D01*
X142786752Y-101375819D01*
X142786752Y-101337723D01*
X142824847Y-101261533D01*
X142901038Y-101223438D01*
X143015323Y-101223438D01*
X143091514Y-101185342D01*
X143129609Y-101109152D01*
X143129609Y-101071057D01*
X143091514Y-100994866D01*
X143015323Y-100956771D01*
X142901038Y-100956771D01*
X142824847Y-100994866D01*
X152996276Y-102306771D02*
X152691514Y-102306771D01*
X152881990Y-102840104D02*
X152881990Y-102154390D01*
X152843895Y-102078200D01*
X152767704Y-102040104D01*
X152691514Y-102040104D01*
X152310561Y-102840104D02*
X152386752Y-102802009D01*
X152424847Y-102763914D01*
X152462942Y-102687723D01*
X152462942Y-102459152D01*
X152424847Y-102382961D01*
X152386752Y-102344866D01*
X152310561Y-102306771D01*
X152196276Y-102306771D01*
X152120085Y-102344866D01*
X152081990Y-102382961D01*
X152043895Y-102459152D01*
X152043895Y-102687723D01*
X152081990Y-102763914D01*
X152120085Y-102802009D01*
X152196276Y-102840104D01*
X152310561Y-102840104D01*
X151701038Y-102840104D02*
X151701038Y-102306771D01*
X151701038Y-102459152D02*
X151662942Y-102382961D01*
X151624847Y-102344866D01*
X151548657Y-102306771D01*
X151472466Y-102306771D01*
X150862942Y-102306771D02*
X150862942Y-102840104D01*
X151205800Y-102306771D02*
X151205800Y-102725819D01*
X151167704Y-102802009D01*
X151091514Y-102840104D01*
X150977228Y-102840104D01*
X150901038Y-102802009D01*
X150862942Y-102763914D01*
X150481990Y-102840104D02*
X150481990Y-102306771D01*
X150481990Y-102382961D02*
X150443895Y-102344866D01*
X150367704Y-102306771D01*
X150253419Y-102306771D01*
X150177228Y-102344866D01*
X150139133Y-102421057D01*
X150139133Y-102840104D01*
X150139133Y-102421057D02*
X150101038Y-102344866D01*
X150024847Y-102306771D01*
X149910561Y-102306771D01*
X149834371Y-102344866D01*
X149796276Y-102421057D01*
X149796276Y-102840104D01*
X149415323Y-102763914D02*
X149377228Y-102802009D01*
X149415323Y-102840104D01*
X149453419Y-102802009D01*
X149415323Y-102763914D01*
X149415323Y-102840104D01*
X149148657Y-102306771D02*
X148843895Y-102306771D01*
X149034371Y-102040104D02*
X149034371Y-102725819D01*
X148996276Y-102802009D01*
X148920085Y-102840104D01*
X148843895Y-102840104D01*
X148615323Y-102802009D02*
X148539133Y-102840104D01*
X148386752Y-102840104D01*
X148310561Y-102802009D01*
X148272466Y-102725819D01*
X148272466Y-102687723D01*
X148310561Y-102611533D01*
X148386752Y-102573438D01*
X148501038Y-102573438D01*
X148577228Y-102535342D01*
X148615323Y-102459152D01*
X148615323Y-102421057D01*
X148577228Y-102344866D01*
X148501038Y-102306771D01*
X148386752Y-102306771D01*
X148310561Y-102344866D01*
X147815323Y-102840104D02*
X147891514Y-102802009D01*
X147929609Y-102725819D01*
X147929609Y-102040104D01*
X147167704Y-102840104D02*
X147167704Y-102421057D01*
X147205800Y-102344866D01*
X147281990Y-102306771D01*
X147434371Y-102306771D01*
X147510561Y-102344866D01*
X147167704Y-102802009D02*
X147243895Y-102840104D01*
X147434371Y-102840104D01*
X147510561Y-102802009D01*
X147548657Y-102725819D01*
X147548657Y-102649628D01*
X147510561Y-102573438D01*
X147434371Y-102535342D01*
X147243895Y-102535342D01*
X147167704Y-102497247D01*
X146786752Y-102840104D02*
X146786752Y-102040104D01*
X146786752Y-102344866D02*
X146710561Y-102306771D01*
X146558180Y-102306771D01*
X146481990Y-102344866D01*
X146443895Y-102382961D01*
X146405800Y-102459152D01*
X146405800Y-102687723D01*
X146443895Y-102763914D01*
X146481990Y-102802009D01*
X146558180Y-102840104D01*
X146710561Y-102840104D01*
X146786752Y-102802009D01*
X146101038Y-102802009D02*
X146024847Y-102840104D01*
X145872466Y-102840104D01*
X145796276Y-102802009D01*
X145758180Y-102725819D01*
X145758180Y-102687723D01*
X145796276Y-102611533D01*
X145872466Y-102573438D01*
X145986752Y-102573438D01*
X146062942Y-102535342D01*
X146101038Y-102459152D01*
X146101038Y-102421057D01*
X146062942Y-102344866D01*
X145986752Y-102306771D01*
X145872466Y-102306771D01*
X145796276Y-102344866D01*
X145415323Y-102763914D02*
X145377228Y-102802009D01*
X145415323Y-102840104D01*
X145453419Y-102802009D01*
X145415323Y-102763914D01*
X145415323Y-102840104D01*
X145034371Y-102840104D02*
X145034371Y-102306771D01*
X145034371Y-102040104D02*
X145072466Y-102078200D01*
X145034371Y-102116295D01*
X144996276Y-102078200D01*
X145034371Y-102040104D01*
X145034371Y-102116295D01*
X144653419Y-102306771D02*
X144653419Y-102840104D01*
X144653419Y-102382961D02*
X144615323Y-102344866D01*
X144539133Y-102306771D01*
X144424847Y-102306771D01*
X144348657Y-102344866D01*
X144310561Y-102421057D01*
X144310561Y-102840104D01*
X144043895Y-102306771D02*
X143739133Y-102306771D01*
X143929609Y-102840104D02*
X143929609Y-102154390D01*
X143891514Y-102078200D01*
X143815323Y-102040104D01*
X143739133Y-102040104D01*
X143358180Y-102840104D02*
X143434371Y-102802009D01*
X143472466Y-102763914D01*
X143510561Y-102687723D01*
X143510561Y-102459152D01*
X143472466Y-102382961D01*
X143434371Y-102344866D01*
X143358180Y-102306771D01*
X143243895Y-102306771D01*
X143167704Y-102344866D01*
X143129609Y-102382961D01*
X143091514Y-102459152D01*
X143091514Y-102687723D01*
X143129609Y-102763914D01*
X143167704Y-102802009D01*
X143243895Y-102840104D01*
X143358180Y-102840104D01*
D12*
X151017657Y-98836533D02*
X150422419Y-98836533D01*
X151136704Y-99193676D02*
X150720038Y-97943676D01*
X150303371Y-99193676D01*
X149648609Y-98598438D02*
X149648609Y-99193676D01*
X150065276Y-97943676D02*
X149648609Y-98598438D01*
X149231942Y-97943676D01*
X148934323Y-97943676D02*
X148100990Y-99193676D01*
X148100990Y-97943676D02*
X148934323Y-99193676D01*
X147624800Y-98717485D02*
X146672419Y-98717485D01*
X146196228Y-97943676D02*
X145422419Y-97943676D01*
X145839085Y-98419866D01*
X145660514Y-98419866D01*
X145541466Y-98479390D01*
X145481942Y-98538914D01*
X145422419Y-98657961D01*
X145422419Y-98955580D01*
X145481942Y-99074628D01*
X145541466Y-99134152D01*
X145660514Y-99193676D01*
X146017657Y-99193676D01*
X146136704Y-99134152D01*
X146196228Y-99074628D01*
X144946228Y-98062723D02*
X144886704Y-98003200D01*
X144767657Y-97943676D01*
X144470038Y-97943676D01*
X144350990Y-98003200D01*
X144291466Y-98062723D01*
X144231942Y-98181771D01*
X144231942Y-98300819D01*
X144291466Y-98479390D01*
X145005752Y-99193676D01*
X144231942Y-99193676D01*
D10*
X142824200Y-93167200D02*
X142824200Y-87909400D01*
D11*
X146939000Y-84328000D02*
G75*
G03X148971000Y-84328000I1016000J0D01*
G01*
X146939000Y-84328000D02*
X139954000Y-84328000D01*
X155829000Y-121417761D02*
G75*
G03X157226000Y-120142000I0J1402761D01*
G01*
X138684000Y-120142000D02*
G75*
G03X139954000Y-121412000I1270000J0D01*
G01*
X157226000Y-85598000D02*
G75*
G03X155956000Y-84328000I-1270000J0D01*
G01*
X139954000Y-84328000D02*
G75*
G03X138684000Y-85598000I0J-1270000D01*
G01*
X138684000Y-120142000D02*
X138684000Y-85598000D01*
X155829000Y-121412000D02*
X139954000Y-121412000D01*
X157226000Y-85598000D02*
X157226000Y-120142000D01*
X148971000Y-84328000D02*
X155956000Y-84328000D01*
D13*
G04 #@! TO.C,R6*
X145450000Y-91776000D02*
X144450000Y-91776000D01*
X144450000Y-93136000D02*
X145450000Y-93136000D01*
G04 #@! TO.C,R7*
X145450000Y-89871000D02*
X144450000Y-89871000D01*
X144450000Y-91231000D02*
X145450000Y-91231000D01*
G04 #@! TO.C,R8*
X145450000Y-87966000D02*
X144450000Y-87966000D01*
X144450000Y-89326000D02*
X145450000Y-89326000D01*
G04 #@! TO.C,R9*
X146650000Y-89326000D02*
X147650000Y-89326000D01*
X147650000Y-87966000D02*
X146650000Y-87966000D01*
G04 #@! TO.C,R10*
X146650000Y-93136000D02*
X147650000Y-93136000D01*
X147650000Y-91776000D02*
X146650000Y-91776000D01*
G04 #@! TO.C,R11*
X146650000Y-91231000D02*
X147650000Y-91231000D01*
X147650000Y-89871000D02*
X146650000Y-89871000D01*
G04 #@! TO.C,D1*
X149800000Y-86168000D02*
X147000000Y-86168000D01*
X149800000Y-87568000D02*
X147000000Y-87568000D01*
X149800000Y-86168000D02*
X149800000Y-87568000D01*
G04 #@! TO.C,R12*
X143500000Y-86880000D02*
X144500000Y-86880000D01*
X144500000Y-85520000D02*
X143500000Y-85520000D01*
G04 #@! TD*
G04 #@! TO.C,R6*
D14*
X145138752Y-92363933D02*
X144948276Y-92230600D01*
X145138752Y-92135361D02*
X144738752Y-92135361D01*
X144738752Y-92287742D01*
X144757800Y-92325838D01*
X144776847Y-92344885D01*
X144814942Y-92363933D01*
X144872085Y-92363933D01*
X144910180Y-92344885D01*
X144929228Y-92325838D01*
X144948276Y-92287742D01*
X144948276Y-92135361D01*
X144738752Y-92706790D02*
X144738752Y-92630600D01*
X144757800Y-92592504D01*
X144776847Y-92573457D01*
X144833990Y-92535361D01*
X144910180Y-92516314D01*
X145062561Y-92516314D01*
X145100657Y-92535361D01*
X145119704Y-92554409D01*
X145138752Y-92592504D01*
X145138752Y-92668695D01*
X145119704Y-92706790D01*
X145100657Y-92725838D01*
X145062561Y-92744885D01*
X144967323Y-92744885D01*
X144929228Y-92725838D01*
X144910180Y-92706790D01*
X144891133Y-92668695D01*
X144891133Y-92592504D01*
X144910180Y-92554409D01*
X144929228Y-92535361D01*
X144967323Y-92516314D01*
G04 #@! TO.C,R7*
X145113352Y-90509733D02*
X144922876Y-90376400D01*
X145113352Y-90281161D02*
X144713352Y-90281161D01*
X144713352Y-90433542D01*
X144732400Y-90471638D01*
X144751447Y-90490685D01*
X144789542Y-90509733D01*
X144846685Y-90509733D01*
X144884780Y-90490685D01*
X144903828Y-90471638D01*
X144922876Y-90433542D01*
X144922876Y-90281161D01*
X144713352Y-90643066D02*
X144713352Y-90909733D01*
X145113352Y-90738304D01*
G04 #@! TO.C,R8*
X145113352Y-88604733D02*
X144922876Y-88471400D01*
X145113352Y-88376161D02*
X144713352Y-88376161D01*
X144713352Y-88528542D01*
X144732400Y-88566638D01*
X144751447Y-88585685D01*
X144789542Y-88604733D01*
X144846685Y-88604733D01*
X144884780Y-88585685D01*
X144903828Y-88566638D01*
X144922876Y-88528542D01*
X144922876Y-88376161D01*
X144884780Y-88833304D02*
X144865733Y-88795209D01*
X144846685Y-88776161D01*
X144808590Y-88757114D01*
X144789542Y-88757114D01*
X144751447Y-88776161D01*
X144732400Y-88795209D01*
X144713352Y-88833304D01*
X144713352Y-88909495D01*
X144732400Y-88947590D01*
X144751447Y-88966638D01*
X144789542Y-88985685D01*
X144808590Y-88985685D01*
X144846685Y-88966638D01*
X144865733Y-88947590D01*
X144884780Y-88909495D01*
X144884780Y-88833304D01*
X144903828Y-88795209D01*
X144922876Y-88776161D01*
X144960971Y-88757114D01*
X145037161Y-88757114D01*
X145075257Y-88776161D01*
X145094304Y-88795209D01*
X145113352Y-88833304D01*
X145113352Y-88909495D01*
X145094304Y-88947590D01*
X145075257Y-88966638D01*
X145037161Y-88985685D01*
X144960971Y-88985685D01*
X144922876Y-88966638D01*
X144903828Y-88947590D01*
X144884780Y-88909495D01*
G04 #@! TO.C,R9*
X147348552Y-88579333D02*
X147158076Y-88446000D01*
X147348552Y-88350761D02*
X146948552Y-88350761D01*
X146948552Y-88503142D01*
X146967600Y-88541238D01*
X146986647Y-88560285D01*
X147024742Y-88579333D01*
X147081885Y-88579333D01*
X147119980Y-88560285D01*
X147139028Y-88541238D01*
X147158076Y-88503142D01*
X147158076Y-88350761D01*
X147348552Y-88769809D02*
X147348552Y-88846000D01*
X147329504Y-88884095D01*
X147310457Y-88903142D01*
X147253314Y-88941238D01*
X147177123Y-88960285D01*
X147024742Y-88960285D01*
X146986647Y-88941238D01*
X146967600Y-88922190D01*
X146948552Y-88884095D01*
X146948552Y-88807904D01*
X146967600Y-88769809D01*
X146986647Y-88750761D01*
X147024742Y-88731714D01*
X147119980Y-88731714D01*
X147158076Y-88750761D01*
X147177123Y-88769809D01*
X147196171Y-88807904D01*
X147196171Y-88884095D01*
X147177123Y-88922190D01*
X147158076Y-88941238D01*
X147119980Y-88960285D01*
G04 #@! TO.C,R10*
X147373952Y-92198857D02*
X147183476Y-92065523D01*
X147373952Y-91970285D02*
X146973952Y-91970285D01*
X146973952Y-92122666D01*
X146993000Y-92160761D01*
X147012047Y-92179809D01*
X147050142Y-92198857D01*
X147107285Y-92198857D01*
X147145380Y-92179809D01*
X147164428Y-92160761D01*
X147183476Y-92122666D01*
X147183476Y-91970285D01*
X147373952Y-92579809D02*
X147373952Y-92351238D01*
X147373952Y-92465523D02*
X146973952Y-92465523D01*
X147031095Y-92427428D01*
X147069190Y-92389333D01*
X147088238Y-92351238D01*
X146973952Y-92827428D02*
X146973952Y-92865523D01*
X146993000Y-92903619D01*
X147012047Y-92922666D01*
X147050142Y-92941714D01*
X147126333Y-92960761D01*
X147221571Y-92960761D01*
X147297761Y-92941714D01*
X147335857Y-92922666D01*
X147354904Y-92903619D01*
X147373952Y-92865523D01*
X147373952Y-92827428D01*
X147354904Y-92789333D01*
X147335857Y-92770285D01*
X147297761Y-92751238D01*
X147221571Y-92732190D01*
X147126333Y-92732190D01*
X147050142Y-92751238D01*
X147012047Y-92770285D01*
X146993000Y-92789333D01*
X146973952Y-92827428D01*
G04 #@! TO.C,R11*
X147373952Y-90268457D02*
X147183476Y-90135123D01*
X147373952Y-90039885D02*
X146973952Y-90039885D01*
X146973952Y-90192266D01*
X146993000Y-90230361D01*
X147012047Y-90249409D01*
X147050142Y-90268457D01*
X147107285Y-90268457D01*
X147145380Y-90249409D01*
X147164428Y-90230361D01*
X147183476Y-90192266D01*
X147183476Y-90039885D01*
X147373952Y-90649409D02*
X147373952Y-90420838D01*
X147373952Y-90535123D02*
X146973952Y-90535123D01*
X147031095Y-90497028D01*
X147069190Y-90458933D01*
X147088238Y-90420838D01*
X147373952Y-91030361D02*
X147373952Y-90801790D01*
X147373952Y-90916076D02*
X146973952Y-90916076D01*
X147031095Y-90877980D01*
X147069190Y-90839885D01*
X147088238Y-90801790D01*
G04 #@! TO.C,D1*
X148186752Y-86572761D02*
X147786752Y-86572761D01*
X147786752Y-86668000D01*
X147805800Y-86725142D01*
X147843895Y-86763238D01*
X147881990Y-86782285D01*
X147958180Y-86801333D01*
X148015323Y-86801333D01*
X148091514Y-86782285D01*
X148129609Y-86763238D01*
X148167704Y-86725142D01*
X148186752Y-86668000D01*
X148186752Y-86572761D01*
X148186752Y-87182285D02*
X148186752Y-86953714D01*
X148186752Y-87068000D02*
X147786752Y-87068000D01*
X147843895Y-87029904D01*
X147881990Y-86991809D01*
X147901038Y-86953714D01*
G04 #@! TO.C,R12*
X144180952Y-85950457D02*
X143990476Y-85817123D01*
X144180952Y-85721885D02*
X143780952Y-85721885D01*
X143780952Y-85874266D01*
X143800000Y-85912361D01*
X143819047Y-85931409D01*
X143857142Y-85950457D01*
X143914285Y-85950457D01*
X143952380Y-85931409D01*
X143971428Y-85912361D01*
X143990476Y-85874266D01*
X143990476Y-85721885D01*
X144180952Y-86331409D02*
X144180952Y-86102838D01*
X144180952Y-86217123D02*
X143780952Y-86217123D01*
X143838095Y-86179028D01*
X143876190Y-86140933D01*
X143895238Y-86102838D01*
X143819047Y-86483790D02*
X143800000Y-86502838D01*
X143780952Y-86540933D01*
X143780952Y-86636171D01*
X143800000Y-86674266D01*
X143819047Y-86693314D01*
X143857142Y-86712361D01*
X143895238Y-86712361D01*
X143952380Y-86693314D01*
X144180952Y-86464742D01*
X144180952Y-86712361D01*
G04 #@! TD*
%LPC*%
D15*
G04 #@! TO.C,U2*
X155575000Y-86360000D03*
X140335000Y-119380000D03*
X155575000Y-88900000D03*
X140335000Y-116840000D03*
X155575000Y-91440000D03*
X140335000Y-114300000D03*
X155575000Y-93980000D03*
X140335000Y-111760000D03*
X155575000Y-96520000D03*
X140335000Y-109220000D03*
X155575000Y-99060000D03*
X140335000Y-106680000D03*
X155575000Y-101600000D03*
X140335000Y-104140000D03*
X155575000Y-104140000D03*
X140335000Y-101600000D03*
X155575000Y-106680000D03*
X140335000Y-99060000D03*
X155575000Y-109220000D03*
X140335000Y-96520000D03*
X155575000Y-111760000D03*
X140335000Y-93980000D03*
X155575000Y-114300000D03*
X140335000Y-91440000D03*
X155575000Y-116840000D03*
X140335000Y-88900000D03*
X155575000Y-119380000D03*
D16*
X140335000Y-86360000D03*
G04 #@! TD*
D17*
G04 #@! TO.C,J2*
X142875000Y-119380000D03*
X145415000Y-119380000D03*
X147955000Y-119380000D03*
X150495000Y-119380000D03*
D18*
X153035000Y-119380000D03*
G04 #@! TD*
D19*
G04 #@! TO.C,R6*
X143850000Y-92456000D03*
X146050000Y-92456000D03*
G04 #@! TD*
G04 #@! TO.C,R7*
X143850000Y-90551000D03*
X146050000Y-90551000D03*
G04 #@! TD*
G04 #@! TO.C,R8*
X143850000Y-88646000D03*
X146050000Y-88646000D03*
G04 #@! TD*
G04 #@! TO.C,R9*
X148250000Y-88646000D03*
X146050000Y-88646000D03*
G04 #@! TD*
G04 #@! TO.C,R10*
X148250000Y-92456000D03*
X146050000Y-92456000D03*
G04 #@! TD*
G04 #@! TO.C,R11*
X148250000Y-90551000D03*
X146050000Y-90551000D03*
G04 #@! TD*
D20*
G04 #@! TO.C,JP1*
X144627600Y-116840000D03*
D21*
X142627600Y-116840000D03*
G04 #@! TD*
D22*
G04 #@! TO.C,D1*
X149100000Y-86868000D03*
X146900000Y-86868000D03*
G04 #@! TD*
D23*
G04 #@! TO.C,R12*
X144750000Y-86200000D03*
X143250000Y-86200000D03*
G04 #@! TD*
D24*
G04 #@! TO.C,Y1*
X147218400Y-109575600D03*
X145718400Y-109575600D03*
G04 #@! TD*
M02*
