G04 #@! TF.GenerationSoftware,KiCad,Pcbnew,(5.1.2-1)-1*
G04 #@! TF.CreationDate,2019-06-12T16:50:37+03:00*
G04 #@! TF.ProjectId,ayx,6179782e-6b69-4636-9164-5f7063625858,rev?*
G04 #@! TF.SameCoordinates,Original*
G04 #@! TF.FileFunction,Copper,L1,Top*
G04 #@! TF.FilePolarity,Positive*
%FSLAX46Y46*%
G04 Gerber Fmt 4.6, Leading zero omitted, Abs format (unit mm)*
G04 Created by KiCad (PCBNEW (5.1.2-1)-1) date 2019-06-12 16:50:37*
%MOMM*%
%LPD*%
G04 APERTURE LIST*
%ADD10R,1.600000X1.600000*%
%ADD11O,1.600000X1.600000*%
%ADD12R,0.750000X0.800000*%
%ADD13R,1.000000X0.250000*%
%ADD14R,0.250000X1.000000*%
%ADD15O,1.700000X1.700000*%
%ADD16R,1.700000X1.700000*%
%ADD17R,0.650000X1.060000*%
%ADD18R,0.900000X0.500000*%
%ADD19R,0.500000X0.900000*%
%ADD20R,0.800000X0.750000*%
%ADD21O,1.350000X1.350000*%
%ADD22R,1.350000X1.350000*%
%ADD23C,1.000000*%
%ADD24C,0.600000*%
%ADD25C,0.300000*%
%ADD26C,0.250000*%
G04 APERTURE END LIST*
D10*
X140335000Y-86360000D03*
D11*
X155575000Y-119380000D03*
X140335000Y-88900000D03*
X155575000Y-116840000D03*
X140335000Y-91440000D03*
X155575000Y-114300000D03*
X140335000Y-93980000D03*
X155575000Y-111760000D03*
X140335000Y-96520000D03*
X155575000Y-109220000D03*
X140335000Y-99060000D03*
X155575000Y-106680000D03*
X140335000Y-101600000D03*
X155575000Y-104140000D03*
X140335000Y-104140000D03*
X155575000Y-101600000D03*
X140335000Y-106680000D03*
X155575000Y-99060000D03*
X140335000Y-109220000D03*
X155575000Y-96520000D03*
X140335000Y-111760000D03*
X155575000Y-93980000D03*
X140335000Y-114300000D03*
X155575000Y-91440000D03*
X140335000Y-116840000D03*
X155575000Y-88900000D03*
X140335000Y-119380000D03*
X155575000Y-86360000D03*
D12*
X147955000Y-87654000D03*
X147955000Y-89154000D03*
D13*
X142270000Y-105823400D03*
X142270000Y-105323400D03*
X142270000Y-104823400D03*
X142270000Y-104323400D03*
X142270000Y-103823400D03*
X142270000Y-103323400D03*
X142270000Y-102823400D03*
X142270000Y-102323400D03*
X142270000Y-101823400D03*
X142270000Y-101323400D03*
X142270000Y-100823400D03*
X142270000Y-100323400D03*
X142270000Y-99823400D03*
X142270000Y-99323400D03*
X142270000Y-98823400D03*
X142270000Y-98323400D03*
D14*
X144220000Y-96373400D03*
X144720000Y-96373400D03*
X145220000Y-96373400D03*
X145720000Y-96373400D03*
X146220000Y-96373400D03*
X146720000Y-96373400D03*
X147220000Y-96373400D03*
X147720000Y-96373400D03*
X148220000Y-96373400D03*
X148720000Y-96373400D03*
X149220000Y-96373400D03*
X149720000Y-96373400D03*
X150220000Y-96373400D03*
X150720000Y-96373400D03*
X151220000Y-96373400D03*
X151720000Y-96373400D03*
D13*
X153670000Y-98323400D03*
X153670000Y-98823400D03*
X153670000Y-99323400D03*
X153670000Y-99823400D03*
X153670000Y-100323400D03*
X153670000Y-100823400D03*
X153670000Y-101323400D03*
X153670000Y-101823400D03*
X153670000Y-102323400D03*
X153670000Y-102823400D03*
X153670000Y-103323400D03*
X153670000Y-103823400D03*
X153670000Y-104323400D03*
X153670000Y-104823400D03*
X153670000Y-105323400D03*
X153670000Y-105823400D03*
D14*
X151720000Y-107773400D03*
X151220000Y-107773400D03*
X150720000Y-107773400D03*
X150220000Y-107773400D03*
X149720000Y-107773400D03*
X149220000Y-107773400D03*
X148720000Y-107773400D03*
X148220000Y-107773400D03*
X147720000Y-107773400D03*
X147220000Y-107773400D03*
X146720000Y-107773400D03*
X146220000Y-107773400D03*
X145720000Y-107773400D03*
X145220000Y-107773400D03*
X144720000Y-107773400D03*
X144220000Y-107773400D03*
D15*
X142875000Y-119380000D03*
X145415000Y-119380000D03*
X147955000Y-119380000D03*
X150495000Y-119380000D03*
D16*
X153035000Y-119380000D03*
D17*
X146304000Y-89154000D03*
X144404000Y-89154000D03*
X144404000Y-86954000D03*
X145354000Y-86954000D03*
X146304000Y-86954000D03*
X153096000Y-89154000D03*
X151196000Y-89154000D03*
X151196000Y-86954000D03*
X152146000Y-86954000D03*
X153096000Y-86954000D03*
D12*
X142875000Y-87884000D03*
X142875000Y-86384000D03*
X144068800Y-111075600D03*
X144068800Y-109575600D03*
X148844000Y-111075600D03*
X148844000Y-109575600D03*
X153619200Y-93115000D03*
X153619200Y-94615000D03*
X145415000Y-93115000D03*
X145415000Y-94615000D03*
X153352500Y-108077000D03*
X153352500Y-109577000D03*
X150317200Y-109575600D03*
X150317200Y-111075600D03*
X142875000Y-90932000D03*
X142875000Y-89432000D03*
X149542500Y-89154000D03*
X149542500Y-87654000D03*
D18*
X144068800Y-112838800D03*
X144068800Y-114338800D03*
D19*
X152170000Y-117475000D03*
X153670000Y-117475000D03*
X152170000Y-115570000D03*
X153670000Y-115570000D03*
X152170000Y-111760000D03*
X153670000Y-111760000D03*
X152170000Y-113665000D03*
X153670000Y-113665000D03*
D12*
X143510000Y-93115000D03*
X143510000Y-94615000D03*
X142519400Y-109575600D03*
X142519400Y-108075600D03*
D20*
X144804000Y-90932000D03*
X146304000Y-90932000D03*
X151469000Y-90866000D03*
X152969000Y-90866000D03*
D12*
X151765000Y-94640400D03*
X151765000Y-93140400D03*
D21*
X144627600Y-116840000D03*
D22*
X142627600Y-116840000D03*
D23*
X147218400Y-109575600D03*
X145718400Y-109575600D03*
D24*
X152031449Y-91803449D03*
X151370743Y-109549891D03*
X150289108Y-86490942D03*
X141833600Y-90906600D03*
X154533600Y-108102400D03*
X156235400Y-113030000D03*
X146456400Y-114274600D03*
X154025600Y-91744800D03*
X146558000Y-93980000D03*
X147320000Y-98298000D03*
X147965401Y-97673401D03*
X150317198Y-112801400D03*
X146844816Y-102043375D03*
X144946640Y-97362973D03*
X147157727Y-106882748D03*
X146149210Y-103181824D03*
X148539200Y-116408200D03*
X152362369Y-100545764D03*
X152499451Y-110850143D03*
X153423498Y-110809994D03*
X152633643Y-101298379D03*
X146364996Y-106773788D03*
X146241545Y-105983367D03*
X146865235Y-105182725D03*
X149159435Y-105241892D03*
X149077694Y-102360635D03*
X149083576Y-101548487D03*
X151916120Y-99231602D03*
X152670249Y-98964567D03*
X153098576Y-96328860D03*
X153705390Y-96850200D03*
X153618343Y-97669024D03*
X150951837Y-98251192D03*
X145835290Y-97373401D03*
X146456400Y-95377002D03*
X144180065Y-101432835D03*
X143924611Y-102190966D03*
X143287557Y-104338244D03*
X143270012Y-105257573D03*
X141822782Y-85827000D03*
X145915340Y-103946889D03*
X147548600Y-112699800D03*
X149663585Y-95126688D03*
X152264779Y-104063800D03*
X147116800Y-93218000D03*
X150331444Y-94434278D03*
X152264779Y-103022400D03*
X149885400Y-90627200D03*
D25*
X147828000Y-102123374D02*
X147828000Y-102067000D01*
X153670000Y-104823400D02*
X152870000Y-104823400D01*
X152870000Y-104823400D02*
X152894999Y-104848399D01*
X152894999Y-104848399D02*
X152889999Y-104848399D01*
X152889999Y-104848399D02*
X152819999Y-104918399D01*
X152819999Y-104918399D02*
X152819999Y-106246907D01*
X152819999Y-106246907D02*
X153352500Y-106779408D01*
X153352500Y-106779408D02*
X153352500Y-107377000D01*
X144220000Y-96373400D02*
X144220000Y-95325000D01*
X144220000Y-95325000D02*
X143510000Y-94615000D01*
X144220000Y-107773400D02*
X143795000Y-107773400D01*
X143795000Y-107773400D02*
X143492800Y-108075600D01*
X143492800Y-108075600D02*
X142519400Y-108075600D01*
X143497802Y-94627198D02*
X143510000Y-94615000D01*
X146304000Y-89154000D02*
X147955000Y-89154000D01*
X142519400Y-108075600D02*
X142536021Y-108058979D01*
X142536021Y-108058979D02*
X142536021Y-106865081D01*
X142536021Y-106865081D02*
X142270000Y-106599060D01*
X142270000Y-106599060D02*
X142270000Y-105823400D01*
X146304000Y-90932000D02*
X146304000Y-89154000D01*
X153352500Y-108077000D02*
X153352500Y-107377000D01*
X147817974Y-102123374D02*
X147828000Y-102123374D01*
X147817974Y-102077026D02*
X147828000Y-102067000D01*
X147817974Y-102123374D02*
X147817974Y-102077026D01*
X147828000Y-102067000D02*
X147828000Y-102082600D01*
X152857200Y-107111800D02*
X152857200Y-107619800D01*
X153314400Y-108077000D02*
X153352500Y-108077000D01*
X152857200Y-107619800D02*
X153314400Y-108077000D01*
X147828000Y-102082600D02*
X152857200Y-107111800D01*
X152870000Y-98323400D02*
X153670000Y-98323400D01*
X151893586Y-98314378D02*
X152860978Y-98314378D01*
X152860978Y-98314378D02*
X152870000Y-98323400D01*
X147828000Y-101842059D02*
X150733820Y-98936239D01*
X151271725Y-98936239D02*
X151893586Y-98314378D01*
X147828000Y-102067000D02*
X147828000Y-101842059D01*
X150733820Y-98936239D02*
X151271725Y-98936239D01*
X142519400Y-108100600D02*
X142519400Y-108075600D01*
X141579600Y-109040400D02*
X142519400Y-108100600D01*
X142627600Y-116840000D02*
X142646400Y-116821200D01*
X142646400Y-116821200D02*
X142646400Y-111887000D01*
X142646400Y-111887000D02*
X141579600Y-110820200D01*
X141579600Y-110820200D02*
X141579600Y-109040400D01*
X146862800Y-103032200D02*
X147828000Y-102067000D01*
X142519400Y-108050600D02*
X145947400Y-104622600D01*
X142519400Y-108075600D02*
X142519400Y-108050600D01*
X145947400Y-104622600D02*
X146201631Y-104622600D01*
X146862800Y-103961431D02*
X146862800Y-103032200D01*
X146201631Y-104622600D02*
X146862800Y-103961431D01*
X147817974Y-102054531D02*
X147817974Y-102123374D01*
X142528217Y-96764774D02*
X147817974Y-102054531D01*
X146304000Y-90932000D02*
X146279000Y-90932000D01*
X146279000Y-90932000D02*
X144977489Y-92233511D01*
X144977489Y-92233511D02*
X142832042Y-92233511D01*
X142528217Y-92537336D02*
X142528217Y-96764774D01*
X142832042Y-92233511D02*
X142528217Y-92537336D01*
X147828000Y-101246768D02*
X147828000Y-102123374D01*
X143510000Y-94615000D02*
X143510000Y-96928768D01*
X143510000Y-96928768D02*
X147828000Y-101246768D01*
X153096000Y-89154000D02*
X153096000Y-90739000D01*
X153096000Y-90739000D02*
X152969000Y-90866000D01*
X150220000Y-107773400D02*
X150220000Y-108573400D01*
X150220000Y-109478400D02*
X150317200Y-109575600D01*
X150220000Y-107773400D02*
X150220000Y-109478400D01*
X152969000Y-90866000D02*
X152944000Y-90866000D01*
X152031449Y-91778551D02*
X152031449Y-91803449D01*
X152944000Y-90866000D02*
X152031449Y-91778551D01*
X151227928Y-109581328D02*
X151259365Y-109549891D01*
X151259365Y-109549891D02*
X151370743Y-109549891D01*
X151345034Y-109575600D02*
X151370743Y-109549891D01*
X150317200Y-109575600D02*
X151345034Y-109575600D01*
X151765000Y-92069898D02*
X152031449Y-91803449D01*
X151765000Y-93140400D02*
X151765000Y-92069898D01*
D26*
X144404000Y-89934000D02*
X144404000Y-89154000D01*
X144404000Y-89968984D02*
X144404000Y-89934000D01*
X143440984Y-90932000D02*
X144404000Y-89968984D01*
X142875000Y-90932000D02*
X143440984Y-90932000D01*
X145351819Y-87883905D02*
X145351819Y-89759181D01*
X145351819Y-89759181D02*
X144804000Y-90307000D01*
X144804000Y-90307000D02*
X144804000Y-90932000D01*
X149542500Y-87654000D02*
X150167500Y-87654000D01*
X150167500Y-87654000D02*
X150396471Y-87882971D01*
X150396471Y-87882971D02*
X152126718Y-87882971D01*
X145354000Y-87867449D02*
X145354000Y-86954000D01*
X145351819Y-87883905D02*
X147100095Y-87883905D01*
X147100095Y-87883905D02*
X147330000Y-87654000D01*
X147330000Y-87654000D02*
X147955000Y-87654000D01*
X142875000Y-87884000D02*
X145339048Y-87884000D01*
X151469000Y-90866000D02*
X151469000Y-90241000D01*
X151469000Y-90241000D02*
X152146000Y-89564000D01*
X152146000Y-89564000D02*
X152146000Y-87734000D01*
X152146000Y-87734000D02*
X152146000Y-86954000D01*
X142875000Y-89432000D02*
X142875000Y-87884000D01*
X142875000Y-89457000D02*
X142875000Y-89432000D01*
X142519400Y-109575600D02*
X142568800Y-109575600D01*
X149720000Y-108675046D02*
X149720000Y-107773400D01*
X149580600Y-108814446D02*
X149720000Y-108675046D01*
X149580600Y-111075600D02*
X149580600Y-108814446D01*
X148844000Y-111075600D02*
X149580600Y-111075600D01*
X150317200Y-111075600D02*
X149580600Y-111075600D01*
X154420000Y-100323400D02*
X153670000Y-100323400D01*
X155963402Y-100323400D02*
X154420000Y-100323400D01*
X156700001Y-101059999D02*
X155963402Y-100323400D01*
X156700001Y-104680001D02*
X156700001Y-101059999D01*
X156056602Y-105323400D02*
X156700001Y-104680001D01*
X153670000Y-105323400D02*
X156056602Y-105323400D01*
X139334000Y-105323400D02*
X141020800Y-105323400D01*
X139115800Y-105105200D02*
X139334000Y-105323400D01*
X139115800Y-102977990D02*
X139115800Y-105105200D01*
X139115800Y-99161600D02*
X139115800Y-102914410D01*
X139217400Y-99060000D02*
X139115800Y-99161600D01*
X140335000Y-99060000D02*
X139217400Y-99060000D01*
X139122190Y-102920800D02*
X139115800Y-102914410D01*
X141020800Y-105323400D02*
X142270000Y-105323400D01*
X149542500Y-89154000D02*
X151196000Y-89154000D01*
X146720000Y-97698000D02*
X146720000Y-96373400D01*
X147320000Y-98298000D02*
X146720000Y-97698000D01*
X147220000Y-97123400D02*
X147220000Y-96373400D01*
X147770001Y-97673401D02*
X147220000Y-97123400D01*
X147965401Y-97673401D02*
X147770001Y-97673401D01*
X150647400Y-113131602D02*
X150317198Y-112801400D01*
X150647400Y-117237402D02*
X150647400Y-113131602D01*
X152789998Y-119380000D02*
X150647400Y-117237402D01*
X153035000Y-119380000D02*
X152789998Y-119380000D01*
X142270000Y-98323400D02*
X143124841Y-98323400D01*
X143124841Y-98323400D02*
X146544817Y-101743376D01*
X146544817Y-101743376D02*
X146844816Y-102043375D01*
X145220000Y-96373400D02*
X145220000Y-96999008D01*
X144946640Y-97272368D02*
X144946640Y-97362973D01*
X145220000Y-96999008D02*
X144946640Y-97272368D01*
X147220000Y-107773400D02*
X147220000Y-106945021D01*
X147220000Y-106945021D02*
X147157727Y-106882748D01*
X143047444Y-101323400D02*
X143565530Y-100805314D01*
X146036304Y-102644654D02*
X146036304Y-103068918D01*
X146036304Y-102364288D02*
X146036304Y-102644654D01*
X144477330Y-100805314D02*
X146036304Y-102364288D01*
X143565530Y-100805314D02*
X144477330Y-100805314D01*
X146036304Y-103068918D02*
X146149210Y-103181824D01*
X142270000Y-101323400D02*
X143047444Y-101323400D01*
X144221200Y-118033800D02*
X146913600Y-118033800D01*
X148239201Y-116708199D02*
X148539200Y-116408200D01*
X142875000Y-119380000D02*
X144221200Y-118033800D01*
X146913600Y-118033800D02*
X148239201Y-116708199D01*
X155575000Y-118719600D02*
X155575000Y-119380000D01*
X154330400Y-117475000D02*
X155575000Y-118719600D01*
X153670000Y-117475000D02*
X154330400Y-117475000D01*
X151220000Y-108474146D02*
X151220000Y-107773400D01*
X152000034Y-109254180D02*
X151220000Y-108474146D01*
X152000034Y-109804498D02*
X152000034Y-109254180D01*
X152170000Y-117475000D02*
X151688800Y-117475000D01*
X151144988Y-110659544D02*
X152000034Y-109804498D01*
X151688800Y-117475000D02*
X151144988Y-116931188D01*
X151144988Y-116931188D02*
X151144988Y-110659544D01*
X153670000Y-115570000D02*
X154305000Y-115570000D01*
X154305000Y-115570000D02*
X155575000Y-116840000D01*
X151720000Y-108148400D02*
X151720000Y-107773400D01*
X152450045Y-108878445D02*
X151720000Y-108148400D01*
X152450045Y-109990898D02*
X152450045Y-108878445D01*
X152170000Y-115570000D02*
X152044400Y-115570000D01*
X152044400Y-115570000D02*
X151594999Y-115120599D01*
X151594999Y-115120599D02*
X151594999Y-110845944D01*
X151594999Y-110845944D02*
X152450045Y-109990898D01*
X153670000Y-111760000D02*
X154920171Y-110509829D01*
X154920171Y-110509829D02*
X155950173Y-110509829D01*
X155950173Y-110509829D02*
X156700001Y-109760001D01*
X156700001Y-109760001D02*
X156700001Y-108679999D01*
X156700001Y-108679999D02*
X155773024Y-107753022D01*
X155773024Y-107753022D02*
X155770245Y-107753022D01*
X155770245Y-107753022D02*
X155575000Y-107557777D01*
X155575000Y-107557777D02*
X155575000Y-106680000D01*
X153670000Y-100823400D02*
X153064269Y-100823400D01*
X152786633Y-100545764D02*
X152362369Y-100545764D01*
X153064269Y-100823400D02*
X152786633Y-100545764D01*
X152170000Y-111760000D02*
X152170000Y-111060000D01*
X152379857Y-110850143D02*
X152499451Y-110850143D01*
X152170000Y-111060000D02*
X152379857Y-110850143D01*
X155575000Y-111760000D02*
X154940000Y-111760000D01*
X155575000Y-112268000D02*
X155575000Y-111760000D01*
X154178000Y-113665000D02*
X155575000Y-112268000D01*
X153670000Y-113665000D02*
X154178000Y-113665000D01*
X152658664Y-101323400D02*
X152633643Y-101298379D01*
X153670000Y-101323400D02*
X152658664Y-101323400D01*
X153123499Y-111109993D02*
X153423498Y-110809994D01*
X152170000Y-113665000D02*
X152170000Y-113082200D01*
X152170000Y-113082200D02*
X152933400Y-112318800D01*
X152933400Y-112318800D02*
X152933400Y-111300092D01*
X152933400Y-111300092D02*
X153123499Y-111109993D01*
X147782737Y-106561357D02*
X147479118Y-106257738D01*
X146881046Y-106257738D02*
X146664995Y-106473789D01*
X147479118Y-106257738D02*
X146881046Y-106257738D01*
X147720000Y-107773400D02*
X147769999Y-107723401D01*
X146664995Y-106473789D02*
X146364996Y-106773788D01*
X147769999Y-107013399D02*
X147782737Y-107000661D01*
X147769999Y-107723401D02*
X147769999Y-107013399D01*
X147782737Y-107000661D02*
X147782737Y-106561357D01*
X148232748Y-107760652D02*
X148232748Y-106374958D01*
X148232748Y-106374958D02*
X147665517Y-105807727D01*
X146417185Y-105807727D02*
X146241545Y-105983367D01*
X147665517Y-105807727D02*
X146417185Y-105807727D01*
X148220000Y-107773400D02*
X148232748Y-107760652D01*
X148720000Y-106225800D02*
X147676925Y-105182725D01*
X147676925Y-105182725D02*
X147289499Y-105182725D01*
X148720000Y-107773400D02*
X148720000Y-106225800D01*
X147289499Y-105182725D02*
X146865235Y-105182725D01*
X149220000Y-107773400D02*
X149220000Y-105302457D01*
X149220000Y-105302457D02*
X149159435Y-105241892D01*
X149501958Y-102360635D02*
X149077694Y-102360635D01*
X153670000Y-102323400D02*
X153620001Y-102373399D01*
X153620001Y-102373399D02*
X149514722Y-102373399D01*
X149514722Y-102373399D02*
X149501958Y-102360635D01*
X149891547Y-101923388D02*
X149516646Y-101548487D01*
X152909999Y-101873399D02*
X152860009Y-101923389D01*
X149516646Y-101548487D02*
X149507840Y-101548487D01*
X152860009Y-101923389D02*
X149891547Y-101923388D01*
X149507840Y-101548487D02*
X149083576Y-101548487D01*
X153620001Y-101873399D02*
X152909999Y-101873399D01*
X153670000Y-101823400D02*
X153620001Y-101873399D01*
X152507918Y-99823400D02*
X152216119Y-99531601D01*
X152216119Y-99531601D02*
X151916120Y-99231602D01*
X153670000Y-99823400D02*
X152507918Y-99823400D01*
X153670000Y-99323400D02*
X152920000Y-99323400D01*
X152920000Y-99323400D02*
X152670249Y-99073649D01*
X152670249Y-99073649D02*
X152670249Y-98964567D01*
X153054036Y-96373400D02*
X153098576Y-96328860D01*
X151720000Y-96373400D02*
X153054036Y-96373400D01*
X153549412Y-96850200D02*
X153705390Y-96850200D01*
X153201211Y-97198401D02*
X153549412Y-96850200D01*
X151334999Y-97198401D02*
X153201211Y-97198401D01*
X151220000Y-96373400D02*
X151220000Y-97083402D01*
X151220000Y-97083402D02*
X151334999Y-97198401D01*
X151163187Y-97663000D02*
X153188055Y-97663000D01*
X153194079Y-97669024D02*
X153618343Y-97669024D01*
X150720000Y-96373400D02*
X150720000Y-97219813D01*
X153188055Y-97663000D02*
X153194079Y-97669024D01*
X150720000Y-97219813D02*
X151163187Y-97663000D01*
X150220000Y-97519355D02*
X150651838Y-97951193D01*
X150220000Y-96373400D02*
X150220000Y-97519355D01*
X150651838Y-97951193D02*
X150951837Y-98251192D01*
X145835290Y-97797665D02*
X145835290Y-97373401D01*
X146960626Y-98923001D02*
X145835290Y-97797665D01*
X148128001Y-98923001D02*
X146960626Y-98923001D01*
X149720000Y-97331002D02*
X148128001Y-98923001D01*
X149720000Y-96373400D02*
X149720000Y-97331002D01*
X148973602Y-95377002D02*
X146880664Y-95377002D01*
X149220000Y-96373400D02*
X149220000Y-95623400D01*
X146880664Y-95377002D02*
X146456400Y-95377002D01*
X149220000Y-95623400D02*
X148973602Y-95377002D01*
X143755801Y-101432835D02*
X144180065Y-101432835D01*
X143232118Y-101823400D02*
X143622683Y-101432835D01*
X142270000Y-101823400D02*
X143232118Y-101823400D01*
X143622683Y-101432835D02*
X143755801Y-101432835D01*
X143292177Y-102823400D02*
X143624612Y-102490965D01*
X142270000Y-102823400D02*
X143292177Y-102823400D01*
X143624612Y-102490965D02*
X143924611Y-102190966D01*
X142270000Y-104323400D02*
X143272713Y-104323400D01*
X143272713Y-104323400D02*
X143287557Y-104338244D01*
X142270000Y-104823400D02*
X142887398Y-104823400D01*
X142887398Y-104823400D02*
X143270012Y-105206014D01*
X143270012Y-105206014D02*
X143270012Y-105257573D01*
D25*
X140335000Y-91440000D02*
X141542235Y-90232765D01*
X141542235Y-90232765D02*
X141542235Y-87741765D01*
X141542235Y-87741765D02*
X142875000Y-86409000D01*
X142875000Y-86384000D02*
X142200000Y-86384000D01*
X141822782Y-86006782D02*
X141822782Y-85827000D01*
X142200000Y-86384000D02*
X141822782Y-86006782D01*
X151180800Y-85750400D02*
X146329400Y-85750400D01*
X152722400Y-85750400D02*
X151180800Y-85750400D01*
X151180800Y-85750400D02*
X151196000Y-85765600D01*
X151196000Y-85765600D02*
X151196000Y-86954000D01*
X146329400Y-85750400D02*
X144424400Y-85750400D01*
X146329400Y-85750400D02*
X146304000Y-85775800D01*
X146304000Y-85775800D02*
X146304000Y-86954000D01*
X144424400Y-85750400D02*
X142925800Y-85750400D01*
X144424400Y-85750400D02*
X144404000Y-85770800D01*
X144404000Y-85770800D02*
X144404000Y-86954000D01*
X153096000Y-86954000D02*
X153096000Y-86124000D01*
X153096000Y-86124000D02*
X152722400Y-85750400D01*
X142925800Y-85750400D02*
X142875000Y-85801200D01*
X142875000Y-85801200D02*
X142875000Y-86384000D01*
D26*
X145718400Y-109575600D02*
X144068800Y-109575600D01*
X146220000Y-107773400D02*
X146220000Y-109074000D01*
X146220000Y-109074000D02*
X145718400Y-109575600D01*
X146720000Y-107773400D02*
X146720000Y-109077200D01*
X146720000Y-109077200D02*
X147218400Y-109575600D01*
X148844000Y-109575600D02*
X147218400Y-109575600D01*
X154316067Y-98773401D02*
X154266068Y-98823400D01*
X154430001Y-98773401D02*
X154316067Y-98773401D01*
X154495001Y-98708401D02*
X154430001Y-98773401D01*
X154495001Y-97938399D02*
X154495001Y-98708401D01*
X154330400Y-97773798D02*
X154495001Y-97938399D01*
X154266068Y-98823400D02*
X153670000Y-98823400D01*
X153619200Y-94615000D02*
X153619200Y-95732600D01*
X153619200Y-95732600D02*
X154330400Y-96443800D01*
X154330400Y-96443800D02*
X154330400Y-97773798D01*
X145415000Y-94615000D02*
X144720000Y-95310000D01*
X144720000Y-95310000D02*
X144720000Y-96373400D01*
X142858922Y-103823400D02*
X143035432Y-103646890D01*
X143035432Y-103646890D02*
X145615341Y-103646890D01*
X142270000Y-103823400D02*
X142858922Y-103823400D01*
X145615341Y-103646890D02*
X145915340Y-103946889D01*
X144068800Y-115326606D02*
X144068800Y-114338800D01*
X144627600Y-115885406D02*
X144068800Y-115326606D01*
X144627600Y-116840000D02*
X144627600Y-115885406D01*
X145907800Y-112699800D02*
X147124336Y-112699800D01*
X147124336Y-112699800D02*
X147548600Y-112699800D01*
X144068800Y-114338800D02*
X144268800Y-114338800D01*
X144268800Y-114338800D02*
X145907800Y-112699800D01*
X153670000Y-104323400D02*
X152524379Y-104323400D01*
X152524379Y-104323400D02*
X152264779Y-104063800D01*
X147116800Y-93218000D02*
X149663585Y-95126688D01*
X153670000Y-103823400D02*
X152920000Y-103823400D01*
X152264779Y-103168179D02*
X152264779Y-103022400D01*
X152920000Y-103823400D02*
X152264779Y-103168179D01*
X149885400Y-91227198D02*
X149885400Y-90627200D01*
X149885400Y-93988234D02*
X149885400Y-91227198D01*
X150331444Y-94434278D02*
X149885400Y-93988234D01*
G36*
X146592222Y-84864311D02*
G01*
X146608306Y-84901838D01*
X146623833Y-84939509D01*
X146626821Y-84945036D01*
X146722348Y-85118797D01*
X146745400Y-85152464D01*
X146767959Y-85186418D01*
X146771964Y-85191260D01*
X146800611Y-85225400D01*
X146355179Y-85225400D01*
X146329399Y-85222861D01*
X146303619Y-85225400D01*
X144450180Y-85225400D01*
X144424400Y-85222861D01*
X144398620Y-85225400D01*
X142951579Y-85225400D01*
X142925799Y-85222861D01*
X142900019Y-85225400D01*
X142900012Y-85225400D01*
X142822882Y-85232997D01*
X142723919Y-85263017D01*
X142632714Y-85311767D01*
X142552773Y-85377373D01*
X142536329Y-85397410D01*
X142522010Y-85411729D01*
X142501973Y-85428173D01*
X142436367Y-85508114D01*
X142427884Y-85523985D01*
X142420959Y-85507268D01*
X142347089Y-85396713D01*
X142253069Y-85302693D01*
X142142514Y-85228823D01*
X142019672Y-85177940D01*
X141889264Y-85152000D01*
X141756300Y-85152000D01*
X141625892Y-85177940D01*
X141503050Y-85228823D01*
X141403122Y-85295592D01*
X141401448Y-85293552D01*
X141344347Y-85246691D01*
X141279200Y-85211869D01*
X141208513Y-85190426D01*
X141135000Y-85183186D01*
X139535000Y-85183186D01*
X139461487Y-85190426D01*
X139390800Y-85211869D01*
X139325653Y-85246691D01*
X139268552Y-85293552D01*
X139221691Y-85350653D01*
X139186869Y-85415800D01*
X139165426Y-85486487D01*
X139158186Y-85560000D01*
X139158186Y-87160000D01*
X139165426Y-87233513D01*
X139186869Y-87304200D01*
X139221691Y-87369347D01*
X139268552Y-87426448D01*
X139325653Y-87473309D01*
X139390800Y-87508131D01*
X139461487Y-87529574D01*
X139535000Y-87536814D01*
X141056493Y-87536814D01*
X141054852Y-87539885D01*
X141024832Y-87638848D01*
X141014696Y-87741765D01*
X141017236Y-87767555D01*
X141017236Y-87939866D01*
X140990953Y-87918296D01*
X140786829Y-87809189D01*
X140565340Y-87742002D01*
X140392720Y-87725000D01*
X140277280Y-87725000D01*
X140104660Y-87742002D01*
X139883171Y-87809189D01*
X139679047Y-87918296D01*
X139500130Y-88065130D01*
X139353296Y-88244047D01*
X139244189Y-88448171D01*
X139177002Y-88669660D01*
X139154315Y-88900000D01*
X139177002Y-89130340D01*
X139244189Y-89351829D01*
X139353296Y-89555953D01*
X139500130Y-89734870D01*
X139679047Y-89881704D01*
X139883171Y-89990811D01*
X140104660Y-90057998D01*
X140277280Y-90075000D01*
X140392720Y-90075000D01*
X140565340Y-90057998D01*
X140786829Y-89990811D01*
X140990953Y-89881704D01*
X141017235Y-89860135D01*
X141017235Y-90015303D01*
X140707433Y-90325105D01*
X140565340Y-90282002D01*
X140392720Y-90265000D01*
X140277280Y-90265000D01*
X140104660Y-90282002D01*
X139883171Y-90349189D01*
X139679047Y-90458296D01*
X139500130Y-90605130D01*
X139353296Y-90784047D01*
X139244189Y-90988171D01*
X139177002Y-91209660D01*
X139154315Y-91440000D01*
X139177002Y-91670340D01*
X139244189Y-91891829D01*
X139353296Y-92095953D01*
X139500130Y-92274870D01*
X139679047Y-92421704D01*
X139883171Y-92530811D01*
X140104660Y-92597998D01*
X140277280Y-92615000D01*
X140392720Y-92615000D01*
X140565340Y-92597998D01*
X140786829Y-92530811D01*
X140990953Y-92421704D01*
X141169870Y-92274870D01*
X141316704Y-92095953D01*
X141425811Y-91891829D01*
X141492998Y-91670340D01*
X141515685Y-91440000D01*
X141492998Y-91209660D01*
X141449895Y-91067567D01*
X141895231Y-90622231D01*
X141915262Y-90605792D01*
X141980868Y-90525851D01*
X142029618Y-90434646D01*
X142059638Y-90335683D01*
X142067235Y-90258553D01*
X142067235Y-90258546D01*
X142069774Y-90232766D01*
X142067235Y-90206986D01*
X142067235Y-87959226D01*
X142125000Y-87901461D01*
X142125000Y-87959002D01*
X142218748Y-87959002D01*
X142125000Y-88052750D01*
X142123186Y-88284000D01*
X142130426Y-88357513D01*
X142151869Y-88428200D01*
X142186691Y-88493347D01*
X142233552Y-88550448D01*
X142290653Y-88597309D01*
X142355800Y-88632131D01*
X142426487Y-88653574D01*
X142471427Y-88658000D01*
X142426487Y-88662426D01*
X142355800Y-88683869D01*
X142290653Y-88718691D01*
X142233552Y-88765552D01*
X142186691Y-88822653D01*
X142151869Y-88887800D01*
X142130426Y-88958487D01*
X142123186Y-89032000D01*
X142125000Y-89263250D01*
X142218750Y-89357000D01*
X142800000Y-89357000D01*
X142800000Y-88750750D01*
X142707250Y-88658000D01*
X142800000Y-88565250D01*
X142800000Y-87959000D01*
X142950000Y-87959000D01*
X142950000Y-88565250D01*
X143042750Y-88658000D01*
X142950000Y-88750750D01*
X142950000Y-89357000D01*
X143531250Y-89357000D01*
X143625000Y-89263250D01*
X143626814Y-89032000D01*
X143619574Y-88958487D01*
X143598131Y-88887800D01*
X143563309Y-88822653D01*
X143516448Y-88765552D01*
X143459347Y-88718691D01*
X143394200Y-88683869D01*
X143323513Y-88662426D01*
X143278573Y-88658000D01*
X143323513Y-88653574D01*
X143394200Y-88632131D01*
X143459347Y-88597309D01*
X143516448Y-88550448D01*
X143563309Y-88493347D01*
X143598131Y-88428200D01*
X143619574Y-88357513D01*
X143626814Y-88284000D01*
X143625000Y-88052750D01*
X143531250Y-87959000D01*
X142950000Y-87959000D01*
X142800000Y-87959000D01*
X142780000Y-87959000D01*
X142780000Y-87809000D01*
X142800000Y-87809000D01*
X142800000Y-87789000D01*
X142950000Y-87789000D01*
X142950000Y-87809000D01*
X143531250Y-87809000D01*
X143625000Y-87715250D01*
X143626814Y-87484000D01*
X143619574Y-87410487D01*
X143598131Y-87339800D01*
X143563309Y-87274653D01*
X143516448Y-87217552D01*
X143459347Y-87170691D01*
X143394200Y-87135869D01*
X143388039Y-87134000D01*
X143394200Y-87132131D01*
X143459347Y-87097309D01*
X143516448Y-87050448D01*
X143563309Y-86993347D01*
X143598131Y-86928200D01*
X143619574Y-86857513D01*
X143626814Y-86784000D01*
X143626814Y-86275400D01*
X143733221Y-86275400D01*
X143730869Y-86279800D01*
X143709426Y-86350487D01*
X143702186Y-86424000D01*
X143702186Y-87484000D01*
X143709426Y-87557513D01*
X143730869Y-87628200D01*
X143765691Y-87693347D01*
X143812552Y-87750448D01*
X143869653Y-87797309D01*
X143934800Y-87832131D01*
X144005487Y-87853574D01*
X144079000Y-87860814D01*
X144729000Y-87860814D01*
X144802513Y-87853574D01*
X144873200Y-87832131D01*
X144879000Y-87829031D01*
X144884800Y-87832131D01*
X144955487Y-87853574D01*
X145029000Y-87860814D01*
X145185250Y-87859000D01*
X145279000Y-87765250D01*
X145279000Y-87029000D01*
X145259000Y-87029000D01*
X145259000Y-86879000D01*
X145279000Y-86879000D01*
X145279000Y-86859000D01*
X145429000Y-86859000D01*
X145429000Y-86879000D01*
X145449000Y-86879000D01*
X145449000Y-87029000D01*
X145429000Y-87029000D01*
X145429000Y-87765250D01*
X145522750Y-87859000D01*
X145679000Y-87860814D01*
X145752513Y-87853574D01*
X145823200Y-87832131D01*
X145829000Y-87829031D01*
X145834800Y-87832131D01*
X145905487Y-87853574D01*
X145979000Y-87860814D01*
X146629000Y-87860814D01*
X146702513Y-87853574D01*
X146773200Y-87832131D01*
X146838347Y-87797309D01*
X146895448Y-87750448D01*
X146942309Y-87693347D01*
X146977131Y-87628200D01*
X146998574Y-87557513D01*
X147005814Y-87484000D01*
X147005814Y-87254000D01*
X147203186Y-87254000D01*
X147205000Y-87485250D01*
X147298750Y-87579000D01*
X147880000Y-87579000D01*
X147880000Y-86972750D01*
X148030000Y-86972750D01*
X148030000Y-87579000D01*
X148611250Y-87579000D01*
X148705000Y-87485250D01*
X148706814Y-87254000D01*
X148790686Y-87254000D01*
X148792500Y-87485250D01*
X148886250Y-87579000D01*
X149467500Y-87579000D01*
X149467500Y-86972750D01*
X149617500Y-86972750D01*
X149617500Y-87579000D01*
X150198750Y-87579000D01*
X150292500Y-87485250D01*
X150294314Y-87254000D01*
X150287074Y-87180487D01*
X150265631Y-87109800D01*
X150230809Y-87044653D01*
X150183948Y-86987552D01*
X150126847Y-86940691D01*
X150061700Y-86905869D01*
X149991013Y-86884426D01*
X149917500Y-86877186D01*
X149711250Y-86879000D01*
X149617500Y-86972750D01*
X149467500Y-86972750D01*
X149373750Y-86879000D01*
X149167500Y-86877186D01*
X149093987Y-86884426D01*
X149023300Y-86905869D01*
X148958153Y-86940691D01*
X148901052Y-86987552D01*
X148854191Y-87044653D01*
X148819369Y-87109800D01*
X148797926Y-87180487D01*
X148790686Y-87254000D01*
X148706814Y-87254000D01*
X148699574Y-87180487D01*
X148678131Y-87109800D01*
X148643309Y-87044653D01*
X148596448Y-86987552D01*
X148539347Y-86940691D01*
X148474200Y-86905869D01*
X148403513Y-86884426D01*
X148330000Y-86877186D01*
X148123750Y-86879000D01*
X148030000Y-86972750D01*
X147880000Y-86972750D01*
X147786250Y-86879000D01*
X147580000Y-86877186D01*
X147506487Y-86884426D01*
X147435800Y-86905869D01*
X147370653Y-86940691D01*
X147313552Y-86987552D01*
X147266691Y-87044653D01*
X147231869Y-87109800D01*
X147210426Y-87180487D01*
X147203186Y-87254000D01*
X147005814Y-87254000D01*
X147005814Y-86424000D01*
X146998574Y-86350487D01*
X146977131Y-86279800D01*
X146974779Y-86275400D01*
X150525221Y-86275400D01*
X150522869Y-86279800D01*
X150501426Y-86350487D01*
X150494186Y-86424000D01*
X150494186Y-87484000D01*
X150501426Y-87557513D01*
X150522869Y-87628200D01*
X150557691Y-87693347D01*
X150604552Y-87750448D01*
X150661653Y-87797309D01*
X150726800Y-87832131D01*
X150797487Y-87853574D01*
X150871000Y-87860814D01*
X151521000Y-87860814D01*
X151594513Y-87853574D01*
X151665200Y-87832131D01*
X151671000Y-87829031D01*
X151676800Y-87832131D01*
X151747487Y-87853574D01*
X151821000Y-87860814D01*
X151977250Y-87859000D01*
X152071000Y-87765250D01*
X152071000Y-87029000D01*
X152051000Y-87029000D01*
X152051000Y-86879000D01*
X152071000Y-86879000D01*
X152071000Y-86859000D01*
X152221000Y-86859000D01*
X152221000Y-86879000D01*
X152241000Y-86879000D01*
X152241000Y-87029000D01*
X152221000Y-87029000D01*
X152221000Y-87765250D01*
X152314750Y-87859000D01*
X152471000Y-87860814D01*
X152544513Y-87853574D01*
X152615200Y-87832131D01*
X152621000Y-87829031D01*
X152626800Y-87832131D01*
X152697487Y-87853574D01*
X152771000Y-87860814D01*
X153421000Y-87860814D01*
X153494513Y-87853574D01*
X153565200Y-87832131D01*
X153630347Y-87797309D01*
X153687448Y-87750448D01*
X153734309Y-87693347D01*
X153769131Y-87628200D01*
X153790574Y-87557513D01*
X153797814Y-87484000D01*
X153797814Y-86424000D01*
X153791511Y-86360000D01*
X154394315Y-86360000D01*
X154417002Y-86590340D01*
X154484189Y-86811829D01*
X154593296Y-87015953D01*
X154740130Y-87194870D01*
X154919047Y-87341704D01*
X155123171Y-87450811D01*
X155344660Y-87517998D01*
X155517280Y-87535000D01*
X155632720Y-87535000D01*
X155805340Y-87517998D01*
X156026829Y-87450811D01*
X156230953Y-87341704D01*
X156409870Y-87194870D01*
X156556704Y-87015953D01*
X156665811Y-86811829D01*
X156732998Y-86590340D01*
X156755685Y-86360000D01*
X156732998Y-86129660D01*
X156665811Y-85908171D01*
X156556704Y-85704047D01*
X156409870Y-85525130D01*
X156230953Y-85378296D01*
X156026829Y-85269189D01*
X155805340Y-85202002D01*
X155632720Y-85185000D01*
X155517280Y-85185000D01*
X155344660Y-85202002D01*
X155123171Y-85269189D01*
X154919047Y-85378296D01*
X154740130Y-85525130D01*
X154593296Y-85704047D01*
X154484189Y-85908171D01*
X154417002Y-86129660D01*
X154394315Y-86360000D01*
X153791511Y-86360000D01*
X153790574Y-86350487D01*
X153769131Y-86279800D01*
X153734309Y-86214653D01*
X153687448Y-86157552D01*
X153630347Y-86110691D01*
X153621777Y-86106110D01*
X153621000Y-86098219D01*
X153621000Y-86098212D01*
X153613403Y-86021082D01*
X153583383Y-85922119D01*
X153534633Y-85830914D01*
X153469027Y-85750973D01*
X153448995Y-85734533D01*
X153111870Y-85397409D01*
X153095427Y-85377373D01*
X153015486Y-85311767D01*
X152924281Y-85263017D01*
X152825318Y-85232997D01*
X152748188Y-85225400D01*
X152748180Y-85225400D01*
X152722400Y-85222861D01*
X152696620Y-85225400D01*
X151206580Y-85225400D01*
X151180800Y-85222861D01*
X151155020Y-85225400D01*
X149108590Y-85225400D01*
X149149973Y-85174660D01*
X149172554Y-85140673D01*
X149195586Y-85107036D01*
X149198574Y-85101509D01*
X149291665Y-84926431D01*
X149307210Y-84888715D01*
X149323275Y-84851233D01*
X149325133Y-84845231D01*
X149328524Y-84834000D01*
X156241599Y-84834000D01*
X156267652Y-84841866D01*
X156408589Y-84916804D01*
X156532281Y-85017684D01*
X156634023Y-85140670D01*
X156709938Y-85281071D01*
X156757138Y-85433551D01*
X156776000Y-85613013D01*
X156776001Y-108048892D01*
X156317656Y-107590548D01*
X156409870Y-107514870D01*
X156556704Y-107335953D01*
X156665811Y-107131829D01*
X156732998Y-106910340D01*
X156755685Y-106680000D01*
X156732998Y-106449660D01*
X156665811Y-106228171D01*
X156556704Y-106024047D01*
X156409870Y-105845130D01*
X156230953Y-105698296D01*
X156026829Y-105589189D01*
X155805340Y-105522002D01*
X155632720Y-105505000D01*
X155517280Y-105505000D01*
X155344660Y-105522002D01*
X155123171Y-105589189D01*
X154919047Y-105698296D01*
X154740130Y-105845130D01*
X154593296Y-106024047D01*
X154484189Y-106228171D01*
X154417002Y-106449660D01*
X154394315Y-106680000D01*
X154417002Y-106910340D01*
X154484189Y-107131829D01*
X154593296Y-107335953D01*
X154740130Y-107514870D01*
X154919047Y-107661704D01*
X155121428Y-107769879D01*
X155157254Y-107836906D01*
X155219736Y-107913041D01*
X155238824Y-107928706D01*
X155369658Y-108059540D01*
X155344660Y-108062002D01*
X155123171Y-108129189D01*
X154919047Y-108238296D01*
X154740130Y-108385130D01*
X154593296Y-108564047D01*
X154484189Y-108768171D01*
X154417002Y-108989660D01*
X154394315Y-109220000D01*
X154417002Y-109450340D01*
X154484189Y-109671829D01*
X154593296Y-109875953D01*
X154731637Y-110044522D01*
X154727904Y-110045654D01*
X154641042Y-110092083D01*
X154564907Y-110154565D01*
X154549251Y-110173642D01*
X154078735Y-110644159D01*
X154072558Y-110613104D01*
X154021675Y-110490262D01*
X153947805Y-110379707D01*
X153885730Y-110317632D01*
X153936847Y-110290309D01*
X153993948Y-110243448D01*
X154040809Y-110186347D01*
X154075631Y-110121200D01*
X154097074Y-110050513D01*
X154104314Y-109977000D01*
X154102500Y-109745750D01*
X154008750Y-109652000D01*
X153427500Y-109652000D01*
X153427500Y-109672000D01*
X153277500Y-109672000D01*
X153277500Y-109652000D01*
X153257500Y-109652000D01*
X153257500Y-109502000D01*
X153277500Y-109502000D01*
X153277500Y-109482000D01*
X153427500Y-109482000D01*
X153427500Y-109502000D01*
X154008750Y-109502000D01*
X154102500Y-109408250D01*
X154104314Y-109177000D01*
X154097074Y-109103487D01*
X154075631Y-109032800D01*
X154040809Y-108967653D01*
X153993948Y-108910552D01*
X153936847Y-108863691D01*
X153871700Y-108828869D01*
X153865539Y-108827000D01*
X153871700Y-108825131D01*
X153936847Y-108790309D01*
X153993948Y-108743448D01*
X154040809Y-108686347D01*
X154075631Y-108621200D01*
X154097074Y-108550513D01*
X154104314Y-108477000D01*
X154104314Y-107677000D01*
X154097074Y-107603487D01*
X154075631Y-107532800D01*
X154040809Y-107467653D01*
X153993948Y-107410552D01*
X153936847Y-107363691D01*
X153877500Y-107331969D01*
X153877500Y-106805187D01*
X153880039Y-106779407D01*
X153877500Y-106753624D01*
X153877500Y-106753620D01*
X153869903Y-106676490D01*
X153839883Y-106577527D01*
X153791133Y-106486322D01*
X153725527Y-106406381D01*
X153705495Y-106389941D01*
X153640768Y-106325214D01*
X154170000Y-106325214D01*
X154243513Y-106317974D01*
X154314200Y-106296531D01*
X154379347Y-106261709D01*
X154436448Y-106214848D01*
X154483309Y-106157747D01*
X154518131Y-106092600D01*
X154539574Y-106021913D01*
X154546814Y-105948400D01*
X154546814Y-105698400D01*
X154539574Y-105624887D01*
X154523955Y-105573400D01*
X154539574Y-105521913D01*
X154546814Y-105448400D01*
X154545000Y-105417150D01*
X154451250Y-105323400D01*
X154545000Y-105229650D01*
X154546814Y-105198400D01*
X154539574Y-105124887D01*
X154523955Y-105073400D01*
X154539574Y-105021913D01*
X154546814Y-104948400D01*
X154546814Y-104708992D01*
X154593296Y-104795953D01*
X154740130Y-104974870D01*
X154919047Y-105121704D01*
X155123171Y-105230811D01*
X155344660Y-105297998D01*
X155517280Y-105315000D01*
X155632720Y-105315000D01*
X155805340Y-105297998D01*
X156026829Y-105230811D01*
X156230953Y-105121704D01*
X156409870Y-104974870D01*
X156556704Y-104795953D01*
X156665811Y-104591829D01*
X156732998Y-104370340D01*
X156755685Y-104140000D01*
X156732998Y-103909660D01*
X156665811Y-103688171D01*
X156556704Y-103484047D01*
X156409870Y-103305130D01*
X156230953Y-103158296D01*
X156026829Y-103049189D01*
X155805340Y-102982002D01*
X155632720Y-102965000D01*
X155517280Y-102965000D01*
X155344660Y-102982002D01*
X155123171Y-103049189D01*
X154919047Y-103158296D01*
X154740130Y-103305130D01*
X154593296Y-103484047D01*
X154531769Y-103599156D01*
X154523955Y-103573400D01*
X154539574Y-103521913D01*
X154546814Y-103448400D01*
X154546814Y-103198400D01*
X154539574Y-103124887D01*
X154523955Y-103073400D01*
X154539574Y-103021913D01*
X154546814Y-102948400D01*
X154546814Y-102698400D01*
X154539574Y-102624887D01*
X154523955Y-102573400D01*
X154539574Y-102521913D01*
X154546814Y-102448400D01*
X154546814Y-102198400D01*
X154543263Y-102162349D01*
X154593296Y-102255953D01*
X154740130Y-102434870D01*
X154919047Y-102581704D01*
X155123171Y-102690811D01*
X155344660Y-102757998D01*
X155517280Y-102775000D01*
X155632720Y-102775000D01*
X155805340Y-102757998D01*
X156026829Y-102690811D01*
X156230953Y-102581704D01*
X156409870Y-102434870D01*
X156556704Y-102255953D01*
X156665811Y-102051829D01*
X156732998Y-101830340D01*
X156755685Y-101600000D01*
X156732998Y-101369660D01*
X156665811Y-101148171D01*
X156556704Y-100944047D01*
X156409870Y-100765130D01*
X156230953Y-100618296D01*
X156026829Y-100509189D01*
X155805340Y-100442002D01*
X155632720Y-100425000D01*
X155517280Y-100425000D01*
X155344660Y-100442002D01*
X155123171Y-100509189D01*
X154919047Y-100618296D01*
X154740130Y-100765130D01*
X154593296Y-100944047D01*
X154524028Y-101073638D01*
X154523955Y-101073400D01*
X154539574Y-101021913D01*
X154546814Y-100948400D01*
X154546814Y-100698400D01*
X154539574Y-100624887D01*
X154523955Y-100573400D01*
X154539574Y-100521913D01*
X154546814Y-100448400D01*
X154545000Y-100417150D01*
X154451250Y-100323400D01*
X154545000Y-100229650D01*
X154546814Y-100198400D01*
X154539574Y-100124887D01*
X154523955Y-100073400D01*
X154539574Y-100021913D01*
X154546814Y-99948400D01*
X154546814Y-99698400D01*
X154539574Y-99624887D01*
X154532952Y-99603058D01*
X154593296Y-99715953D01*
X154740130Y-99894870D01*
X154919047Y-100041704D01*
X155123171Y-100150811D01*
X155344660Y-100217998D01*
X155517280Y-100235000D01*
X155632720Y-100235000D01*
X155805340Y-100217998D01*
X156026829Y-100150811D01*
X156230953Y-100041704D01*
X156409870Y-99894870D01*
X156556704Y-99715953D01*
X156665811Y-99511829D01*
X156732998Y-99290340D01*
X156755685Y-99060000D01*
X156732998Y-98829660D01*
X156665811Y-98608171D01*
X156556704Y-98404047D01*
X156409870Y-98225130D01*
X156230953Y-98078296D01*
X156026829Y-97969189D01*
X155805340Y-97902002D01*
X155632720Y-97885000D01*
X155517280Y-97885000D01*
X155344660Y-97902002D01*
X155123171Y-97969189D01*
X154995001Y-98037698D01*
X154995001Y-97962959D01*
X154997420Y-97938399D01*
X154987766Y-97840382D01*
X154984809Y-97830635D01*
X154959176Y-97746132D01*
X154912747Y-97659270D01*
X154850265Y-97583135D01*
X154831177Y-97567470D01*
X154830400Y-97566693D01*
X154830400Y-97428953D01*
X154919047Y-97501704D01*
X155123171Y-97610811D01*
X155344660Y-97677998D01*
X155517280Y-97695000D01*
X155632720Y-97695000D01*
X155805340Y-97677998D01*
X156026829Y-97610811D01*
X156230953Y-97501704D01*
X156409870Y-97354870D01*
X156556704Y-97175953D01*
X156665811Y-96971829D01*
X156732998Y-96750340D01*
X156755685Y-96520000D01*
X156732998Y-96289660D01*
X156665811Y-96068171D01*
X156556704Y-95864047D01*
X156409870Y-95685130D01*
X156230953Y-95538296D01*
X156026829Y-95429189D01*
X155805340Y-95362002D01*
X155632720Y-95345000D01*
X155517280Y-95345000D01*
X155344660Y-95362002D01*
X155123171Y-95429189D01*
X154919047Y-95538296D01*
X154740130Y-95685130D01*
X154593296Y-95864047D01*
X154546083Y-95952376D01*
X154119200Y-95525495D01*
X154119200Y-95368955D01*
X154138400Y-95363131D01*
X154203547Y-95328309D01*
X154260648Y-95281448D01*
X154307509Y-95224347D01*
X154342331Y-95159200D01*
X154363774Y-95088513D01*
X154371014Y-95015000D01*
X154371014Y-94215000D01*
X154363774Y-94141487D01*
X154342331Y-94070800D01*
X154307509Y-94005653D01*
X154286457Y-93980000D01*
X154394315Y-93980000D01*
X154417002Y-94210340D01*
X154484189Y-94431829D01*
X154593296Y-94635953D01*
X154740130Y-94814870D01*
X154919047Y-94961704D01*
X155123171Y-95070811D01*
X155344660Y-95137998D01*
X155517280Y-95155000D01*
X155632720Y-95155000D01*
X155805340Y-95137998D01*
X156026829Y-95070811D01*
X156230953Y-94961704D01*
X156409870Y-94814870D01*
X156556704Y-94635953D01*
X156665811Y-94431829D01*
X156732998Y-94210340D01*
X156755685Y-93980000D01*
X156732998Y-93749660D01*
X156665811Y-93528171D01*
X156556704Y-93324047D01*
X156409870Y-93145130D01*
X156230953Y-92998296D01*
X156026829Y-92889189D01*
X155805340Y-92822002D01*
X155632720Y-92805000D01*
X155517280Y-92805000D01*
X155344660Y-92822002D01*
X155123171Y-92889189D01*
X154919047Y-92998296D01*
X154740130Y-93145130D01*
X154593296Y-93324047D01*
X154484189Y-93528171D01*
X154417002Y-93749660D01*
X154394315Y-93980000D01*
X154286457Y-93980000D01*
X154260648Y-93948552D01*
X154203547Y-93901691D01*
X154138400Y-93866869D01*
X154132239Y-93865000D01*
X154138400Y-93863131D01*
X154203547Y-93828309D01*
X154260648Y-93781448D01*
X154307509Y-93724347D01*
X154342331Y-93659200D01*
X154363774Y-93588513D01*
X154371014Y-93515000D01*
X154369200Y-93283750D01*
X154275450Y-93190000D01*
X153694200Y-93190000D01*
X153694200Y-93210000D01*
X153544200Y-93210000D01*
X153544200Y-93190000D01*
X152962950Y-93190000D01*
X152869200Y-93283750D01*
X152867386Y-93515000D01*
X152874626Y-93588513D01*
X152896069Y-93659200D01*
X152930891Y-93724347D01*
X152977752Y-93781448D01*
X153034853Y-93828309D01*
X153100000Y-93863131D01*
X153106161Y-93865000D01*
X153100000Y-93866869D01*
X153034853Y-93901691D01*
X152977752Y-93948552D01*
X152930891Y-94005653D01*
X152896069Y-94070800D01*
X152874626Y-94141487D01*
X152867386Y-94215000D01*
X152867386Y-95015000D01*
X152874626Y-95088513D01*
X152896069Y-95159200D01*
X152930891Y-95224347D01*
X152977752Y-95281448D01*
X153034853Y-95328309D01*
X153100000Y-95363131D01*
X153119201Y-95368956D01*
X153119201Y-95653860D01*
X153032094Y-95653860D01*
X152901686Y-95679800D01*
X152778844Y-95730683D01*
X152668289Y-95804553D01*
X152599442Y-95873400D01*
X152221814Y-95873400D01*
X152214574Y-95799887D01*
X152193131Y-95729200D01*
X152158309Y-95664053D01*
X152111448Y-95606952D01*
X152054347Y-95560091D01*
X151989200Y-95525269D01*
X151918513Y-95503826D01*
X151845000Y-95496586D01*
X151595000Y-95496586D01*
X151521487Y-95503826D01*
X151470000Y-95519445D01*
X151418513Y-95503826D01*
X151345000Y-95496586D01*
X151095000Y-95496586D01*
X151021487Y-95503826D01*
X150970000Y-95519445D01*
X150918513Y-95503826D01*
X150845000Y-95496586D01*
X150595000Y-95496586D01*
X150521487Y-95503826D01*
X150470000Y-95519445D01*
X150418513Y-95503826D01*
X150345000Y-95496586D01*
X150228242Y-95496586D01*
X150261762Y-95446420D01*
X150312645Y-95323578D01*
X150338585Y-95193170D01*
X150338585Y-95109278D01*
X150397926Y-95109278D01*
X150528334Y-95083338D01*
X150631995Y-95040400D01*
X151013186Y-95040400D01*
X151020426Y-95113913D01*
X151041869Y-95184600D01*
X151076691Y-95249747D01*
X151123552Y-95306848D01*
X151180653Y-95353709D01*
X151245800Y-95388531D01*
X151316487Y-95409974D01*
X151390000Y-95417214D01*
X151596250Y-95415400D01*
X151690000Y-95321650D01*
X151690000Y-94715400D01*
X151840000Y-94715400D01*
X151840000Y-95321650D01*
X151933750Y-95415400D01*
X152140000Y-95417214D01*
X152213513Y-95409974D01*
X152284200Y-95388531D01*
X152349347Y-95353709D01*
X152406448Y-95306848D01*
X152453309Y-95249747D01*
X152488131Y-95184600D01*
X152509574Y-95113913D01*
X152516814Y-95040400D01*
X152515000Y-94809150D01*
X152421250Y-94715400D01*
X151840000Y-94715400D01*
X151690000Y-94715400D01*
X151108750Y-94715400D01*
X151015000Y-94809150D01*
X151013186Y-95040400D01*
X150631995Y-95040400D01*
X150651176Y-95032455D01*
X150761731Y-94958585D01*
X150855751Y-94864565D01*
X150929621Y-94754010D01*
X150980504Y-94631168D01*
X151006444Y-94500760D01*
X151006444Y-94367796D01*
X150980504Y-94237388D01*
X150929621Y-94114546D01*
X150855751Y-94003991D01*
X150761731Y-93909971D01*
X150651176Y-93836101D01*
X150528334Y-93785218D01*
X150397926Y-93759278D01*
X150385400Y-93759278D01*
X150385400Y-91241000D01*
X150692186Y-91241000D01*
X150699426Y-91314513D01*
X150720869Y-91385200D01*
X150755691Y-91450347D01*
X150802552Y-91507448D01*
X150859653Y-91554309D01*
X150924800Y-91589131D01*
X150995487Y-91610574D01*
X151069000Y-91617814D01*
X151300250Y-91616000D01*
X151393998Y-91522252D01*
X151393998Y-91578532D01*
X151382389Y-91606559D01*
X151356449Y-91736967D01*
X151356449Y-91740158D01*
X151326367Y-91776813D01*
X151277617Y-91868018D01*
X151247597Y-91966981D01*
X151237461Y-92069898D01*
X151240001Y-92095688D01*
X151240001Y-92395369D01*
X151180653Y-92427091D01*
X151123552Y-92473952D01*
X151076691Y-92531053D01*
X151041869Y-92596200D01*
X151020426Y-92666887D01*
X151013186Y-92740400D01*
X151013186Y-93540400D01*
X151020426Y-93613913D01*
X151041869Y-93684600D01*
X151076691Y-93749747D01*
X151123552Y-93806848D01*
X151180653Y-93853709D01*
X151245800Y-93888531D01*
X151251961Y-93890400D01*
X151245800Y-93892269D01*
X151180653Y-93927091D01*
X151123552Y-93973952D01*
X151076691Y-94031053D01*
X151041869Y-94096200D01*
X151020426Y-94166887D01*
X151013186Y-94240400D01*
X151015000Y-94471650D01*
X151108750Y-94565400D01*
X151690000Y-94565400D01*
X151690000Y-94545400D01*
X151840000Y-94545400D01*
X151840000Y-94565400D01*
X152421250Y-94565400D01*
X152515000Y-94471650D01*
X152516814Y-94240400D01*
X152509574Y-94166887D01*
X152488131Y-94096200D01*
X152453309Y-94031053D01*
X152406448Y-93973952D01*
X152349347Y-93927091D01*
X152284200Y-93892269D01*
X152278039Y-93890400D01*
X152284200Y-93888531D01*
X152349347Y-93853709D01*
X152406448Y-93806848D01*
X152453309Y-93749747D01*
X152488131Y-93684600D01*
X152509574Y-93613913D01*
X152516814Y-93540400D01*
X152516814Y-92740400D01*
X152514313Y-92715000D01*
X152867386Y-92715000D01*
X152869200Y-92946250D01*
X152962950Y-93040000D01*
X153544200Y-93040000D01*
X153544200Y-92433750D01*
X153694200Y-92433750D01*
X153694200Y-93040000D01*
X154275450Y-93040000D01*
X154369200Y-92946250D01*
X154371014Y-92715000D01*
X154363774Y-92641487D01*
X154342331Y-92570800D01*
X154307509Y-92505653D01*
X154260648Y-92448552D01*
X154203547Y-92401691D01*
X154138400Y-92366869D01*
X154067713Y-92345426D01*
X153994200Y-92338186D01*
X153787950Y-92340000D01*
X153694200Y-92433750D01*
X153544200Y-92433750D01*
X153450450Y-92340000D01*
X153244200Y-92338186D01*
X153170687Y-92345426D01*
X153100000Y-92366869D01*
X153034853Y-92401691D01*
X152977752Y-92448552D01*
X152930891Y-92505653D01*
X152896069Y-92570800D01*
X152874626Y-92641487D01*
X152867386Y-92715000D01*
X152514313Y-92715000D01*
X152509574Y-92666887D01*
X152488131Y-92596200D01*
X152453309Y-92531053D01*
X152406448Y-92473952D01*
X152349347Y-92427091D01*
X152323307Y-92413172D01*
X152351181Y-92401626D01*
X152461736Y-92327756D01*
X152555756Y-92233736D01*
X152629626Y-92123181D01*
X152680509Y-92000339D01*
X152706449Y-91869931D01*
X152706449Y-91846012D01*
X152934648Y-91617814D01*
X153369000Y-91617814D01*
X153442513Y-91610574D01*
X153513200Y-91589131D01*
X153578347Y-91554309D01*
X153635448Y-91507448D01*
X153682309Y-91450347D01*
X153687839Y-91440000D01*
X154394315Y-91440000D01*
X154417002Y-91670340D01*
X154484189Y-91891829D01*
X154593296Y-92095953D01*
X154740130Y-92274870D01*
X154919047Y-92421704D01*
X155123171Y-92530811D01*
X155344660Y-92597998D01*
X155517280Y-92615000D01*
X155632720Y-92615000D01*
X155805340Y-92597998D01*
X156026829Y-92530811D01*
X156230953Y-92421704D01*
X156409870Y-92274870D01*
X156556704Y-92095953D01*
X156665811Y-91891829D01*
X156732998Y-91670340D01*
X156755685Y-91440000D01*
X156732998Y-91209660D01*
X156665811Y-90988171D01*
X156556704Y-90784047D01*
X156409870Y-90605130D01*
X156230953Y-90458296D01*
X156026829Y-90349189D01*
X155805340Y-90282002D01*
X155632720Y-90265000D01*
X155517280Y-90265000D01*
X155344660Y-90282002D01*
X155123171Y-90349189D01*
X154919047Y-90458296D01*
X154740130Y-90605130D01*
X154593296Y-90784047D01*
X154484189Y-90988171D01*
X154417002Y-91209660D01*
X154394315Y-91440000D01*
X153687839Y-91440000D01*
X153717131Y-91385200D01*
X153738574Y-91314513D01*
X153745814Y-91241000D01*
X153745814Y-90491000D01*
X153738574Y-90417487D01*
X153717131Y-90346800D01*
X153682309Y-90281653D01*
X153635448Y-90224552D01*
X153621000Y-90212695D01*
X153621000Y-90002305D01*
X153630347Y-89997309D01*
X153687448Y-89950448D01*
X153734309Y-89893347D01*
X153769131Y-89828200D01*
X153790574Y-89757513D01*
X153797814Y-89684000D01*
X153797814Y-88900000D01*
X154394315Y-88900000D01*
X154417002Y-89130340D01*
X154484189Y-89351829D01*
X154593296Y-89555953D01*
X154740130Y-89734870D01*
X154919047Y-89881704D01*
X155123171Y-89990811D01*
X155344660Y-90057998D01*
X155517280Y-90075000D01*
X155632720Y-90075000D01*
X155805340Y-90057998D01*
X156026829Y-89990811D01*
X156230953Y-89881704D01*
X156409870Y-89734870D01*
X156556704Y-89555953D01*
X156665811Y-89351829D01*
X156732998Y-89130340D01*
X156755685Y-88900000D01*
X156732998Y-88669660D01*
X156665811Y-88448171D01*
X156556704Y-88244047D01*
X156409870Y-88065130D01*
X156230953Y-87918296D01*
X156026829Y-87809189D01*
X155805340Y-87742002D01*
X155632720Y-87725000D01*
X155517280Y-87725000D01*
X155344660Y-87742002D01*
X155123171Y-87809189D01*
X154919047Y-87918296D01*
X154740130Y-88065130D01*
X154593296Y-88244047D01*
X154484189Y-88448171D01*
X154417002Y-88669660D01*
X154394315Y-88900000D01*
X153797814Y-88900000D01*
X153797814Y-88624000D01*
X153790574Y-88550487D01*
X153769131Y-88479800D01*
X153734309Y-88414653D01*
X153687448Y-88357552D01*
X153630347Y-88310691D01*
X153565200Y-88275869D01*
X153494513Y-88254426D01*
X153421000Y-88247186D01*
X152771000Y-88247186D01*
X152697487Y-88254426D01*
X152626800Y-88275869D01*
X152561653Y-88310691D01*
X152504552Y-88357552D01*
X152457691Y-88414653D01*
X152422869Y-88479800D01*
X152401426Y-88550487D01*
X152394186Y-88624000D01*
X152394186Y-89684000D01*
X152401426Y-89757513D01*
X152422869Y-89828200D01*
X152457691Y-89893347D01*
X152504552Y-89950448D01*
X152561653Y-89997309D01*
X152571001Y-90002305D01*
X152571001Y-90114186D01*
X152569000Y-90114186D01*
X152495487Y-90121426D01*
X152424800Y-90142869D01*
X152359653Y-90177691D01*
X152302552Y-90224552D01*
X152255691Y-90281653D01*
X152220869Y-90346800D01*
X152219000Y-90352961D01*
X152217131Y-90346800D01*
X152182309Y-90281653D01*
X152135448Y-90224552D01*
X152078347Y-90177691D01*
X152013200Y-90142869D01*
X151942513Y-90121426D01*
X151869000Y-90114186D01*
X151637750Y-90116000D01*
X151544000Y-90209750D01*
X151544000Y-90791000D01*
X151564000Y-90791000D01*
X151564000Y-90941000D01*
X151544000Y-90941000D01*
X151544000Y-90961000D01*
X151394000Y-90961000D01*
X151394000Y-90941000D01*
X150787750Y-90941000D01*
X150694000Y-91034750D01*
X150692186Y-91241000D01*
X150385400Y-91241000D01*
X150385400Y-91081794D01*
X150409707Y-91057487D01*
X150483577Y-90946932D01*
X150534460Y-90824090D01*
X150560400Y-90693682D01*
X150560400Y-90560718D01*
X150546533Y-90491000D01*
X150692186Y-90491000D01*
X150694000Y-90697250D01*
X150787750Y-90791000D01*
X151394000Y-90791000D01*
X151394000Y-90209750D01*
X151300250Y-90116000D01*
X151069000Y-90114186D01*
X150995487Y-90121426D01*
X150924800Y-90142869D01*
X150859653Y-90177691D01*
X150802552Y-90224552D01*
X150755691Y-90281653D01*
X150720869Y-90346800D01*
X150699426Y-90417487D01*
X150692186Y-90491000D01*
X150546533Y-90491000D01*
X150534460Y-90430310D01*
X150483577Y-90307468D01*
X150409707Y-90196913D01*
X150315687Y-90102893D01*
X150205132Y-90029023D01*
X150082290Y-89978140D01*
X149951882Y-89952200D01*
X149818918Y-89952200D01*
X149688510Y-89978140D01*
X149565668Y-90029023D01*
X149455113Y-90102893D01*
X149361093Y-90196913D01*
X149287223Y-90307468D01*
X149236340Y-90430310D01*
X149210400Y-90560718D01*
X149210400Y-90693682D01*
X149236340Y-90824090D01*
X149287223Y-90946932D01*
X149361093Y-91057487D01*
X149385400Y-91081794D01*
X149385400Y-91251757D01*
X149385401Y-91251767D01*
X149385400Y-93963674D01*
X149382981Y-93988234D01*
X149392635Y-94086251D01*
X149400622Y-94112581D01*
X149421225Y-94180500D01*
X149467654Y-94267363D01*
X149530136Y-94343498D01*
X149549223Y-94359162D01*
X149641748Y-94451688D01*
X149597103Y-94451688D01*
X149596744Y-94451759D01*
X147779534Y-93089852D01*
X147765860Y-93021110D01*
X147714977Y-92898268D01*
X147641107Y-92787713D01*
X147547087Y-92693693D01*
X147436532Y-92619823D01*
X147313690Y-92568940D01*
X147183282Y-92543000D01*
X147050318Y-92543000D01*
X146919910Y-92568940D01*
X146797068Y-92619823D01*
X146686513Y-92693693D01*
X146592493Y-92787713D01*
X146518623Y-92898268D01*
X146467740Y-93021110D01*
X146441800Y-93151518D01*
X146441800Y-93284482D01*
X146467740Y-93414890D01*
X146518623Y-93537732D01*
X146592493Y-93648287D01*
X146686513Y-93742307D01*
X146797068Y-93816177D01*
X146919910Y-93867060D01*
X147050318Y-93893000D01*
X147183282Y-93893000D01*
X147183641Y-93892929D01*
X148496702Y-94877002D01*
X146910994Y-94877002D01*
X146886687Y-94852695D01*
X146776132Y-94778825D01*
X146653290Y-94727942D01*
X146522882Y-94702002D01*
X146389918Y-94702002D01*
X146259510Y-94727942D01*
X146166814Y-94766338D01*
X146166814Y-94215000D01*
X146159574Y-94141487D01*
X146138131Y-94070800D01*
X146103309Y-94005653D01*
X146056448Y-93948552D01*
X145999347Y-93901691D01*
X145934200Y-93866869D01*
X145928039Y-93865000D01*
X145934200Y-93863131D01*
X145999347Y-93828309D01*
X146056448Y-93781448D01*
X146103309Y-93724347D01*
X146138131Y-93659200D01*
X146159574Y-93588513D01*
X146166814Y-93515000D01*
X146165000Y-93283750D01*
X146071250Y-93190000D01*
X145490000Y-93190000D01*
X145490000Y-93210000D01*
X145340000Y-93210000D01*
X145340000Y-93190000D01*
X144758750Y-93190000D01*
X144665000Y-93283750D01*
X144663186Y-93515000D01*
X144670426Y-93588513D01*
X144691869Y-93659200D01*
X144726691Y-93724347D01*
X144773552Y-93781448D01*
X144830653Y-93828309D01*
X144895800Y-93863131D01*
X144901961Y-93865000D01*
X144895800Y-93866869D01*
X144830653Y-93901691D01*
X144773552Y-93948552D01*
X144726691Y-94005653D01*
X144691869Y-94070800D01*
X144670426Y-94141487D01*
X144663186Y-94215000D01*
X144663186Y-94659708D01*
X144480178Y-94842716D01*
X144261814Y-94624352D01*
X144261814Y-94215000D01*
X144254574Y-94141487D01*
X144233131Y-94070800D01*
X144198309Y-94005653D01*
X144151448Y-93948552D01*
X144094347Y-93901691D01*
X144029200Y-93866869D01*
X144023039Y-93865000D01*
X144029200Y-93863131D01*
X144094347Y-93828309D01*
X144151448Y-93781448D01*
X144198309Y-93724347D01*
X144233131Y-93659200D01*
X144254574Y-93588513D01*
X144261814Y-93515000D01*
X144260000Y-93283750D01*
X144166250Y-93190000D01*
X143585000Y-93190000D01*
X143585000Y-93210000D01*
X143435000Y-93210000D01*
X143435000Y-93190000D01*
X143415000Y-93190000D01*
X143415000Y-93040000D01*
X143435000Y-93040000D01*
X143435000Y-93020000D01*
X143585000Y-93020000D01*
X143585000Y-93040000D01*
X144166250Y-93040000D01*
X144260000Y-92946250D01*
X144261473Y-92758511D01*
X144663527Y-92758511D01*
X144665000Y-92946250D01*
X144758750Y-93040000D01*
X145340000Y-93040000D01*
X145340000Y-93020000D01*
X145490000Y-93020000D01*
X145490000Y-93040000D01*
X146071250Y-93040000D01*
X146165000Y-92946250D01*
X146166814Y-92715000D01*
X146159574Y-92641487D01*
X146138131Y-92570800D01*
X146103309Y-92505653D01*
X146056448Y-92448552D01*
X145999347Y-92401691D01*
X145934200Y-92366869D01*
X145863513Y-92345426D01*
X145790000Y-92338186D01*
X145613725Y-92339736D01*
X146269648Y-91683814D01*
X146704000Y-91683814D01*
X146777513Y-91676574D01*
X146848200Y-91655131D01*
X146913347Y-91620309D01*
X146970448Y-91573448D01*
X147017309Y-91516347D01*
X147052131Y-91451200D01*
X147073574Y-91380513D01*
X147080814Y-91307000D01*
X147080814Y-90557000D01*
X147073574Y-90483487D01*
X147052131Y-90412800D01*
X147017309Y-90347653D01*
X146970448Y-90290552D01*
X146913347Y-90243691D01*
X146848200Y-90208869D01*
X146829000Y-90203045D01*
X146829000Y-90002305D01*
X146838347Y-89997309D01*
X146895448Y-89950448D01*
X146942309Y-89893347D01*
X146977131Y-89828200D01*
X146998574Y-89757513D01*
X147005814Y-89684000D01*
X147005814Y-89679000D01*
X147226045Y-89679000D01*
X147231869Y-89698200D01*
X147266691Y-89763347D01*
X147313552Y-89820448D01*
X147370653Y-89867309D01*
X147435800Y-89902131D01*
X147506487Y-89923574D01*
X147580000Y-89930814D01*
X148330000Y-89930814D01*
X148403513Y-89923574D01*
X148474200Y-89902131D01*
X148539347Y-89867309D01*
X148596448Y-89820448D01*
X148643309Y-89763347D01*
X148678131Y-89698200D01*
X148699574Y-89627513D01*
X148706814Y-89554000D01*
X148706814Y-88754000D01*
X148699574Y-88680487D01*
X148678131Y-88609800D01*
X148643309Y-88544653D01*
X148596448Y-88487552D01*
X148539347Y-88440691D01*
X148474200Y-88405869D01*
X148468039Y-88404000D01*
X148474200Y-88402131D01*
X148539347Y-88367309D01*
X148596448Y-88320448D01*
X148643309Y-88263347D01*
X148678131Y-88198200D01*
X148699574Y-88127513D01*
X148706814Y-88054000D01*
X148790686Y-88054000D01*
X148797926Y-88127513D01*
X148819369Y-88198200D01*
X148854191Y-88263347D01*
X148901052Y-88320448D01*
X148958153Y-88367309D01*
X149023300Y-88402131D01*
X149029461Y-88404000D01*
X149023300Y-88405869D01*
X148958153Y-88440691D01*
X148901052Y-88487552D01*
X148854191Y-88544653D01*
X148819369Y-88609800D01*
X148797926Y-88680487D01*
X148790686Y-88754000D01*
X148790686Y-89554000D01*
X148797926Y-89627513D01*
X148819369Y-89698200D01*
X148854191Y-89763347D01*
X148901052Y-89820448D01*
X148958153Y-89867309D01*
X149023300Y-89902131D01*
X149093987Y-89923574D01*
X149167500Y-89930814D01*
X149917500Y-89930814D01*
X149991013Y-89923574D01*
X150061700Y-89902131D01*
X150126847Y-89867309D01*
X150183948Y-89820448D01*
X150230809Y-89763347D01*
X150265631Y-89698200D01*
X150279039Y-89654000D01*
X150494186Y-89654000D01*
X150494186Y-89684000D01*
X150501426Y-89757513D01*
X150522869Y-89828200D01*
X150557691Y-89893347D01*
X150604552Y-89950448D01*
X150661653Y-89997309D01*
X150726800Y-90032131D01*
X150797487Y-90053574D01*
X150871000Y-90060814D01*
X151521000Y-90060814D01*
X151594513Y-90053574D01*
X151665200Y-90032131D01*
X151730347Y-89997309D01*
X151787448Y-89950448D01*
X151834309Y-89893347D01*
X151869131Y-89828200D01*
X151890574Y-89757513D01*
X151897814Y-89684000D01*
X151897814Y-88624000D01*
X151890574Y-88550487D01*
X151869131Y-88479800D01*
X151834309Y-88414653D01*
X151787448Y-88357552D01*
X151730347Y-88310691D01*
X151665200Y-88275869D01*
X151594513Y-88254426D01*
X151521000Y-88247186D01*
X150871000Y-88247186D01*
X150797487Y-88254426D01*
X150726800Y-88275869D01*
X150661653Y-88310691D01*
X150604552Y-88357552D01*
X150557691Y-88414653D01*
X150522869Y-88479800D01*
X150501426Y-88550487D01*
X150494186Y-88624000D01*
X150494186Y-88654000D01*
X150279039Y-88654000D01*
X150265631Y-88609800D01*
X150230809Y-88544653D01*
X150183948Y-88487552D01*
X150126847Y-88440691D01*
X150061700Y-88405869D01*
X150055539Y-88404000D01*
X150061700Y-88402131D01*
X150126847Y-88367309D01*
X150183948Y-88320448D01*
X150230809Y-88263347D01*
X150265631Y-88198200D01*
X150287074Y-88127513D01*
X150294314Y-88054000D01*
X150292500Y-87822750D01*
X150198750Y-87729000D01*
X149617500Y-87729000D01*
X149617500Y-87749000D01*
X149467500Y-87749000D01*
X149467500Y-87729000D01*
X148886250Y-87729000D01*
X148792500Y-87822750D01*
X148790686Y-88054000D01*
X148706814Y-88054000D01*
X148705000Y-87822750D01*
X148611250Y-87729000D01*
X148030000Y-87729000D01*
X148030000Y-87749000D01*
X147880000Y-87749000D01*
X147880000Y-87729000D01*
X147298750Y-87729000D01*
X147205000Y-87822750D01*
X147203186Y-88054000D01*
X147210426Y-88127513D01*
X147231869Y-88198200D01*
X147266691Y-88263347D01*
X147313552Y-88320448D01*
X147370653Y-88367309D01*
X147435800Y-88402131D01*
X147441961Y-88404000D01*
X147435800Y-88405869D01*
X147370653Y-88440691D01*
X147313552Y-88487552D01*
X147266691Y-88544653D01*
X147231869Y-88609800D01*
X147226045Y-88629000D01*
X147005814Y-88629000D01*
X147005814Y-88624000D01*
X146998574Y-88550487D01*
X146977131Y-88479800D01*
X146942309Y-88414653D01*
X146895448Y-88357552D01*
X146838347Y-88310691D01*
X146773200Y-88275869D01*
X146702513Y-88254426D01*
X146629000Y-88247186D01*
X145979000Y-88247186D01*
X145905487Y-88254426D01*
X145834800Y-88275869D01*
X145769653Y-88310691D01*
X145712552Y-88357552D01*
X145665691Y-88414653D01*
X145630869Y-88479800D01*
X145609426Y-88550487D01*
X145602186Y-88624000D01*
X145602186Y-89684000D01*
X145609426Y-89757513D01*
X145630869Y-89828200D01*
X145665691Y-89893347D01*
X145712552Y-89950448D01*
X145769653Y-89997309D01*
X145779001Y-90002305D01*
X145779000Y-90203045D01*
X145759800Y-90208869D01*
X145694653Y-90243691D01*
X145637552Y-90290552D01*
X145590691Y-90347653D01*
X145555869Y-90412800D01*
X145554000Y-90418961D01*
X145552131Y-90412800D01*
X145517309Y-90347653D01*
X145470448Y-90290552D01*
X145413347Y-90243691D01*
X145348200Y-90208869D01*
X145277513Y-90187426D01*
X145204000Y-90180186D01*
X144972750Y-90182000D01*
X144879002Y-90275748D01*
X144879002Y-90182000D01*
X144857084Y-90182000D01*
X144868175Y-90161251D01*
X144896765Y-90067001D01*
X144901700Y-90016897D01*
X144938347Y-89997309D01*
X144995448Y-89950448D01*
X145042309Y-89893347D01*
X145077131Y-89828200D01*
X145098574Y-89757513D01*
X145105814Y-89684000D01*
X145105814Y-88624000D01*
X145098574Y-88550487D01*
X145077131Y-88479800D01*
X145042309Y-88414653D01*
X144995448Y-88357552D01*
X144938347Y-88310691D01*
X144873200Y-88275869D01*
X144802513Y-88254426D01*
X144729000Y-88247186D01*
X144079000Y-88247186D01*
X144005487Y-88254426D01*
X143934800Y-88275869D01*
X143869653Y-88310691D01*
X143812552Y-88357552D01*
X143765691Y-88414653D01*
X143730869Y-88479800D01*
X143709426Y-88550487D01*
X143702186Y-88624000D01*
X143702186Y-89684000D01*
X143709426Y-89757513D01*
X143730869Y-89828200D01*
X143765691Y-89893347D01*
X143768774Y-89897104D01*
X143451423Y-90214455D01*
X143394200Y-90183869D01*
X143388039Y-90182000D01*
X143394200Y-90180131D01*
X143459347Y-90145309D01*
X143516448Y-90098448D01*
X143563309Y-90041347D01*
X143598131Y-89976200D01*
X143619574Y-89905513D01*
X143626814Y-89832000D01*
X143625000Y-89600750D01*
X143531250Y-89507000D01*
X142950000Y-89507000D01*
X142950000Y-89527000D01*
X142800000Y-89527000D01*
X142800000Y-89507000D01*
X142218750Y-89507000D01*
X142125000Y-89600750D01*
X142123186Y-89832000D01*
X142130426Y-89905513D01*
X142151869Y-89976200D01*
X142186691Y-90041347D01*
X142233552Y-90098448D01*
X142290653Y-90145309D01*
X142355800Y-90180131D01*
X142361961Y-90182000D01*
X142355800Y-90183869D01*
X142290653Y-90218691D01*
X142233552Y-90265552D01*
X142186691Y-90322653D01*
X142151869Y-90387800D01*
X142130426Y-90458487D01*
X142123186Y-90532000D01*
X142123186Y-91332000D01*
X142130426Y-91405513D01*
X142151869Y-91476200D01*
X142186691Y-91541347D01*
X142233552Y-91598448D01*
X142290653Y-91645309D01*
X142355800Y-91680131D01*
X142426487Y-91701574D01*
X142500000Y-91708814D01*
X142803178Y-91708814D01*
X142729124Y-91716108D01*
X142630161Y-91746128D01*
X142538956Y-91794878D01*
X142459015Y-91860484D01*
X142442571Y-91880521D01*
X142175227Y-92147865D01*
X142155190Y-92164309D01*
X142089584Y-92244250D01*
X142040834Y-92335456D01*
X142010814Y-92434419D01*
X142003217Y-92511549D01*
X142003217Y-92511556D01*
X142000678Y-92537336D01*
X142003217Y-92563116D01*
X142003218Y-96738984D01*
X142000678Y-96764774D01*
X142010814Y-96867691D01*
X142040834Y-96966654D01*
X142089584Y-97057859D01*
X142110009Y-97082747D01*
X142155191Y-97137801D01*
X142175222Y-97154240D01*
X142844382Y-97823400D01*
X142788419Y-97823400D01*
X142770000Y-97821586D01*
X141770000Y-97821586D01*
X141696487Y-97828826D01*
X141625800Y-97850269D01*
X141560653Y-97885091D01*
X141503552Y-97931952D01*
X141456691Y-97989053D01*
X141421869Y-98054200D01*
X141400426Y-98124887D01*
X141393186Y-98198400D01*
X141393186Y-98448400D01*
X141400426Y-98521913D01*
X141416045Y-98573400D01*
X141409707Y-98594293D01*
X141327743Y-98431435D01*
X141186041Y-98249838D01*
X141011634Y-98099375D01*
X140811224Y-97985828D01*
X140592513Y-97913561D01*
X140410000Y-97981142D01*
X140410000Y-98985000D01*
X140430000Y-98985000D01*
X140430000Y-99135000D01*
X140410000Y-99135000D01*
X140410000Y-100138858D01*
X140592513Y-100206439D01*
X140811224Y-100134172D01*
X141011634Y-100020625D01*
X141186041Y-99870162D01*
X141327743Y-99688565D01*
X141404634Y-99535786D01*
X141416045Y-99573400D01*
X141400426Y-99624887D01*
X141393186Y-99698400D01*
X141393186Y-99948400D01*
X141400426Y-100021913D01*
X141416045Y-100073400D01*
X141400426Y-100124887D01*
X141393186Y-100198400D01*
X141393186Y-100448400D01*
X141400426Y-100521913D01*
X141416045Y-100573400D01*
X141400426Y-100624887D01*
X141393186Y-100698400D01*
X141393186Y-100948400D01*
X141400426Y-101021913D01*
X141416045Y-101073400D01*
X141405111Y-101109444D01*
X141316704Y-100944047D01*
X141169870Y-100765130D01*
X140990953Y-100618296D01*
X140786829Y-100509189D01*
X140565340Y-100442002D01*
X140392720Y-100425000D01*
X140277280Y-100425000D01*
X140104660Y-100442002D01*
X139883171Y-100509189D01*
X139679047Y-100618296D01*
X139500130Y-100765130D01*
X139353296Y-100944047D01*
X139244189Y-101148171D01*
X139177002Y-101369660D01*
X139154315Y-101600000D01*
X139177002Y-101830340D01*
X139244189Y-102051829D01*
X139353296Y-102255953D01*
X139500130Y-102434870D01*
X139679047Y-102581704D01*
X139883171Y-102690811D01*
X140104660Y-102757998D01*
X140277280Y-102775000D01*
X140392720Y-102775000D01*
X140565340Y-102757998D01*
X140786829Y-102690811D01*
X140990953Y-102581704D01*
X141169870Y-102434870D01*
X141316704Y-102255953D01*
X141415406Y-102071295D01*
X141416045Y-102073400D01*
X141400426Y-102124887D01*
X141393186Y-102198400D01*
X141393186Y-102448400D01*
X141400426Y-102521913D01*
X141416045Y-102573400D01*
X141400426Y-102624887D01*
X141393186Y-102698400D01*
X141393186Y-102948400D01*
X141400426Y-103021913D01*
X141416045Y-103073400D01*
X141400426Y-103124887D01*
X141393186Y-103198400D01*
X141393186Y-103448400D01*
X141400426Y-103521913D01*
X141416045Y-103573400D01*
X141400426Y-103624887D01*
X141399113Y-103638222D01*
X141316704Y-103484047D01*
X141169870Y-103305130D01*
X140990953Y-103158296D01*
X140786829Y-103049189D01*
X140565340Y-102982002D01*
X140392720Y-102965000D01*
X140277280Y-102965000D01*
X140104660Y-102982002D01*
X139883171Y-103049189D01*
X139679047Y-103158296D01*
X139500130Y-103305130D01*
X139353296Y-103484047D01*
X139244189Y-103688171D01*
X139177002Y-103909660D01*
X139154315Y-104140000D01*
X139177002Y-104370340D01*
X139244189Y-104591829D01*
X139353296Y-104795953D01*
X139500130Y-104974870D01*
X139679047Y-105121704D01*
X139883171Y-105230811D01*
X140104660Y-105297998D01*
X140277280Y-105315000D01*
X140392720Y-105315000D01*
X140565340Y-105297998D01*
X140786829Y-105230811D01*
X140990953Y-105121704D01*
X141169870Y-104974870D01*
X141316704Y-104795953D01*
X141398683Y-104642581D01*
X141393186Y-104698400D01*
X141393186Y-104948400D01*
X141400426Y-105021913D01*
X141416045Y-105073400D01*
X141400426Y-105124887D01*
X141393186Y-105198400D01*
X141395000Y-105229650D01*
X141488750Y-105323400D01*
X141395000Y-105417150D01*
X141393186Y-105448400D01*
X141400426Y-105521913D01*
X141416045Y-105573400D01*
X141400426Y-105624887D01*
X141393186Y-105698400D01*
X141393186Y-105948400D01*
X141400426Y-106021913D01*
X141421869Y-106092600D01*
X141456691Y-106157747D01*
X141503552Y-106214848D01*
X141560653Y-106261709D01*
X141625800Y-106296531D01*
X141696487Y-106317974D01*
X141745000Y-106322752D01*
X141745000Y-106573280D01*
X141742461Y-106599060D01*
X141745000Y-106624840D01*
X141745000Y-106624847D01*
X141752597Y-106701977D01*
X141782617Y-106800940D01*
X141831367Y-106892146D01*
X141896973Y-106972087D01*
X141917010Y-106988531D01*
X142011022Y-107082543D01*
X142011022Y-107324186D01*
X142000200Y-107327469D01*
X141935053Y-107362291D01*
X141877952Y-107409152D01*
X141831091Y-107466253D01*
X141796269Y-107531400D01*
X141774826Y-107602087D01*
X141767586Y-107675600D01*
X141767586Y-108109952D01*
X141315256Y-108562283D01*
X141169870Y-108385130D01*
X140990953Y-108238296D01*
X140786829Y-108129189D01*
X140565340Y-108062002D01*
X140392720Y-108045000D01*
X140277280Y-108045000D01*
X140104660Y-108062002D01*
X139883171Y-108129189D01*
X139679047Y-108238296D01*
X139500130Y-108385130D01*
X139353296Y-108564047D01*
X139244189Y-108768171D01*
X139177002Y-108989660D01*
X139154315Y-109220000D01*
X139177002Y-109450340D01*
X139244189Y-109671829D01*
X139353296Y-109875953D01*
X139500130Y-110054870D01*
X139679047Y-110201704D01*
X139883171Y-110310811D01*
X140104660Y-110377998D01*
X140277280Y-110395000D01*
X140392720Y-110395000D01*
X140565340Y-110377998D01*
X140786829Y-110310811D01*
X140990953Y-110201704D01*
X141054600Y-110149470D01*
X141054600Y-110794420D01*
X141052061Y-110820200D01*
X141052945Y-110829171D01*
X140990953Y-110778296D01*
X140786829Y-110669189D01*
X140565340Y-110602002D01*
X140392720Y-110585000D01*
X140277280Y-110585000D01*
X140104660Y-110602002D01*
X139883171Y-110669189D01*
X139679047Y-110778296D01*
X139500130Y-110925130D01*
X139353296Y-111104047D01*
X139244189Y-111308171D01*
X139177002Y-111529660D01*
X139154315Y-111760000D01*
X139177002Y-111990340D01*
X139244189Y-112211829D01*
X139353296Y-112415953D01*
X139500130Y-112594870D01*
X139679047Y-112741704D01*
X139883171Y-112850811D01*
X140104660Y-112917998D01*
X140277280Y-112935000D01*
X140392720Y-112935000D01*
X140565340Y-112917998D01*
X140786829Y-112850811D01*
X140990953Y-112741704D01*
X141169870Y-112594870D01*
X141316704Y-112415953D01*
X141425811Y-112211829D01*
X141492998Y-111990340D01*
X141515685Y-111760000D01*
X141492998Y-111529660D01*
X141469659Y-111452720D01*
X142121401Y-112104463D01*
X142121400Y-115788186D01*
X141952600Y-115788186D01*
X141879087Y-115795426D01*
X141808400Y-115816869D01*
X141743253Y-115851691D01*
X141686152Y-115898552D01*
X141639291Y-115955653D01*
X141604469Y-116020800D01*
X141583026Y-116091487D01*
X141575786Y-116165000D01*
X141575786Y-117515000D01*
X141583026Y-117588513D01*
X141604469Y-117659200D01*
X141639291Y-117724347D01*
X141686152Y-117781448D01*
X141743253Y-117828309D01*
X141808400Y-117863131D01*
X141879087Y-117884574D01*
X141952600Y-117891814D01*
X143302600Y-117891814D01*
X143376113Y-117884574D01*
X143446800Y-117863131D01*
X143511947Y-117828309D01*
X143569048Y-117781448D01*
X143615909Y-117724347D01*
X143650731Y-117659200D01*
X143672174Y-117588513D01*
X143679414Y-117515000D01*
X143679414Y-117293491D01*
X143750333Y-117426171D01*
X143881546Y-117586054D01*
X143930086Y-117625890D01*
X143865936Y-117678536D01*
X143850280Y-117697613D01*
X143314649Y-118233245D01*
X143115142Y-118172725D01*
X142935178Y-118155000D01*
X142814822Y-118155000D01*
X142634858Y-118172725D01*
X142403945Y-118242772D01*
X142191134Y-118356522D01*
X142004603Y-118509603D01*
X141851522Y-118696134D01*
X141737772Y-118908945D01*
X141667725Y-119139858D01*
X141644073Y-119380000D01*
X141667725Y-119620142D01*
X141737772Y-119851055D01*
X141851522Y-120063866D01*
X142004603Y-120250397D01*
X142191134Y-120403478D01*
X142403945Y-120517228D01*
X142634858Y-120587275D01*
X142814822Y-120605000D01*
X142935178Y-120605000D01*
X143115142Y-120587275D01*
X143346055Y-120517228D01*
X143558866Y-120403478D01*
X143745397Y-120250397D01*
X143898478Y-120063866D01*
X144012228Y-119851055D01*
X144082275Y-119620142D01*
X144105927Y-119380000D01*
X144082275Y-119139858D01*
X144021755Y-118940351D01*
X144428307Y-118533800D01*
X144524745Y-118533800D01*
X144391522Y-118696134D01*
X144277772Y-118908945D01*
X144207725Y-119139858D01*
X144184073Y-119380000D01*
X144207725Y-119620142D01*
X144277772Y-119851055D01*
X144391522Y-120063866D01*
X144544603Y-120250397D01*
X144731134Y-120403478D01*
X144943945Y-120517228D01*
X145174858Y-120587275D01*
X145354822Y-120605000D01*
X145475178Y-120605000D01*
X145655142Y-120587275D01*
X145886055Y-120517228D01*
X146098866Y-120403478D01*
X146285397Y-120250397D01*
X146438478Y-120063866D01*
X146552228Y-119851055D01*
X146622275Y-119620142D01*
X146645927Y-119380000D01*
X146622275Y-119139858D01*
X146552228Y-118908945D01*
X146438478Y-118696134D01*
X146305255Y-118533800D01*
X146889040Y-118533800D01*
X146913600Y-118536219D01*
X146938160Y-118533800D01*
X147003820Y-118527333D01*
X147011617Y-118526565D01*
X147094612Y-118501389D01*
X147084603Y-118509603D01*
X146931522Y-118696134D01*
X146817772Y-118908945D01*
X146747725Y-119139858D01*
X146724073Y-119380000D01*
X146747725Y-119620142D01*
X146817772Y-119851055D01*
X146931522Y-120063866D01*
X147084603Y-120250397D01*
X147271134Y-120403478D01*
X147483945Y-120517228D01*
X147714858Y-120587275D01*
X147894822Y-120605000D01*
X148015178Y-120605000D01*
X148195142Y-120587275D01*
X148426055Y-120517228D01*
X148638866Y-120403478D01*
X148825397Y-120250397D01*
X148978478Y-120063866D01*
X149092228Y-119851055D01*
X149154628Y-119645350D01*
X149299081Y-119645350D01*
X149373827Y-119873564D01*
X149491660Y-120082810D01*
X149648050Y-120265048D01*
X149836988Y-120413274D01*
X150051213Y-120521792D01*
X150229651Y-120575916D01*
X150420000Y-120508761D01*
X150420000Y-119455000D01*
X150570000Y-119455000D01*
X150570000Y-120508761D01*
X150760349Y-120575916D01*
X150938787Y-120521792D01*
X151153012Y-120413274D01*
X151341950Y-120265048D01*
X151498340Y-120082810D01*
X151616173Y-119873564D01*
X151690919Y-119645350D01*
X151623955Y-119455000D01*
X150570000Y-119455000D01*
X150420000Y-119455000D01*
X149366045Y-119455000D01*
X149299081Y-119645350D01*
X149154628Y-119645350D01*
X149162275Y-119620142D01*
X149185927Y-119380000D01*
X149162275Y-119139858D01*
X149154629Y-119114650D01*
X149299081Y-119114650D01*
X149366045Y-119305000D01*
X150420000Y-119305000D01*
X150420000Y-118251239D01*
X150229651Y-118184084D01*
X150051213Y-118238208D01*
X149836988Y-118346726D01*
X149648050Y-118494952D01*
X149491660Y-118677190D01*
X149373827Y-118886436D01*
X149299081Y-119114650D01*
X149154629Y-119114650D01*
X149092228Y-118908945D01*
X148978478Y-118696134D01*
X148825397Y-118509603D01*
X148638866Y-118356522D01*
X148426055Y-118242772D01*
X148195142Y-118172725D01*
X148015178Y-118155000D01*
X147894822Y-118155000D01*
X147714858Y-118172725D01*
X147483945Y-118242772D01*
X147328813Y-118325692D01*
X148571306Y-117083200D01*
X148605682Y-117083200D01*
X148736090Y-117057260D01*
X148858932Y-117006377D01*
X148969487Y-116932507D01*
X149063507Y-116838487D01*
X149137377Y-116727932D01*
X149188260Y-116605090D01*
X149214200Y-116474682D01*
X149214200Y-116341718D01*
X149188260Y-116211310D01*
X149137377Y-116088468D01*
X149063507Y-115977913D01*
X148969487Y-115883893D01*
X148858932Y-115810023D01*
X148736090Y-115759140D01*
X148605682Y-115733200D01*
X148472718Y-115733200D01*
X148342310Y-115759140D01*
X148219468Y-115810023D01*
X148108913Y-115883893D01*
X148014893Y-115977913D01*
X147941023Y-116088468D01*
X147890140Y-116211310D01*
X147864200Y-116341718D01*
X147864200Y-116376094D01*
X146706495Y-117533800D01*
X145416538Y-117533800D01*
X145504867Y-117426171D01*
X145602367Y-117243762D01*
X145662407Y-117045836D01*
X145682680Y-116840000D01*
X145662407Y-116634164D01*
X145602367Y-116436238D01*
X145504867Y-116253829D01*
X145373654Y-116093946D01*
X145213771Y-115962733D01*
X145127600Y-115916673D01*
X145127600Y-115909966D01*
X145130019Y-115885406D01*
X145120365Y-115787389D01*
X145103927Y-115733200D01*
X145091775Y-115693139D01*
X145045346Y-115606277D01*
X144982864Y-115530142D01*
X144963786Y-115514485D01*
X144568800Y-115119500D01*
X144568800Y-114960690D01*
X144592313Y-114958374D01*
X144663000Y-114936931D01*
X144728147Y-114902109D01*
X144785248Y-114855248D01*
X144832109Y-114798147D01*
X144866931Y-114733000D01*
X144888374Y-114662313D01*
X144895614Y-114588800D01*
X144895614Y-114419091D01*
X146114906Y-113199800D01*
X147094006Y-113199800D01*
X147118313Y-113224107D01*
X147228868Y-113297977D01*
X147351710Y-113348860D01*
X147482118Y-113374800D01*
X147615082Y-113374800D01*
X147745490Y-113348860D01*
X147868332Y-113297977D01*
X147978887Y-113224107D01*
X148072907Y-113130087D01*
X148146777Y-113019532D01*
X148197660Y-112896690D01*
X148223600Y-112766282D01*
X148223600Y-112633318D01*
X148197660Y-112502910D01*
X148146777Y-112380068D01*
X148072907Y-112269513D01*
X147978887Y-112175493D01*
X147868332Y-112101623D01*
X147745490Y-112050740D01*
X147615082Y-112024800D01*
X147482118Y-112024800D01*
X147351710Y-112050740D01*
X147228868Y-112101623D01*
X147118313Y-112175493D01*
X147094006Y-112199800D01*
X145932359Y-112199800D01*
X145907799Y-112197381D01*
X145809782Y-112207035D01*
X145793461Y-112211986D01*
X145715533Y-112235625D01*
X145628671Y-112282054D01*
X145552536Y-112344536D01*
X145536875Y-112363619D01*
X144893372Y-113007122D01*
X144800050Y-112913800D01*
X144143800Y-112913800D01*
X144143800Y-113370050D01*
X144237550Y-113463800D01*
X144435418Y-113465076D01*
X144188509Y-113711986D01*
X143618800Y-113711986D01*
X143545287Y-113719226D01*
X143474600Y-113740669D01*
X143409453Y-113775491D01*
X143352352Y-113822352D01*
X143305491Y-113879453D01*
X143270669Y-113944600D01*
X143249226Y-114015287D01*
X143241986Y-114088800D01*
X143241986Y-114588800D01*
X143249226Y-114662313D01*
X143270669Y-114733000D01*
X143305491Y-114798147D01*
X143352352Y-114855248D01*
X143409453Y-114902109D01*
X143474600Y-114936931D01*
X143545287Y-114958374D01*
X143568800Y-114960690D01*
X143568800Y-115302045D01*
X143566381Y-115326606D01*
X143568800Y-115351165D01*
X143576035Y-115424622D01*
X143604625Y-115518872D01*
X143651054Y-115605735D01*
X143713536Y-115681870D01*
X143732623Y-115697535D01*
X144017477Y-115982390D01*
X143881546Y-116093946D01*
X143750333Y-116253829D01*
X143679414Y-116386509D01*
X143679414Y-116165000D01*
X143672174Y-116091487D01*
X143650731Y-116020800D01*
X143615909Y-115955653D01*
X143569048Y-115898552D01*
X143511947Y-115851691D01*
X143446800Y-115816869D01*
X143376113Y-115795426D01*
X143302600Y-115788186D01*
X143171400Y-115788186D01*
X143171400Y-113088800D01*
X143241986Y-113088800D01*
X143249226Y-113162313D01*
X143270669Y-113233000D01*
X143305491Y-113298147D01*
X143352352Y-113355248D01*
X143409453Y-113402109D01*
X143474600Y-113436931D01*
X143545287Y-113458374D01*
X143618800Y-113465614D01*
X143900050Y-113463800D01*
X143993800Y-113370050D01*
X143993800Y-112913800D01*
X143337550Y-112913800D01*
X143243800Y-113007550D01*
X143241986Y-113088800D01*
X143171400Y-113088800D01*
X143171400Y-112588800D01*
X143241986Y-112588800D01*
X143243800Y-112670050D01*
X143337550Y-112763800D01*
X143993800Y-112763800D01*
X143993800Y-112307550D01*
X144143800Y-112307550D01*
X144143800Y-112763800D01*
X144800050Y-112763800D01*
X144893800Y-112670050D01*
X144895614Y-112588800D01*
X144888374Y-112515287D01*
X144866931Y-112444600D01*
X144832109Y-112379453D01*
X144785248Y-112322352D01*
X144728147Y-112275491D01*
X144663000Y-112240669D01*
X144592313Y-112219226D01*
X144518800Y-112211986D01*
X144237550Y-112213800D01*
X144143800Y-112307550D01*
X143993800Y-112307550D01*
X143900050Y-112213800D01*
X143618800Y-112211986D01*
X143545287Y-112219226D01*
X143474600Y-112240669D01*
X143409453Y-112275491D01*
X143352352Y-112322352D01*
X143305491Y-112379453D01*
X143270669Y-112444600D01*
X143249226Y-112515287D01*
X143241986Y-112588800D01*
X143171400Y-112588800D01*
X143171400Y-111912779D01*
X143173939Y-111886999D01*
X143171400Y-111861219D01*
X143171400Y-111861212D01*
X143163803Y-111784082D01*
X143133783Y-111685119D01*
X143085033Y-111593914D01*
X143019427Y-111513973D01*
X142999396Y-111497534D01*
X142977462Y-111475600D01*
X143316986Y-111475600D01*
X143324226Y-111549113D01*
X143345669Y-111619800D01*
X143380491Y-111684947D01*
X143427352Y-111742048D01*
X143484453Y-111788909D01*
X143549600Y-111823731D01*
X143620287Y-111845174D01*
X143693800Y-111852414D01*
X143900050Y-111850600D01*
X143993800Y-111756850D01*
X143993800Y-111150600D01*
X144143800Y-111150600D01*
X144143800Y-111756850D01*
X144237550Y-111850600D01*
X144443800Y-111852414D01*
X144517313Y-111845174D01*
X144588000Y-111823731D01*
X144653147Y-111788909D01*
X144710248Y-111742048D01*
X144757109Y-111684947D01*
X144791931Y-111619800D01*
X144813374Y-111549113D01*
X144820614Y-111475600D01*
X148092186Y-111475600D01*
X148099426Y-111549113D01*
X148120869Y-111619800D01*
X148155691Y-111684947D01*
X148202552Y-111742048D01*
X148259653Y-111788909D01*
X148324800Y-111823731D01*
X148395487Y-111845174D01*
X148469000Y-111852414D01*
X148675250Y-111850600D01*
X148769000Y-111756850D01*
X148769000Y-111150600D01*
X148919000Y-111150600D01*
X148919000Y-111756850D01*
X149012750Y-111850600D01*
X149219000Y-111852414D01*
X149292513Y-111845174D01*
X149363200Y-111823731D01*
X149428347Y-111788909D01*
X149485448Y-111742048D01*
X149532309Y-111684947D01*
X149567131Y-111619800D01*
X149580600Y-111575399D01*
X149594069Y-111619800D01*
X149628891Y-111684947D01*
X149675752Y-111742048D01*
X149732853Y-111788909D01*
X149798000Y-111823731D01*
X149868687Y-111845174D01*
X149942200Y-111852414D01*
X150148450Y-111850600D01*
X150242200Y-111756850D01*
X150242200Y-111150600D01*
X149660950Y-111150600D01*
X149580600Y-111230950D01*
X149500250Y-111150600D01*
X148919000Y-111150600D01*
X148769000Y-111150600D01*
X148187750Y-111150600D01*
X148094000Y-111244350D01*
X148092186Y-111475600D01*
X144820614Y-111475600D01*
X144818800Y-111244350D01*
X144725050Y-111150600D01*
X144143800Y-111150600D01*
X143993800Y-111150600D01*
X143412550Y-111150600D01*
X143318800Y-111244350D01*
X143316986Y-111475600D01*
X142977462Y-111475600D01*
X142104600Y-110602739D01*
X142104600Y-110348494D01*
X142144400Y-110352414D01*
X142350650Y-110350600D01*
X142444400Y-110256850D01*
X142444400Y-109650600D01*
X142594400Y-109650600D01*
X142594400Y-110256850D01*
X142688150Y-110350600D01*
X142894400Y-110352414D01*
X142967913Y-110345174D01*
X143038600Y-110323731D01*
X143103747Y-110288909D01*
X143160848Y-110242048D01*
X143207709Y-110184947D01*
X143242531Y-110119800D01*
X143263974Y-110049113D01*
X143271214Y-109975600D01*
X143269400Y-109744350D01*
X143175650Y-109650600D01*
X142594400Y-109650600D01*
X142444400Y-109650600D01*
X142424400Y-109650600D01*
X142424400Y-109500600D01*
X142444400Y-109500600D01*
X142444400Y-109480600D01*
X142594400Y-109480600D01*
X142594400Y-109500600D01*
X143175650Y-109500600D01*
X143269400Y-109406850D01*
X143271214Y-109175600D01*
X143263974Y-109102087D01*
X143242531Y-109031400D01*
X143207709Y-108966253D01*
X143160848Y-108909152D01*
X143103747Y-108862291D01*
X143038600Y-108827469D01*
X143032439Y-108825600D01*
X143038600Y-108823731D01*
X143103747Y-108788909D01*
X143160848Y-108742048D01*
X143207709Y-108684947D01*
X143242531Y-108619800D01*
X143248355Y-108600600D01*
X143467020Y-108600600D01*
X143492800Y-108603139D01*
X143518580Y-108600600D01*
X143518588Y-108600600D01*
X143595718Y-108593003D01*
X143694681Y-108562983D01*
X143785886Y-108514233D01*
X143798820Y-108503619D01*
X143828552Y-108539848D01*
X143885653Y-108586709D01*
X143950800Y-108621531D01*
X144021487Y-108642974D01*
X144095000Y-108650214D01*
X144345000Y-108650214D01*
X144418513Y-108642974D01*
X144470000Y-108627355D01*
X144521487Y-108642974D01*
X144595000Y-108650214D01*
X144845000Y-108650214D01*
X144918513Y-108642974D01*
X144970000Y-108627355D01*
X145021487Y-108642974D01*
X145095000Y-108650214D01*
X145345000Y-108650214D01*
X145418513Y-108642974D01*
X145470000Y-108627355D01*
X145521487Y-108642974D01*
X145595000Y-108650214D01*
X145720001Y-108650214D01*
X145720001Y-108700600D01*
X145632220Y-108700600D01*
X145463172Y-108734226D01*
X145303932Y-108800185D01*
X145160620Y-108895943D01*
X145038743Y-109017820D01*
X145000136Y-109075600D01*
X144805339Y-109075600D01*
X144791931Y-109031400D01*
X144757109Y-108966253D01*
X144710248Y-108909152D01*
X144653147Y-108862291D01*
X144588000Y-108827469D01*
X144517313Y-108806026D01*
X144443800Y-108798786D01*
X143693800Y-108798786D01*
X143620287Y-108806026D01*
X143549600Y-108827469D01*
X143484453Y-108862291D01*
X143427352Y-108909152D01*
X143380491Y-108966253D01*
X143345669Y-109031400D01*
X143324226Y-109102087D01*
X143316986Y-109175600D01*
X143316986Y-109975600D01*
X143324226Y-110049113D01*
X143345669Y-110119800D01*
X143380491Y-110184947D01*
X143427352Y-110242048D01*
X143484453Y-110288909D01*
X143549600Y-110323731D01*
X143555761Y-110325600D01*
X143549600Y-110327469D01*
X143484453Y-110362291D01*
X143427352Y-110409152D01*
X143380491Y-110466253D01*
X143345669Y-110531400D01*
X143324226Y-110602087D01*
X143316986Y-110675600D01*
X143318800Y-110906850D01*
X143412550Y-111000600D01*
X143993800Y-111000600D01*
X143993800Y-110980600D01*
X144143800Y-110980600D01*
X144143800Y-111000600D01*
X144725050Y-111000600D01*
X144818800Y-110906850D01*
X144820614Y-110675600D01*
X144813374Y-110602087D01*
X144791931Y-110531400D01*
X144757109Y-110466253D01*
X144710248Y-110409152D01*
X144653147Y-110362291D01*
X144588000Y-110327469D01*
X144581839Y-110325600D01*
X144588000Y-110323731D01*
X144653147Y-110288909D01*
X144710248Y-110242048D01*
X144757109Y-110184947D01*
X144791931Y-110119800D01*
X144805339Y-110075600D01*
X145000136Y-110075600D01*
X145038743Y-110133380D01*
X145160620Y-110255257D01*
X145303932Y-110351015D01*
X145463172Y-110416974D01*
X145632220Y-110450600D01*
X145804580Y-110450600D01*
X145973628Y-110416974D01*
X146132868Y-110351015D01*
X146276180Y-110255257D01*
X146398057Y-110133380D01*
X146468400Y-110028104D01*
X146538743Y-110133380D01*
X146660620Y-110255257D01*
X146803932Y-110351015D01*
X146963172Y-110416974D01*
X147132220Y-110450600D01*
X147304580Y-110450600D01*
X147473628Y-110416974D01*
X147632868Y-110351015D01*
X147776180Y-110255257D01*
X147898057Y-110133380D01*
X147936664Y-110075600D01*
X148107461Y-110075600D01*
X148120869Y-110119800D01*
X148155691Y-110184947D01*
X148202552Y-110242048D01*
X148259653Y-110288909D01*
X148324800Y-110323731D01*
X148330961Y-110325600D01*
X148324800Y-110327469D01*
X148259653Y-110362291D01*
X148202552Y-110409152D01*
X148155691Y-110466253D01*
X148120869Y-110531400D01*
X148099426Y-110602087D01*
X148092186Y-110675600D01*
X148094000Y-110906850D01*
X148187750Y-111000600D01*
X148769000Y-111000600D01*
X148769000Y-110980600D01*
X148919000Y-110980600D01*
X148919000Y-111000600D01*
X149500250Y-111000600D01*
X149580600Y-110920250D01*
X149660950Y-111000600D01*
X150242200Y-111000600D01*
X150242200Y-110980600D01*
X150392200Y-110980600D01*
X150392200Y-111000600D01*
X150412200Y-111000600D01*
X150412200Y-111150600D01*
X150392200Y-111150600D01*
X150392200Y-111756850D01*
X150485950Y-111850600D01*
X150644989Y-111851999D01*
X150644989Y-112208608D01*
X150636930Y-112203223D01*
X150514088Y-112152340D01*
X150383680Y-112126400D01*
X150250716Y-112126400D01*
X150120308Y-112152340D01*
X149997466Y-112203223D01*
X149886911Y-112277093D01*
X149792891Y-112371113D01*
X149719021Y-112481668D01*
X149668138Y-112604510D01*
X149642198Y-112734918D01*
X149642198Y-112867882D01*
X149668138Y-112998290D01*
X149719021Y-113121132D01*
X149792891Y-113231687D01*
X149886911Y-113325707D01*
X149997466Y-113399577D01*
X150120308Y-113450460D01*
X150147401Y-113455849D01*
X150147400Y-117212842D01*
X150144981Y-117237402D01*
X150154635Y-117335419D01*
X150158676Y-117348740D01*
X150183225Y-117429668D01*
X150229654Y-117516531D01*
X150292136Y-117592666D01*
X150311224Y-117608331D01*
X150943476Y-118240583D01*
X150938787Y-118238208D01*
X150760349Y-118184084D01*
X150570000Y-118251239D01*
X150570000Y-119305000D01*
X151623955Y-119305000D01*
X151690919Y-119114650D01*
X151629248Y-118926355D01*
X151808186Y-119105294D01*
X151808186Y-120230000D01*
X151815426Y-120303513D01*
X151836869Y-120374200D01*
X151871691Y-120439347D01*
X151918552Y-120496448D01*
X151975653Y-120543309D01*
X152040800Y-120578131D01*
X152111487Y-120599574D01*
X152185000Y-120606814D01*
X153885000Y-120606814D01*
X153958513Y-120599574D01*
X154029200Y-120578131D01*
X154094347Y-120543309D01*
X154151448Y-120496448D01*
X154198309Y-120439347D01*
X154233131Y-120374200D01*
X154254574Y-120303513D01*
X154261814Y-120230000D01*
X154261814Y-118530000D01*
X154254574Y-118456487D01*
X154233131Y-118385800D01*
X154198309Y-118320653D01*
X154151448Y-118263552D01*
X154124104Y-118241112D01*
X154129347Y-118238309D01*
X154186448Y-118191448D01*
X154233309Y-118134347D01*
X154250493Y-118102198D01*
X154719077Y-118570783D01*
X154593296Y-118724047D01*
X154484189Y-118928171D01*
X154417002Y-119149660D01*
X154394315Y-119380000D01*
X154417002Y-119610340D01*
X154484189Y-119831829D01*
X154593296Y-120035953D01*
X154740130Y-120214870D01*
X154919047Y-120361704D01*
X155123171Y-120470811D01*
X155344660Y-120537998D01*
X155517280Y-120555000D01*
X155632720Y-120555000D01*
X155805340Y-120537998D01*
X156026829Y-120470811D01*
X156230953Y-120361704D01*
X156409870Y-120214870D01*
X156556704Y-120035953D01*
X156665811Y-119831829D01*
X156732998Y-119610340D01*
X156755685Y-119380000D01*
X156732998Y-119149660D01*
X156665811Y-118928171D01*
X156556704Y-118724047D01*
X156409870Y-118545130D01*
X156230953Y-118398296D01*
X156026829Y-118289189D01*
X155805340Y-118222002D01*
X155782232Y-118219726D01*
X155577506Y-118015000D01*
X155632720Y-118015000D01*
X155805340Y-117997998D01*
X156026829Y-117930811D01*
X156230953Y-117821704D01*
X156409870Y-117674870D01*
X156556704Y-117495953D01*
X156665811Y-117291829D01*
X156732998Y-117070340D01*
X156755685Y-116840000D01*
X156732998Y-116609660D01*
X156665811Y-116388171D01*
X156556704Y-116184047D01*
X156409870Y-116005130D01*
X156230953Y-115858296D01*
X156026829Y-115749189D01*
X155805340Y-115682002D01*
X155632720Y-115665000D01*
X155517280Y-115665000D01*
X155344660Y-115682002D01*
X155175440Y-115733334D01*
X154675929Y-115233824D01*
X154660264Y-115214736D01*
X154584129Y-115152254D01*
X154497267Y-115105825D01*
X154403017Y-115077235D01*
X154329560Y-115070000D01*
X154305000Y-115067581D01*
X154291780Y-115068883D01*
X154289574Y-115046487D01*
X154268131Y-114975800D01*
X154233309Y-114910653D01*
X154186448Y-114853552D01*
X154129347Y-114806691D01*
X154064200Y-114771869D01*
X153993513Y-114750426D01*
X153920000Y-114743186D01*
X153420000Y-114743186D01*
X153346487Y-114750426D01*
X153275800Y-114771869D01*
X153210653Y-114806691D01*
X153153552Y-114853552D01*
X153106691Y-114910653D01*
X153071869Y-114975800D01*
X153050426Y-115046487D01*
X153043186Y-115120000D01*
X153043186Y-116020000D01*
X153050426Y-116093513D01*
X153071869Y-116164200D01*
X153106691Y-116229347D01*
X153153552Y-116286448D01*
X153210653Y-116333309D01*
X153275800Y-116368131D01*
X153346487Y-116389574D01*
X153420000Y-116396814D01*
X153920000Y-116396814D01*
X153993513Y-116389574D01*
X154064200Y-116368131D01*
X154129347Y-116333309D01*
X154186448Y-116286448D01*
X154233309Y-116229347D01*
X154241645Y-116213751D01*
X154468334Y-116440440D01*
X154417002Y-116609660D01*
X154394315Y-116840000D01*
X154408127Y-116980237D01*
X154354960Y-116975000D01*
X154330400Y-116972581D01*
X154305840Y-116975000D01*
X154291890Y-116975000D01*
X154289574Y-116951487D01*
X154268131Y-116880800D01*
X154233309Y-116815653D01*
X154186448Y-116758552D01*
X154129347Y-116711691D01*
X154064200Y-116676869D01*
X153993513Y-116655426D01*
X153920000Y-116648186D01*
X153420000Y-116648186D01*
X153346487Y-116655426D01*
X153275800Y-116676869D01*
X153210653Y-116711691D01*
X153153552Y-116758552D01*
X153106691Y-116815653D01*
X153071869Y-116880800D01*
X153050426Y-116951487D01*
X153043186Y-117025000D01*
X153043186Y-117925000D01*
X153050426Y-117998513D01*
X153071869Y-118069200D01*
X153106691Y-118134347D01*
X153122152Y-118153186D01*
X152717848Y-118153186D01*
X152733309Y-118134347D01*
X152768131Y-118069200D01*
X152789574Y-117998513D01*
X152796814Y-117925000D01*
X152796814Y-117025000D01*
X152789574Y-116951487D01*
X152768131Y-116880800D01*
X152733309Y-116815653D01*
X152686448Y-116758552D01*
X152629347Y-116711691D01*
X152564200Y-116676869D01*
X152493513Y-116655426D01*
X152420000Y-116648186D01*
X151920000Y-116648186D01*
X151846487Y-116655426D01*
X151775800Y-116676869D01*
X151710653Y-116711691D01*
X151667781Y-116746875D01*
X151644988Y-116724082D01*
X151644988Y-116276013D01*
X151653552Y-116286448D01*
X151710653Y-116333309D01*
X151775800Y-116368131D01*
X151846487Y-116389574D01*
X151920000Y-116396814D01*
X152420000Y-116396814D01*
X152493513Y-116389574D01*
X152564200Y-116368131D01*
X152629347Y-116333309D01*
X152686448Y-116286448D01*
X152733309Y-116229347D01*
X152768131Y-116164200D01*
X152789574Y-116093513D01*
X152796814Y-116020000D01*
X152796814Y-115120000D01*
X152789574Y-115046487D01*
X152768131Y-114975800D01*
X152733309Y-114910653D01*
X152686448Y-114853552D01*
X152629347Y-114806691D01*
X152564200Y-114771869D01*
X152493513Y-114750426D01*
X152420000Y-114743186D01*
X152094999Y-114743186D01*
X152094999Y-114491814D01*
X152420000Y-114491814D01*
X152493513Y-114484574D01*
X152564200Y-114463131D01*
X152629347Y-114428309D01*
X152686448Y-114381448D01*
X152733309Y-114324347D01*
X152768131Y-114259200D01*
X152789574Y-114188513D01*
X152796814Y-114115000D01*
X152796814Y-113215000D01*
X152792106Y-113167199D01*
X153269587Y-112689720D01*
X153288664Y-112674064D01*
X153351146Y-112597929D01*
X153360233Y-112580928D01*
X153420000Y-112586814D01*
X153920000Y-112586814D01*
X153993513Y-112579574D01*
X154064200Y-112558131D01*
X154129347Y-112523309D01*
X154186448Y-112476448D01*
X154233309Y-112419347D01*
X154268131Y-112354200D01*
X154289574Y-112283513D01*
X154296814Y-112210000D01*
X154296814Y-111840291D01*
X154396195Y-111740910D01*
X154394315Y-111760000D01*
X154417002Y-111990340D01*
X154484189Y-112211829D01*
X154593296Y-112415953D01*
X154650382Y-112485512D01*
X154186851Y-112949043D01*
X154186448Y-112948552D01*
X154129347Y-112901691D01*
X154064200Y-112866869D01*
X153993513Y-112845426D01*
X153920000Y-112838186D01*
X153420000Y-112838186D01*
X153346487Y-112845426D01*
X153275800Y-112866869D01*
X153210653Y-112901691D01*
X153153552Y-112948552D01*
X153106691Y-113005653D01*
X153071869Y-113070800D01*
X153050426Y-113141487D01*
X153043186Y-113215000D01*
X153043186Y-114115000D01*
X153050426Y-114188513D01*
X153071869Y-114259200D01*
X153106691Y-114324347D01*
X153153552Y-114381448D01*
X153210653Y-114428309D01*
X153275800Y-114463131D01*
X153346487Y-114484574D01*
X153420000Y-114491814D01*
X153920000Y-114491814D01*
X153993513Y-114484574D01*
X154064200Y-114463131D01*
X154129347Y-114428309D01*
X154186448Y-114381448D01*
X154233309Y-114324347D01*
X154268131Y-114259200D01*
X154289574Y-114188513D01*
X154293113Y-114152579D01*
X154370267Y-114129175D01*
X154413412Y-114106114D01*
X154394315Y-114300000D01*
X154417002Y-114530340D01*
X154484189Y-114751829D01*
X154593296Y-114955953D01*
X154740130Y-115134870D01*
X154919047Y-115281704D01*
X155123171Y-115390811D01*
X155344660Y-115457998D01*
X155517280Y-115475000D01*
X155632720Y-115475000D01*
X155805340Y-115457998D01*
X156026829Y-115390811D01*
X156230953Y-115281704D01*
X156409870Y-115134870D01*
X156556704Y-114955953D01*
X156665811Y-114751829D01*
X156732998Y-114530340D01*
X156755685Y-114300000D01*
X156732998Y-114069660D01*
X156665811Y-113848171D01*
X156556704Y-113644047D01*
X156409870Y-113465130D01*
X156230953Y-113318296D01*
X156026829Y-113209189D01*
X155805340Y-113142002D01*
X155632720Y-113125000D01*
X155517280Y-113125000D01*
X155415036Y-113135070D01*
X155615107Y-112935000D01*
X155632720Y-112935000D01*
X155805340Y-112917998D01*
X156026829Y-112850811D01*
X156230953Y-112741704D01*
X156409870Y-112594870D01*
X156556704Y-112415953D01*
X156665811Y-112211829D01*
X156732998Y-111990340D01*
X156755685Y-111760000D01*
X156732998Y-111529660D01*
X156665811Y-111308171D01*
X156556704Y-111104047D01*
X156409870Y-110925130D01*
X156318025Y-110849754D01*
X156321102Y-110846005D01*
X156776001Y-110391107D01*
X156776001Y-120119985D01*
X156758267Y-120300854D01*
X156712134Y-120453653D01*
X156637198Y-120594587D01*
X156536317Y-120718279D01*
X156413334Y-120820021D01*
X156272928Y-120895938D01*
X156120449Y-120943138D01*
X155940987Y-120962000D01*
X139976005Y-120962000D01*
X139795146Y-120944267D01*
X139642347Y-120898134D01*
X139501413Y-120823198D01*
X139377721Y-120722317D01*
X139275979Y-120599334D01*
X139200062Y-120458928D01*
X139152862Y-120306449D01*
X139134000Y-120126987D01*
X139134000Y-119380000D01*
X139154315Y-119380000D01*
X139177002Y-119610340D01*
X139244189Y-119831829D01*
X139353296Y-120035953D01*
X139500130Y-120214870D01*
X139679047Y-120361704D01*
X139883171Y-120470811D01*
X140104660Y-120537998D01*
X140277280Y-120555000D01*
X140392720Y-120555000D01*
X140565340Y-120537998D01*
X140786829Y-120470811D01*
X140990953Y-120361704D01*
X141169870Y-120214870D01*
X141316704Y-120035953D01*
X141425811Y-119831829D01*
X141492998Y-119610340D01*
X141515685Y-119380000D01*
X141492998Y-119149660D01*
X141425811Y-118928171D01*
X141316704Y-118724047D01*
X141169870Y-118545130D01*
X140990953Y-118398296D01*
X140786829Y-118289189D01*
X140565340Y-118222002D01*
X140392720Y-118205000D01*
X140277280Y-118205000D01*
X140104660Y-118222002D01*
X139883171Y-118289189D01*
X139679047Y-118398296D01*
X139500130Y-118545130D01*
X139353296Y-118724047D01*
X139244189Y-118928171D01*
X139177002Y-119149660D01*
X139154315Y-119380000D01*
X139134000Y-119380000D01*
X139134000Y-116840000D01*
X139154315Y-116840000D01*
X139177002Y-117070340D01*
X139244189Y-117291829D01*
X139353296Y-117495953D01*
X139500130Y-117674870D01*
X139679047Y-117821704D01*
X139883171Y-117930811D01*
X140104660Y-117997998D01*
X140277280Y-118015000D01*
X140392720Y-118015000D01*
X140565340Y-117997998D01*
X140786829Y-117930811D01*
X140990953Y-117821704D01*
X141169870Y-117674870D01*
X141316704Y-117495953D01*
X141425811Y-117291829D01*
X141492998Y-117070340D01*
X141515685Y-116840000D01*
X141492998Y-116609660D01*
X141425811Y-116388171D01*
X141316704Y-116184047D01*
X141169870Y-116005130D01*
X140990953Y-115858296D01*
X140786829Y-115749189D01*
X140565340Y-115682002D01*
X140392720Y-115665000D01*
X140277280Y-115665000D01*
X140104660Y-115682002D01*
X139883171Y-115749189D01*
X139679047Y-115858296D01*
X139500130Y-116005130D01*
X139353296Y-116184047D01*
X139244189Y-116388171D01*
X139177002Y-116609660D01*
X139154315Y-116840000D01*
X139134000Y-116840000D01*
X139134000Y-114300000D01*
X139154315Y-114300000D01*
X139177002Y-114530340D01*
X139244189Y-114751829D01*
X139353296Y-114955953D01*
X139500130Y-115134870D01*
X139679047Y-115281704D01*
X139883171Y-115390811D01*
X140104660Y-115457998D01*
X140277280Y-115475000D01*
X140392720Y-115475000D01*
X140565340Y-115457998D01*
X140786829Y-115390811D01*
X140990953Y-115281704D01*
X141169870Y-115134870D01*
X141316704Y-114955953D01*
X141425811Y-114751829D01*
X141492998Y-114530340D01*
X141515685Y-114300000D01*
X141492998Y-114069660D01*
X141425811Y-113848171D01*
X141316704Y-113644047D01*
X141169870Y-113465130D01*
X140990953Y-113318296D01*
X140786829Y-113209189D01*
X140565340Y-113142002D01*
X140392720Y-113125000D01*
X140277280Y-113125000D01*
X140104660Y-113142002D01*
X139883171Y-113209189D01*
X139679047Y-113318296D01*
X139500130Y-113465130D01*
X139353296Y-113644047D01*
X139244189Y-113848171D01*
X139177002Y-114069660D01*
X139154315Y-114300000D01*
X139134000Y-114300000D01*
X139134000Y-106680000D01*
X139154315Y-106680000D01*
X139177002Y-106910340D01*
X139244189Y-107131829D01*
X139353296Y-107335953D01*
X139500130Y-107514870D01*
X139679047Y-107661704D01*
X139883171Y-107770811D01*
X140104660Y-107837998D01*
X140277280Y-107855000D01*
X140392720Y-107855000D01*
X140565340Y-107837998D01*
X140786829Y-107770811D01*
X140990953Y-107661704D01*
X141169870Y-107514870D01*
X141316704Y-107335953D01*
X141425811Y-107131829D01*
X141492998Y-106910340D01*
X141515685Y-106680000D01*
X141492998Y-106449660D01*
X141425811Y-106228171D01*
X141316704Y-106024047D01*
X141169870Y-105845130D01*
X140990953Y-105698296D01*
X140786829Y-105589189D01*
X140565340Y-105522002D01*
X140392720Y-105505000D01*
X140277280Y-105505000D01*
X140104660Y-105522002D01*
X139883171Y-105589189D01*
X139679047Y-105698296D01*
X139500130Y-105845130D01*
X139353296Y-106024047D01*
X139244189Y-106228171D01*
X139177002Y-106449660D01*
X139154315Y-106680000D01*
X139134000Y-106680000D01*
X139134000Y-99317512D01*
X139188565Y-99317512D01*
X139238705Y-99482813D01*
X139342257Y-99688565D01*
X139483959Y-99870162D01*
X139658366Y-100020625D01*
X139858776Y-100134172D01*
X140077487Y-100206439D01*
X140260000Y-100138858D01*
X140260000Y-99135000D01*
X139256354Y-99135000D01*
X139188565Y-99317512D01*
X139134000Y-99317512D01*
X139134000Y-98802488D01*
X139188565Y-98802488D01*
X139256354Y-98985000D01*
X140260000Y-98985000D01*
X140260000Y-97981142D01*
X140077487Y-97913561D01*
X139858776Y-97985828D01*
X139658366Y-98099375D01*
X139483959Y-98249838D01*
X139342257Y-98431435D01*
X139238705Y-98637187D01*
X139188565Y-98802488D01*
X139134000Y-98802488D01*
X139134000Y-96520000D01*
X139154315Y-96520000D01*
X139177002Y-96750340D01*
X139244189Y-96971829D01*
X139353296Y-97175953D01*
X139500130Y-97354870D01*
X139679047Y-97501704D01*
X139883171Y-97610811D01*
X140104660Y-97677998D01*
X140277280Y-97695000D01*
X140392720Y-97695000D01*
X140565340Y-97677998D01*
X140786829Y-97610811D01*
X140990953Y-97501704D01*
X141169870Y-97354870D01*
X141316704Y-97175953D01*
X141425811Y-96971829D01*
X141492998Y-96750340D01*
X141515685Y-96520000D01*
X141492998Y-96289660D01*
X141425811Y-96068171D01*
X141316704Y-95864047D01*
X141169870Y-95685130D01*
X140990953Y-95538296D01*
X140786829Y-95429189D01*
X140565340Y-95362002D01*
X140392720Y-95345000D01*
X140277280Y-95345000D01*
X140104660Y-95362002D01*
X139883171Y-95429189D01*
X139679047Y-95538296D01*
X139500130Y-95685130D01*
X139353296Y-95864047D01*
X139244189Y-96068171D01*
X139177002Y-96289660D01*
X139154315Y-96520000D01*
X139134000Y-96520000D01*
X139134000Y-93980000D01*
X139154315Y-93980000D01*
X139177002Y-94210340D01*
X139244189Y-94431829D01*
X139353296Y-94635953D01*
X139500130Y-94814870D01*
X139679047Y-94961704D01*
X139883171Y-95070811D01*
X140104660Y-95137998D01*
X140277280Y-95155000D01*
X140392720Y-95155000D01*
X140565340Y-95137998D01*
X140786829Y-95070811D01*
X140990953Y-94961704D01*
X141169870Y-94814870D01*
X141316704Y-94635953D01*
X141425811Y-94431829D01*
X141492998Y-94210340D01*
X141515685Y-93980000D01*
X141492998Y-93749660D01*
X141425811Y-93528171D01*
X141316704Y-93324047D01*
X141169870Y-93145130D01*
X140990953Y-92998296D01*
X140786829Y-92889189D01*
X140565340Y-92822002D01*
X140392720Y-92805000D01*
X140277280Y-92805000D01*
X140104660Y-92822002D01*
X139883171Y-92889189D01*
X139679047Y-92998296D01*
X139500130Y-93145130D01*
X139353296Y-93324047D01*
X139244189Y-93528171D01*
X139177002Y-93749660D01*
X139154315Y-93980000D01*
X139134000Y-93980000D01*
X139134000Y-85620005D01*
X139151733Y-85439146D01*
X139197866Y-85286348D01*
X139272804Y-85145411D01*
X139373684Y-85021719D01*
X139496670Y-84919977D01*
X139637071Y-84844062D01*
X139669576Y-84834000D01*
X146582607Y-84834000D01*
X146592222Y-84864311D01*
X146592222Y-84864311D01*
G37*
X146592222Y-84864311D02*
X146608306Y-84901838D01*
X146623833Y-84939509D01*
X146626821Y-84945036D01*
X146722348Y-85118797D01*
X146745400Y-85152464D01*
X146767959Y-85186418D01*
X146771964Y-85191260D01*
X146800611Y-85225400D01*
X146355179Y-85225400D01*
X146329399Y-85222861D01*
X146303619Y-85225400D01*
X144450180Y-85225400D01*
X144424400Y-85222861D01*
X144398620Y-85225400D01*
X142951579Y-85225400D01*
X142925799Y-85222861D01*
X142900019Y-85225400D01*
X142900012Y-85225400D01*
X142822882Y-85232997D01*
X142723919Y-85263017D01*
X142632714Y-85311767D01*
X142552773Y-85377373D01*
X142536329Y-85397410D01*
X142522010Y-85411729D01*
X142501973Y-85428173D01*
X142436367Y-85508114D01*
X142427884Y-85523985D01*
X142420959Y-85507268D01*
X142347089Y-85396713D01*
X142253069Y-85302693D01*
X142142514Y-85228823D01*
X142019672Y-85177940D01*
X141889264Y-85152000D01*
X141756300Y-85152000D01*
X141625892Y-85177940D01*
X141503050Y-85228823D01*
X141403122Y-85295592D01*
X141401448Y-85293552D01*
X141344347Y-85246691D01*
X141279200Y-85211869D01*
X141208513Y-85190426D01*
X141135000Y-85183186D01*
X139535000Y-85183186D01*
X139461487Y-85190426D01*
X139390800Y-85211869D01*
X139325653Y-85246691D01*
X139268552Y-85293552D01*
X139221691Y-85350653D01*
X139186869Y-85415800D01*
X139165426Y-85486487D01*
X139158186Y-85560000D01*
X139158186Y-87160000D01*
X139165426Y-87233513D01*
X139186869Y-87304200D01*
X139221691Y-87369347D01*
X139268552Y-87426448D01*
X139325653Y-87473309D01*
X139390800Y-87508131D01*
X139461487Y-87529574D01*
X139535000Y-87536814D01*
X141056493Y-87536814D01*
X141054852Y-87539885D01*
X141024832Y-87638848D01*
X141014696Y-87741765D01*
X141017236Y-87767555D01*
X141017236Y-87939866D01*
X140990953Y-87918296D01*
X140786829Y-87809189D01*
X140565340Y-87742002D01*
X140392720Y-87725000D01*
X140277280Y-87725000D01*
X140104660Y-87742002D01*
X139883171Y-87809189D01*
X139679047Y-87918296D01*
X139500130Y-88065130D01*
X139353296Y-88244047D01*
X139244189Y-88448171D01*
X139177002Y-88669660D01*
X139154315Y-88900000D01*
X139177002Y-89130340D01*
X139244189Y-89351829D01*
X139353296Y-89555953D01*
X139500130Y-89734870D01*
X139679047Y-89881704D01*
X139883171Y-89990811D01*
X140104660Y-90057998D01*
X140277280Y-90075000D01*
X140392720Y-90075000D01*
X140565340Y-90057998D01*
X140786829Y-89990811D01*
X140990953Y-89881704D01*
X141017235Y-89860135D01*
X141017235Y-90015303D01*
X140707433Y-90325105D01*
X140565340Y-90282002D01*
X140392720Y-90265000D01*
X140277280Y-90265000D01*
X140104660Y-90282002D01*
X139883171Y-90349189D01*
X139679047Y-90458296D01*
X139500130Y-90605130D01*
X139353296Y-90784047D01*
X139244189Y-90988171D01*
X139177002Y-91209660D01*
X139154315Y-91440000D01*
X139177002Y-91670340D01*
X139244189Y-91891829D01*
X139353296Y-92095953D01*
X139500130Y-92274870D01*
X139679047Y-92421704D01*
X139883171Y-92530811D01*
X140104660Y-92597998D01*
X140277280Y-92615000D01*
X140392720Y-92615000D01*
X140565340Y-92597998D01*
X140786829Y-92530811D01*
X140990953Y-92421704D01*
X141169870Y-92274870D01*
X141316704Y-92095953D01*
X141425811Y-91891829D01*
X141492998Y-91670340D01*
X141515685Y-91440000D01*
X141492998Y-91209660D01*
X141449895Y-91067567D01*
X141895231Y-90622231D01*
X141915262Y-90605792D01*
X141980868Y-90525851D01*
X142029618Y-90434646D01*
X142059638Y-90335683D01*
X142067235Y-90258553D01*
X142067235Y-90258546D01*
X142069774Y-90232766D01*
X142067235Y-90206986D01*
X142067235Y-87959226D01*
X142125000Y-87901461D01*
X142125000Y-87959002D01*
X142218748Y-87959002D01*
X142125000Y-88052750D01*
X142123186Y-88284000D01*
X142130426Y-88357513D01*
X142151869Y-88428200D01*
X142186691Y-88493347D01*
X142233552Y-88550448D01*
X142290653Y-88597309D01*
X142355800Y-88632131D01*
X142426487Y-88653574D01*
X142471427Y-88658000D01*
X142426487Y-88662426D01*
X142355800Y-88683869D01*
X142290653Y-88718691D01*
X142233552Y-88765552D01*
X142186691Y-88822653D01*
X142151869Y-88887800D01*
X142130426Y-88958487D01*
X142123186Y-89032000D01*
X142125000Y-89263250D01*
X142218750Y-89357000D01*
X142800000Y-89357000D01*
X142800000Y-88750750D01*
X142707250Y-88658000D01*
X142800000Y-88565250D01*
X142800000Y-87959000D01*
X142950000Y-87959000D01*
X142950000Y-88565250D01*
X143042750Y-88658000D01*
X142950000Y-88750750D01*
X142950000Y-89357000D01*
X143531250Y-89357000D01*
X143625000Y-89263250D01*
X143626814Y-89032000D01*
X143619574Y-88958487D01*
X143598131Y-88887800D01*
X143563309Y-88822653D01*
X143516448Y-88765552D01*
X143459347Y-88718691D01*
X143394200Y-88683869D01*
X143323513Y-88662426D01*
X143278573Y-88658000D01*
X143323513Y-88653574D01*
X143394200Y-88632131D01*
X143459347Y-88597309D01*
X143516448Y-88550448D01*
X143563309Y-88493347D01*
X143598131Y-88428200D01*
X143619574Y-88357513D01*
X143626814Y-88284000D01*
X143625000Y-88052750D01*
X143531250Y-87959000D01*
X142950000Y-87959000D01*
X142800000Y-87959000D01*
X142780000Y-87959000D01*
X142780000Y-87809000D01*
X142800000Y-87809000D01*
X142800000Y-87789000D01*
X142950000Y-87789000D01*
X142950000Y-87809000D01*
X143531250Y-87809000D01*
X143625000Y-87715250D01*
X143626814Y-87484000D01*
X143619574Y-87410487D01*
X143598131Y-87339800D01*
X143563309Y-87274653D01*
X143516448Y-87217552D01*
X143459347Y-87170691D01*
X143394200Y-87135869D01*
X143388039Y-87134000D01*
X143394200Y-87132131D01*
X143459347Y-87097309D01*
X143516448Y-87050448D01*
X143563309Y-86993347D01*
X143598131Y-86928200D01*
X143619574Y-86857513D01*
X143626814Y-86784000D01*
X143626814Y-86275400D01*
X143733221Y-86275400D01*
X143730869Y-86279800D01*
X143709426Y-86350487D01*
X143702186Y-86424000D01*
X143702186Y-87484000D01*
X143709426Y-87557513D01*
X143730869Y-87628200D01*
X143765691Y-87693347D01*
X143812552Y-87750448D01*
X143869653Y-87797309D01*
X143934800Y-87832131D01*
X144005487Y-87853574D01*
X144079000Y-87860814D01*
X144729000Y-87860814D01*
X144802513Y-87853574D01*
X144873200Y-87832131D01*
X144879000Y-87829031D01*
X144884800Y-87832131D01*
X144955487Y-87853574D01*
X145029000Y-87860814D01*
X145185250Y-87859000D01*
X145279000Y-87765250D01*
X145279000Y-87029000D01*
X145259000Y-87029000D01*
X145259000Y-86879000D01*
X145279000Y-86879000D01*
X145279000Y-86859000D01*
X145429000Y-86859000D01*
X145429000Y-86879000D01*
X145449000Y-86879000D01*
X145449000Y-87029000D01*
X145429000Y-87029000D01*
X145429000Y-87765250D01*
X145522750Y-87859000D01*
X145679000Y-87860814D01*
X145752513Y-87853574D01*
X145823200Y-87832131D01*
X145829000Y-87829031D01*
X145834800Y-87832131D01*
X145905487Y-87853574D01*
X145979000Y-87860814D01*
X146629000Y-87860814D01*
X146702513Y-87853574D01*
X146773200Y-87832131D01*
X146838347Y-87797309D01*
X146895448Y-87750448D01*
X146942309Y-87693347D01*
X146977131Y-87628200D01*
X146998574Y-87557513D01*
X147005814Y-87484000D01*
X147005814Y-87254000D01*
X147203186Y-87254000D01*
X147205000Y-87485250D01*
X147298750Y-87579000D01*
X147880000Y-87579000D01*
X147880000Y-86972750D01*
X148030000Y-86972750D01*
X148030000Y-87579000D01*
X148611250Y-87579000D01*
X148705000Y-87485250D01*
X148706814Y-87254000D01*
X148790686Y-87254000D01*
X148792500Y-87485250D01*
X148886250Y-87579000D01*
X149467500Y-87579000D01*
X149467500Y-86972750D01*
X149617500Y-86972750D01*
X149617500Y-87579000D01*
X150198750Y-87579000D01*
X150292500Y-87485250D01*
X150294314Y-87254000D01*
X150287074Y-87180487D01*
X150265631Y-87109800D01*
X150230809Y-87044653D01*
X150183948Y-86987552D01*
X150126847Y-86940691D01*
X150061700Y-86905869D01*
X149991013Y-86884426D01*
X149917500Y-86877186D01*
X149711250Y-86879000D01*
X149617500Y-86972750D01*
X149467500Y-86972750D01*
X149373750Y-86879000D01*
X149167500Y-86877186D01*
X149093987Y-86884426D01*
X149023300Y-86905869D01*
X148958153Y-86940691D01*
X148901052Y-86987552D01*
X148854191Y-87044653D01*
X148819369Y-87109800D01*
X148797926Y-87180487D01*
X148790686Y-87254000D01*
X148706814Y-87254000D01*
X148699574Y-87180487D01*
X148678131Y-87109800D01*
X148643309Y-87044653D01*
X148596448Y-86987552D01*
X148539347Y-86940691D01*
X148474200Y-86905869D01*
X148403513Y-86884426D01*
X148330000Y-86877186D01*
X148123750Y-86879000D01*
X148030000Y-86972750D01*
X147880000Y-86972750D01*
X147786250Y-86879000D01*
X147580000Y-86877186D01*
X147506487Y-86884426D01*
X147435800Y-86905869D01*
X147370653Y-86940691D01*
X147313552Y-86987552D01*
X147266691Y-87044653D01*
X147231869Y-87109800D01*
X147210426Y-87180487D01*
X147203186Y-87254000D01*
X147005814Y-87254000D01*
X147005814Y-86424000D01*
X146998574Y-86350487D01*
X146977131Y-86279800D01*
X146974779Y-86275400D01*
X150525221Y-86275400D01*
X150522869Y-86279800D01*
X150501426Y-86350487D01*
X150494186Y-86424000D01*
X150494186Y-87484000D01*
X150501426Y-87557513D01*
X150522869Y-87628200D01*
X150557691Y-87693347D01*
X150604552Y-87750448D01*
X150661653Y-87797309D01*
X150726800Y-87832131D01*
X150797487Y-87853574D01*
X150871000Y-87860814D01*
X151521000Y-87860814D01*
X151594513Y-87853574D01*
X151665200Y-87832131D01*
X151671000Y-87829031D01*
X151676800Y-87832131D01*
X151747487Y-87853574D01*
X151821000Y-87860814D01*
X151977250Y-87859000D01*
X152071000Y-87765250D01*
X152071000Y-87029000D01*
X152051000Y-87029000D01*
X152051000Y-86879000D01*
X152071000Y-86879000D01*
X152071000Y-86859000D01*
X152221000Y-86859000D01*
X152221000Y-86879000D01*
X152241000Y-86879000D01*
X152241000Y-87029000D01*
X152221000Y-87029000D01*
X152221000Y-87765250D01*
X152314750Y-87859000D01*
X152471000Y-87860814D01*
X152544513Y-87853574D01*
X152615200Y-87832131D01*
X152621000Y-87829031D01*
X152626800Y-87832131D01*
X152697487Y-87853574D01*
X152771000Y-87860814D01*
X153421000Y-87860814D01*
X153494513Y-87853574D01*
X153565200Y-87832131D01*
X153630347Y-87797309D01*
X153687448Y-87750448D01*
X153734309Y-87693347D01*
X153769131Y-87628200D01*
X153790574Y-87557513D01*
X153797814Y-87484000D01*
X153797814Y-86424000D01*
X153791511Y-86360000D01*
X154394315Y-86360000D01*
X154417002Y-86590340D01*
X154484189Y-86811829D01*
X154593296Y-87015953D01*
X154740130Y-87194870D01*
X154919047Y-87341704D01*
X155123171Y-87450811D01*
X155344660Y-87517998D01*
X155517280Y-87535000D01*
X155632720Y-87535000D01*
X155805340Y-87517998D01*
X156026829Y-87450811D01*
X156230953Y-87341704D01*
X156409870Y-87194870D01*
X156556704Y-87015953D01*
X156665811Y-86811829D01*
X156732998Y-86590340D01*
X156755685Y-86360000D01*
X156732998Y-86129660D01*
X156665811Y-85908171D01*
X156556704Y-85704047D01*
X156409870Y-85525130D01*
X156230953Y-85378296D01*
X156026829Y-85269189D01*
X155805340Y-85202002D01*
X155632720Y-85185000D01*
X155517280Y-85185000D01*
X155344660Y-85202002D01*
X155123171Y-85269189D01*
X154919047Y-85378296D01*
X154740130Y-85525130D01*
X154593296Y-85704047D01*
X154484189Y-85908171D01*
X154417002Y-86129660D01*
X154394315Y-86360000D01*
X153791511Y-86360000D01*
X153790574Y-86350487D01*
X153769131Y-86279800D01*
X153734309Y-86214653D01*
X153687448Y-86157552D01*
X153630347Y-86110691D01*
X153621777Y-86106110D01*
X153621000Y-86098219D01*
X153621000Y-86098212D01*
X153613403Y-86021082D01*
X153583383Y-85922119D01*
X153534633Y-85830914D01*
X153469027Y-85750973D01*
X153448995Y-85734533D01*
X153111870Y-85397409D01*
X153095427Y-85377373D01*
X153015486Y-85311767D01*
X152924281Y-85263017D01*
X152825318Y-85232997D01*
X152748188Y-85225400D01*
X152748180Y-85225400D01*
X152722400Y-85222861D01*
X152696620Y-85225400D01*
X151206580Y-85225400D01*
X151180800Y-85222861D01*
X151155020Y-85225400D01*
X149108590Y-85225400D01*
X149149973Y-85174660D01*
X149172554Y-85140673D01*
X149195586Y-85107036D01*
X149198574Y-85101509D01*
X149291665Y-84926431D01*
X149307210Y-84888715D01*
X149323275Y-84851233D01*
X149325133Y-84845231D01*
X149328524Y-84834000D01*
X156241599Y-84834000D01*
X156267652Y-84841866D01*
X156408589Y-84916804D01*
X156532281Y-85017684D01*
X156634023Y-85140670D01*
X156709938Y-85281071D01*
X156757138Y-85433551D01*
X156776000Y-85613013D01*
X156776001Y-108048892D01*
X156317656Y-107590548D01*
X156409870Y-107514870D01*
X156556704Y-107335953D01*
X156665811Y-107131829D01*
X156732998Y-106910340D01*
X156755685Y-106680000D01*
X156732998Y-106449660D01*
X156665811Y-106228171D01*
X156556704Y-106024047D01*
X156409870Y-105845130D01*
X156230953Y-105698296D01*
X156026829Y-105589189D01*
X155805340Y-105522002D01*
X155632720Y-105505000D01*
X155517280Y-105505000D01*
X155344660Y-105522002D01*
X155123171Y-105589189D01*
X154919047Y-105698296D01*
X154740130Y-105845130D01*
X154593296Y-106024047D01*
X154484189Y-106228171D01*
X154417002Y-106449660D01*
X154394315Y-106680000D01*
X154417002Y-106910340D01*
X154484189Y-107131829D01*
X154593296Y-107335953D01*
X154740130Y-107514870D01*
X154919047Y-107661704D01*
X155121428Y-107769879D01*
X155157254Y-107836906D01*
X155219736Y-107913041D01*
X155238824Y-107928706D01*
X155369658Y-108059540D01*
X155344660Y-108062002D01*
X155123171Y-108129189D01*
X154919047Y-108238296D01*
X154740130Y-108385130D01*
X154593296Y-108564047D01*
X154484189Y-108768171D01*
X154417002Y-108989660D01*
X154394315Y-109220000D01*
X154417002Y-109450340D01*
X154484189Y-109671829D01*
X154593296Y-109875953D01*
X154731637Y-110044522D01*
X154727904Y-110045654D01*
X154641042Y-110092083D01*
X154564907Y-110154565D01*
X154549251Y-110173642D01*
X154078735Y-110644159D01*
X154072558Y-110613104D01*
X154021675Y-110490262D01*
X153947805Y-110379707D01*
X153885730Y-110317632D01*
X153936847Y-110290309D01*
X153993948Y-110243448D01*
X154040809Y-110186347D01*
X154075631Y-110121200D01*
X154097074Y-110050513D01*
X154104314Y-109977000D01*
X154102500Y-109745750D01*
X154008750Y-109652000D01*
X153427500Y-109652000D01*
X153427500Y-109672000D01*
X153277500Y-109672000D01*
X153277500Y-109652000D01*
X153257500Y-109652000D01*
X153257500Y-109502000D01*
X153277500Y-109502000D01*
X153277500Y-109482000D01*
X153427500Y-109482000D01*
X153427500Y-109502000D01*
X154008750Y-109502000D01*
X154102500Y-109408250D01*
X154104314Y-109177000D01*
X154097074Y-109103487D01*
X154075631Y-109032800D01*
X154040809Y-108967653D01*
X153993948Y-108910552D01*
X153936847Y-108863691D01*
X153871700Y-108828869D01*
X153865539Y-108827000D01*
X153871700Y-108825131D01*
X153936847Y-108790309D01*
X153993948Y-108743448D01*
X154040809Y-108686347D01*
X154075631Y-108621200D01*
X154097074Y-108550513D01*
X154104314Y-108477000D01*
X154104314Y-107677000D01*
X154097074Y-107603487D01*
X154075631Y-107532800D01*
X154040809Y-107467653D01*
X153993948Y-107410552D01*
X153936847Y-107363691D01*
X153877500Y-107331969D01*
X153877500Y-106805187D01*
X153880039Y-106779407D01*
X153877500Y-106753624D01*
X153877500Y-106753620D01*
X153869903Y-106676490D01*
X153839883Y-106577527D01*
X153791133Y-106486322D01*
X153725527Y-106406381D01*
X153705495Y-106389941D01*
X153640768Y-106325214D01*
X154170000Y-106325214D01*
X154243513Y-106317974D01*
X154314200Y-106296531D01*
X154379347Y-106261709D01*
X154436448Y-106214848D01*
X154483309Y-106157747D01*
X154518131Y-106092600D01*
X154539574Y-106021913D01*
X154546814Y-105948400D01*
X154546814Y-105698400D01*
X154539574Y-105624887D01*
X154523955Y-105573400D01*
X154539574Y-105521913D01*
X154546814Y-105448400D01*
X154545000Y-105417150D01*
X154451250Y-105323400D01*
X154545000Y-105229650D01*
X154546814Y-105198400D01*
X154539574Y-105124887D01*
X154523955Y-105073400D01*
X154539574Y-105021913D01*
X154546814Y-104948400D01*
X154546814Y-104708992D01*
X154593296Y-104795953D01*
X154740130Y-104974870D01*
X154919047Y-105121704D01*
X155123171Y-105230811D01*
X155344660Y-105297998D01*
X155517280Y-105315000D01*
X155632720Y-105315000D01*
X155805340Y-105297998D01*
X156026829Y-105230811D01*
X156230953Y-105121704D01*
X156409870Y-104974870D01*
X156556704Y-104795953D01*
X156665811Y-104591829D01*
X156732998Y-104370340D01*
X156755685Y-104140000D01*
X156732998Y-103909660D01*
X156665811Y-103688171D01*
X156556704Y-103484047D01*
X156409870Y-103305130D01*
X156230953Y-103158296D01*
X156026829Y-103049189D01*
X155805340Y-102982002D01*
X155632720Y-102965000D01*
X155517280Y-102965000D01*
X155344660Y-102982002D01*
X155123171Y-103049189D01*
X154919047Y-103158296D01*
X154740130Y-103305130D01*
X154593296Y-103484047D01*
X154531769Y-103599156D01*
X154523955Y-103573400D01*
X154539574Y-103521913D01*
X154546814Y-103448400D01*
X154546814Y-103198400D01*
X154539574Y-103124887D01*
X154523955Y-103073400D01*
X154539574Y-103021913D01*
X154546814Y-102948400D01*
X154546814Y-102698400D01*
X154539574Y-102624887D01*
X154523955Y-102573400D01*
X154539574Y-102521913D01*
X154546814Y-102448400D01*
X154546814Y-102198400D01*
X154543263Y-102162349D01*
X154593296Y-102255953D01*
X154740130Y-102434870D01*
X154919047Y-102581704D01*
X155123171Y-102690811D01*
X155344660Y-102757998D01*
X155517280Y-102775000D01*
X155632720Y-102775000D01*
X155805340Y-102757998D01*
X156026829Y-102690811D01*
X156230953Y-102581704D01*
X156409870Y-102434870D01*
X156556704Y-102255953D01*
X156665811Y-102051829D01*
X156732998Y-101830340D01*
X156755685Y-101600000D01*
X156732998Y-101369660D01*
X156665811Y-101148171D01*
X156556704Y-100944047D01*
X156409870Y-100765130D01*
X156230953Y-100618296D01*
X156026829Y-100509189D01*
X155805340Y-100442002D01*
X155632720Y-100425000D01*
X155517280Y-100425000D01*
X155344660Y-100442002D01*
X155123171Y-100509189D01*
X154919047Y-100618296D01*
X154740130Y-100765130D01*
X154593296Y-100944047D01*
X154524028Y-101073638D01*
X154523955Y-101073400D01*
X154539574Y-101021913D01*
X154546814Y-100948400D01*
X154546814Y-100698400D01*
X154539574Y-100624887D01*
X154523955Y-100573400D01*
X154539574Y-100521913D01*
X154546814Y-100448400D01*
X154545000Y-100417150D01*
X154451250Y-100323400D01*
X154545000Y-100229650D01*
X154546814Y-100198400D01*
X154539574Y-100124887D01*
X154523955Y-100073400D01*
X154539574Y-100021913D01*
X154546814Y-99948400D01*
X154546814Y-99698400D01*
X154539574Y-99624887D01*
X154532952Y-99603058D01*
X154593296Y-99715953D01*
X154740130Y-99894870D01*
X154919047Y-100041704D01*
X155123171Y-100150811D01*
X155344660Y-100217998D01*
X155517280Y-100235000D01*
X155632720Y-100235000D01*
X155805340Y-100217998D01*
X156026829Y-100150811D01*
X156230953Y-100041704D01*
X156409870Y-99894870D01*
X156556704Y-99715953D01*
X156665811Y-99511829D01*
X156732998Y-99290340D01*
X156755685Y-99060000D01*
X156732998Y-98829660D01*
X156665811Y-98608171D01*
X156556704Y-98404047D01*
X156409870Y-98225130D01*
X156230953Y-98078296D01*
X156026829Y-97969189D01*
X155805340Y-97902002D01*
X155632720Y-97885000D01*
X155517280Y-97885000D01*
X155344660Y-97902002D01*
X155123171Y-97969189D01*
X154995001Y-98037698D01*
X154995001Y-97962959D01*
X154997420Y-97938399D01*
X154987766Y-97840382D01*
X154984809Y-97830635D01*
X154959176Y-97746132D01*
X154912747Y-97659270D01*
X154850265Y-97583135D01*
X154831177Y-97567470D01*
X154830400Y-97566693D01*
X154830400Y-97428953D01*
X154919047Y-97501704D01*
X155123171Y-97610811D01*
X155344660Y-97677998D01*
X155517280Y-97695000D01*
X155632720Y-97695000D01*
X155805340Y-97677998D01*
X156026829Y-97610811D01*
X156230953Y-97501704D01*
X156409870Y-97354870D01*
X156556704Y-97175953D01*
X156665811Y-96971829D01*
X156732998Y-96750340D01*
X156755685Y-96520000D01*
X156732998Y-96289660D01*
X156665811Y-96068171D01*
X156556704Y-95864047D01*
X156409870Y-95685130D01*
X156230953Y-95538296D01*
X156026829Y-95429189D01*
X155805340Y-95362002D01*
X155632720Y-95345000D01*
X155517280Y-95345000D01*
X155344660Y-95362002D01*
X155123171Y-95429189D01*
X154919047Y-95538296D01*
X154740130Y-95685130D01*
X154593296Y-95864047D01*
X154546083Y-95952376D01*
X154119200Y-95525495D01*
X154119200Y-95368955D01*
X154138400Y-95363131D01*
X154203547Y-95328309D01*
X154260648Y-95281448D01*
X154307509Y-95224347D01*
X154342331Y-95159200D01*
X154363774Y-95088513D01*
X154371014Y-95015000D01*
X154371014Y-94215000D01*
X154363774Y-94141487D01*
X154342331Y-94070800D01*
X154307509Y-94005653D01*
X154286457Y-93980000D01*
X154394315Y-93980000D01*
X154417002Y-94210340D01*
X154484189Y-94431829D01*
X154593296Y-94635953D01*
X154740130Y-94814870D01*
X154919047Y-94961704D01*
X155123171Y-95070811D01*
X155344660Y-95137998D01*
X155517280Y-95155000D01*
X155632720Y-95155000D01*
X155805340Y-95137998D01*
X156026829Y-95070811D01*
X156230953Y-94961704D01*
X156409870Y-94814870D01*
X156556704Y-94635953D01*
X156665811Y-94431829D01*
X156732998Y-94210340D01*
X156755685Y-93980000D01*
X156732998Y-93749660D01*
X156665811Y-93528171D01*
X156556704Y-93324047D01*
X156409870Y-93145130D01*
X156230953Y-92998296D01*
X156026829Y-92889189D01*
X155805340Y-92822002D01*
X155632720Y-92805000D01*
X155517280Y-92805000D01*
X155344660Y-92822002D01*
X155123171Y-92889189D01*
X154919047Y-92998296D01*
X154740130Y-93145130D01*
X154593296Y-93324047D01*
X154484189Y-93528171D01*
X154417002Y-93749660D01*
X154394315Y-93980000D01*
X154286457Y-93980000D01*
X154260648Y-93948552D01*
X154203547Y-93901691D01*
X154138400Y-93866869D01*
X154132239Y-93865000D01*
X154138400Y-93863131D01*
X154203547Y-93828309D01*
X154260648Y-93781448D01*
X154307509Y-93724347D01*
X154342331Y-93659200D01*
X154363774Y-93588513D01*
X154371014Y-93515000D01*
X154369200Y-93283750D01*
X154275450Y-93190000D01*
X153694200Y-93190000D01*
X153694200Y-93210000D01*
X153544200Y-93210000D01*
X153544200Y-93190000D01*
X152962950Y-93190000D01*
X152869200Y-93283750D01*
X152867386Y-93515000D01*
X152874626Y-93588513D01*
X152896069Y-93659200D01*
X152930891Y-93724347D01*
X152977752Y-93781448D01*
X153034853Y-93828309D01*
X153100000Y-93863131D01*
X153106161Y-93865000D01*
X153100000Y-93866869D01*
X153034853Y-93901691D01*
X152977752Y-93948552D01*
X152930891Y-94005653D01*
X152896069Y-94070800D01*
X152874626Y-94141487D01*
X152867386Y-94215000D01*
X152867386Y-95015000D01*
X152874626Y-95088513D01*
X152896069Y-95159200D01*
X152930891Y-95224347D01*
X152977752Y-95281448D01*
X153034853Y-95328309D01*
X153100000Y-95363131D01*
X153119201Y-95368956D01*
X153119201Y-95653860D01*
X153032094Y-95653860D01*
X152901686Y-95679800D01*
X152778844Y-95730683D01*
X152668289Y-95804553D01*
X152599442Y-95873400D01*
X152221814Y-95873400D01*
X152214574Y-95799887D01*
X152193131Y-95729200D01*
X152158309Y-95664053D01*
X152111448Y-95606952D01*
X152054347Y-95560091D01*
X151989200Y-95525269D01*
X151918513Y-95503826D01*
X151845000Y-95496586D01*
X151595000Y-95496586D01*
X151521487Y-95503826D01*
X151470000Y-95519445D01*
X151418513Y-95503826D01*
X151345000Y-95496586D01*
X151095000Y-95496586D01*
X151021487Y-95503826D01*
X150970000Y-95519445D01*
X150918513Y-95503826D01*
X150845000Y-95496586D01*
X150595000Y-95496586D01*
X150521487Y-95503826D01*
X150470000Y-95519445D01*
X150418513Y-95503826D01*
X150345000Y-95496586D01*
X150228242Y-95496586D01*
X150261762Y-95446420D01*
X150312645Y-95323578D01*
X150338585Y-95193170D01*
X150338585Y-95109278D01*
X150397926Y-95109278D01*
X150528334Y-95083338D01*
X150631995Y-95040400D01*
X151013186Y-95040400D01*
X151020426Y-95113913D01*
X151041869Y-95184600D01*
X151076691Y-95249747D01*
X151123552Y-95306848D01*
X151180653Y-95353709D01*
X151245800Y-95388531D01*
X151316487Y-95409974D01*
X151390000Y-95417214D01*
X151596250Y-95415400D01*
X151690000Y-95321650D01*
X151690000Y-94715400D01*
X151840000Y-94715400D01*
X151840000Y-95321650D01*
X151933750Y-95415400D01*
X152140000Y-95417214D01*
X152213513Y-95409974D01*
X152284200Y-95388531D01*
X152349347Y-95353709D01*
X152406448Y-95306848D01*
X152453309Y-95249747D01*
X152488131Y-95184600D01*
X152509574Y-95113913D01*
X152516814Y-95040400D01*
X152515000Y-94809150D01*
X152421250Y-94715400D01*
X151840000Y-94715400D01*
X151690000Y-94715400D01*
X151108750Y-94715400D01*
X151015000Y-94809150D01*
X151013186Y-95040400D01*
X150631995Y-95040400D01*
X150651176Y-95032455D01*
X150761731Y-94958585D01*
X150855751Y-94864565D01*
X150929621Y-94754010D01*
X150980504Y-94631168D01*
X151006444Y-94500760D01*
X151006444Y-94367796D01*
X150980504Y-94237388D01*
X150929621Y-94114546D01*
X150855751Y-94003991D01*
X150761731Y-93909971D01*
X150651176Y-93836101D01*
X150528334Y-93785218D01*
X150397926Y-93759278D01*
X150385400Y-93759278D01*
X150385400Y-91241000D01*
X150692186Y-91241000D01*
X150699426Y-91314513D01*
X150720869Y-91385200D01*
X150755691Y-91450347D01*
X150802552Y-91507448D01*
X150859653Y-91554309D01*
X150924800Y-91589131D01*
X150995487Y-91610574D01*
X151069000Y-91617814D01*
X151300250Y-91616000D01*
X151393998Y-91522252D01*
X151393998Y-91578532D01*
X151382389Y-91606559D01*
X151356449Y-91736967D01*
X151356449Y-91740158D01*
X151326367Y-91776813D01*
X151277617Y-91868018D01*
X151247597Y-91966981D01*
X151237461Y-92069898D01*
X151240001Y-92095688D01*
X151240001Y-92395369D01*
X151180653Y-92427091D01*
X151123552Y-92473952D01*
X151076691Y-92531053D01*
X151041869Y-92596200D01*
X151020426Y-92666887D01*
X151013186Y-92740400D01*
X151013186Y-93540400D01*
X151020426Y-93613913D01*
X151041869Y-93684600D01*
X151076691Y-93749747D01*
X151123552Y-93806848D01*
X151180653Y-93853709D01*
X151245800Y-93888531D01*
X151251961Y-93890400D01*
X151245800Y-93892269D01*
X151180653Y-93927091D01*
X151123552Y-93973952D01*
X151076691Y-94031053D01*
X151041869Y-94096200D01*
X151020426Y-94166887D01*
X151013186Y-94240400D01*
X151015000Y-94471650D01*
X151108750Y-94565400D01*
X151690000Y-94565400D01*
X151690000Y-94545400D01*
X151840000Y-94545400D01*
X151840000Y-94565400D01*
X152421250Y-94565400D01*
X152515000Y-94471650D01*
X152516814Y-94240400D01*
X152509574Y-94166887D01*
X152488131Y-94096200D01*
X152453309Y-94031053D01*
X152406448Y-93973952D01*
X152349347Y-93927091D01*
X152284200Y-93892269D01*
X152278039Y-93890400D01*
X152284200Y-93888531D01*
X152349347Y-93853709D01*
X152406448Y-93806848D01*
X152453309Y-93749747D01*
X152488131Y-93684600D01*
X152509574Y-93613913D01*
X152516814Y-93540400D01*
X152516814Y-92740400D01*
X152514313Y-92715000D01*
X152867386Y-92715000D01*
X152869200Y-92946250D01*
X152962950Y-93040000D01*
X153544200Y-93040000D01*
X153544200Y-92433750D01*
X153694200Y-92433750D01*
X153694200Y-93040000D01*
X154275450Y-93040000D01*
X154369200Y-92946250D01*
X154371014Y-92715000D01*
X154363774Y-92641487D01*
X154342331Y-92570800D01*
X154307509Y-92505653D01*
X154260648Y-92448552D01*
X154203547Y-92401691D01*
X154138400Y-92366869D01*
X154067713Y-92345426D01*
X153994200Y-92338186D01*
X153787950Y-92340000D01*
X153694200Y-92433750D01*
X153544200Y-92433750D01*
X153450450Y-92340000D01*
X153244200Y-92338186D01*
X153170687Y-92345426D01*
X153100000Y-92366869D01*
X153034853Y-92401691D01*
X152977752Y-92448552D01*
X152930891Y-92505653D01*
X152896069Y-92570800D01*
X152874626Y-92641487D01*
X152867386Y-92715000D01*
X152514313Y-92715000D01*
X152509574Y-92666887D01*
X152488131Y-92596200D01*
X152453309Y-92531053D01*
X152406448Y-92473952D01*
X152349347Y-92427091D01*
X152323307Y-92413172D01*
X152351181Y-92401626D01*
X152461736Y-92327756D01*
X152555756Y-92233736D01*
X152629626Y-92123181D01*
X152680509Y-92000339D01*
X152706449Y-91869931D01*
X152706449Y-91846012D01*
X152934648Y-91617814D01*
X153369000Y-91617814D01*
X153442513Y-91610574D01*
X153513200Y-91589131D01*
X153578347Y-91554309D01*
X153635448Y-91507448D01*
X153682309Y-91450347D01*
X153687839Y-91440000D01*
X154394315Y-91440000D01*
X154417002Y-91670340D01*
X154484189Y-91891829D01*
X154593296Y-92095953D01*
X154740130Y-92274870D01*
X154919047Y-92421704D01*
X155123171Y-92530811D01*
X155344660Y-92597998D01*
X155517280Y-92615000D01*
X155632720Y-92615000D01*
X155805340Y-92597998D01*
X156026829Y-92530811D01*
X156230953Y-92421704D01*
X156409870Y-92274870D01*
X156556704Y-92095953D01*
X156665811Y-91891829D01*
X156732998Y-91670340D01*
X156755685Y-91440000D01*
X156732998Y-91209660D01*
X156665811Y-90988171D01*
X156556704Y-90784047D01*
X156409870Y-90605130D01*
X156230953Y-90458296D01*
X156026829Y-90349189D01*
X155805340Y-90282002D01*
X155632720Y-90265000D01*
X155517280Y-90265000D01*
X155344660Y-90282002D01*
X155123171Y-90349189D01*
X154919047Y-90458296D01*
X154740130Y-90605130D01*
X154593296Y-90784047D01*
X154484189Y-90988171D01*
X154417002Y-91209660D01*
X154394315Y-91440000D01*
X153687839Y-91440000D01*
X153717131Y-91385200D01*
X153738574Y-91314513D01*
X153745814Y-91241000D01*
X153745814Y-90491000D01*
X153738574Y-90417487D01*
X153717131Y-90346800D01*
X153682309Y-90281653D01*
X153635448Y-90224552D01*
X153621000Y-90212695D01*
X153621000Y-90002305D01*
X153630347Y-89997309D01*
X153687448Y-89950448D01*
X153734309Y-89893347D01*
X153769131Y-89828200D01*
X153790574Y-89757513D01*
X153797814Y-89684000D01*
X153797814Y-88900000D01*
X154394315Y-88900000D01*
X154417002Y-89130340D01*
X154484189Y-89351829D01*
X154593296Y-89555953D01*
X154740130Y-89734870D01*
X154919047Y-89881704D01*
X155123171Y-89990811D01*
X155344660Y-90057998D01*
X155517280Y-90075000D01*
X155632720Y-90075000D01*
X155805340Y-90057998D01*
X156026829Y-89990811D01*
X156230953Y-89881704D01*
X156409870Y-89734870D01*
X156556704Y-89555953D01*
X156665811Y-89351829D01*
X156732998Y-89130340D01*
X156755685Y-88900000D01*
X156732998Y-88669660D01*
X156665811Y-88448171D01*
X156556704Y-88244047D01*
X156409870Y-88065130D01*
X156230953Y-87918296D01*
X156026829Y-87809189D01*
X155805340Y-87742002D01*
X155632720Y-87725000D01*
X155517280Y-87725000D01*
X155344660Y-87742002D01*
X155123171Y-87809189D01*
X154919047Y-87918296D01*
X154740130Y-88065130D01*
X154593296Y-88244047D01*
X154484189Y-88448171D01*
X154417002Y-88669660D01*
X154394315Y-88900000D01*
X153797814Y-88900000D01*
X153797814Y-88624000D01*
X153790574Y-88550487D01*
X153769131Y-88479800D01*
X153734309Y-88414653D01*
X153687448Y-88357552D01*
X153630347Y-88310691D01*
X153565200Y-88275869D01*
X153494513Y-88254426D01*
X153421000Y-88247186D01*
X152771000Y-88247186D01*
X152697487Y-88254426D01*
X152626800Y-88275869D01*
X152561653Y-88310691D01*
X152504552Y-88357552D01*
X152457691Y-88414653D01*
X152422869Y-88479800D01*
X152401426Y-88550487D01*
X152394186Y-88624000D01*
X152394186Y-89684000D01*
X152401426Y-89757513D01*
X152422869Y-89828200D01*
X152457691Y-89893347D01*
X152504552Y-89950448D01*
X152561653Y-89997309D01*
X152571001Y-90002305D01*
X152571001Y-90114186D01*
X152569000Y-90114186D01*
X152495487Y-90121426D01*
X152424800Y-90142869D01*
X152359653Y-90177691D01*
X152302552Y-90224552D01*
X152255691Y-90281653D01*
X152220869Y-90346800D01*
X152219000Y-90352961D01*
X152217131Y-90346800D01*
X152182309Y-90281653D01*
X152135448Y-90224552D01*
X152078347Y-90177691D01*
X152013200Y-90142869D01*
X151942513Y-90121426D01*
X151869000Y-90114186D01*
X151637750Y-90116000D01*
X151544000Y-90209750D01*
X151544000Y-90791000D01*
X151564000Y-90791000D01*
X151564000Y-90941000D01*
X151544000Y-90941000D01*
X151544000Y-90961000D01*
X151394000Y-90961000D01*
X151394000Y-90941000D01*
X150787750Y-90941000D01*
X150694000Y-91034750D01*
X150692186Y-91241000D01*
X150385400Y-91241000D01*
X150385400Y-91081794D01*
X150409707Y-91057487D01*
X150483577Y-90946932D01*
X150534460Y-90824090D01*
X150560400Y-90693682D01*
X150560400Y-90560718D01*
X150546533Y-90491000D01*
X150692186Y-90491000D01*
X150694000Y-90697250D01*
X150787750Y-90791000D01*
X151394000Y-90791000D01*
X151394000Y-90209750D01*
X151300250Y-90116000D01*
X151069000Y-90114186D01*
X150995487Y-90121426D01*
X150924800Y-90142869D01*
X150859653Y-90177691D01*
X150802552Y-90224552D01*
X150755691Y-90281653D01*
X150720869Y-90346800D01*
X150699426Y-90417487D01*
X150692186Y-90491000D01*
X150546533Y-90491000D01*
X150534460Y-90430310D01*
X150483577Y-90307468D01*
X150409707Y-90196913D01*
X150315687Y-90102893D01*
X150205132Y-90029023D01*
X150082290Y-89978140D01*
X149951882Y-89952200D01*
X149818918Y-89952200D01*
X149688510Y-89978140D01*
X149565668Y-90029023D01*
X149455113Y-90102893D01*
X149361093Y-90196913D01*
X149287223Y-90307468D01*
X149236340Y-90430310D01*
X149210400Y-90560718D01*
X149210400Y-90693682D01*
X149236340Y-90824090D01*
X149287223Y-90946932D01*
X149361093Y-91057487D01*
X149385400Y-91081794D01*
X149385400Y-91251757D01*
X149385401Y-91251767D01*
X149385400Y-93963674D01*
X149382981Y-93988234D01*
X149392635Y-94086251D01*
X149400622Y-94112581D01*
X149421225Y-94180500D01*
X149467654Y-94267363D01*
X149530136Y-94343498D01*
X149549223Y-94359162D01*
X149641748Y-94451688D01*
X149597103Y-94451688D01*
X149596744Y-94451759D01*
X147779534Y-93089852D01*
X147765860Y-93021110D01*
X147714977Y-92898268D01*
X147641107Y-92787713D01*
X147547087Y-92693693D01*
X147436532Y-92619823D01*
X147313690Y-92568940D01*
X147183282Y-92543000D01*
X147050318Y-92543000D01*
X146919910Y-92568940D01*
X146797068Y-92619823D01*
X146686513Y-92693693D01*
X146592493Y-92787713D01*
X146518623Y-92898268D01*
X146467740Y-93021110D01*
X146441800Y-93151518D01*
X146441800Y-93284482D01*
X146467740Y-93414890D01*
X146518623Y-93537732D01*
X146592493Y-93648287D01*
X146686513Y-93742307D01*
X146797068Y-93816177D01*
X146919910Y-93867060D01*
X147050318Y-93893000D01*
X147183282Y-93893000D01*
X147183641Y-93892929D01*
X148496702Y-94877002D01*
X146910994Y-94877002D01*
X146886687Y-94852695D01*
X146776132Y-94778825D01*
X146653290Y-94727942D01*
X146522882Y-94702002D01*
X146389918Y-94702002D01*
X146259510Y-94727942D01*
X146166814Y-94766338D01*
X146166814Y-94215000D01*
X146159574Y-94141487D01*
X146138131Y-94070800D01*
X146103309Y-94005653D01*
X146056448Y-93948552D01*
X145999347Y-93901691D01*
X145934200Y-93866869D01*
X145928039Y-93865000D01*
X145934200Y-93863131D01*
X145999347Y-93828309D01*
X146056448Y-93781448D01*
X146103309Y-93724347D01*
X146138131Y-93659200D01*
X146159574Y-93588513D01*
X146166814Y-93515000D01*
X146165000Y-93283750D01*
X146071250Y-93190000D01*
X145490000Y-93190000D01*
X145490000Y-93210000D01*
X145340000Y-93210000D01*
X145340000Y-93190000D01*
X144758750Y-93190000D01*
X144665000Y-93283750D01*
X144663186Y-93515000D01*
X144670426Y-93588513D01*
X144691869Y-93659200D01*
X144726691Y-93724347D01*
X144773552Y-93781448D01*
X144830653Y-93828309D01*
X144895800Y-93863131D01*
X144901961Y-93865000D01*
X144895800Y-93866869D01*
X144830653Y-93901691D01*
X144773552Y-93948552D01*
X144726691Y-94005653D01*
X144691869Y-94070800D01*
X144670426Y-94141487D01*
X144663186Y-94215000D01*
X144663186Y-94659708D01*
X144480178Y-94842716D01*
X144261814Y-94624352D01*
X144261814Y-94215000D01*
X144254574Y-94141487D01*
X144233131Y-94070800D01*
X144198309Y-94005653D01*
X144151448Y-93948552D01*
X144094347Y-93901691D01*
X144029200Y-93866869D01*
X144023039Y-93865000D01*
X144029200Y-93863131D01*
X144094347Y-93828309D01*
X144151448Y-93781448D01*
X144198309Y-93724347D01*
X144233131Y-93659200D01*
X144254574Y-93588513D01*
X144261814Y-93515000D01*
X144260000Y-93283750D01*
X144166250Y-93190000D01*
X143585000Y-93190000D01*
X143585000Y-93210000D01*
X143435000Y-93210000D01*
X143435000Y-93190000D01*
X143415000Y-93190000D01*
X143415000Y-93040000D01*
X143435000Y-93040000D01*
X143435000Y-93020000D01*
X143585000Y-93020000D01*
X143585000Y-93040000D01*
X144166250Y-93040000D01*
X144260000Y-92946250D01*
X144261473Y-92758511D01*
X144663527Y-92758511D01*
X144665000Y-92946250D01*
X144758750Y-93040000D01*
X145340000Y-93040000D01*
X145340000Y-93020000D01*
X145490000Y-93020000D01*
X145490000Y-93040000D01*
X146071250Y-93040000D01*
X146165000Y-92946250D01*
X146166814Y-92715000D01*
X146159574Y-92641487D01*
X146138131Y-92570800D01*
X146103309Y-92505653D01*
X146056448Y-92448552D01*
X145999347Y-92401691D01*
X145934200Y-92366869D01*
X145863513Y-92345426D01*
X145790000Y-92338186D01*
X145613725Y-92339736D01*
X146269648Y-91683814D01*
X146704000Y-91683814D01*
X146777513Y-91676574D01*
X146848200Y-91655131D01*
X146913347Y-91620309D01*
X146970448Y-91573448D01*
X147017309Y-91516347D01*
X147052131Y-91451200D01*
X147073574Y-91380513D01*
X147080814Y-91307000D01*
X147080814Y-90557000D01*
X147073574Y-90483487D01*
X147052131Y-90412800D01*
X147017309Y-90347653D01*
X146970448Y-90290552D01*
X146913347Y-90243691D01*
X146848200Y-90208869D01*
X146829000Y-90203045D01*
X146829000Y-90002305D01*
X146838347Y-89997309D01*
X146895448Y-89950448D01*
X146942309Y-89893347D01*
X146977131Y-89828200D01*
X146998574Y-89757513D01*
X147005814Y-89684000D01*
X147005814Y-89679000D01*
X147226045Y-89679000D01*
X147231869Y-89698200D01*
X147266691Y-89763347D01*
X147313552Y-89820448D01*
X147370653Y-89867309D01*
X147435800Y-89902131D01*
X147506487Y-89923574D01*
X147580000Y-89930814D01*
X148330000Y-89930814D01*
X148403513Y-89923574D01*
X148474200Y-89902131D01*
X148539347Y-89867309D01*
X148596448Y-89820448D01*
X148643309Y-89763347D01*
X148678131Y-89698200D01*
X148699574Y-89627513D01*
X148706814Y-89554000D01*
X148706814Y-88754000D01*
X148699574Y-88680487D01*
X148678131Y-88609800D01*
X148643309Y-88544653D01*
X148596448Y-88487552D01*
X148539347Y-88440691D01*
X148474200Y-88405869D01*
X148468039Y-88404000D01*
X148474200Y-88402131D01*
X148539347Y-88367309D01*
X148596448Y-88320448D01*
X148643309Y-88263347D01*
X148678131Y-88198200D01*
X148699574Y-88127513D01*
X148706814Y-88054000D01*
X148790686Y-88054000D01*
X148797926Y-88127513D01*
X148819369Y-88198200D01*
X148854191Y-88263347D01*
X148901052Y-88320448D01*
X148958153Y-88367309D01*
X149023300Y-88402131D01*
X149029461Y-88404000D01*
X149023300Y-88405869D01*
X148958153Y-88440691D01*
X148901052Y-88487552D01*
X148854191Y-88544653D01*
X148819369Y-88609800D01*
X148797926Y-88680487D01*
X148790686Y-88754000D01*
X148790686Y-89554000D01*
X148797926Y-89627513D01*
X148819369Y-89698200D01*
X148854191Y-89763347D01*
X148901052Y-89820448D01*
X148958153Y-89867309D01*
X149023300Y-89902131D01*
X149093987Y-89923574D01*
X149167500Y-89930814D01*
X149917500Y-89930814D01*
X149991013Y-89923574D01*
X150061700Y-89902131D01*
X150126847Y-89867309D01*
X150183948Y-89820448D01*
X150230809Y-89763347D01*
X150265631Y-89698200D01*
X150279039Y-89654000D01*
X150494186Y-89654000D01*
X150494186Y-89684000D01*
X150501426Y-89757513D01*
X150522869Y-89828200D01*
X150557691Y-89893347D01*
X150604552Y-89950448D01*
X150661653Y-89997309D01*
X150726800Y-90032131D01*
X150797487Y-90053574D01*
X150871000Y-90060814D01*
X151521000Y-90060814D01*
X151594513Y-90053574D01*
X151665200Y-90032131D01*
X151730347Y-89997309D01*
X151787448Y-89950448D01*
X151834309Y-89893347D01*
X151869131Y-89828200D01*
X151890574Y-89757513D01*
X151897814Y-89684000D01*
X151897814Y-88624000D01*
X151890574Y-88550487D01*
X151869131Y-88479800D01*
X151834309Y-88414653D01*
X151787448Y-88357552D01*
X151730347Y-88310691D01*
X151665200Y-88275869D01*
X151594513Y-88254426D01*
X151521000Y-88247186D01*
X150871000Y-88247186D01*
X150797487Y-88254426D01*
X150726800Y-88275869D01*
X150661653Y-88310691D01*
X150604552Y-88357552D01*
X150557691Y-88414653D01*
X150522869Y-88479800D01*
X150501426Y-88550487D01*
X150494186Y-88624000D01*
X150494186Y-88654000D01*
X150279039Y-88654000D01*
X150265631Y-88609800D01*
X150230809Y-88544653D01*
X150183948Y-88487552D01*
X150126847Y-88440691D01*
X150061700Y-88405869D01*
X150055539Y-88404000D01*
X150061700Y-88402131D01*
X150126847Y-88367309D01*
X150183948Y-88320448D01*
X150230809Y-88263347D01*
X150265631Y-88198200D01*
X150287074Y-88127513D01*
X150294314Y-88054000D01*
X150292500Y-87822750D01*
X150198750Y-87729000D01*
X149617500Y-87729000D01*
X149617500Y-87749000D01*
X149467500Y-87749000D01*
X149467500Y-87729000D01*
X148886250Y-87729000D01*
X148792500Y-87822750D01*
X148790686Y-88054000D01*
X148706814Y-88054000D01*
X148705000Y-87822750D01*
X148611250Y-87729000D01*
X148030000Y-87729000D01*
X148030000Y-87749000D01*
X147880000Y-87749000D01*
X147880000Y-87729000D01*
X147298750Y-87729000D01*
X147205000Y-87822750D01*
X147203186Y-88054000D01*
X147210426Y-88127513D01*
X147231869Y-88198200D01*
X147266691Y-88263347D01*
X147313552Y-88320448D01*
X147370653Y-88367309D01*
X147435800Y-88402131D01*
X147441961Y-88404000D01*
X147435800Y-88405869D01*
X147370653Y-88440691D01*
X147313552Y-88487552D01*
X147266691Y-88544653D01*
X147231869Y-88609800D01*
X147226045Y-88629000D01*
X147005814Y-88629000D01*
X147005814Y-88624000D01*
X146998574Y-88550487D01*
X146977131Y-88479800D01*
X146942309Y-88414653D01*
X146895448Y-88357552D01*
X146838347Y-88310691D01*
X146773200Y-88275869D01*
X146702513Y-88254426D01*
X146629000Y-88247186D01*
X145979000Y-88247186D01*
X145905487Y-88254426D01*
X145834800Y-88275869D01*
X145769653Y-88310691D01*
X145712552Y-88357552D01*
X145665691Y-88414653D01*
X145630869Y-88479800D01*
X145609426Y-88550487D01*
X145602186Y-88624000D01*
X145602186Y-89684000D01*
X145609426Y-89757513D01*
X145630869Y-89828200D01*
X145665691Y-89893347D01*
X145712552Y-89950448D01*
X145769653Y-89997309D01*
X145779001Y-90002305D01*
X145779000Y-90203045D01*
X145759800Y-90208869D01*
X145694653Y-90243691D01*
X145637552Y-90290552D01*
X145590691Y-90347653D01*
X145555869Y-90412800D01*
X145554000Y-90418961D01*
X145552131Y-90412800D01*
X145517309Y-90347653D01*
X145470448Y-90290552D01*
X145413347Y-90243691D01*
X145348200Y-90208869D01*
X145277513Y-90187426D01*
X145204000Y-90180186D01*
X144972750Y-90182000D01*
X144879002Y-90275748D01*
X144879002Y-90182000D01*
X144857084Y-90182000D01*
X144868175Y-90161251D01*
X144896765Y-90067001D01*
X144901700Y-90016897D01*
X144938347Y-89997309D01*
X144995448Y-89950448D01*
X145042309Y-89893347D01*
X145077131Y-89828200D01*
X145098574Y-89757513D01*
X145105814Y-89684000D01*
X145105814Y-88624000D01*
X145098574Y-88550487D01*
X145077131Y-88479800D01*
X145042309Y-88414653D01*
X144995448Y-88357552D01*
X144938347Y-88310691D01*
X144873200Y-88275869D01*
X144802513Y-88254426D01*
X144729000Y-88247186D01*
X144079000Y-88247186D01*
X144005487Y-88254426D01*
X143934800Y-88275869D01*
X143869653Y-88310691D01*
X143812552Y-88357552D01*
X143765691Y-88414653D01*
X143730869Y-88479800D01*
X143709426Y-88550487D01*
X143702186Y-88624000D01*
X143702186Y-89684000D01*
X143709426Y-89757513D01*
X143730869Y-89828200D01*
X143765691Y-89893347D01*
X143768774Y-89897104D01*
X143451423Y-90214455D01*
X143394200Y-90183869D01*
X143388039Y-90182000D01*
X143394200Y-90180131D01*
X143459347Y-90145309D01*
X143516448Y-90098448D01*
X143563309Y-90041347D01*
X143598131Y-89976200D01*
X143619574Y-89905513D01*
X143626814Y-89832000D01*
X143625000Y-89600750D01*
X143531250Y-89507000D01*
X142950000Y-89507000D01*
X142950000Y-89527000D01*
X142800000Y-89527000D01*
X142800000Y-89507000D01*
X142218750Y-89507000D01*
X142125000Y-89600750D01*
X142123186Y-89832000D01*
X142130426Y-89905513D01*
X142151869Y-89976200D01*
X142186691Y-90041347D01*
X142233552Y-90098448D01*
X142290653Y-90145309D01*
X142355800Y-90180131D01*
X142361961Y-90182000D01*
X142355800Y-90183869D01*
X142290653Y-90218691D01*
X142233552Y-90265552D01*
X142186691Y-90322653D01*
X142151869Y-90387800D01*
X142130426Y-90458487D01*
X142123186Y-90532000D01*
X142123186Y-91332000D01*
X142130426Y-91405513D01*
X142151869Y-91476200D01*
X142186691Y-91541347D01*
X142233552Y-91598448D01*
X142290653Y-91645309D01*
X142355800Y-91680131D01*
X142426487Y-91701574D01*
X142500000Y-91708814D01*
X142803178Y-91708814D01*
X142729124Y-91716108D01*
X142630161Y-91746128D01*
X142538956Y-91794878D01*
X142459015Y-91860484D01*
X142442571Y-91880521D01*
X142175227Y-92147865D01*
X142155190Y-92164309D01*
X142089584Y-92244250D01*
X142040834Y-92335456D01*
X142010814Y-92434419D01*
X142003217Y-92511549D01*
X142003217Y-92511556D01*
X142000678Y-92537336D01*
X142003217Y-92563116D01*
X142003218Y-96738984D01*
X142000678Y-96764774D01*
X142010814Y-96867691D01*
X142040834Y-96966654D01*
X142089584Y-97057859D01*
X142110009Y-97082747D01*
X142155191Y-97137801D01*
X142175222Y-97154240D01*
X142844382Y-97823400D01*
X142788419Y-97823400D01*
X142770000Y-97821586D01*
X141770000Y-97821586D01*
X141696487Y-97828826D01*
X141625800Y-97850269D01*
X141560653Y-97885091D01*
X141503552Y-97931952D01*
X141456691Y-97989053D01*
X141421869Y-98054200D01*
X141400426Y-98124887D01*
X141393186Y-98198400D01*
X141393186Y-98448400D01*
X141400426Y-98521913D01*
X141416045Y-98573400D01*
X141409707Y-98594293D01*
X141327743Y-98431435D01*
X141186041Y-98249838D01*
X141011634Y-98099375D01*
X140811224Y-97985828D01*
X140592513Y-97913561D01*
X140410000Y-97981142D01*
X140410000Y-98985000D01*
X140430000Y-98985000D01*
X140430000Y-99135000D01*
X140410000Y-99135000D01*
X140410000Y-100138858D01*
X140592513Y-100206439D01*
X140811224Y-100134172D01*
X141011634Y-100020625D01*
X141186041Y-99870162D01*
X141327743Y-99688565D01*
X141404634Y-99535786D01*
X141416045Y-99573400D01*
X141400426Y-99624887D01*
X141393186Y-99698400D01*
X141393186Y-99948400D01*
X141400426Y-100021913D01*
X141416045Y-100073400D01*
X141400426Y-100124887D01*
X141393186Y-100198400D01*
X141393186Y-100448400D01*
X141400426Y-100521913D01*
X141416045Y-100573400D01*
X141400426Y-100624887D01*
X141393186Y-100698400D01*
X141393186Y-100948400D01*
X141400426Y-101021913D01*
X141416045Y-101073400D01*
X141405111Y-101109444D01*
X141316704Y-100944047D01*
X141169870Y-100765130D01*
X140990953Y-100618296D01*
X140786829Y-100509189D01*
X140565340Y-100442002D01*
X140392720Y-100425000D01*
X140277280Y-100425000D01*
X140104660Y-100442002D01*
X139883171Y-100509189D01*
X139679047Y-100618296D01*
X139500130Y-100765130D01*
X139353296Y-100944047D01*
X139244189Y-101148171D01*
X139177002Y-101369660D01*
X139154315Y-101600000D01*
X139177002Y-101830340D01*
X139244189Y-102051829D01*
X139353296Y-102255953D01*
X139500130Y-102434870D01*
X139679047Y-102581704D01*
X139883171Y-102690811D01*
X140104660Y-102757998D01*
X140277280Y-102775000D01*
X140392720Y-102775000D01*
X140565340Y-102757998D01*
X140786829Y-102690811D01*
X140990953Y-102581704D01*
X141169870Y-102434870D01*
X141316704Y-102255953D01*
X141415406Y-102071295D01*
X141416045Y-102073400D01*
X141400426Y-102124887D01*
X141393186Y-102198400D01*
X141393186Y-102448400D01*
X141400426Y-102521913D01*
X141416045Y-102573400D01*
X141400426Y-102624887D01*
X141393186Y-102698400D01*
X141393186Y-102948400D01*
X141400426Y-103021913D01*
X141416045Y-103073400D01*
X141400426Y-103124887D01*
X141393186Y-103198400D01*
X141393186Y-103448400D01*
X141400426Y-103521913D01*
X141416045Y-103573400D01*
X141400426Y-103624887D01*
X141399113Y-103638222D01*
X141316704Y-103484047D01*
X141169870Y-103305130D01*
X140990953Y-103158296D01*
X140786829Y-103049189D01*
X140565340Y-102982002D01*
X140392720Y-102965000D01*
X140277280Y-102965000D01*
X140104660Y-102982002D01*
X139883171Y-103049189D01*
X139679047Y-103158296D01*
X139500130Y-103305130D01*
X139353296Y-103484047D01*
X139244189Y-103688171D01*
X139177002Y-103909660D01*
X139154315Y-104140000D01*
X139177002Y-104370340D01*
X139244189Y-104591829D01*
X139353296Y-104795953D01*
X139500130Y-104974870D01*
X139679047Y-105121704D01*
X139883171Y-105230811D01*
X140104660Y-105297998D01*
X140277280Y-105315000D01*
X140392720Y-105315000D01*
X140565340Y-105297998D01*
X140786829Y-105230811D01*
X140990953Y-105121704D01*
X141169870Y-104974870D01*
X141316704Y-104795953D01*
X141398683Y-104642581D01*
X141393186Y-104698400D01*
X141393186Y-104948400D01*
X141400426Y-105021913D01*
X141416045Y-105073400D01*
X141400426Y-105124887D01*
X141393186Y-105198400D01*
X141395000Y-105229650D01*
X141488750Y-105323400D01*
X141395000Y-105417150D01*
X141393186Y-105448400D01*
X141400426Y-105521913D01*
X141416045Y-105573400D01*
X141400426Y-105624887D01*
X141393186Y-105698400D01*
X141393186Y-105948400D01*
X141400426Y-106021913D01*
X141421869Y-106092600D01*
X141456691Y-106157747D01*
X141503552Y-106214848D01*
X141560653Y-106261709D01*
X141625800Y-106296531D01*
X141696487Y-106317974D01*
X141745000Y-106322752D01*
X141745000Y-106573280D01*
X141742461Y-106599060D01*
X141745000Y-106624840D01*
X141745000Y-106624847D01*
X141752597Y-106701977D01*
X141782617Y-106800940D01*
X141831367Y-106892146D01*
X141896973Y-106972087D01*
X141917010Y-106988531D01*
X142011022Y-107082543D01*
X142011022Y-107324186D01*
X142000200Y-107327469D01*
X141935053Y-107362291D01*
X141877952Y-107409152D01*
X141831091Y-107466253D01*
X141796269Y-107531400D01*
X141774826Y-107602087D01*
X141767586Y-107675600D01*
X141767586Y-108109952D01*
X141315256Y-108562283D01*
X141169870Y-108385130D01*
X140990953Y-108238296D01*
X140786829Y-108129189D01*
X140565340Y-108062002D01*
X140392720Y-108045000D01*
X140277280Y-108045000D01*
X140104660Y-108062002D01*
X139883171Y-108129189D01*
X139679047Y-108238296D01*
X139500130Y-108385130D01*
X139353296Y-108564047D01*
X139244189Y-108768171D01*
X139177002Y-108989660D01*
X139154315Y-109220000D01*
X139177002Y-109450340D01*
X139244189Y-109671829D01*
X139353296Y-109875953D01*
X139500130Y-110054870D01*
X139679047Y-110201704D01*
X139883171Y-110310811D01*
X140104660Y-110377998D01*
X140277280Y-110395000D01*
X140392720Y-110395000D01*
X140565340Y-110377998D01*
X140786829Y-110310811D01*
X140990953Y-110201704D01*
X141054600Y-110149470D01*
X141054600Y-110794420D01*
X141052061Y-110820200D01*
X141052945Y-110829171D01*
X140990953Y-110778296D01*
X140786829Y-110669189D01*
X140565340Y-110602002D01*
X140392720Y-110585000D01*
X140277280Y-110585000D01*
X140104660Y-110602002D01*
X139883171Y-110669189D01*
X139679047Y-110778296D01*
X139500130Y-110925130D01*
X139353296Y-111104047D01*
X139244189Y-111308171D01*
X139177002Y-111529660D01*
X139154315Y-111760000D01*
X139177002Y-111990340D01*
X139244189Y-112211829D01*
X139353296Y-112415953D01*
X139500130Y-112594870D01*
X139679047Y-112741704D01*
X139883171Y-112850811D01*
X140104660Y-112917998D01*
X140277280Y-112935000D01*
X140392720Y-112935000D01*
X140565340Y-112917998D01*
X140786829Y-112850811D01*
X140990953Y-112741704D01*
X141169870Y-112594870D01*
X141316704Y-112415953D01*
X141425811Y-112211829D01*
X141492998Y-111990340D01*
X141515685Y-111760000D01*
X141492998Y-111529660D01*
X141469659Y-111452720D01*
X142121401Y-112104463D01*
X142121400Y-115788186D01*
X141952600Y-115788186D01*
X141879087Y-115795426D01*
X141808400Y-115816869D01*
X141743253Y-115851691D01*
X141686152Y-115898552D01*
X141639291Y-115955653D01*
X141604469Y-116020800D01*
X141583026Y-116091487D01*
X141575786Y-116165000D01*
X141575786Y-117515000D01*
X141583026Y-117588513D01*
X141604469Y-117659200D01*
X141639291Y-117724347D01*
X141686152Y-117781448D01*
X141743253Y-117828309D01*
X141808400Y-117863131D01*
X141879087Y-117884574D01*
X141952600Y-117891814D01*
X143302600Y-117891814D01*
X143376113Y-117884574D01*
X143446800Y-117863131D01*
X143511947Y-117828309D01*
X143569048Y-117781448D01*
X143615909Y-117724347D01*
X143650731Y-117659200D01*
X143672174Y-117588513D01*
X143679414Y-117515000D01*
X143679414Y-117293491D01*
X143750333Y-117426171D01*
X143881546Y-117586054D01*
X143930086Y-117625890D01*
X143865936Y-117678536D01*
X143850280Y-117697613D01*
X143314649Y-118233245D01*
X143115142Y-118172725D01*
X142935178Y-118155000D01*
X142814822Y-118155000D01*
X142634858Y-118172725D01*
X142403945Y-118242772D01*
X142191134Y-118356522D01*
X142004603Y-118509603D01*
X141851522Y-118696134D01*
X141737772Y-118908945D01*
X141667725Y-119139858D01*
X141644073Y-119380000D01*
X141667725Y-119620142D01*
X141737772Y-119851055D01*
X141851522Y-120063866D01*
X142004603Y-120250397D01*
X142191134Y-120403478D01*
X142403945Y-120517228D01*
X142634858Y-120587275D01*
X142814822Y-120605000D01*
X142935178Y-120605000D01*
X143115142Y-120587275D01*
X143346055Y-120517228D01*
X143558866Y-120403478D01*
X143745397Y-120250397D01*
X143898478Y-120063866D01*
X144012228Y-119851055D01*
X144082275Y-119620142D01*
X144105927Y-119380000D01*
X144082275Y-119139858D01*
X144021755Y-118940351D01*
X144428307Y-118533800D01*
X144524745Y-118533800D01*
X144391522Y-118696134D01*
X144277772Y-118908945D01*
X144207725Y-119139858D01*
X144184073Y-119380000D01*
X144207725Y-119620142D01*
X144277772Y-119851055D01*
X144391522Y-120063866D01*
X144544603Y-120250397D01*
X144731134Y-120403478D01*
X144943945Y-120517228D01*
X145174858Y-120587275D01*
X145354822Y-120605000D01*
X145475178Y-120605000D01*
X145655142Y-120587275D01*
X145886055Y-120517228D01*
X146098866Y-120403478D01*
X146285397Y-120250397D01*
X146438478Y-120063866D01*
X146552228Y-119851055D01*
X146622275Y-119620142D01*
X146645927Y-119380000D01*
X146622275Y-119139858D01*
X146552228Y-118908945D01*
X146438478Y-118696134D01*
X146305255Y-118533800D01*
X146889040Y-118533800D01*
X146913600Y-118536219D01*
X146938160Y-118533800D01*
X147003820Y-118527333D01*
X147011617Y-118526565D01*
X147094612Y-118501389D01*
X147084603Y-118509603D01*
X146931522Y-118696134D01*
X146817772Y-118908945D01*
X146747725Y-119139858D01*
X146724073Y-119380000D01*
X146747725Y-119620142D01*
X146817772Y-119851055D01*
X146931522Y-120063866D01*
X147084603Y-120250397D01*
X147271134Y-120403478D01*
X147483945Y-120517228D01*
X147714858Y-120587275D01*
X147894822Y-120605000D01*
X148015178Y-120605000D01*
X148195142Y-120587275D01*
X148426055Y-120517228D01*
X148638866Y-120403478D01*
X148825397Y-120250397D01*
X148978478Y-120063866D01*
X149092228Y-119851055D01*
X149154628Y-119645350D01*
X149299081Y-119645350D01*
X149373827Y-119873564D01*
X149491660Y-120082810D01*
X149648050Y-120265048D01*
X149836988Y-120413274D01*
X150051213Y-120521792D01*
X150229651Y-120575916D01*
X150420000Y-120508761D01*
X150420000Y-119455000D01*
X150570000Y-119455000D01*
X150570000Y-120508761D01*
X150760349Y-120575916D01*
X150938787Y-120521792D01*
X151153012Y-120413274D01*
X151341950Y-120265048D01*
X151498340Y-120082810D01*
X151616173Y-119873564D01*
X151690919Y-119645350D01*
X151623955Y-119455000D01*
X150570000Y-119455000D01*
X150420000Y-119455000D01*
X149366045Y-119455000D01*
X149299081Y-119645350D01*
X149154628Y-119645350D01*
X149162275Y-119620142D01*
X149185927Y-119380000D01*
X149162275Y-119139858D01*
X149154629Y-119114650D01*
X149299081Y-119114650D01*
X149366045Y-119305000D01*
X150420000Y-119305000D01*
X150420000Y-118251239D01*
X150229651Y-118184084D01*
X150051213Y-118238208D01*
X149836988Y-118346726D01*
X149648050Y-118494952D01*
X149491660Y-118677190D01*
X149373827Y-118886436D01*
X149299081Y-119114650D01*
X149154629Y-119114650D01*
X149092228Y-118908945D01*
X148978478Y-118696134D01*
X148825397Y-118509603D01*
X148638866Y-118356522D01*
X148426055Y-118242772D01*
X148195142Y-118172725D01*
X148015178Y-118155000D01*
X147894822Y-118155000D01*
X147714858Y-118172725D01*
X147483945Y-118242772D01*
X147328813Y-118325692D01*
X148571306Y-117083200D01*
X148605682Y-117083200D01*
X148736090Y-117057260D01*
X148858932Y-117006377D01*
X148969487Y-116932507D01*
X149063507Y-116838487D01*
X149137377Y-116727932D01*
X149188260Y-116605090D01*
X149214200Y-116474682D01*
X149214200Y-116341718D01*
X149188260Y-116211310D01*
X149137377Y-116088468D01*
X149063507Y-115977913D01*
X148969487Y-115883893D01*
X148858932Y-115810023D01*
X148736090Y-115759140D01*
X148605682Y-115733200D01*
X148472718Y-115733200D01*
X148342310Y-115759140D01*
X148219468Y-115810023D01*
X148108913Y-115883893D01*
X148014893Y-115977913D01*
X147941023Y-116088468D01*
X147890140Y-116211310D01*
X147864200Y-116341718D01*
X147864200Y-116376094D01*
X146706495Y-117533800D01*
X145416538Y-117533800D01*
X145504867Y-117426171D01*
X145602367Y-117243762D01*
X145662407Y-117045836D01*
X145682680Y-116840000D01*
X145662407Y-116634164D01*
X145602367Y-116436238D01*
X145504867Y-116253829D01*
X145373654Y-116093946D01*
X145213771Y-115962733D01*
X145127600Y-115916673D01*
X145127600Y-115909966D01*
X145130019Y-115885406D01*
X145120365Y-115787389D01*
X145103927Y-115733200D01*
X145091775Y-115693139D01*
X145045346Y-115606277D01*
X144982864Y-115530142D01*
X144963786Y-115514485D01*
X144568800Y-115119500D01*
X144568800Y-114960690D01*
X144592313Y-114958374D01*
X144663000Y-114936931D01*
X144728147Y-114902109D01*
X144785248Y-114855248D01*
X144832109Y-114798147D01*
X144866931Y-114733000D01*
X144888374Y-114662313D01*
X144895614Y-114588800D01*
X144895614Y-114419091D01*
X146114906Y-113199800D01*
X147094006Y-113199800D01*
X147118313Y-113224107D01*
X147228868Y-113297977D01*
X147351710Y-113348860D01*
X147482118Y-113374800D01*
X147615082Y-113374800D01*
X147745490Y-113348860D01*
X147868332Y-113297977D01*
X147978887Y-113224107D01*
X148072907Y-113130087D01*
X148146777Y-113019532D01*
X148197660Y-112896690D01*
X148223600Y-112766282D01*
X148223600Y-112633318D01*
X148197660Y-112502910D01*
X148146777Y-112380068D01*
X148072907Y-112269513D01*
X147978887Y-112175493D01*
X147868332Y-112101623D01*
X147745490Y-112050740D01*
X147615082Y-112024800D01*
X147482118Y-112024800D01*
X147351710Y-112050740D01*
X147228868Y-112101623D01*
X147118313Y-112175493D01*
X147094006Y-112199800D01*
X145932359Y-112199800D01*
X145907799Y-112197381D01*
X145809782Y-112207035D01*
X145793461Y-112211986D01*
X145715533Y-112235625D01*
X145628671Y-112282054D01*
X145552536Y-112344536D01*
X145536875Y-112363619D01*
X144893372Y-113007122D01*
X144800050Y-112913800D01*
X144143800Y-112913800D01*
X144143800Y-113370050D01*
X144237550Y-113463800D01*
X144435418Y-113465076D01*
X144188509Y-113711986D01*
X143618800Y-113711986D01*
X143545287Y-113719226D01*
X143474600Y-113740669D01*
X143409453Y-113775491D01*
X143352352Y-113822352D01*
X143305491Y-113879453D01*
X143270669Y-113944600D01*
X143249226Y-114015287D01*
X143241986Y-114088800D01*
X143241986Y-114588800D01*
X143249226Y-114662313D01*
X143270669Y-114733000D01*
X143305491Y-114798147D01*
X143352352Y-114855248D01*
X143409453Y-114902109D01*
X143474600Y-114936931D01*
X143545287Y-114958374D01*
X143568800Y-114960690D01*
X143568800Y-115302045D01*
X143566381Y-115326606D01*
X143568800Y-115351165D01*
X143576035Y-115424622D01*
X143604625Y-115518872D01*
X143651054Y-115605735D01*
X143713536Y-115681870D01*
X143732623Y-115697535D01*
X144017477Y-115982390D01*
X143881546Y-116093946D01*
X143750333Y-116253829D01*
X143679414Y-116386509D01*
X143679414Y-116165000D01*
X143672174Y-116091487D01*
X143650731Y-116020800D01*
X143615909Y-115955653D01*
X143569048Y-115898552D01*
X143511947Y-115851691D01*
X143446800Y-115816869D01*
X143376113Y-115795426D01*
X143302600Y-115788186D01*
X143171400Y-115788186D01*
X143171400Y-113088800D01*
X143241986Y-113088800D01*
X143249226Y-113162313D01*
X143270669Y-113233000D01*
X143305491Y-113298147D01*
X143352352Y-113355248D01*
X143409453Y-113402109D01*
X143474600Y-113436931D01*
X143545287Y-113458374D01*
X143618800Y-113465614D01*
X143900050Y-113463800D01*
X143993800Y-113370050D01*
X143993800Y-112913800D01*
X143337550Y-112913800D01*
X143243800Y-113007550D01*
X143241986Y-113088800D01*
X143171400Y-113088800D01*
X143171400Y-112588800D01*
X143241986Y-112588800D01*
X143243800Y-112670050D01*
X143337550Y-112763800D01*
X143993800Y-112763800D01*
X143993800Y-112307550D01*
X144143800Y-112307550D01*
X144143800Y-112763800D01*
X144800050Y-112763800D01*
X144893800Y-112670050D01*
X144895614Y-112588800D01*
X144888374Y-112515287D01*
X144866931Y-112444600D01*
X144832109Y-112379453D01*
X144785248Y-112322352D01*
X144728147Y-112275491D01*
X144663000Y-112240669D01*
X144592313Y-112219226D01*
X144518800Y-112211986D01*
X144237550Y-112213800D01*
X144143800Y-112307550D01*
X143993800Y-112307550D01*
X143900050Y-112213800D01*
X143618800Y-112211986D01*
X143545287Y-112219226D01*
X143474600Y-112240669D01*
X143409453Y-112275491D01*
X143352352Y-112322352D01*
X143305491Y-112379453D01*
X143270669Y-112444600D01*
X143249226Y-112515287D01*
X143241986Y-112588800D01*
X143171400Y-112588800D01*
X143171400Y-111912779D01*
X143173939Y-111886999D01*
X143171400Y-111861219D01*
X143171400Y-111861212D01*
X143163803Y-111784082D01*
X143133783Y-111685119D01*
X143085033Y-111593914D01*
X143019427Y-111513973D01*
X142999396Y-111497534D01*
X142977462Y-111475600D01*
X143316986Y-111475600D01*
X143324226Y-111549113D01*
X143345669Y-111619800D01*
X143380491Y-111684947D01*
X143427352Y-111742048D01*
X143484453Y-111788909D01*
X143549600Y-111823731D01*
X143620287Y-111845174D01*
X143693800Y-111852414D01*
X143900050Y-111850600D01*
X143993800Y-111756850D01*
X143993800Y-111150600D01*
X144143800Y-111150600D01*
X144143800Y-111756850D01*
X144237550Y-111850600D01*
X144443800Y-111852414D01*
X144517313Y-111845174D01*
X144588000Y-111823731D01*
X144653147Y-111788909D01*
X144710248Y-111742048D01*
X144757109Y-111684947D01*
X144791931Y-111619800D01*
X144813374Y-111549113D01*
X144820614Y-111475600D01*
X148092186Y-111475600D01*
X148099426Y-111549113D01*
X148120869Y-111619800D01*
X148155691Y-111684947D01*
X148202552Y-111742048D01*
X148259653Y-111788909D01*
X148324800Y-111823731D01*
X148395487Y-111845174D01*
X148469000Y-111852414D01*
X148675250Y-111850600D01*
X148769000Y-111756850D01*
X148769000Y-111150600D01*
X148919000Y-111150600D01*
X148919000Y-111756850D01*
X149012750Y-111850600D01*
X149219000Y-111852414D01*
X149292513Y-111845174D01*
X149363200Y-111823731D01*
X149428347Y-111788909D01*
X149485448Y-111742048D01*
X149532309Y-111684947D01*
X149567131Y-111619800D01*
X149580600Y-111575399D01*
X149594069Y-111619800D01*
X149628891Y-111684947D01*
X149675752Y-111742048D01*
X149732853Y-111788909D01*
X149798000Y-111823731D01*
X149868687Y-111845174D01*
X149942200Y-111852414D01*
X150148450Y-111850600D01*
X150242200Y-111756850D01*
X150242200Y-111150600D01*
X149660950Y-111150600D01*
X149580600Y-111230950D01*
X149500250Y-111150600D01*
X148919000Y-111150600D01*
X148769000Y-111150600D01*
X148187750Y-111150600D01*
X148094000Y-111244350D01*
X148092186Y-111475600D01*
X144820614Y-111475600D01*
X144818800Y-111244350D01*
X144725050Y-111150600D01*
X144143800Y-111150600D01*
X143993800Y-111150600D01*
X143412550Y-111150600D01*
X143318800Y-111244350D01*
X143316986Y-111475600D01*
X142977462Y-111475600D01*
X142104600Y-110602739D01*
X142104600Y-110348494D01*
X142144400Y-110352414D01*
X142350650Y-110350600D01*
X142444400Y-110256850D01*
X142444400Y-109650600D01*
X142594400Y-109650600D01*
X142594400Y-110256850D01*
X142688150Y-110350600D01*
X142894400Y-110352414D01*
X142967913Y-110345174D01*
X143038600Y-110323731D01*
X143103747Y-110288909D01*
X143160848Y-110242048D01*
X143207709Y-110184947D01*
X143242531Y-110119800D01*
X143263974Y-110049113D01*
X143271214Y-109975600D01*
X143269400Y-109744350D01*
X143175650Y-109650600D01*
X142594400Y-109650600D01*
X142444400Y-109650600D01*
X142424400Y-109650600D01*
X142424400Y-109500600D01*
X142444400Y-109500600D01*
X142444400Y-109480600D01*
X142594400Y-109480600D01*
X142594400Y-109500600D01*
X143175650Y-109500600D01*
X143269400Y-109406850D01*
X143271214Y-109175600D01*
X143263974Y-109102087D01*
X143242531Y-109031400D01*
X143207709Y-108966253D01*
X143160848Y-108909152D01*
X143103747Y-108862291D01*
X143038600Y-108827469D01*
X143032439Y-108825600D01*
X143038600Y-108823731D01*
X143103747Y-108788909D01*
X143160848Y-108742048D01*
X143207709Y-108684947D01*
X143242531Y-108619800D01*
X143248355Y-108600600D01*
X143467020Y-108600600D01*
X143492800Y-108603139D01*
X143518580Y-108600600D01*
X143518588Y-108600600D01*
X143595718Y-108593003D01*
X143694681Y-108562983D01*
X143785886Y-108514233D01*
X143798820Y-108503619D01*
X143828552Y-108539848D01*
X143885653Y-108586709D01*
X143950800Y-108621531D01*
X144021487Y-108642974D01*
X144095000Y-108650214D01*
X144345000Y-108650214D01*
X144418513Y-108642974D01*
X144470000Y-108627355D01*
X144521487Y-108642974D01*
X144595000Y-108650214D01*
X144845000Y-108650214D01*
X144918513Y-108642974D01*
X144970000Y-108627355D01*
X145021487Y-108642974D01*
X145095000Y-108650214D01*
X145345000Y-108650214D01*
X145418513Y-108642974D01*
X145470000Y-108627355D01*
X145521487Y-108642974D01*
X145595000Y-108650214D01*
X145720001Y-108650214D01*
X145720001Y-108700600D01*
X145632220Y-108700600D01*
X145463172Y-108734226D01*
X145303932Y-108800185D01*
X145160620Y-108895943D01*
X145038743Y-109017820D01*
X145000136Y-109075600D01*
X144805339Y-109075600D01*
X144791931Y-109031400D01*
X144757109Y-108966253D01*
X144710248Y-108909152D01*
X144653147Y-108862291D01*
X144588000Y-108827469D01*
X144517313Y-108806026D01*
X144443800Y-108798786D01*
X143693800Y-108798786D01*
X143620287Y-108806026D01*
X143549600Y-108827469D01*
X143484453Y-108862291D01*
X143427352Y-108909152D01*
X143380491Y-108966253D01*
X143345669Y-109031400D01*
X143324226Y-109102087D01*
X143316986Y-109175600D01*
X143316986Y-109975600D01*
X143324226Y-110049113D01*
X143345669Y-110119800D01*
X143380491Y-110184947D01*
X143427352Y-110242048D01*
X143484453Y-110288909D01*
X143549600Y-110323731D01*
X143555761Y-110325600D01*
X143549600Y-110327469D01*
X143484453Y-110362291D01*
X143427352Y-110409152D01*
X143380491Y-110466253D01*
X143345669Y-110531400D01*
X143324226Y-110602087D01*
X143316986Y-110675600D01*
X143318800Y-110906850D01*
X143412550Y-111000600D01*
X143993800Y-111000600D01*
X143993800Y-110980600D01*
X144143800Y-110980600D01*
X144143800Y-111000600D01*
X144725050Y-111000600D01*
X144818800Y-110906850D01*
X144820614Y-110675600D01*
X144813374Y-110602087D01*
X144791931Y-110531400D01*
X144757109Y-110466253D01*
X144710248Y-110409152D01*
X144653147Y-110362291D01*
X144588000Y-110327469D01*
X144581839Y-110325600D01*
X144588000Y-110323731D01*
X144653147Y-110288909D01*
X144710248Y-110242048D01*
X144757109Y-110184947D01*
X144791931Y-110119800D01*
X144805339Y-110075600D01*
X145000136Y-110075600D01*
X145038743Y-110133380D01*
X145160620Y-110255257D01*
X145303932Y-110351015D01*
X145463172Y-110416974D01*
X145632220Y-110450600D01*
X145804580Y-110450600D01*
X145973628Y-110416974D01*
X146132868Y-110351015D01*
X146276180Y-110255257D01*
X146398057Y-110133380D01*
X146468400Y-110028104D01*
X146538743Y-110133380D01*
X146660620Y-110255257D01*
X146803932Y-110351015D01*
X146963172Y-110416974D01*
X147132220Y-110450600D01*
X147304580Y-110450600D01*
X147473628Y-110416974D01*
X147632868Y-110351015D01*
X147776180Y-110255257D01*
X147898057Y-110133380D01*
X147936664Y-110075600D01*
X148107461Y-110075600D01*
X148120869Y-110119800D01*
X148155691Y-110184947D01*
X148202552Y-110242048D01*
X148259653Y-110288909D01*
X148324800Y-110323731D01*
X148330961Y-110325600D01*
X148324800Y-110327469D01*
X148259653Y-110362291D01*
X148202552Y-110409152D01*
X148155691Y-110466253D01*
X148120869Y-110531400D01*
X148099426Y-110602087D01*
X148092186Y-110675600D01*
X148094000Y-110906850D01*
X148187750Y-111000600D01*
X148769000Y-111000600D01*
X148769000Y-110980600D01*
X148919000Y-110980600D01*
X148919000Y-111000600D01*
X149500250Y-111000600D01*
X149580600Y-110920250D01*
X149660950Y-111000600D01*
X150242200Y-111000600D01*
X150242200Y-110980600D01*
X150392200Y-110980600D01*
X150392200Y-111000600D01*
X150412200Y-111000600D01*
X150412200Y-111150600D01*
X150392200Y-111150600D01*
X150392200Y-111756850D01*
X150485950Y-111850600D01*
X150644989Y-111851999D01*
X150644989Y-112208608D01*
X150636930Y-112203223D01*
X150514088Y-112152340D01*
X150383680Y-112126400D01*
X150250716Y-112126400D01*
X150120308Y-112152340D01*
X149997466Y-112203223D01*
X149886911Y-112277093D01*
X149792891Y-112371113D01*
X149719021Y-112481668D01*
X149668138Y-112604510D01*
X149642198Y-112734918D01*
X149642198Y-112867882D01*
X149668138Y-112998290D01*
X149719021Y-113121132D01*
X149792891Y-113231687D01*
X149886911Y-113325707D01*
X149997466Y-113399577D01*
X150120308Y-113450460D01*
X150147401Y-113455849D01*
X150147400Y-117212842D01*
X150144981Y-117237402D01*
X150154635Y-117335419D01*
X150158676Y-117348740D01*
X150183225Y-117429668D01*
X150229654Y-117516531D01*
X150292136Y-117592666D01*
X150311224Y-117608331D01*
X150943476Y-118240583D01*
X150938787Y-118238208D01*
X150760349Y-118184084D01*
X150570000Y-118251239D01*
X150570000Y-119305000D01*
X151623955Y-119305000D01*
X151690919Y-119114650D01*
X151629248Y-118926355D01*
X151808186Y-119105294D01*
X151808186Y-120230000D01*
X151815426Y-120303513D01*
X151836869Y-120374200D01*
X151871691Y-120439347D01*
X151918552Y-120496448D01*
X151975653Y-120543309D01*
X152040800Y-120578131D01*
X152111487Y-120599574D01*
X152185000Y-120606814D01*
X153885000Y-120606814D01*
X153958513Y-120599574D01*
X154029200Y-120578131D01*
X154094347Y-120543309D01*
X154151448Y-120496448D01*
X154198309Y-120439347D01*
X154233131Y-120374200D01*
X154254574Y-120303513D01*
X154261814Y-120230000D01*
X154261814Y-118530000D01*
X154254574Y-118456487D01*
X154233131Y-118385800D01*
X154198309Y-118320653D01*
X154151448Y-118263552D01*
X154124104Y-118241112D01*
X154129347Y-118238309D01*
X154186448Y-118191448D01*
X154233309Y-118134347D01*
X154250493Y-118102198D01*
X154719077Y-118570783D01*
X154593296Y-118724047D01*
X154484189Y-118928171D01*
X154417002Y-119149660D01*
X154394315Y-119380000D01*
X154417002Y-119610340D01*
X154484189Y-119831829D01*
X154593296Y-120035953D01*
X154740130Y-120214870D01*
X154919047Y-120361704D01*
X155123171Y-120470811D01*
X155344660Y-120537998D01*
X155517280Y-120555000D01*
X155632720Y-120555000D01*
X155805340Y-120537998D01*
X156026829Y-120470811D01*
X156230953Y-120361704D01*
X156409870Y-120214870D01*
X156556704Y-120035953D01*
X156665811Y-119831829D01*
X156732998Y-119610340D01*
X156755685Y-119380000D01*
X156732998Y-119149660D01*
X156665811Y-118928171D01*
X156556704Y-118724047D01*
X156409870Y-118545130D01*
X156230953Y-118398296D01*
X156026829Y-118289189D01*
X155805340Y-118222002D01*
X155782232Y-118219726D01*
X155577506Y-118015000D01*
X155632720Y-118015000D01*
X155805340Y-117997998D01*
X156026829Y-117930811D01*
X156230953Y-117821704D01*
X156409870Y-117674870D01*
X156556704Y-117495953D01*
X156665811Y-117291829D01*
X156732998Y-117070340D01*
X156755685Y-116840000D01*
X156732998Y-116609660D01*
X156665811Y-116388171D01*
X156556704Y-116184047D01*
X156409870Y-116005130D01*
X156230953Y-115858296D01*
X156026829Y-115749189D01*
X155805340Y-115682002D01*
X155632720Y-115665000D01*
X155517280Y-115665000D01*
X155344660Y-115682002D01*
X155175440Y-115733334D01*
X154675929Y-115233824D01*
X154660264Y-115214736D01*
X154584129Y-115152254D01*
X154497267Y-115105825D01*
X154403017Y-115077235D01*
X154329560Y-115070000D01*
X154305000Y-115067581D01*
X154291780Y-115068883D01*
X154289574Y-115046487D01*
X154268131Y-114975800D01*
X154233309Y-114910653D01*
X154186448Y-114853552D01*
X154129347Y-114806691D01*
X154064200Y-114771869D01*
X153993513Y-114750426D01*
X153920000Y-114743186D01*
X153420000Y-114743186D01*
X153346487Y-114750426D01*
X153275800Y-114771869D01*
X153210653Y-114806691D01*
X153153552Y-114853552D01*
X153106691Y-114910653D01*
X153071869Y-114975800D01*
X153050426Y-115046487D01*
X153043186Y-115120000D01*
X153043186Y-116020000D01*
X153050426Y-116093513D01*
X153071869Y-116164200D01*
X153106691Y-116229347D01*
X153153552Y-116286448D01*
X153210653Y-116333309D01*
X153275800Y-116368131D01*
X153346487Y-116389574D01*
X153420000Y-116396814D01*
X153920000Y-116396814D01*
X153993513Y-116389574D01*
X154064200Y-116368131D01*
X154129347Y-116333309D01*
X154186448Y-116286448D01*
X154233309Y-116229347D01*
X154241645Y-116213751D01*
X154468334Y-116440440D01*
X154417002Y-116609660D01*
X154394315Y-116840000D01*
X154408127Y-116980237D01*
X154354960Y-116975000D01*
X154330400Y-116972581D01*
X154305840Y-116975000D01*
X154291890Y-116975000D01*
X154289574Y-116951487D01*
X154268131Y-116880800D01*
X154233309Y-116815653D01*
X154186448Y-116758552D01*
X154129347Y-116711691D01*
X154064200Y-116676869D01*
X153993513Y-116655426D01*
X153920000Y-116648186D01*
X153420000Y-116648186D01*
X153346487Y-116655426D01*
X153275800Y-116676869D01*
X153210653Y-116711691D01*
X153153552Y-116758552D01*
X153106691Y-116815653D01*
X153071869Y-116880800D01*
X153050426Y-116951487D01*
X153043186Y-117025000D01*
X153043186Y-117925000D01*
X153050426Y-117998513D01*
X153071869Y-118069200D01*
X153106691Y-118134347D01*
X153122152Y-118153186D01*
X152717848Y-118153186D01*
X152733309Y-118134347D01*
X152768131Y-118069200D01*
X152789574Y-117998513D01*
X152796814Y-117925000D01*
X152796814Y-117025000D01*
X152789574Y-116951487D01*
X152768131Y-116880800D01*
X152733309Y-116815653D01*
X152686448Y-116758552D01*
X152629347Y-116711691D01*
X152564200Y-116676869D01*
X152493513Y-116655426D01*
X152420000Y-116648186D01*
X151920000Y-116648186D01*
X151846487Y-116655426D01*
X151775800Y-116676869D01*
X151710653Y-116711691D01*
X151667781Y-116746875D01*
X151644988Y-116724082D01*
X151644988Y-116276013D01*
X151653552Y-116286448D01*
X151710653Y-116333309D01*
X151775800Y-116368131D01*
X151846487Y-116389574D01*
X151920000Y-116396814D01*
X152420000Y-116396814D01*
X152493513Y-116389574D01*
X152564200Y-116368131D01*
X152629347Y-116333309D01*
X152686448Y-116286448D01*
X152733309Y-116229347D01*
X152768131Y-116164200D01*
X152789574Y-116093513D01*
X152796814Y-116020000D01*
X152796814Y-115120000D01*
X152789574Y-115046487D01*
X152768131Y-114975800D01*
X152733309Y-114910653D01*
X152686448Y-114853552D01*
X152629347Y-114806691D01*
X152564200Y-114771869D01*
X152493513Y-114750426D01*
X152420000Y-114743186D01*
X152094999Y-114743186D01*
X152094999Y-114491814D01*
X152420000Y-114491814D01*
X152493513Y-114484574D01*
X152564200Y-114463131D01*
X152629347Y-114428309D01*
X152686448Y-114381448D01*
X152733309Y-114324347D01*
X152768131Y-114259200D01*
X152789574Y-114188513D01*
X152796814Y-114115000D01*
X152796814Y-113215000D01*
X152792106Y-113167199D01*
X153269587Y-112689720D01*
X153288664Y-112674064D01*
X153351146Y-112597929D01*
X153360233Y-112580928D01*
X153420000Y-112586814D01*
X153920000Y-112586814D01*
X153993513Y-112579574D01*
X154064200Y-112558131D01*
X154129347Y-112523309D01*
X154186448Y-112476448D01*
X154233309Y-112419347D01*
X154268131Y-112354200D01*
X154289574Y-112283513D01*
X154296814Y-112210000D01*
X154296814Y-111840291D01*
X154396195Y-111740910D01*
X154394315Y-111760000D01*
X154417002Y-111990340D01*
X154484189Y-112211829D01*
X154593296Y-112415953D01*
X154650382Y-112485512D01*
X154186851Y-112949043D01*
X154186448Y-112948552D01*
X154129347Y-112901691D01*
X154064200Y-112866869D01*
X153993513Y-112845426D01*
X153920000Y-112838186D01*
X153420000Y-112838186D01*
X153346487Y-112845426D01*
X153275800Y-112866869D01*
X153210653Y-112901691D01*
X153153552Y-112948552D01*
X153106691Y-113005653D01*
X153071869Y-113070800D01*
X153050426Y-113141487D01*
X153043186Y-113215000D01*
X153043186Y-114115000D01*
X153050426Y-114188513D01*
X153071869Y-114259200D01*
X153106691Y-114324347D01*
X153153552Y-114381448D01*
X153210653Y-114428309D01*
X153275800Y-114463131D01*
X153346487Y-114484574D01*
X153420000Y-114491814D01*
X153920000Y-114491814D01*
X153993513Y-114484574D01*
X154064200Y-114463131D01*
X154129347Y-114428309D01*
X154186448Y-114381448D01*
X154233309Y-114324347D01*
X154268131Y-114259200D01*
X154289574Y-114188513D01*
X154293113Y-114152579D01*
X154370267Y-114129175D01*
X154413412Y-114106114D01*
X154394315Y-114300000D01*
X154417002Y-114530340D01*
X154484189Y-114751829D01*
X154593296Y-114955953D01*
X154740130Y-115134870D01*
X154919047Y-115281704D01*
X155123171Y-115390811D01*
X155344660Y-115457998D01*
X155517280Y-115475000D01*
X155632720Y-115475000D01*
X155805340Y-115457998D01*
X156026829Y-115390811D01*
X156230953Y-115281704D01*
X156409870Y-115134870D01*
X156556704Y-114955953D01*
X156665811Y-114751829D01*
X156732998Y-114530340D01*
X156755685Y-114300000D01*
X156732998Y-114069660D01*
X156665811Y-113848171D01*
X156556704Y-113644047D01*
X156409870Y-113465130D01*
X156230953Y-113318296D01*
X156026829Y-113209189D01*
X155805340Y-113142002D01*
X155632720Y-113125000D01*
X155517280Y-113125000D01*
X155415036Y-113135070D01*
X155615107Y-112935000D01*
X155632720Y-112935000D01*
X155805340Y-112917998D01*
X156026829Y-112850811D01*
X156230953Y-112741704D01*
X156409870Y-112594870D01*
X156556704Y-112415953D01*
X156665811Y-112211829D01*
X156732998Y-111990340D01*
X156755685Y-111760000D01*
X156732998Y-111529660D01*
X156665811Y-111308171D01*
X156556704Y-111104047D01*
X156409870Y-110925130D01*
X156318025Y-110849754D01*
X156321102Y-110846005D01*
X156776001Y-110391107D01*
X156776001Y-120119985D01*
X156758267Y-120300854D01*
X156712134Y-120453653D01*
X156637198Y-120594587D01*
X156536317Y-120718279D01*
X156413334Y-120820021D01*
X156272928Y-120895938D01*
X156120449Y-120943138D01*
X155940987Y-120962000D01*
X139976005Y-120962000D01*
X139795146Y-120944267D01*
X139642347Y-120898134D01*
X139501413Y-120823198D01*
X139377721Y-120722317D01*
X139275979Y-120599334D01*
X139200062Y-120458928D01*
X139152862Y-120306449D01*
X139134000Y-120126987D01*
X139134000Y-119380000D01*
X139154315Y-119380000D01*
X139177002Y-119610340D01*
X139244189Y-119831829D01*
X139353296Y-120035953D01*
X139500130Y-120214870D01*
X139679047Y-120361704D01*
X139883171Y-120470811D01*
X140104660Y-120537998D01*
X140277280Y-120555000D01*
X140392720Y-120555000D01*
X140565340Y-120537998D01*
X140786829Y-120470811D01*
X140990953Y-120361704D01*
X141169870Y-120214870D01*
X141316704Y-120035953D01*
X141425811Y-119831829D01*
X141492998Y-119610340D01*
X141515685Y-119380000D01*
X141492998Y-119149660D01*
X141425811Y-118928171D01*
X141316704Y-118724047D01*
X141169870Y-118545130D01*
X140990953Y-118398296D01*
X140786829Y-118289189D01*
X140565340Y-118222002D01*
X140392720Y-118205000D01*
X140277280Y-118205000D01*
X140104660Y-118222002D01*
X139883171Y-118289189D01*
X139679047Y-118398296D01*
X139500130Y-118545130D01*
X139353296Y-118724047D01*
X139244189Y-118928171D01*
X139177002Y-119149660D01*
X139154315Y-119380000D01*
X139134000Y-119380000D01*
X139134000Y-116840000D01*
X139154315Y-116840000D01*
X139177002Y-117070340D01*
X139244189Y-117291829D01*
X139353296Y-117495953D01*
X139500130Y-117674870D01*
X139679047Y-117821704D01*
X139883171Y-117930811D01*
X140104660Y-117997998D01*
X140277280Y-118015000D01*
X140392720Y-118015000D01*
X140565340Y-117997998D01*
X140786829Y-117930811D01*
X140990953Y-117821704D01*
X141169870Y-117674870D01*
X141316704Y-117495953D01*
X141425811Y-117291829D01*
X141492998Y-117070340D01*
X141515685Y-116840000D01*
X141492998Y-116609660D01*
X141425811Y-116388171D01*
X141316704Y-116184047D01*
X141169870Y-116005130D01*
X140990953Y-115858296D01*
X140786829Y-115749189D01*
X140565340Y-115682002D01*
X140392720Y-115665000D01*
X140277280Y-115665000D01*
X140104660Y-115682002D01*
X139883171Y-115749189D01*
X139679047Y-115858296D01*
X139500130Y-116005130D01*
X139353296Y-116184047D01*
X139244189Y-116388171D01*
X139177002Y-116609660D01*
X139154315Y-116840000D01*
X139134000Y-116840000D01*
X139134000Y-114300000D01*
X139154315Y-114300000D01*
X139177002Y-114530340D01*
X139244189Y-114751829D01*
X139353296Y-114955953D01*
X139500130Y-115134870D01*
X139679047Y-115281704D01*
X139883171Y-115390811D01*
X140104660Y-115457998D01*
X140277280Y-115475000D01*
X140392720Y-115475000D01*
X140565340Y-115457998D01*
X140786829Y-115390811D01*
X140990953Y-115281704D01*
X141169870Y-115134870D01*
X141316704Y-114955953D01*
X141425811Y-114751829D01*
X141492998Y-114530340D01*
X141515685Y-114300000D01*
X141492998Y-114069660D01*
X141425811Y-113848171D01*
X141316704Y-113644047D01*
X141169870Y-113465130D01*
X140990953Y-113318296D01*
X140786829Y-113209189D01*
X140565340Y-113142002D01*
X140392720Y-113125000D01*
X140277280Y-113125000D01*
X140104660Y-113142002D01*
X139883171Y-113209189D01*
X139679047Y-113318296D01*
X139500130Y-113465130D01*
X139353296Y-113644047D01*
X139244189Y-113848171D01*
X139177002Y-114069660D01*
X139154315Y-114300000D01*
X139134000Y-114300000D01*
X139134000Y-106680000D01*
X139154315Y-106680000D01*
X139177002Y-106910340D01*
X139244189Y-107131829D01*
X139353296Y-107335953D01*
X139500130Y-107514870D01*
X139679047Y-107661704D01*
X139883171Y-107770811D01*
X140104660Y-107837998D01*
X140277280Y-107855000D01*
X140392720Y-107855000D01*
X140565340Y-107837998D01*
X140786829Y-107770811D01*
X140990953Y-107661704D01*
X141169870Y-107514870D01*
X141316704Y-107335953D01*
X141425811Y-107131829D01*
X141492998Y-106910340D01*
X141515685Y-106680000D01*
X141492998Y-106449660D01*
X141425811Y-106228171D01*
X141316704Y-106024047D01*
X141169870Y-105845130D01*
X140990953Y-105698296D01*
X140786829Y-105589189D01*
X140565340Y-105522002D01*
X140392720Y-105505000D01*
X140277280Y-105505000D01*
X140104660Y-105522002D01*
X139883171Y-105589189D01*
X139679047Y-105698296D01*
X139500130Y-105845130D01*
X139353296Y-106024047D01*
X139244189Y-106228171D01*
X139177002Y-106449660D01*
X139154315Y-106680000D01*
X139134000Y-106680000D01*
X139134000Y-99317512D01*
X139188565Y-99317512D01*
X139238705Y-99482813D01*
X139342257Y-99688565D01*
X139483959Y-99870162D01*
X139658366Y-100020625D01*
X139858776Y-100134172D01*
X140077487Y-100206439D01*
X140260000Y-100138858D01*
X140260000Y-99135000D01*
X139256354Y-99135000D01*
X139188565Y-99317512D01*
X139134000Y-99317512D01*
X139134000Y-98802488D01*
X139188565Y-98802488D01*
X139256354Y-98985000D01*
X140260000Y-98985000D01*
X140260000Y-97981142D01*
X140077487Y-97913561D01*
X139858776Y-97985828D01*
X139658366Y-98099375D01*
X139483959Y-98249838D01*
X139342257Y-98431435D01*
X139238705Y-98637187D01*
X139188565Y-98802488D01*
X139134000Y-98802488D01*
X139134000Y-96520000D01*
X139154315Y-96520000D01*
X139177002Y-96750340D01*
X139244189Y-96971829D01*
X139353296Y-97175953D01*
X139500130Y-97354870D01*
X139679047Y-97501704D01*
X139883171Y-97610811D01*
X140104660Y-97677998D01*
X140277280Y-97695000D01*
X140392720Y-97695000D01*
X140565340Y-97677998D01*
X140786829Y-97610811D01*
X140990953Y-97501704D01*
X141169870Y-97354870D01*
X141316704Y-97175953D01*
X141425811Y-96971829D01*
X141492998Y-96750340D01*
X141515685Y-96520000D01*
X141492998Y-96289660D01*
X141425811Y-96068171D01*
X141316704Y-95864047D01*
X141169870Y-95685130D01*
X140990953Y-95538296D01*
X140786829Y-95429189D01*
X140565340Y-95362002D01*
X140392720Y-95345000D01*
X140277280Y-95345000D01*
X140104660Y-95362002D01*
X139883171Y-95429189D01*
X139679047Y-95538296D01*
X139500130Y-95685130D01*
X139353296Y-95864047D01*
X139244189Y-96068171D01*
X139177002Y-96289660D01*
X139154315Y-96520000D01*
X139134000Y-96520000D01*
X139134000Y-93980000D01*
X139154315Y-93980000D01*
X139177002Y-94210340D01*
X139244189Y-94431829D01*
X139353296Y-94635953D01*
X139500130Y-94814870D01*
X139679047Y-94961704D01*
X139883171Y-95070811D01*
X140104660Y-95137998D01*
X140277280Y-95155000D01*
X140392720Y-95155000D01*
X140565340Y-95137998D01*
X140786829Y-95070811D01*
X140990953Y-94961704D01*
X141169870Y-94814870D01*
X141316704Y-94635953D01*
X141425811Y-94431829D01*
X141492998Y-94210340D01*
X141515685Y-93980000D01*
X141492998Y-93749660D01*
X141425811Y-93528171D01*
X141316704Y-93324047D01*
X141169870Y-93145130D01*
X140990953Y-92998296D01*
X140786829Y-92889189D01*
X140565340Y-92822002D01*
X140392720Y-92805000D01*
X140277280Y-92805000D01*
X140104660Y-92822002D01*
X139883171Y-92889189D01*
X139679047Y-92998296D01*
X139500130Y-93145130D01*
X139353296Y-93324047D01*
X139244189Y-93528171D01*
X139177002Y-93749660D01*
X139154315Y-93980000D01*
X139134000Y-93980000D01*
X139134000Y-85620005D01*
X139151733Y-85439146D01*
X139197866Y-85286348D01*
X139272804Y-85145411D01*
X139373684Y-85021719D01*
X139496670Y-84919977D01*
X139637071Y-84844062D01*
X139669576Y-84834000D01*
X146582607Y-84834000D01*
X146592222Y-84864311D01*
G36*
X149521487Y-108642974D02*
G01*
X149595000Y-108650214D01*
X149626250Y-108648400D01*
X149644998Y-108629652D01*
X149644998Y-108648400D01*
X149695000Y-108648400D01*
X149695001Y-108893355D01*
X149675752Y-108909152D01*
X149628891Y-108966253D01*
X149594069Y-109031400D01*
X149580600Y-109075801D01*
X149567131Y-109031400D01*
X149532309Y-108966253D01*
X149485448Y-108909152D01*
X149428347Y-108862291D01*
X149363200Y-108827469D01*
X149292513Y-108806026D01*
X149219000Y-108798786D01*
X148469000Y-108798786D01*
X148395487Y-108806026D01*
X148324800Y-108827469D01*
X148259653Y-108862291D01*
X148202552Y-108909152D01*
X148155691Y-108966253D01*
X148120869Y-109031400D01*
X148107461Y-109075600D01*
X147936664Y-109075600D01*
X147898057Y-109017820D01*
X147776180Y-108895943D01*
X147632868Y-108800185D01*
X147473628Y-108734226D01*
X147304580Y-108700600D01*
X147220000Y-108700600D01*
X147220000Y-108650214D01*
X147345000Y-108650214D01*
X147418513Y-108642974D01*
X147470000Y-108627355D01*
X147521487Y-108642974D01*
X147595000Y-108650214D01*
X147845000Y-108650214D01*
X147918513Y-108642974D01*
X147970000Y-108627355D01*
X148021487Y-108642974D01*
X148095000Y-108650214D01*
X148345000Y-108650214D01*
X148418513Y-108642974D01*
X148470000Y-108627355D01*
X148521487Y-108642974D01*
X148595000Y-108650214D01*
X148845000Y-108650214D01*
X148918513Y-108642974D01*
X148970000Y-108627355D01*
X149021487Y-108642974D01*
X149095000Y-108650214D01*
X149345000Y-108650214D01*
X149418513Y-108642974D01*
X149470000Y-108627355D01*
X149521487Y-108642974D01*
X149521487Y-108642974D01*
G37*
X149521487Y-108642974D02*
X149595000Y-108650214D01*
X149626250Y-108648400D01*
X149644998Y-108629652D01*
X149644998Y-108648400D01*
X149695000Y-108648400D01*
X149695001Y-108893355D01*
X149675752Y-108909152D01*
X149628891Y-108966253D01*
X149594069Y-109031400D01*
X149580600Y-109075801D01*
X149567131Y-109031400D01*
X149532309Y-108966253D01*
X149485448Y-108909152D01*
X149428347Y-108862291D01*
X149363200Y-108827469D01*
X149292513Y-108806026D01*
X149219000Y-108798786D01*
X148469000Y-108798786D01*
X148395487Y-108806026D01*
X148324800Y-108827469D01*
X148259653Y-108862291D01*
X148202552Y-108909152D01*
X148155691Y-108966253D01*
X148120869Y-109031400D01*
X148107461Y-109075600D01*
X147936664Y-109075600D01*
X147898057Y-109017820D01*
X147776180Y-108895943D01*
X147632868Y-108800185D01*
X147473628Y-108734226D01*
X147304580Y-108700600D01*
X147220000Y-108700600D01*
X147220000Y-108650214D01*
X147345000Y-108650214D01*
X147418513Y-108642974D01*
X147470000Y-108627355D01*
X147521487Y-108642974D01*
X147595000Y-108650214D01*
X147845000Y-108650214D01*
X147918513Y-108642974D01*
X147970000Y-108627355D01*
X148021487Y-108642974D01*
X148095000Y-108650214D01*
X148345000Y-108650214D01*
X148418513Y-108642974D01*
X148470000Y-108627355D01*
X148521487Y-108642974D01*
X148595000Y-108650214D01*
X148845000Y-108650214D01*
X148918513Y-108642974D01*
X148970000Y-108627355D01*
X149021487Y-108642974D01*
X149095000Y-108650214D01*
X149345000Y-108650214D01*
X149418513Y-108642974D01*
X149470000Y-108627355D01*
X149521487Y-108642974D01*
G36*
X144879000Y-90857000D02*
G01*
X144899000Y-90857000D01*
X144899000Y-91007000D01*
X144879000Y-91007000D01*
X144879000Y-91027000D01*
X144729000Y-91027000D01*
X144729000Y-91007000D01*
X144709000Y-91007000D01*
X144709000Y-90857000D01*
X144729000Y-90857000D01*
X144729000Y-90837000D01*
X144879000Y-90837000D01*
X144879000Y-90857000D01*
X144879000Y-90857000D01*
G37*
X144879000Y-90857000D02*
X144899000Y-90857000D01*
X144899000Y-91007000D01*
X144879000Y-91007000D01*
X144879000Y-91027000D01*
X144729000Y-91027000D01*
X144729000Y-91007000D01*
X144709000Y-91007000D01*
X144709000Y-90857000D01*
X144729000Y-90857000D01*
X144729000Y-90837000D01*
X144879000Y-90837000D01*
X144879000Y-90857000D01*
M02*
