G04 #@! TF.GenerationSoftware,KiCad,Pcbnew,5.0.1-33cea8e~68~ubuntu16.04.1*
G04 #@! TF.CreationDate,2018-11-17T04:31:05+03:00*
G04 #@! TF.ProjectId,ayx,6179782E6B696361645F706362000000,rev?*
G04 #@! TF.SameCoordinates,Original*
G04 #@! TF.FileFunction,Copper,L1,Top,Signal*
G04 #@! TF.FilePolarity,Positive*
%FSLAX46Y46*%
G04 Gerber Fmt 4.6, Leading zero omitted, Abs format (unit mm)*
G04 Created by KiCad (PCBNEW 5.0.1-33cea8e~68~ubuntu16.04.1) date Сб 17 ноя 2018 04:31:05*
%MOMM*%
%LPD*%
G01*
G04 APERTURE LIST*
G04 #@! TA.AperFunction,NonConductor*
%ADD10C,0.150000*%
G04 #@! TD*
G04 #@! TA.AperFunction,ComponentPad*
%ADD11O,1.600000X1.600000*%
G04 #@! TD*
G04 #@! TA.AperFunction,ComponentPad*
%ADD12R,1.600000X1.600000*%
G04 #@! TD*
G04 #@! TA.AperFunction,SMDPad,CuDef*
%ADD13R,1.000000X0.250000*%
G04 #@! TD*
G04 #@! TA.AperFunction,SMDPad,CuDef*
%ADD14R,0.250000X1.000000*%
G04 #@! TD*
G04 #@! TA.AperFunction,ComponentPad*
%ADD15O,1.700000X1.700000*%
G04 #@! TD*
G04 #@! TA.AperFunction,ComponentPad*
%ADD16R,1.700000X1.700000*%
G04 #@! TD*
G04 #@! TA.AperFunction,SMDPad,CuDef*
%ADD17R,0.650000X1.060000*%
G04 #@! TD*
G04 #@! TA.AperFunction,SMDPad,CuDef*
%ADD18R,0.750000X0.800000*%
G04 #@! TD*
G04 #@! TA.AperFunction,SMDPad,CuDef*
%ADD19R,0.900000X0.500000*%
G04 #@! TD*
G04 #@! TA.AperFunction,SMDPad,CuDef*
%ADD20R,0.500000X0.900000*%
G04 #@! TD*
G04 #@! TA.AperFunction,SMDPad,CuDef*
%ADD21R,0.800000X0.750000*%
G04 #@! TD*
G04 #@! TA.AperFunction,ComponentPad*
%ADD22O,1.350000X1.350000*%
G04 #@! TD*
G04 #@! TA.AperFunction,ComponentPad*
%ADD23R,1.350000X1.350000*%
G04 #@! TD*
G04 #@! TA.AperFunction,ComponentPad*
%ADD24C,1.000000*%
G04 #@! TD*
G04 #@! TA.AperFunction,ViaPad*
%ADD25C,0.600000*%
G04 #@! TD*
G04 #@! TA.AperFunction,Conductor*
%ADD26C,0.300000*%
G04 #@! TD*
G04 #@! TA.AperFunction,Conductor*
%ADD27C,0.250000*%
G04 #@! TD*
G04 APERTURE END LIST*
D10*
X146939000Y-84328000D02*
G75*
G03X148971000Y-84328000I1016000J0D01*
G01*
X146939000Y-84328000D02*
X139954000Y-84328000D01*
X155829000Y-121417761D02*
G75*
G03X157226000Y-120142000I0J1402761D01*
G01*
X138684000Y-120142000D02*
G75*
G03X139954000Y-121412000I1270000J0D01*
G01*
X157226000Y-85598000D02*
G75*
G03X155956000Y-84328000I-1270000J0D01*
G01*
X139954000Y-84328000D02*
G75*
G03X138684000Y-85598000I0J-1270000D01*
G01*
X138684000Y-120142000D02*
X138684000Y-85598000D01*
X155829000Y-121412000D02*
X139954000Y-121412000D01*
X157226000Y-85598000D02*
X157226000Y-120142000D01*
X148971000Y-84328000D02*
X155956000Y-84328000D01*
D11*
G04 #@! TO.P,U2,28*
G04 #@! TO.N,Z80_D0*
X155575000Y-86360000D03*
G04 #@! TO.P,U2,14*
G04 #@! TO.N,IOA0*
X140335000Y-119380000D03*
G04 #@! TO.P,U2,27*
G04 #@! TO.N,Z80_D1*
X155575000Y-88900000D03*
G04 #@! TO.P,U2,13*
G04 #@! TO.N,IOA1*
X140335000Y-116840000D03*
G04 #@! TO.P,U2,26*
G04 #@! TO.N,Z80_D2*
X155575000Y-91440000D03*
G04 #@! TO.P,U2,12*
G04 #@! TO.N,IOA2*
X140335000Y-114300000D03*
G04 #@! TO.P,U2,25*
G04 #@! TO.N,Z80_D3*
X155575000Y-93980000D03*
G04 #@! TO.P,U2,11*
G04 #@! TO.N,IOA3*
X140335000Y-111760000D03*
G04 #@! TO.P,U2,24*
G04 #@! TO.N,Z80_D4*
X155575000Y-96520000D03*
G04 #@! TO.P,U2,10*
G04 #@! TO.N,IOA4*
X140335000Y-109220000D03*
G04 #@! TO.P,U2,23*
G04 #@! TO.N,Z80_D5*
X155575000Y-99060000D03*
G04 #@! TO.P,U2,9*
G04 #@! TO.N,IOA5*
X140335000Y-106680000D03*
G04 #@! TO.P,U2,22*
G04 #@! TO.N,Z80_D6*
X155575000Y-101600000D03*
G04 #@! TO.P,U2,8*
G04 #@! TO.N,IOA6*
X140335000Y-104140000D03*
G04 #@! TO.P,U2,21*
G04 #@! TO.N,Z80_D7*
X155575000Y-104140000D03*
G04 #@! TO.P,U2,7*
G04 #@! TO.N,IOA7*
X140335000Y-101600000D03*
G04 #@! TO.P,U2,20*
G04 #@! TO.N,AY_BC1*
X155575000Y-106680000D03*
G04 #@! TO.P,U2,6*
G04 #@! TO.N,GND*
X140335000Y-99060000D03*
G04 #@! TO.P,U2,19*
G04 #@! TO.N,AY_BC2*
X155575000Y-109220000D03*
G04 #@! TO.P,U2,5*
G04 #@! TO.N,A_CHA*
X140335000Y-96520000D03*
G04 #@! TO.P,U2,18*
G04 #@! TO.N,AY_BDIR*
X155575000Y-111760000D03*
G04 #@! TO.P,U2,4*
G04 #@! TO.N,A_CHB*
X140335000Y-93980000D03*
G04 #@! TO.P,U2,17*
G04 #@! TO.N,AY_A8*
X155575000Y-114300000D03*
G04 #@! TO.P,U2,3*
G04 #@! TO.N,VDD5*
X140335000Y-91440000D03*
G04 #@! TO.P,U2,16*
G04 #@! TO.N,~AY_RST*
X155575000Y-116840000D03*
G04 #@! TO.P,U2,2*
G04 #@! TO.N,Net-(U2-Pad2)*
X140335000Y-88900000D03*
G04 #@! TO.P,U2,15*
G04 #@! TO.N,AY_CLK*
X155575000Y-119380000D03*
D12*
G04 #@! TO.P,U2,1*
G04 #@! TO.N,A_CHC*
X140335000Y-86360000D03*
G04 #@! TD*
D13*
G04 #@! TO.P,U1,64*
G04 #@! TO.N,VDD33*
X142270000Y-105823400D03*
G04 #@! TO.P,U1,63*
G04 #@! TO.N,GND*
X142270000Y-105323400D03*
G04 #@! TO.P,U1,62*
G04 #@! TO.N,Z80_D1*
X142270000Y-104823400D03*
G04 #@! TO.P,U1,61*
G04 #@! TO.N,Z80_D0*
X142270000Y-104323400D03*
G04 #@! TO.P,U1,60*
G04 #@! TO.N,Net-(JP1-Pad2)*
X142270000Y-103823400D03*
G04 #@! TO.P,U1,59*
G04 #@! TO.N,GND*
X142270000Y-103323400D03*
G04 #@! TO.P,U1,58*
G04 #@! TO.N,AY_A8*
X142270000Y-102823400D03*
G04 #@! TO.P,U1,57*
G04 #@! TO.N,GND*
X142270000Y-102323400D03*
G04 #@! TO.P,U1,56*
G04 #@! TO.N,AY_BC2*
X142270000Y-101823400D03*
G04 #@! TO.P,U1,55*
G04 #@! TO.N,SWD*
X142270000Y-101323400D03*
G04 #@! TO.P,U1,54*
G04 #@! TO.N,Net-(U1-Pad54)*
X142270000Y-100823400D03*
G04 #@! TO.P,U1,53*
G04 #@! TO.N,Net-(U1-Pad53)*
X142270000Y-100323400D03*
G04 #@! TO.P,U1,52*
G04 #@! TO.N,Net-(U1-Pad52)*
X142270000Y-99823400D03*
G04 #@! TO.P,U1,51*
G04 #@! TO.N,Net-(U1-Pad51)*
X142270000Y-99323400D03*
G04 #@! TO.P,U1,50*
G04 #@! TO.N,Net-(U1-Pad50)*
X142270000Y-98823400D03*
G04 #@! TO.P,U1,49*
G04 #@! TO.N,SWCLK*
X142270000Y-98323400D03*
D14*
G04 #@! TO.P,U1,48*
G04 #@! TO.N,VDD33*
X144220000Y-96373400D03*
G04 #@! TO.P,U1,47*
G04 #@! TO.N,Net-(C4-Pad2)*
X144720000Y-96373400D03*
G04 #@! TO.P,U1,46*
G04 #@! TO.N,SWDIO*
X145220000Y-96373400D03*
G04 #@! TO.P,U1,45*
G04 #@! TO.N,Net-(U1-Pad45)*
X145720000Y-96373400D03*
G04 #@! TO.P,U1,44*
G04 #@! TO.N,Net-(U1-Pad44)*
X146220000Y-96373400D03*
G04 #@! TO.P,U1,43*
G04 #@! TO.N,USART_RX*
X146720000Y-96373400D03*
G04 #@! TO.P,U1,42*
G04 #@! TO.N,USART_TX*
X147220000Y-96373400D03*
G04 #@! TO.P,U1,41*
G04 #@! TO.N,Net-(U1-Pad41)*
X147720000Y-96373400D03*
G04 #@! TO.P,U1,40*
G04 #@! TO.N,Net-(U1-Pad40)*
X148220000Y-96373400D03*
G04 #@! TO.P,U1,39*
G04 #@! TO.N,Net-(U1-Pad39)*
X148720000Y-96373400D03*
G04 #@! TO.P,U1,38*
G04 #@! TO.N,IOA7*
X149220000Y-96373400D03*
G04 #@! TO.P,U1,37*
G04 #@! TO.N,IOA6*
X149720000Y-96373400D03*
G04 #@! TO.P,U1,36*
G04 #@! TO.N,Z80_D7*
X150220000Y-96373400D03*
G04 #@! TO.P,U1,35*
G04 #@! TO.N,Z80_D6*
X150720000Y-96373400D03*
G04 #@! TO.P,U1,34*
G04 #@! TO.N,Z80_D5*
X151220000Y-96373400D03*
G04 #@! TO.P,U1,33*
G04 #@! TO.N,Z80_D4*
X151720000Y-96373400D03*
D13*
G04 #@! TO.P,U1,32*
G04 #@! TO.N,VDD33*
X153670000Y-98323400D03*
G04 #@! TO.P,U1,31*
G04 #@! TO.N,Net-(C3-Pad2)*
X153670000Y-98823400D03*
G04 #@! TO.P,U1,30*
G04 #@! TO.N,Z80_D3*
X153670000Y-99323400D03*
G04 #@! TO.P,U1,29*
G04 #@! TO.N,Z80_D2*
X153670000Y-99823400D03*
G04 #@! TO.P,U1,28*
G04 #@! TO.N,GND*
X153670000Y-100323400D03*
G04 #@! TO.P,U1,27*
G04 #@! TO.N,Net-(R4-Pad2)*
X153670000Y-100823400D03*
G04 #@! TO.P,U1,26*
G04 #@! TO.N,Net-(R5-Pad2)*
X153670000Y-101323400D03*
G04 #@! TO.P,U1,25*
G04 #@! TO.N,IOA5*
X153670000Y-101823400D03*
G04 #@! TO.P,U1,24*
G04 #@! TO.N,IOA4*
X153670000Y-102323400D03*
G04 #@! TO.P,U1,23*
G04 #@! TO.N,Net-(U1-Pad23)*
X153670000Y-102823400D03*
G04 #@! TO.P,U1,22*
G04 #@! TO.N,Net-(U1-Pad22)*
X153670000Y-103323400D03*
G04 #@! TO.P,U1,21*
G04 #@! TO.N,A_CHC*
X153670000Y-103823400D03*
G04 #@! TO.P,U1,20*
G04 #@! TO.N,A_CHA*
X153670000Y-104323400D03*
G04 #@! TO.P,U1,19*
G04 #@! TO.N,VDD33*
X153670000Y-104823400D03*
G04 #@! TO.P,U1,18*
G04 #@! TO.N,GND*
X153670000Y-105323400D03*
G04 #@! TO.P,U1,17*
G04 #@! TO.N,Net-(U1-Pad17)*
X153670000Y-105823400D03*
D14*
G04 #@! TO.P,U1,16*
G04 #@! TO.N,Net-(R3-Pad2)*
X151720000Y-107773400D03*
G04 #@! TO.P,U1,15*
G04 #@! TO.N,Net-(R2-Pad2)*
X151220000Y-107773400D03*
G04 #@! TO.P,U1,14*
G04 #@! TO.N,Net-(U1-Pad14)*
X150720000Y-107773400D03*
G04 #@! TO.P,U1,13*
G04 #@! TO.N,VDDA33*
X150220000Y-107773400D03*
G04 #@! TO.P,U1,12*
G04 #@! TO.N,GND*
X149720000Y-107773400D03*
G04 #@! TO.P,U1,11*
G04 #@! TO.N,IOA3*
X149220000Y-107773400D03*
G04 #@! TO.P,U1,10*
G04 #@! TO.N,IOA2*
X148720000Y-107773400D03*
G04 #@! TO.P,U1,9*
G04 #@! TO.N,IOA1*
X148220000Y-107773400D03*
G04 #@! TO.P,U1,8*
G04 #@! TO.N,IOA0*
X147720000Y-107773400D03*
G04 #@! TO.P,U1,7*
G04 #@! TO.N,~RES*
X147220000Y-107773400D03*
G04 #@! TO.P,U1,6*
G04 #@! TO.N,Net-(C2-Pad2)*
X146720000Y-107773400D03*
G04 #@! TO.P,U1,5*
G04 #@! TO.N,Net-(C1-Pad2)*
X146220000Y-107773400D03*
G04 #@! TO.P,U1,4*
G04 #@! TO.N,Net-(U1-Pad4)*
X145720000Y-107773400D03*
G04 #@! TO.P,U1,3*
G04 #@! TO.N,Net-(U1-Pad3)*
X145220000Y-107773400D03*
G04 #@! TO.P,U1,2*
G04 #@! TO.N,Net-(U1-Pad2)*
X144720000Y-107773400D03*
G04 #@! TO.P,U1,1*
G04 #@! TO.N,VDD33*
X144220000Y-107773400D03*
G04 #@! TD*
D15*
G04 #@! TO.P,J2,5*
G04 #@! TO.N,SWD*
X142875000Y-119380000D03*
G04 #@! TO.P,J2,4*
G04 #@! TO.N,~RES*
X145415000Y-119380000D03*
G04 #@! TO.P,J2,3*
G04 #@! TO.N,SWDIO*
X147955000Y-119380000D03*
G04 #@! TO.P,J2,2*
G04 #@! TO.N,GND*
X150495000Y-119380000D03*
D16*
G04 #@! TO.P,J2,1*
G04 #@! TO.N,SWCLK*
X153035000Y-119380000D03*
G04 #@! TD*
D17*
G04 #@! TO.P,U3,5*
G04 #@! TO.N,VDD33*
X146304000Y-89154000D03*
G04 #@! TO.P,U3,4*
G04 #@! TO.N,Net-(C8-Pad1)*
X144404000Y-89154000D03*
G04 #@! TO.P,U3,3*
G04 #@! TO.N,VDD5*
X144404000Y-86954000D03*
G04 #@! TO.P,U3,2*
G04 #@! TO.N,GND*
X145354000Y-86954000D03*
G04 #@! TO.P,U3,1*
G04 #@! TO.N,VDD5*
X146304000Y-86954000D03*
G04 #@! TD*
G04 #@! TO.P,U4,5*
G04 #@! TO.N,VDDA33*
X153096000Y-89154000D03*
G04 #@! TO.P,U4,4*
G04 #@! TO.N,Net-(C9-Pad1)*
X151196000Y-89154000D03*
G04 #@! TO.P,U4,3*
G04 #@! TO.N,VDD5*
X151196000Y-86954000D03*
G04 #@! TO.P,U4,2*
G04 #@! TO.N,GND*
X152146000Y-86954000D03*
G04 #@! TO.P,U4,1*
G04 #@! TO.N,VDD5*
X153096000Y-86954000D03*
G04 #@! TD*
D18*
G04 #@! TO.P,C15,1*
G04 #@! TO.N,GND*
X142875000Y-87884000D03*
G04 #@! TO.P,C15,2*
G04 #@! TO.N,VDD5*
X142875000Y-86384000D03*
G04 #@! TD*
G04 #@! TO.P,C1,1*
G04 #@! TO.N,GND*
X144068800Y-111075600D03*
G04 #@! TO.P,C1,2*
G04 #@! TO.N,Net-(C1-Pad2)*
X144068800Y-109575600D03*
G04 #@! TD*
G04 #@! TO.P,C2,1*
G04 #@! TO.N,GND*
X148844000Y-111075600D03*
G04 #@! TO.P,C2,2*
G04 #@! TO.N,Net-(C2-Pad2)*
X148844000Y-109575600D03*
G04 #@! TD*
G04 #@! TO.P,C3,1*
G04 #@! TO.N,GND*
X153619200Y-93115000D03*
G04 #@! TO.P,C3,2*
G04 #@! TO.N,Net-(C3-Pad2)*
X153619200Y-94615000D03*
G04 #@! TD*
G04 #@! TO.P,C4,1*
G04 #@! TO.N,GND*
X145415000Y-93115000D03*
G04 #@! TO.P,C4,2*
G04 #@! TO.N,Net-(C4-Pad2)*
X145415000Y-94615000D03*
G04 #@! TD*
G04 #@! TO.P,C5,1*
G04 #@! TO.N,VDD33*
X153352500Y-108077000D03*
G04 #@! TO.P,C5,2*
G04 #@! TO.N,GND*
X153352500Y-109577000D03*
G04 #@! TD*
G04 #@! TO.P,C7,1*
G04 #@! TO.N,VDDA33*
X150317200Y-109575600D03*
G04 #@! TO.P,C7,2*
G04 #@! TO.N,GND*
X150317200Y-111075600D03*
G04 #@! TD*
G04 #@! TO.P,C8,1*
G04 #@! TO.N,Net-(C8-Pad1)*
X142875000Y-90932000D03*
G04 #@! TO.P,C8,2*
G04 #@! TO.N,GND*
X142875000Y-89432000D03*
G04 #@! TD*
G04 #@! TO.P,C9,1*
G04 #@! TO.N,Net-(C9-Pad1)*
X149542500Y-89154000D03*
G04 #@! TO.P,C9,2*
G04 #@! TO.N,GND*
X149542500Y-87654000D03*
G04 #@! TD*
D19*
G04 #@! TO.P,R1,2*
G04 #@! TO.N,GND*
X144068800Y-112838800D03*
G04 #@! TO.P,R1,1*
G04 #@! TO.N,Net-(JP1-Pad2)*
X144068800Y-114338800D03*
G04 #@! TD*
D20*
G04 #@! TO.P,R2,2*
G04 #@! TO.N,Net-(R2-Pad2)*
X152170000Y-117475000D03*
G04 #@! TO.P,R2,1*
G04 #@! TO.N,AY_CLK*
X153670000Y-117475000D03*
G04 #@! TD*
G04 #@! TO.P,R3,2*
G04 #@! TO.N,Net-(R3-Pad2)*
X152170000Y-115570000D03*
G04 #@! TO.P,R3,1*
G04 #@! TO.N,~AY_RST*
X153670000Y-115570000D03*
G04 #@! TD*
G04 #@! TO.P,R4,2*
G04 #@! TO.N,Net-(R4-Pad2)*
X152170000Y-111760000D03*
G04 #@! TO.P,R4,1*
G04 #@! TO.N,AY_BC1*
X153670000Y-111760000D03*
G04 #@! TD*
G04 #@! TO.P,R5,2*
G04 #@! TO.N,Net-(R5-Pad2)*
X152170000Y-113665000D03*
G04 #@! TO.P,R5,1*
G04 #@! TO.N,AY_BDIR*
X153670000Y-113665000D03*
G04 #@! TD*
D18*
G04 #@! TO.P,C6,1*
G04 #@! TO.N,GND*
X143510000Y-93115000D03*
G04 #@! TO.P,C6,2*
G04 #@! TO.N,VDD33*
X143510000Y-94615000D03*
G04 #@! TD*
G04 #@! TO.P,C10,1*
G04 #@! TO.N,GND*
X142519400Y-109575600D03*
G04 #@! TO.P,C10,2*
G04 #@! TO.N,VDD33*
X142519400Y-108075600D03*
G04 #@! TD*
G04 #@! TO.P,C11,1*
G04 #@! TO.N,GND*
X147955000Y-87654000D03*
G04 #@! TO.P,C11,2*
G04 #@! TO.N,VDD33*
X147955000Y-89154000D03*
G04 #@! TD*
D21*
G04 #@! TO.P,C12,1*
G04 #@! TO.N,GND*
X144804000Y-90932000D03*
G04 #@! TO.P,C12,2*
G04 #@! TO.N,VDD33*
X146304000Y-90932000D03*
G04 #@! TD*
G04 #@! TO.P,C13,1*
G04 #@! TO.N,GND*
X151469000Y-90866000D03*
G04 #@! TO.P,C13,2*
G04 #@! TO.N,VDDA33*
X152969000Y-90866000D03*
G04 #@! TD*
D18*
G04 #@! TO.P,C14,1*
G04 #@! TO.N,GND*
X151765000Y-94640400D03*
G04 #@! TO.P,C14,2*
G04 #@! TO.N,VDDA33*
X151765000Y-93140400D03*
G04 #@! TD*
D22*
G04 #@! TO.P,JP1,2*
G04 #@! TO.N,Net-(JP1-Pad2)*
X144627600Y-116840000D03*
D23*
G04 #@! TO.P,JP1,1*
G04 #@! TO.N,VDD33*
X142627600Y-116840000D03*
G04 #@! TD*
D24*
G04 #@! TO.P,Y1,2*
G04 #@! TO.N,Net-(C2-Pad2)*
X147218400Y-109575600D03*
G04 #@! TO.P,Y1,1*
G04 #@! TO.N,Net-(C1-Pad2)*
X145718400Y-109575600D03*
G04 #@! TD*
D25*
G04 #@! TO.N,VDDA33*
X152031449Y-91803449D03*
X151370743Y-109549891D03*
G04 #@! TO.N,GND*
X150289108Y-86490942D03*
X141833600Y-90906600D03*
X154533600Y-108102400D03*
X156235400Y-113030000D03*
X146456400Y-114274600D03*
X146735800Y-93903800D03*
X154025600Y-91744800D03*
G04 #@! TO.N,SWCLK*
X150317198Y-112801400D03*
X146844816Y-102043375D03*
G04 #@! TO.N,SWDIO*
X144946640Y-97362973D03*
G04 #@! TO.N,~RES*
X147157727Y-106882748D03*
G04 #@! TO.N,SWD*
X146149210Y-103181824D03*
X148539200Y-116408200D03*
G04 #@! TO.N,Net-(R4-Pad2)*
X152362369Y-100545764D03*
X152499451Y-110850143D03*
G04 #@! TO.N,Net-(R5-Pad2)*
X153423498Y-110809994D03*
X152633643Y-101298379D03*
G04 #@! TO.N,IOA0*
X146364996Y-106773788D03*
G04 #@! TO.N,IOA1*
X146241545Y-105983367D03*
G04 #@! TO.N,IOA2*
X146865235Y-105182725D03*
G04 #@! TO.N,IOA3*
X149159435Y-105241892D03*
G04 #@! TO.N,A_CHA*
X149663585Y-95126688D03*
X152264779Y-104063800D03*
X147116800Y-92481402D03*
G04 #@! TO.N,A_CHC*
X150331444Y-94434278D03*
X152264779Y-103022400D03*
X149885400Y-90627200D03*
G04 #@! TO.N,IOA4*
X149077694Y-102360635D03*
G04 #@! TO.N,IOA5*
X149083576Y-101548487D03*
G04 #@! TO.N,Z80_D2*
X151916120Y-99231602D03*
G04 #@! TO.N,Z80_D3*
X152670249Y-98964567D03*
G04 #@! TO.N,Z80_D4*
X153098576Y-96328860D03*
G04 #@! TO.N,Z80_D5*
X153705390Y-96850200D03*
G04 #@! TO.N,Z80_D6*
X153618343Y-97669024D03*
G04 #@! TO.N,Z80_D7*
X150951837Y-98251192D03*
G04 #@! TO.N,IOA6*
X145835290Y-97373401D03*
G04 #@! TO.N,IOA7*
X146456400Y-95377002D03*
G04 #@! TO.N,AY_BC2*
X144180065Y-101432835D03*
G04 #@! TO.N,AY_A8*
X143924611Y-102190966D03*
G04 #@! TO.N,Z80_D0*
X143287557Y-104338244D03*
G04 #@! TO.N,Z80_D1*
X143270012Y-105257573D03*
G04 #@! TO.N,VDD5*
X141822782Y-85827000D03*
G04 #@! TO.N,Net-(JP1-Pad2)*
X145915340Y-103946889D03*
X147548600Y-112699800D03*
G04 #@! TD*
D26*
G04 #@! TO.N,VDD33*
X147828000Y-102123374D02*
X147828000Y-102067000D01*
X153670000Y-104823400D02*
X152870000Y-104823400D01*
X152870000Y-104823400D02*
X152894999Y-104848399D01*
X152894999Y-104848399D02*
X152889999Y-104848399D01*
X152889999Y-104848399D02*
X152819999Y-104918399D01*
X152819999Y-104918399D02*
X152819999Y-106246907D01*
X152819999Y-106246907D02*
X153352500Y-106779408D01*
X153352500Y-106779408D02*
X153352500Y-107377000D01*
X144220000Y-96373400D02*
X144220000Y-95325000D01*
X144220000Y-95325000D02*
X143510000Y-94615000D01*
X144220000Y-107773400D02*
X143795000Y-107773400D01*
X143795000Y-107773400D02*
X143492800Y-108075600D01*
X143492800Y-108075600D02*
X142519400Y-108075600D01*
X143497802Y-94627198D02*
X143510000Y-94615000D01*
X146304000Y-89154000D02*
X147955000Y-89154000D01*
X142519400Y-108075600D02*
X142536021Y-108058979D01*
X142536021Y-108058979D02*
X142536021Y-106865081D01*
X142536021Y-106865081D02*
X142270000Y-106599060D01*
X142270000Y-106599060D02*
X142270000Y-105823400D01*
X146304000Y-90932000D02*
X146304000Y-89154000D01*
X153352500Y-108077000D02*
X153352500Y-107377000D01*
X147817974Y-102123374D02*
X147828000Y-102123374D01*
X147817974Y-102077026D02*
X147828000Y-102067000D01*
X147817974Y-102123374D02*
X147817974Y-102077026D01*
X143510000Y-94615000D02*
X143510000Y-96858013D01*
X147799112Y-102094486D02*
X147828000Y-102123374D01*
X147799112Y-101147125D02*
X147799112Y-102094486D01*
X143510000Y-96858013D02*
X147799112Y-101147125D01*
X147828000Y-102067000D02*
X147828000Y-102082600D01*
X152857200Y-107111800D02*
X152857200Y-107619800D01*
X153314400Y-108077000D02*
X153352500Y-108077000D01*
X152857200Y-107619800D02*
X153314400Y-108077000D01*
X147828000Y-102082600D02*
X152857200Y-107111800D01*
X152870000Y-98323400D02*
X153670000Y-98323400D01*
X151893586Y-98314378D02*
X152860978Y-98314378D01*
X152860978Y-98314378D02*
X152870000Y-98323400D01*
X147828000Y-101842059D02*
X150733820Y-98936239D01*
X151271725Y-98936239D02*
X151893586Y-98314378D01*
X147828000Y-102067000D02*
X147828000Y-101842059D01*
X150733820Y-98936239D02*
X151271725Y-98936239D01*
X142519400Y-108100600D02*
X142519400Y-108075600D01*
X141579600Y-109040400D02*
X142519400Y-108100600D01*
X142627600Y-116840000D02*
X142646400Y-116821200D01*
X142646400Y-116821200D02*
X142646400Y-111887000D01*
X142646400Y-111887000D02*
X141579600Y-110820200D01*
X141579600Y-110820200D02*
X141579600Y-109040400D01*
X146862800Y-103032200D02*
X147828000Y-102067000D01*
X142519400Y-108050600D02*
X145947400Y-104622600D01*
X142519400Y-108075600D02*
X142519400Y-108050600D01*
X145947400Y-104622600D02*
X146201631Y-104622600D01*
X146862800Y-103961431D02*
X146862800Y-103032200D01*
X146201631Y-104622600D02*
X146862800Y-103961431D01*
X147817974Y-102054531D02*
X147817974Y-102123374D01*
X142528217Y-96764774D02*
X147817974Y-102054531D01*
X146304000Y-90932000D02*
X146279000Y-90932000D01*
X146279000Y-90932000D02*
X144977489Y-92233511D01*
X144977489Y-92233511D02*
X142832042Y-92233511D01*
X142528217Y-92537336D02*
X142528217Y-96764774D01*
X142832042Y-92233511D02*
X142528217Y-92537336D01*
G04 #@! TO.N,VDDA33*
X153096000Y-89154000D02*
X153096000Y-90739000D01*
X153096000Y-90739000D02*
X152969000Y-90866000D01*
X150220000Y-107773400D02*
X150220000Y-108573400D01*
X150220000Y-109478400D02*
X150317200Y-109575600D01*
X150220000Y-107773400D02*
X150220000Y-109478400D01*
X152969000Y-90866000D02*
X152944000Y-90866000D01*
X152031449Y-91778551D02*
X152031449Y-91803449D01*
X152944000Y-90866000D02*
X152031449Y-91778551D01*
X151227928Y-109581328D02*
X151259365Y-109549891D01*
X151259365Y-109549891D02*
X151370743Y-109549891D01*
X151345034Y-109575600D02*
X151370743Y-109549891D01*
X150317200Y-109575600D02*
X151345034Y-109575600D01*
X151765000Y-92069898D02*
X152031449Y-91803449D01*
X151765000Y-93140400D02*
X151765000Y-92069898D01*
D27*
G04 #@! TO.N,Net-(C8-Pad1)*
X142875000Y-90932000D02*
X143371967Y-90932000D01*
X144404000Y-89934000D02*
X144404000Y-89154000D01*
X143371967Y-90932000D02*
X144369967Y-89934000D01*
X144369967Y-89934000D02*
X144404000Y-89934000D01*
G04 #@! TO.N,GND*
X145351819Y-87883905D02*
X145351819Y-89759181D01*
X145351819Y-89759181D02*
X144804000Y-90307000D01*
X144804000Y-90307000D02*
X144804000Y-90932000D01*
X149542500Y-87654000D02*
X150167500Y-87654000D01*
X150167500Y-87654000D02*
X150396471Y-87882971D01*
X150396471Y-87882971D02*
X152126718Y-87882971D01*
X145354000Y-87867449D02*
X145354000Y-86954000D01*
X145351819Y-87883905D02*
X147100095Y-87883905D01*
X147100095Y-87883905D02*
X147330000Y-87654000D01*
X147330000Y-87654000D02*
X147955000Y-87654000D01*
X142875000Y-87884000D02*
X145339048Y-87884000D01*
X151469000Y-90866000D02*
X151469000Y-90241000D01*
X151469000Y-90241000D02*
X152146000Y-89564000D01*
X152146000Y-89564000D02*
X152146000Y-87734000D01*
X152146000Y-87734000D02*
X152146000Y-86954000D01*
X142875000Y-89432000D02*
X142875000Y-87884000D01*
X142875000Y-89457000D02*
X142875000Y-89432000D01*
X142568800Y-109575600D02*
X144068800Y-111075600D01*
X142519400Y-109575600D02*
X142568800Y-109575600D01*
X141520000Y-103323400D02*
X142270000Y-103323400D01*
X149720000Y-108675046D02*
X149720000Y-107773400D01*
X149580600Y-108814446D02*
X149720000Y-108675046D01*
X149580600Y-111075600D02*
X149580600Y-108814446D01*
X148844000Y-111075600D02*
X149580600Y-111075600D01*
X150317200Y-111075600D02*
X149580600Y-111075600D01*
X154420000Y-100323400D02*
X153670000Y-100323400D01*
X155963402Y-100323400D02*
X154420000Y-100323400D01*
X156700001Y-101059999D02*
X155963402Y-100323400D01*
X156700001Y-104680001D02*
X156700001Y-101059999D01*
X156056602Y-105323400D02*
X156700001Y-104680001D01*
X153670000Y-105323400D02*
X156056602Y-105323400D01*
X142270000Y-102323400D02*
X141559998Y-102323400D01*
X141444999Y-102438399D02*
X141559998Y-102323400D01*
X141444999Y-103248399D02*
X141444999Y-102438399D01*
X141520000Y-103323400D02*
X141444999Y-103248399D01*
X139334000Y-105323400D02*
X141020800Y-105323400D01*
X139115800Y-105105200D02*
X139334000Y-105323400D01*
X139115800Y-102977990D02*
X139115800Y-105105200D01*
X139115800Y-99161600D02*
X139115800Y-102914410D01*
X139217400Y-99060000D02*
X139115800Y-99161600D01*
X140335000Y-99060000D02*
X139217400Y-99060000D01*
X139122190Y-102920800D02*
X139115800Y-102914410D01*
X141444999Y-102920800D02*
X139122190Y-102920800D01*
X141020800Y-105323400D02*
X142270000Y-105323400D01*
G04 #@! TO.N,Net-(C9-Pad1)*
X149542500Y-89154000D02*
X151196000Y-89154000D01*
G04 #@! TO.N,SWCLK*
X150647400Y-113131602D02*
X150317198Y-112801400D01*
X150647400Y-117237402D02*
X150647400Y-113131602D01*
X152789998Y-119380000D02*
X150647400Y-117237402D01*
X153035000Y-119380000D02*
X152789998Y-119380000D01*
X142270000Y-98323400D02*
X143124841Y-98323400D01*
X143124841Y-98323400D02*
X146544817Y-101743376D01*
X146544817Y-101743376D02*
X146844816Y-102043375D01*
G04 #@! TO.N,SWDIO*
X145220000Y-96373400D02*
X145220000Y-96999008D01*
X144946640Y-97272368D02*
X144946640Y-97362973D01*
X145220000Y-96999008D02*
X144946640Y-97272368D01*
G04 #@! TO.N,~RES*
X147220000Y-107773400D02*
X147220000Y-106945021D01*
X147220000Y-106945021D02*
X147157727Y-106882748D01*
G04 #@! TO.N,SWD*
X143047444Y-101323400D02*
X143565530Y-100805314D01*
X146036304Y-102644654D02*
X146036304Y-103068918D01*
X146036304Y-102364288D02*
X146036304Y-102644654D01*
X144477330Y-100805314D02*
X146036304Y-102364288D01*
X143565530Y-100805314D02*
X144477330Y-100805314D01*
X146036304Y-103068918D02*
X146149210Y-103181824D01*
X142270000Y-101323400D02*
X143047444Y-101323400D01*
X144221200Y-118033800D02*
X146913600Y-118033800D01*
X148239201Y-116708199D02*
X148539200Y-116408200D01*
X142875000Y-119380000D02*
X144221200Y-118033800D01*
X146913600Y-118033800D02*
X148239201Y-116708199D01*
G04 #@! TO.N,AY_CLK*
X155575000Y-118719600D02*
X155575000Y-119380000D01*
X154330400Y-117475000D02*
X155575000Y-118719600D01*
X153670000Y-117475000D02*
X154330400Y-117475000D01*
G04 #@! TO.N,Net-(R2-Pad2)*
X151220000Y-108474146D02*
X151220000Y-107773400D01*
X152000034Y-109254180D02*
X151220000Y-108474146D01*
X152000034Y-109804498D02*
X152000034Y-109254180D01*
X152170000Y-117475000D02*
X151688800Y-117475000D01*
X151144988Y-110659544D02*
X152000034Y-109804498D01*
X151688800Y-117475000D02*
X151144988Y-116931188D01*
X151144988Y-116931188D02*
X151144988Y-110659544D01*
G04 #@! TO.N,~AY_RST*
X153670000Y-115570000D02*
X154305000Y-115570000D01*
X154305000Y-115570000D02*
X155575000Y-116840000D01*
G04 #@! TO.N,Net-(R3-Pad2)*
X151720000Y-108148400D02*
X151720000Y-107773400D01*
X152450045Y-108878445D02*
X151720000Y-108148400D01*
X152450045Y-109990898D02*
X152450045Y-108878445D01*
X152170000Y-115570000D02*
X152044400Y-115570000D01*
X152044400Y-115570000D02*
X151594999Y-115120599D01*
X151594999Y-115120599D02*
X151594999Y-110845944D01*
X151594999Y-110845944D02*
X152450045Y-109990898D01*
G04 #@! TO.N,AY_BC1*
X153670000Y-111760000D02*
X154920171Y-110509829D01*
X154920171Y-110509829D02*
X155950173Y-110509829D01*
X155950173Y-110509829D02*
X156700001Y-109760001D01*
X156700001Y-109760001D02*
X156700001Y-108679999D01*
X156700001Y-108679999D02*
X155773024Y-107753022D01*
X155773024Y-107753022D02*
X155770245Y-107753022D01*
X155770245Y-107753022D02*
X155575000Y-107557777D01*
X155575000Y-107557777D02*
X155575000Y-106680000D01*
G04 #@! TO.N,Net-(R4-Pad2)*
X153670000Y-100823400D02*
X153064269Y-100823400D01*
X152786633Y-100545764D02*
X152362369Y-100545764D01*
X153064269Y-100823400D02*
X152786633Y-100545764D01*
X152170000Y-111760000D02*
X152170000Y-111060000D01*
X152379857Y-110850143D02*
X152499451Y-110850143D01*
X152170000Y-111060000D02*
X152379857Y-110850143D01*
G04 #@! TO.N,AY_BDIR*
X155575000Y-111760000D02*
X154940000Y-111760000D01*
X155575000Y-112268000D02*
X155575000Y-111760000D01*
X154178000Y-113665000D02*
X155575000Y-112268000D01*
X153670000Y-113665000D02*
X154178000Y-113665000D01*
G04 #@! TO.N,Net-(R5-Pad2)*
X152658664Y-101323400D02*
X152633643Y-101298379D01*
X153670000Y-101323400D02*
X152658664Y-101323400D01*
X153123499Y-111109993D02*
X153423498Y-110809994D01*
X152170000Y-113665000D02*
X152170000Y-113082200D01*
X152170000Y-113082200D02*
X152933400Y-112318800D01*
X152933400Y-112318800D02*
X152933400Y-111300092D01*
X152933400Y-111300092D02*
X153123499Y-111109993D01*
G04 #@! TO.N,IOA0*
X147782737Y-106561357D02*
X147479118Y-106257738D01*
X146881046Y-106257738D02*
X146664995Y-106473789D01*
X147479118Y-106257738D02*
X146881046Y-106257738D01*
X147720000Y-107773400D02*
X147769999Y-107723401D01*
X146664995Y-106473789D02*
X146364996Y-106773788D01*
X147769999Y-107013399D02*
X147782737Y-107000661D01*
X147769999Y-107723401D02*
X147769999Y-107013399D01*
X147782737Y-107000661D02*
X147782737Y-106561357D01*
G04 #@! TO.N,IOA1*
X148232748Y-107760652D02*
X148232748Y-106374958D01*
X148232748Y-106374958D02*
X147665517Y-105807727D01*
X146417185Y-105807727D02*
X146241545Y-105983367D01*
X147665517Y-105807727D02*
X146417185Y-105807727D01*
X148220000Y-107773400D02*
X148232748Y-107760652D01*
G04 #@! TO.N,IOA2*
X148720000Y-106225800D02*
X147676925Y-105182725D01*
X147676925Y-105182725D02*
X147289499Y-105182725D01*
X148720000Y-107773400D02*
X148720000Y-106225800D01*
X147289499Y-105182725D02*
X146865235Y-105182725D01*
G04 #@! TO.N,IOA3*
X149220000Y-107773400D02*
X149220000Y-105302457D01*
X149220000Y-105302457D02*
X149159435Y-105241892D01*
G04 #@! TO.N,A_CHA*
X153670000Y-104323400D02*
X152524379Y-104323400D01*
X152524379Y-104323400D02*
X152264779Y-104063800D01*
X149663585Y-95126688D02*
X147116800Y-92579903D01*
X147116800Y-92579903D02*
X147116800Y-92481402D01*
G04 #@! TO.N,A_CHC*
X153670000Y-103823400D02*
X152920000Y-103823400D01*
X152264779Y-103168179D02*
X152264779Y-103022400D01*
X152920000Y-103823400D02*
X152264779Y-103168179D01*
X149885400Y-91227198D02*
X149885400Y-90627200D01*
X149885400Y-93988234D02*
X149885400Y-91227198D01*
X150331444Y-94434278D02*
X149885400Y-93988234D01*
G04 #@! TO.N,IOA4*
X149501958Y-102360635D02*
X149077694Y-102360635D01*
X153670000Y-102323400D02*
X153620001Y-102373399D01*
X153620001Y-102373399D02*
X149514722Y-102373399D01*
X149514722Y-102373399D02*
X149501958Y-102360635D01*
G04 #@! TO.N,IOA5*
X149891547Y-101923388D02*
X149516646Y-101548487D01*
X152909999Y-101873399D02*
X152860009Y-101923389D01*
X149516646Y-101548487D02*
X149507840Y-101548487D01*
X152860009Y-101923389D02*
X149891547Y-101923388D01*
X149507840Y-101548487D02*
X149083576Y-101548487D01*
X153620001Y-101873399D02*
X152909999Y-101873399D01*
X153670000Y-101823400D02*
X153620001Y-101873399D01*
G04 #@! TO.N,Z80_D2*
X152507918Y-99823400D02*
X152216119Y-99531601D01*
X152216119Y-99531601D02*
X151916120Y-99231602D01*
X153670000Y-99823400D02*
X152507918Y-99823400D01*
G04 #@! TO.N,Z80_D3*
X153670000Y-99323400D02*
X152920000Y-99323400D01*
X152920000Y-99323400D02*
X152670249Y-99073649D01*
X152670249Y-99073649D02*
X152670249Y-98964567D01*
G04 #@! TO.N,Z80_D4*
X153054036Y-96373400D02*
X153098576Y-96328860D01*
X151720000Y-96373400D02*
X153054036Y-96373400D01*
G04 #@! TO.N,Z80_D5*
X153549412Y-96850200D02*
X153705390Y-96850200D01*
X153201211Y-97198401D02*
X153549412Y-96850200D01*
X151334999Y-97198401D02*
X153201211Y-97198401D01*
X151220000Y-96373400D02*
X151220000Y-97083402D01*
X151220000Y-97083402D02*
X151334999Y-97198401D01*
G04 #@! TO.N,Z80_D6*
X151163187Y-97663000D02*
X153188055Y-97663000D01*
X153194079Y-97669024D02*
X153618343Y-97669024D01*
X150720000Y-96373400D02*
X150720000Y-97219813D01*
X153188055Y-97663000D02*
X153194079Y-97669024D01*
X150720000Y-97219813D02*
X151163187Y-97663000D01*
G04 #@! TO.N,Z80_D7*
X150220000Y-97519355D02*
X150651838Y-97951193D01*
X150220000Y-96373400D02*
X150220000Y-97519355D01*
X150651838Y-97951193D02*
X150951837Y-98251192D01*
G04 #@! TO.N,IOA6*
X149720000Y-96373400D02*
X149720000Y-97123400D01*
X149469999Y-97373401D02*
X146259554Y-97373401D01*
X146259554Y-97373401D02*
X145835290Y-97373401D01*
X149720000Y-97123400D02*
X149469999Y-97373401D01*
G04 #@! TO.N,IOA7*
X146880664Y-95377002D02*
X146456400Y-95377002D01*
X149220000Y-96373400D02*
X149220000Y-95623400D01*
X148973602Y-95377002D02*
X146880664Y-95377002D01*
X149220000Y-95623400D02*
X148973602Y-95377002D01*
G04 #@! TO.N,AY_BC2*
X143755801Y-101432835D02*
X144180065Y-101432835D01*
X143232118Y-101823400D02*
X143622683Y-101432835D01*
X142270000Y-101823400D02*
X143232118Y-101823400D01*
X143622683Y-101432835D02*
X143755801Y-101432835D01*
G04 #@! TO.N,AY_A8*
X143292177Y-102823400D02*
X143624612Y-102490965D01*
X142270000Y-102823400D02*
X143292177Y-102823400D01*
X143624612Y-102490965D02*
X143924611Y-102190966D01*
G04 #@! TO.N,Z80_D0*
X142270000Y-104323400D02*
X143272713Y-104323400D01*
X143272713Y-104323400D02*
X143287557Y-104338244D01*
G04 #@! TO.N,Z80_D1*
X142270000Y-104823400D02*
X142887398Y-104823400D01*
X142887398Y-104823400D02*
X143270012Y-105206014D01*
X143270012Y-105206014D02*
X143270012Y-105257573D01*
D26*
G04 #@! TO.N,VDD5*
X140335000Y-91440000D02*
X141542235Y-90232765D01*
X141542235Y-90232765D02*
X141542235Y-87741765D01*
X141542235Y-87741765D02*
X142875000Y-86409000D01*
X142875000Y-86384000D02*
X142200000Y-86384000D01*
X141822782Y-86006782D02*
X141822782Y-85827000D01*
X142200000Y-86384000D02*
X141822782Y-86006782D01*
X151180800Y-85750400D02*
X146329400Y-85750400D01*
X152722400Y-85750400D02*
X151180800Y-85750400D01*
X151180800Y-85750400D02*
X151196000Y-85765600D01*
X151196000Y-85765600D02*
X151196000Y-86954000D01*
X146329400Y-85750400D02*
X144424400Y-85750400D01*
X146329400Y-85750400D02*
X146304000Y-85775800D01*
X146304000Y-85775800D02*
X146304000Y-86954000D01*
X144424400Y-85750400D02*
X142925800Y-85750400D01*
X144424400Y-85750400D02*
X144404000Y-85770800D01*
X144404000Y-85770800D02*
X144404000Y-86954000D01*
X153096000Y-86954000D02*
X153096000Y-86124000D01*
X153096000Y-86124000D02*
X152722400Y-85750400D01*
X142925800Y-85750400D02*
X142875000Y-85801200D01*
X142875000Y-85801200D02*
X142875000Y-86384000D01*
D27*
G04 #@! TO.N,Net-(C1-Pad2)*
X145718400Y-109575600D02*
X144068800Y-109575600D01*
X146220000Y-107773400D02*
X146220000Y-109074000D01*
X146220000Y-109074000D02*
X145718400Y-109575600D01*
G04 #@! TO.N,Net-(C2-Pad2)*
X146720000Y-107773400D02*
X146720000Y-109077200D01*
X146720000Y-109077200D02*
X147218400Y-109575600D01*
X148844000Y-109575600D02*
X147218400Y-109575600D01*
G04 #@! TO.N,Net-(C3-Pad2)*
X154316067Y-98773401D02*
X154266068Y-98823400D01*
X154430001Y-98773401D02*
X154316067Y-98773401D01*
X154495001Y-98708401D02*
X154430001Y-98773401D01*
X154495001Y-97938399D02*
X154495001Y-98708401D01*
X154330400Y-97773798D02*
X154495001Y-97938399D01*
X154266068Y-98823400D02*
X153670000Y-98823400D01*
X153619200Y-94615000D02*
X153619200Y-95732600D01*
X153619200Y-95732600D02*
X154330400Y-96443800D01*
X154330400Y-96443800D02*
X154330400Y-97773798D01*
G04 #@! TO.N,Net-(C4-Pad2)*
X145415000Y-94615000D02*
X144720000Y-95310000D01*
X144720000Y-95310000D02*
X144720000Y-96373400D01*
G04 #@! TO.N,Net-(JP1-Pad2)*
X142858922Y-103823400D02*
X143035432Y-103646890D01*
X143035432Y-103646890D02*
X145615341Y-103646890D01*
X142270000Y-103823400D02*
X142858922Y-103823400D01*
X145615341Y-103646890D02*
X145915340Y-103946889D01*
X144068800Y-115326606D02*
X144068800Y-114338800D01*
X144627600Y-115885406D02*
X144068800Y-115326606D01*
X144627600Y-116840000D02*
X144627600Y-115885406D01*
X145907800Y-112699800D02*
X147124336Y-112699800D01*
X147124336Y-112699800D02*
X147548600Y-112699800D01*
X144068800Y-114338800D02*
X144268800Y-114338800D01*
X144268800Y-114338800D02*
X145907800Y-112699800D01*
G04 #@! TD*
G04 #@! TO.N,GND*
G36*
X146611396Y-84892501D02*
X146642176Y-84966813D01*
X146642179Y-84966816D01*
X146814960Y-85225400D01*
X146381105Y-85225400D01*
X146329399Y-85215115D01*
X146277693Y-85225400D01*
X144476106Y-85225400D01*
X144424400Y-85215115D01*
X144372694Y-85225400D01*
X142977505Y-85225400D01*
X142925799Y-85215115D01*
X142823242Y-85235515D01*
X142720955Y-85255861D01*
X142547296Y-85371896D01*
X142526948Y-85402348D01*
X142496496Y-85422696D01*
X142428241Y-85524848D01*
X142395019Y-85444643D01*
X142205139Y-85254763D01*
X141957048Y-85152000D01*
X141688516Y-85152000D01*
X141440425Y-85254763D01*
X141405434Y-85289754D01*
X141405359Y-85289641D01*
X141281317Y-85206758D01*
X141135000Y-85177654D01*
X139535000Y-85177654D01*
X139388683Y-85206758D01*
X139264641Y-85289641D01*
X139181758Y-85413683D01*
X139152654Y-85560000D01*
X139152654Y-87160000D01*
X139181758Y-87306317D01*
X139264641Y-87430359D01*
X139388683Y-87513242D01*
X139535000Y-87542346D01*
X141046617Y-87542346D01*
X141006950Y-87741765D01*
X141017236Y-87793476D01*
X141017236Y-87942696D01*
X140793462Y-87793175D01*
X140450724Y-87725000D01*
X140219276Y-87725000D01*
X139876538Y-87793175D01*
X139487873Y-88052873D01*
X139228175Y-88441538D01*
X139136981Y-88900000D01*
X139228175Y-89358462D01*
X139487873Y-89747127D01*
X139876538Y-90006825D01*
X140219276Y-90075000D01*
X140450724Y-90075000D01*
X140793462Y-90006825D01*
X141017235Y-89857304D01*
X141017235Y-90015303D01*
X140714975Y-90317563D01*
X140450724Y-90265000D01*
X140219276Y-90265000D01*
X139876538Y-90333175D01*
X139487873Y-90592873D01*
X139228175Y-90981538D01*
X139136981Y-91440000D01*
X139228175Y-91898462D01*
X139487873Y-92287127D01*
X139876538Y-92546825D01*
X140219276Y-92615000D01*
X140450724Y-92615000D01*
X140793462Y-92546825D01*
X141182127Y-92287127D01*
X141441825Y-91898462D01*
X141533019Y-91440000D01*
X141457437Y-91060025D01*
X141876903Y-90640559D01*
X141920739Y-90611269D01*
X142036774Y-90437610D01*
X142043263Y-90404989D01*
X142077520Y-90232766D01*
X142067235Y-90181060D01*
X142067235Y-87959226D01*
X142125000Y-87901461D01*
X142125000Y-87959002D01*
X142218748Y-87959002D01*
X142125000Y-88052750D01*
X142125000Y-88358592D01*
X142182090Y-88496420D01*
X142287579Y-88601910D01*
X142422994Y-88658000D01*
X142287579Y-88714090D01*
X142182090Y-88819580D01*
X142125000Y-88957408D01*
X142125000Y-89263250D01*
X142218750Y-89357000D01*
X142800000Y-89357000D01*
X142800000Y-88750750D01*
X142707250Y-88658000D01*
X142800000Y-88565250D01*
X142800000Y-87959000D01*
X142950000Y-87959000D01*
X142950000Y-88565250D01*
X143042750Y-88658000D01*
X142950000Y-88750750D01*
X142950000Y-89357000D01*
X143531250Y-89357000D01*
X143625000Y-89263250D01*
X143625000Y-88957408D01*
X143567910Y-88819580D01*
X143462421Y-88714090D01*
X143327006Y-88658000D01*
X143462421Y-88601910D01*
X143567910Y-88496420D01*
X143625000Y-88358592D01*
X143625000Y-88052750D01*
X143531250Y-87959000D01*
X142950000Y-87959000D01*
X142800000Y-87959000D01*
X142780000Y-87959000D01*
X142780000Y-87809000D01*
X142800000Y-87809000D01*
X142800000Y-87789000D01*
X142950000Y-87789000D01*
X142950000Y-87809000D01*
X143531250Y-87809000D01*
X143625000Y-87715250D01*
X143625000Y-87409408D01*
X143567910Y-87271580D01*
X143462421Y-87166090D01*
X143393924Y-87137718D01*
X143396317Y-87137242D01*
X143520359Y-87054359D01*
X143603242Y-86930317D01*
X143632346Y-86784000D01*
X143632346Y-86275400D01*
X143727283Y-86275400D01*
X143725758Y-86277683D01*
X143696654Y-86424000D01*
X143696654Y-87484000D01*
X143725758Y-87630317D01*
X143808641Y-87754359D01*
X143932683Y-87837242D01*
X144079000Y-87866346D01*
X144729000Y-87866346D01*
X144875317Y-87837242D01*
X144885482Y-87830450D01*
X144954408Y-87859000D01*
X145185250Y-87859000D01*
X145279000Y-87765250D01*
X145279000Y-87029000D01*
X145259000Y-87029000D01*
X145259000Y-86879000D01*
X145279000Y-86879000D01*
X145279000Y-86859000D01*
X145429000Y-86859000D01*
X145429000Y-86879000D01*
X145449000Y-86879000D01*
X145449000Y-87029000D01*
X145429000Y-87029000D01*
X145429000Y-87765250D01*
X145522750Y-87859000D01*
X145753592Y-87859000D01*
X145822518Y-87830450D01*
X145832683Y-87837242D01*
X145979000Y-87866346D01*
X146629000Y-87866346D01*
X146775317Y-87837242D01*
X146899359Y-87754359D01*
X146982242Y-87630317D01*
X147011346Y-87484000D01*
X147011346Y-87179408D01*
X147205000Y-87179408D01*
X147205000Y-87485250D01*
X147298750Y-87579000D01*
X147880000Y-87579000D01*
X147880000Y-86972750D01*
X148030000Y-86972750D01*
X148030000Y-87579000D01*
X148611250Y-87579000D01*
X148705000Y-87485250D01*
X148705000Y-87179408D01*
X148792500Y-87179408D01*
X148792500Y-87485250D01*
X148886250Y-87579000D01*
X149467500Y-87579000D01*
X149467500Y-86972750D01*
X149617500Y-86972750D01*
X149617500Y-87579000D01*
X150198750Y-87579000D01*
X150292500Y-87485250D01*
X150292500Y-87179408D01*
X150235410Y-87041580D01*
X150129921Y-86936090D01*
X149992092Y-86879000D01*
X149711250Y-86879000D01*
X149617500Y-86972750D01*
X149467500Y-86972750D01*
X149373750Y-86879000D01*
X149092908Y-86879000D01*
X148955079Y-86936090D01*
X148849590Y-87041580D01*
X148792500Y-87179408D01*
X148705000Y-87179408D01*
X148647910Y-87041580D01*
X148542421Y-86936090D01*
X148404592Y-86879000D01*
X148123750Y-86879000D01*
X148030000Y-86972750D01*
X147880000Y-86972750D01*
X147786250Y-86879000D01*
X147505408Y-86879000D01*
X147367579Y-86936090D01*
X147262090Y-87041580D01*
X147205000Y-87179408D01*
X147011346Y-87179408D01*
X147011346Y-86424000D01*
X146982242Y-86277683D01*
X146980717Y-86275400D01*
X150519283Y-86275400D01*
X150517758Y-86277683D01*
X150488654Y-86424000D01*
X150488654Y-87484000D01*
X150517758Y-87630317D01*
X150600641Y-87754359D01*
X150724683Y-87837242D01*
X150871000Y-87866346D01*
X151521000Y-87866346D01*
X151667317Y-87837242D01*
X151677482Y-87830450D01*
X151746408Y-87859000D01*
X151977250Y-87859000D01*
X152071000Y-87765250D01*
X152071000Y-87029000D01*
X152051000Y-87029000D01*
X152051000Y-86879000D01*
X152071000Y-86879000D01*
X152071000Y-86859000D01*
X152221000Y-86859000D01*
X152221000Y-86879000D01*
X152241000Y-86879000D01*
X152241000Y-87029000D01*
X152221000Y-87029000D01*
X152221000Y-87765250D01*
X152314750Y-87859000D01*
X152545592Y-87859000D01*
X152614518Y-87830450D01*
X152624683Y-87837242D01*
X152771000Y-87866346D01*
X153421000Y-87866346D01*
X153567317Y-87837242D01*
X153691359Y-87754359D01*
X153774242Y-87630317D01*
X153803346Y-87484000D01*
X153803346Y-86424000D01*
X153790616Y-86360000D01*
X154376981Y-86360000D01*
X154468175Y-86818462D01*
X154727873Y-87207127D01*
X155116538Y-87466825D01*
X155459276Y-87535000D01*
X155690724Y-87535000D01*
X156033462Y-87466825D01*
X156422127Y-87207127D01*
X156681825Y-86818462D01*
X156773019Y-86360000D01*
X156681825Y-85901538D01*
X156422127Y-85512873D01*
X156033462Y-85253175D01*
X155690724Y-85185000D01*
X155459276Y-85185000D01*
X155116538Y-85253175D01*
X154727873Y-85512873D01*
X154468175Y-85901538D01*
X154376981Y-86360000D01*
X153790616Y-86360000D01*
X153774242Y-86277683D01*
X153691359Y-86153641D01*
X153628877Y-86111891D01*
X153590539Y-85919155D01*
X153560177Y-85873715D01*
X153474504Y-85745496D01*
X153430667Y-85716205D01*
X153130196Y-85415735D01*
X153100904Y-85371896D01*
X152927245Y-85255861D01*
X152774106Y-85225400D01*
X152722400Y-85215115D01*
X152670694Y-85225400D01*
X151232506Y-85225400D01*
X151180800Y-85215115D01*
X151129094Y-85225400D01*
X149095040Y-85225400D01*
X149267821Y-84966816D01*
X149267824Y-84966813D01*
X149298604Y-84892501D01*
X149322837Y-84834000D01*
X156234125Y-84834000D01*
X156478622Y-84975161D01*
X156660129Y-85191472D01*
X156763581Y-85475703D01*
X156776000Y-85617651D01*
X156776001Y-108048892D01*
X156321483Y-107594375D01*
X156422127Y-107527127D01*
X156681825Y-107138462D01*
X156773019Y-106680000D01*
X156681825Y-106221538D01*
X156422127Y-105832873D01*
X156033462Y-105573175D01*
X155690724Y-105505000D01*
X155459276Y-105505000D01*
X155116538Y-105573175D01*
X154727873Y-105832873D01*
X154468175Y-106221538D01*
X154376981Y-106680000D01*
X154468175Y-107138462D01*
X154727873Y-107527127D01*
X155116538Y-107786825D01*
X155128259Y-107789156D01*
X155214520Y-107918257D01*
X155256271Y-107946154D01*
X155372398Y-108062281D01*
X155116538Y-108113175D01*
X154727873Y-108372873D01*
X154468175Y-108761538D01*
X154376981Y-109220000D01*
X154468175Y-109678462D01*
X154713944Y-110046281D01*
X154559691Y-110149349D01*
X154531797Y-110191096D01*
X154083463Y-110639430D01*
X153995735Y-110427637D01*
X153885535Y-110317437D01*
X153939921Y-110294910D01*
X154045410Y-110189420D01*
X154102500Y-110051592D01*
X154102500Y-109745750D01*
X154008750Y-109652000D01*
X153427500Y-109652000D01*
X153427500Y-109672000D01*
X153277500Y-109672000D01*
X153277500Y-109652000D01*
X153257500Y-109652000D01*
X153257500Y-109502000D01*
X153277500Y-109502000D01*
X153277500Y-109482000D01*
X153427500Y-109482000D01*
X153427500Y-109502000D01*
X154008750Y-109502000D01*
X154102500Y-109408250D01*
X154102500Y-109102408D01*
X154045410Y-108964580D01*
X153939921Y-108859090D01*
X153871424Y-108830718D01*
X153873817Y-108830242D01*
X153997859Y-108747359D01*
X154080742Y-108623317D01*
X154109846Y-108477000D01*
X154109846Y-107677000D01*
X154080742Y-107530683D01*
X153997859Y-107406641D01*
X153877500Y-107326219D01*
X153877500Y-106831113D01*
X153887785Y-106779407D01*
X153847039Y-106574563D01*
X153817538Y-106530412D01*
X153731004Y-106400904D01*
X153687167Y-106371614D01*
X153646300Y-106330746D01*
X154170000Y-106330746D01*
X154316317Y-106301642D01*
X154440359Y-106218759D01*
X154523242Y-106094717D01*
X154552346Y-105948400D01*
X154552346Y-105698400D01*
X154526392Y-105567917D01*
X154545000Y-105522992D01*
X154545000Y-105479650D01*
X154451250Y-105385900D01*
X154377291Y-105385900D01*
X154316317Y-105345158D01*
X154206931Y-105323400D01*
X154316317Y-105301642D01*
X154377291Y-105260900D01*
X154451250Y-105260900D01*
X154545000Y-105167150D01*
X154545000Y-105123808D01*
X154526392Y-105078883D01*
X154552346Y-104948400D01*
X154552346Y-104724433D01*
X154727873Y-104987127D01*
X155116538Y-105246825D01*
X155459276Y-105315000D01*
X155690724Y-105315000D01*
X156033462Y-105246825D01*
X156422127Y-104987127D01*
X156681825Y-104598462D01*
X156773019Y-104140000D01*
X156681825Y-103681538D01*
X156422127Y-103292873D01*
X156033462Y-103033175D01*
X155690724Y-102965000D01*
X155459276Y-102965000D01*
X155116538Y-103033175D01*
X154727873Y-103292873D01*
X154530453Y-103588333D01*
X154527482Y-103573400D01*
X154552346Y-103448400D01*
X154552346Y-103198400D01*
X154527482Y-103073400D01*
X154552346Y-102948400D01*
X154552346Y-102698400D01*
X154527482Y-102573400D01*
X154552346Y-102448400D01*
X154552346Y-102198400D01*
X154548390Y-102178512D01*
X154727873Y-102447127D01*
X155116538Y-102706825D01*
X155459276Y-102775000D01*
X155690724Y-102775000D01*
X156033462Y-102706825D01*
X156422127Y-102447127D01*
X156681825Y-102058462D01*
X156773019Y-101600000D01*
X156681825Y-101141538D01*
X156422127Y-100752873D01*
X156033462Y-100493175D01*
X155690724Y-100425000D01*
X155459276Y-100425000D01*
X155116538Y-100493175D01*
X154727873Y-100752873D01*
X154533323Y-101044038D01*
X154552346Y-100948400D01*
X154552346Y-100698400D01*
X154526392Y-100567917D01*
X154545000Y-100522992D01*
X154545000Y-100479650D01*
X154451250Y-100385900D01*
X154377291Y-100385900D01*
X154316317Y-100345158D01*
X154206931Y-100323400D01*
X154316317Y-100301642D01*
X154377291Y-100260900D01*
X154451250Y-100260900D01*
X154545000Y-100167150D01*
X154545000Y-100123808D01*
X154526392Y-100078883D01*
X154552346Y-99948400D01*
X154552346Y-99698400D01*
X154537061Y-99621557D01*
X154727873Y-99907127D01*
X155116538Y-100166825D01*
X155459276Y-100235000D01*
X155690724Y-100235000D01*
X156033462Y-100166825D01*
X156422127Y-99907127D01*
X156681825Y-99518462D01*
X156773019Y-99060000D01*
X156681825Y-98601538D01*
X156422127Y-98212873D01*
X156033462Y-97953175D01*
X155690724Y-97885000D01*
X155459276Y-97885000D01*
X155116538Y-97953175D01*
X154995001Y-98034384D01*
X154995001Y-97987642D01*
X155004796Y-97938399D01*
X154988822Y-97858090D01*
X154965990Y-97743309D01*
X154855481Y-97577919D01*
X154830400Y-97561161D01*
X154830400Y-97435633D01*
X155116538Y-97626825D01*
X155459276Y-97695000D01*
X155690724Y-97695000D01*
X156033462Y-97626825D01*
X156422127Y-97367127D01*
X156681825Y-96978462D01*
X156773019Y-96520000D01*
X156681825Y-96061538D01*
X156422127Y-95672873D01*
X156033462Y-95413175D01*
X155690724Y-95345000D01*
X155459276Y-95345000D01*
X155116538Y-95413175D01*
X154727873Y-95672873D01*
X154543105Y-95949398D01*
X154119200Y-95525494D01*
X154119200Y-95372482D01*
X154140517Y-95368242D01*
X154264559Y-95285359D01*
X154347442Y-95161317D01*
X154376546Y-95015000D01*
X154376546Y-94215000D01*
X154347442Y-94068683D01*
X154288186Y-93980000D01*
X154376981Y-93980000D01*
X154468175Y-94438462D01*
X154727873Y-94827127D01*
X155116538Y-95086825D01*
X155459276Y-95155000D01*
X155690724Y-95155000D01*
X156033462Y-95086825D01*
X156422127Y-94827127D01*
X156681825Y-94438462D01*
X156773019Y-93980000D01*
X156681825Y-93521538D01*
X156422127Y-93132873D01*
X156033462Y-92873175D01*
X155690724Y-92805000D01*
X155459276Y-92805000D01*
X155116538Y-92873175D01*
X154727873Y-93132873D01*
X154468175Y-93521538D01*
X154376981Y-93980000D01*
X154288186Y-93980000D01*
X154264559Y-93944641D01*
X154140517Y-93861758D01*
X154138124Y-93861282D01*
X154206621Y-93832910D01*
X154312110Y-93727420D01*
X154369200Y-93589592D01*
X154369200Y-93283750D01*
X154275450Y-93190000D01*
X153694200Y-93190000D01*
X153694200Y-93210000D01*
X153544200Y-93210000D01*
X153544200Y-93190000D01*
X152962950Y-93190000D01*
X152869200Y-93283750D01*
X152869200Y-93589592D01*
X152926290Y-93727420D01*
X153031779Y-93832910D01*
X153100276Y-93861282D01*
X153097883Y-93861758D01*
X152973841Y-93944641D01*
X152890958Y-94068683D01*
X152861854Y-94215000D01*
X152861854Y-95015000D01*
X152890958Y-95161317D01*
X152973841Y-95285359D01*
X153097883Y-95368242D01*
X153119201Y-95372482D01*
X153119201Y-95653860D01*
X152964310Y-95653860D01*
X152716219Y-95756623D01*
X152599442Y-95873400D01*
X152227346Y-95873400D01*
X152198242Y-95727083D01*
X152115359Y-95603041D01*
X151991317Y-95520158D01*
X151845000Y-95491054D01*
X151595000Y-95491054D01*
X151470000Y-95515918D01*
X151345000Y-95491054D01*
X151095000Y-95491054D01*
X150970000Y-95515918D01*
X150845000Y-95491054D01*
X150595000Y-95491054D01*
X150470000Y-95515918D01*
X150345000Y-95491054D01*
X150243274Y-95491054D01*
X150338585Y-95260954D01*
X150338585Y-95109278D01*
X150465710Y-95109278D01*
X150713801Y-95006515D01*
X150903681Y-94816635D01*
X150906781Y-94809150D01*
X151015000Y-94809150D01*
X151015000Y-95114992D01*
X151072090Y-95252820D01*
X151177579Y-95358310D01*
X151315408Y-95415400D01*
X151596250Y-95415400D01*
X151690000Y-95321650D01*
X151690000Y-94715400D01*
X151840000Y-94715400D01*
X151840000Y-95321650D01*
X151933750Y-95415400D01*
X152214592Y-95415400D01*
X152352421Y-95358310D01*
X152457910Y-95252820D01*
X152515000Y-95114992D01*
X152515000Y-94809150D01*
X152421250Y-94715400D01*
X151840000Y-94715400D01*
X151690000Y-94715400D01*
X151108750Y-94715400D01*
X151015000Y-94809150D01*
X150906781Y-94809150D01*
X151006444Y-94568544D01*
X151006444Y-94300012D01*
X150903681Y-94051921D01*
X150713801Y-93862041D01*
X150465710Y-93759278D01*
X150385400Y-93759278D01*
X150385400Y-91081794D01*
X150432444Y-91034750D01*
X150694000Y-91034750D01*
X150694000Y-91315592D01*
X150751090Y-91453421D01*
X150856580Y-91558910D01*
X150994408Y-91616000D01*
X151300250Y-91616000D01*
X151393998Y-91522252D01*
X151393998Y-91578532D01*
X151356449Y-91669183D01*
X151356449Y-91736364D01*
X151354706Y-91738973D01*
X151270461Y-91865054D01*
X151229715Y-92069898D01*
X151240001Y-92121609D01*
X151240001Y-92389618D01*
X151119641Y-92470041D01*
X151036758Y-92594083D01*
X151007654Y-92740400D01*
X151007654Y-93540400D01*
X151036758Y-93686717D01*
X151119641Y-93810759D01*
X151243683Y-93893642D01*
X151246076Y-93894118D01*
X151177579Y-93922490D01*
X151072090Y-94027980D01*
X151015000Y-94165808D01*
X151015000Y-94471650D01*
X151108750Y-94565400D01*
X151690000Y-94565400D01*
X151690000Y-94545400D01*
X151840000Y-94545400D01*
X151840000Y-94565400D01*
X152421250Y-94565400D01*
X152515000Y-94471650D01*
X152515000Y-94165808D01*
X152457910Y-94027980D01*
X152352421Y-93922490D01*
X152283924Y-93894118D01*
X152286317Y-93893642D01*
X152410359Y-93810759D01*
X152493242Y-93686717D01*
X152522346Y-93540400D01*
X152522346Y-92740400D01*
X152502457Y-92640408D01*
X152869200Y-92640408D01*
X152869200Y-92946250D01*
X152962950Y-93040000D01*
X153544200Y-93040000D01*
X153544200Y-92433750D01*
X153694200Y-92433750D01*
X153694200Y-93040000D01*
X154275450Y-93040000D01*
X154369200Y-92946250D01*
X154369200Y-92640408D01*
X154312110Y-92502580D01*
X154206621Y-92397090D01*
X154068792Y-92340000D01*
X153787950Y-92340000D01*
X153694200Y-92433750D01*
X153544200Y-92433750D01*
X153450450Y-92340000D01*
X153169608Y-92340000D01*
X153031779Y-92397090D01*
X152926290Y-92502580D01*
X152869200Y-92640408D01*
X152502457Y-92640408D01*
X152493242Y-92594083D01*
X152410359Y-92470041D01*
X152324506Y-92412675D01*
X152413806Y-92375686D01*
X152603686Y-92185806D01*
X152706449Y-91937715D01*
X152706449Y-91846012D01*
X152929116Y-91623346D01*
X153369000Y-91623346D01*
X153515317Y-91594242D01*
X153639359Y-91511359D01*
X153687040Y-91440000D01*
X154376981Y-91440000D01*
X154468175Y-91898462D01*
X154727873Y-92287127D01*
X155116538Y-92546825D01*
X155459276Y-92615000D01*
X155690724Y-92615000D01*
X156033462Y-92546825D01*
X156422127Y-92287127D01*
X156681825Y-91898462D01*
X156773019Y-91440000D01*
X156681825Y-90981538D01*
X156422127Y-90592873D01*
X156033462Y-90333175D01*
X155690724Y-90265000D01*
X155459276Y-90265000D01*
X155116538Y-90333175D01*
X154727873Y-90592873D01*
X154468175Y-90981538D01*
X154376981Y-91440000D01*
X153687040Y-91440000D01*
X153722242Y-91387317D01*
X153751346Y-91241000D01*
X153751346Y-90491000D01*
X153722242Y-90344683D01*
X153639359Y-90220641D01*
X153621000Y-90208374D01*
X153621000Y-90001372D01*
X153691359Y-89954359D01*
X153774242Y-89830317D01*
X153803346Y-89684000D01*
X153803346Y-88900000D01*
X154376981Y-88900000D01*
X154468175Y-89358462D01*
X154727873Y-89747127D01*
X155116538Y-90006825D01*
X155459276Y-90075000D01*
X155690724Y-90075000D01*
X156033462Y-90006825D01*
X156422127Y-89747127D01*
X156681825Y-89358462D01*
X156773019Y-88900000D01*
X156681825Y-88441538D01*
X156422127Y-88052873D01*
X156033462Y-87793175D01*
X155690724Y-87725000D01*
X155459276Y-87725000D01*
X155116538Y-87793175D01*
X154727873Y-88052873D01*
X154468175Y-88441538D01*
X154376981Y-88900000D01*
X153803346Y-88900000D01*
X153803346Y-88624000D01*
X153774242Y-88477683D01*
X153691359Y-88353641D01*
X153567317Y-88270758D01*
X153421000Y-88241654D01*
X152771000Y-88241654D01*
X152624683Y-88270758D01*
X152500641Y-88353641D01*
X152417758Y-88477683D01*
X152388654Y-88624000D01*
X152388654Y-89684000D01*
X152417758Y-89830317D01*
X152500641Y-89954359D01*
X152571001Y-90001372D01*
X152571001Y-90108654D01*
X152569000Y-90108654D01*
X152422683Y-90137758D01*
X152298641Y-90220641D01*
X152215758Y-90344683D01*
X152215282Y-90347076D01*
X152186910Y-90278579D01*
X152081420Y-90173090D01*
X151943592Y-90116000D01*
X151637750Y-90116000D01*
X151544000Y-90209750D01*
X151544000Y-90791000D01*
X151564000Y-90791000D01*
X151564000Y-90941000D01*
X151544000Y-90941000D01*
X151544000Y-90961000D01*
X151394000Y-90961000D01*
X151394000Y-90941000D01*
X150787750Y-90941000D01*
X150694000Y-91034750D01*
X150432444Y-91034750D01*
X150457637Y-91009557D01*
X150560400Y-90761466D01*
X150560400Y-90492934D01*
X150528702Y-90416408D01*
X150694000Y-90416408D01*
X150694000Y-90697250D01*
X150787750Y-90791000D01*
X151394000Y-90791000D01*
X151394000Y-90209750D01*
X151300250Y-90116000D01*
X150994408Y-90116000D01*
X150856580Y-90173090D01*
X150751090Y-90278579D01*
X150694000Y-90416408D01*
X150528702Y-90416408D01*
X150457637Y-90244843D01*
X150267757Y-90054963D01*
X150019666Y-89952200D01*
X149751134Y-89952200D01*
X149503043Y-90054963D01*
X149313163Y-90244843D01*
X149210400Y-90492934D01*
X149210400Y-90761466D01*
X149313163Y-91009557D01*
X149385400Y-91081794D01*
X149385400Y-91276440D01*
X149385401Y-91276445D01*
X149385400Y-93938993D01*
X149375605Y-93988234D01*
X149385400Y-94037475D01*
X149385400Y-94037476D01*
X149411204Y-94167200D01*
X147791800Y-92547797D01*
X147791800Y-92347136D01*
X147689037Y-92099045D01*
X147499157Y-91909165D01*
X147251066Y-91806402D01*
X146982534Y-91806402D01*
X146734443Y-91909165D01*
X146544563Y-92099045D01*
X146441800Y-92347136D01*
X146441800Y-92615668D01*
X146544563Y-92863759D01*
X146734443Y-93053639D01*
X146982534Y-93156402D01*
X146986193Y-93156402D01*
X148706792Y-94877002D01*
X146910994Y-94877002D01*
X146838757Y-94804765D01*
X146590666Y-94702002D01*
X146322134Y-94702002D01*
X146172346Y-94764046D01*
X146172346Y-94215000D01*
X146143242Y-94068683D01*
X146060359Y-93944641D01*
X145936317Y-93861758D01*
X145933924Y-93861282D01*
X146002421Y-93832910D01*
X146107910Y-93727420D01*
X146165000Y-93589592D01*
X146165000Y-93283750D01*
X146071250Y-93190000D01*
X145490000Y-93190000D01*
X145490000Y-93210000D01*
X145340000Y-93210000D01*
X145340000Y-93190000D01*
X144758750Y-93190000D01*
X144665000Y-93283750D01*
X144665000Y-93589592D01*
X144722090Y-93727420D01*
X144827579Y-93832910D01*
X144896076Y-93861282D01*
X144893683Y-93861758D01*
X144769641Y-93944641D01*
X144686758Y-94068683D01*
X144657654Y-94215000D01*
X144657654Y-94665240D01*
X144480178Y-94842716D01*
X144267346Y-94629884D01*
X144267346Y-94215000D01*
X144238242Y-94068683D01*
X144155359Y-93944641D01*
X144031317Y-93861758D01*
X144028924Y-93861282D01*
X144097421Y-93832910D01*
X144202910Y-93727420D01*
X144260000Y-93589592D01*
X144260000Y-93283750D01*
X144166250Y-93190000D01*
X143585000Y-93190000D01*
X143585000Y-93210000D01*
X143435000Y-93210000D01*
X143435000Y-93190000D01*
X143415000Y-93190000D01*
X143415000Y-93040000D01*
X143435000Y-93040000D01*
X143435000Y-93020000D01*
X143585000Y-93020000D01*
X143585000Y-93040000D01*
X144166250Y-93040000D01*
X144260000Y-92946250D01*
X144260000Y-92758511D01*
X144665000Y-92758511D01*
X144665000Y-92946250D01*
X144758750Y-93040000D01*
X145340000Y-93040000D01*
X145340000Y-93020000D01*
X145490000Y-93020000D01*
X145490000Y-93040000D01*
X146071250Y-93040000D01*
X146165000Y-92946250D01*
X146165000Y-92640408D01*
X146107910Y-92502580D01*
X146002421Y-92397090D01*
X145864592Y-92340000D01*
X145613461Y-92340000D01*
X146264116Y-91689346D01*
X146704000Y-91689346D01*
X146850317Y-91660242D01*
X146974359Y-91577359D01*
X147057242Y-91453317D01*
X147086346Y-91307000D01*
X147086346Y-90557000D01*
X147057242Y-90410683D01*
X146974359Y-90286641D01*
X146850317Y-90203758D01*
X146829000Y-90199518D01*
X146829000Y-90001372D01*
X146899359Y-89954359D01*
X146982242Y-89830317D01*
X147011346Y-89684000D01*
X147011346Y-89679000D01*
X147222518Y-89679000D01*
X147226758Y-89700317D01*
X147309641Y-89824359D01*
X147433683Y-89907242D01*
X147580000Y-89936346D01*
X148330000Y-89936346D01*
X148476317Y-89907242D01*
X148600359Y-89824359D01*
X148683242Y-89700317D01*
X148712346Y-89554000D01*
X148712346Y-88754000D01*
X148785154Y-88754000D01*
X148785154Y-89554000D01*
X148814258Y-89700317D01*
X148897141Y-89824359D01*
X149021183Y-89907242D01*
X149167500Y-89936346D01*
X149917500Y-89936346D01*
X150063817Y-89907242D01*
X150187859Y-89824359D01*
X150270742Y-89700317D01*
X150279955Y-89654000D01*
X150488654Y-89654000D01*
X150488654Y-89684000D01*
X150517758Y-89830317D01*
X150600641Y-89954359D01*
X150724683Y-90037242D01*
X150871000Y-90066346D01*
X151521000Y-90066346D01*
X151667317Y-90037242D01*
X151791359Y-89954359D01*
X151874242Y-89830317D01*
X151903346Y-89684000D01*
X151903346Y-88624000D01*
X151874242Y-88477683D01*
X151791359Y-88353641D01*
X151667317Y-88270758D01*
X151521000Y-88241654D01*
X150871000Y-88241654D01*
X150724683Y-88270758D01*
X150600641Y-88353641D01*
X150517758Y-88477683D01*
X150488654Y-88624000D01*
X150488654Y-88654000D01*
X150279955Y-88654000D01*
X150270742Y-88607683D01*
X150187859Y-88483641D01*
X150063817Y-88400758D01*
X150061424Y-88400282D01*
X150129921Y-88371910D01*
X150235410Y-88266420D01*
X150292500Y-88128592D01*
X150292500Y-87822750D01*
X150198750Y-87729000D01*
X149617500Y-87729000D01*
X149617500Y-87749000D01*
X149467500Y-87749000D01*
X149467500Y-87729000D01*
X148886250Y-87729000D01*
X148792500Y-87822750D01*
X148792500Y-88128592D01*
X148849590Y-88266420D01*
X148955079Y-88371910D01*
X149023576Y-88400282D01*
X149021183Y-88400758D01*
X148897141Y-88483641D01*
X148814258Y-88607683D01*
X148785154Y-88754000D01*
X148712346Y-88754000D01*
X148683242Y-88607683D01*
X148600359Y-88483641D01*
X148476317Y-88400758D01*
X148473924Y-88400282D01*
X148542421Y-88371910D01*
X148647910Y-88266420D01*
X148705000Y-88128592D01*
X148705000Y-87822750D01*
X148611250Y-87729000D01*
X148030000Y-87729000D01*
X148030000Y-87749000D01*
X147880000Y-87749000D01*
X147880000Y-87729000D01*
X147298750Y-87729000D01*
X147205000Y-87822750D01*
X147205000Y-88128592D01*
X147262090Y-88266420D01*
X147367579Y-88371910D01*
X147436076Y-88400282D01*
X147433683Y-88400758D01*
X147309641Y-88483641D01*
X147226758Y-88607683D01*
X147222518Y-88629000D01*
X147011346Y-88629000D01*
X147011346Y-88624000D01*
X146982242Y-88477683D01*
X146899359Y-88353641D01*
X146775317Y-88270758D01*
X146629000Y-88241654D01*
X145979000Y-88241654D01*
X145832683Y-88270758D01*
X145708641Y-88353641D01*
X145625758Y-88477683D01*
X145596654Y-88624000D01*
X145596654Y-89684000D01*
X145625758Y-89830317D01*
X145708641Y-89954359D01*
X145779001Y-90001372D01*
X145779000Y-90199518D01*
X145757683Y-90203758D01*
X145633641Y-90286641D01*
X145550758Y-90410683D01*
X145550282Y-90413076D01*
X145521910Y-90344579D01*
X145416420Y-90239090D01*
X145278592Y-90182000D01*
X144972750Y-90182000D01*
X144879002Y-90275748D01*
X144879002Y-90182000D01*
X144839636Y-90182000D01*
X144874989Y-90129090D01*
X144896009Y-90023416D01*
X144999359Y-89954359D01*
X145082242Y-89830317D01*
X145111346Y-89684000D01*
X145111346Y-88624000D01*
X145082242Y-88477683D01*
X144999359Y-88353641D01*
X144875317Y-88270758D01*
X144729000Y-88241654D01*
X144079000Y-88241654D01*
X143932683Y-88270758D01*
X143808641Y-88353641D01*
X143725758Y-88477683D01*
X143696654Y-88624000D01*
X143696654Y-89684000D01*
X143725758Y-89830317D01*
X143742094Y-89854766D01*
X143578849Y-90018012D01*
X143625000Y-89906592D01*
X143625000Y-89600750D01*
X143531250Y-89507000D01*
X142950000Y-89507000D01*
X142950000Y-89527000D01*
X142800000Y-89527000D01*
X142800000Y-89507000D01*
X142218750Y-89507000D01*
X142125000Y-89600750D01*
X142125000Y-89906592D01*
X142182090Y-90044420D01*
X142287579Y-90149910D01*
X142356076Y-90178282D01*
X142353683Y-90178758D01*
X142229641Y-90261641D01*
X142146758Y-90385683D01*
X142117654Y-90532000D01*
X142117654Y-91332000D01*
X142146758Y-91478317D01*
X142229641Y-91602359D01*
X142353683Y-91685242D01*
X142500000Y-91714346D01*
X142751001Y-91714346D01*
X142627197Y-91738972D01*
X142453538Y-91855007D01*
X142424245Y-91898847D01*
X142193553Y-92129539D01*
X142149713Y-92158832D01*
X142033679Y-92332491D01*
X142033678Y-92332492D01*
X141992932Y-92537336D01*
X142003217Y-92589042D01*
X142003218Y-96713063D01*
X141992932Y-96764774D01*
X142033678Y-96969618D01*
X142041027Y-96980616D01*
X142149714Y-97143278D01*
X142193551Y-97172569D01*
X142844382Y-97823400D01*
X142806931Y-97823400D01*
X142770000Y-97816054D01*
X141770000Y-97816054D01*
X141623683Y-97845158D01*
X141499641Y-97928041D01*
X141416758Y-98052083D01*
X141387654Y-98198400D01*
X141387654Y-98448400D01*
X141412518Y-98573400D01*
X141404092Y-98615758D01*
X141327746Y-98431432D01*
X141011635Y-98099372D01*
X140592513Y-97913558D01*
X140410000Y-97981139D01*
X140410000Y-98985000D01*
X140430000Y-98985000D01*
X140430000Y-99135000D01*
X140410000Y-99135000D01*
X140410000Y-100138861D01*
X140592513Y-100206442D01*
X141011635Y-100020628D01*
X141327746Y-99688568D01*
X141400491Y-99512937D01*
X141412518Y-99573400D01*
X141387654Y-99698400D01*
X141387654Y-99948400D01*
X141412518Y-100073400D01*
X141387654Y-100198400D01*
X141387654Y-100448400D01*
X141412518Y-100573400D01*
X141387654Y-100698400D01*
X141387654Y-100948400D01*
X141412518Y-101073400D01*
X141408797Y-101092108D01*
X141182127Y-100752873D01*
X140793462Y-100493175D01*
X140450724Y-100425000D01*
X140219276Y-100425000D01*
X139876538Y-100493175D01*
X139487873Y-100752873D01*
X139228175Y-101141538D01*
X139136981Y-101600000D01*
X139228175Y-102058462D01*
X139487873Y-102447127D01*
X139876538Y-102706825D01*
X140219276Y-102775000D01*
X140450724Y-102775000D01*
X140793462Y-102706825D01*
X141182127Y-102447127D01*
X141395000Y-102128540D01*
X141395000Y-102167150D01*
X141488750Y-102260900D01*
X141562709Y-102260900D01*
X141623683Y-102301642D01*
X141733069Y-102323400D01*
X141623683Y-102345158D01*
X141562709Y-102385900D01*
X141488750Y-102385900D01*
X141395000Y-102479650D01*
X141395000Y-102522992D01*
X141413608Y-102567917D01*
X141387654Y-102698400D01*
X141387654Y-102948400D01*
X141413608Y-103078883D01*
X141395000Y-103123808D01*
X141395000Y-103167150D01*
X141488750Y-103260900D01*
X141562709Y-103260900D01*
X141623683Y-103301642D01*
X141733069Y-103323400D01*
X141623683Y-103345158D01*
X141562709Y-103385900D01*
X141488750Y-103385900D01*
X141395000Y-103479650D01*
X141395000Y-103522992D01*
X141413608Y-103567917D01*
X141402665Y-103622932D01*
X141182127Y-103292873D01*
X140793462Y-103033175D01*
X140450724Y-102965000D01*
X140219276Y-102965000D01*
X139876538Y-103033175D01*
X139487873Y-103292873D01*
X139228175Y-103681538D01*
X139136981Y-104140000D01*
X139228175Y-104598462D01*
X139487873Y-104987127D01*
X139876538Y-105246825D01*
X140219276Y-105315000D01*
X140450724Y-105315000D01*
X140793462Y-105246825D01*
X141182127Y-104987127D01*
X141392997Y-104671538D01*
X141387654Y-104698400D01*
X141387654Y-104948400D01*
X141413608Y-105078883D01*
X141395000Y-105123808D01*
X141395000Y-105167150D01*
X141488750Y-105260900D01*
X141562709Y-105260900D01*
X141623683Y-105301642D01*
X141733069Y-105323400D01*
X141623683Y-105345158D01*
X141562709Y-105385900D01*
X141488750Y-105385900D01*
X141395000Y-105479650D01*
X141395000Y-105522992D01*
X141413608Y-105567917D01*
X141387654Y-105698400D01*
X141387654Y-105948400D01*
X141416758Y-106094717D01*
X141499641Y-106218759D01*
X141623683Y-106301642D01*
X141745000Y-106325773D01*
X141745000Y-106547354D01*
X141734715Y-106599060D01*
X141763037Y-106741446D01*
X141775461Y-106803904D01*
X141891496Y-106977564D01*
X141935335Y-107006856D01*
X142011022Y-107082543D01*
X142011022Y-107319784D01*
X141998083Y-107322358D01*
X141874041Y-107405241D01*
X141791158Y-107529283D01*
X141762054Y-107675600D01*
X141762054Y-108115484D01*
X141311318Y-108566221D01*
X141182127Y-108372873D01*
X140793462Y-108113175D01*
X140450724Y-108045000D01*
X140219276Y-108045000D01*
X139876538Y-108113175D01*
X139487873Y-108372873D01*
X139228175Y-108761538D01*
X139136981Y-109220000D01*
X139228175Y-109678462D01*
X139487873Y-110067127D01*
X139876538Y-110326825D01*
X140219276Y-110395000D01*
X140450724Y-110395000D01*
X140793462Y-110326825D01*
X141054600Y-110152338D01*
X141054600Y-110768494D01*
X141044315Y-110820200D01*
X141044450Y-110820880D01*
X140793462Y-110653175D01*
X140450724Y-110585000D01*
X140219276Y-110585000D01*
X139876538Y-110653175D01*
X139487873Y-110912873D01*
X139228175Y-111301538D01*
X139136981Y-111760000D01*
X139228175Y-112218462D01*
X139487873Y-112607127D01*
X139876538Y-112866825D01*
X140219276Y-112935000D01*
X140450724Y-112935000D01*
X140793462Y-112866825D01*
X141182127Y-112607127D01*
X141441825Y-112218462D01*
X141533019Y-111760000D01*
X141472453Y-111455514D01*
X142121401Y-112104463D01*
X142121400Y-115782654D01*
X141952600Y-115782654D01*
X141806283Y-115811758D01*
X141682241Y-115894641D01*
X141599358Y-116018683D01*
X141570254Y-116165000D01*
X141570254Y-117515000D01*
X141599358Y-117661317D01*
X141682241Y-117785359D01*
X141806283Y-117868242D01*
X141952600Y-117897346D01*
X143302600Y-117897346D01*
X143448917Y-117868242D01*
X143572959Y-117785359D01*
X143655842Y-117661317D01*
X143684946Y-117515000D01*
X143684946Y-117319167D01*
X143870593Y-117597007D01*
X143922762Y-117631865D01*
X143860720Y-117673320D01*
X143832826Y-117715067D01*
X143326987Y-118220906D01*
X142995652Y-118155000D01*
X142754348Y-118155000D01*
X142397029Y-118226075D01*
X141991824Y-118496824D01*
X141721075Y-118902029D01*
X141626001Y-119380000D01*
X141721075Y-119857971D01*
X141991824Y-120263176D01*
X142397029Y-120533925D01*
X142754348Y-120605000D01*
X142995652Y-120605000D01*
X143352971Y-120533925D01*
X143758176Y-120263176D01*
X144028925Y-119857971D01*
X144123999Y-119380000D01*
X144034094Y-118928013D01*
X144428307Y-118533800D01*
X144507117Y-118533800D01*
X144261075Y-118902029D01*
X144166001Y-119380000D01*
X144261075Y-119857971D01*
X144531824Y-120263176D01*
X144937029Y-120533925D01*
X145294348Y-120605000D01*
X145535652Y-120605000D01*
X145892971Y-120533925D01*
X146298176Y-120263176D01*
X146568925Y-119857971D01*
X146663999Y-119380000D01*
X146568925Y-118902029D01*
X146322883Y-118533800D01*
X146864359Y-118533800D01*
X146913600Y-118543595D01*
X146962841Y-118533800D01*
X146962843Y-118533800D01*
X147060035Y-118514467D01*
X146801075Y-118902029D01*
X146706001Y-119380000D01*
X146801075Y-119857971D01*
X147071824Y-120263176D01*
X147477029Y-120533925D01*
X147834348Y-120605000D01*
X148075652Y-120605000D01*
X148432971Y-120533925D01*
X148838176Y-120263176D01*
X149108925Y-119857971D01*
X149151217Y-119645350D01*
X149299077Y-119645350D01*
X149491656Y-120082811D01*
X149836985Y-120413276D01*
X150229651Y-120575916D01*
X150420000Y-120508761D01*
X150420000Y-119455000D01*
X150570000Y-119455000D01*
X150570000Y-120508761D01*
X150760349Y-120575916D01*
X151153015Y-120413276D01*
X151498344Y-120082811D01*
X151690923Y-119645350D01*
X151623959Y-119455000D01*
X150570000Y-119455000D01*
X150420000Y-119455000D01*
X149366041Y-119455000D01*
X149299077Y-119645350D01*
X149151217Y-119645350D01*
X149203999Y-119380000D01*
X149151218Y-119114650D01*
X149299077Y-119114650D01*
X149366041Y-119305000D01*
X150420000Y-119305000D01*
X150420000Y-118251239D01*
X150229651Y-118184084D01*
X149836985Y-118346724D01*
X149491656Y-118677189D01*
X149299077Y-119114650D01*
X149151218Y-119114650D01*
X149108925Y-118902029D01*
X148838176Y-118496824D01*
X148432971Y-118226075D01*
X148075652Y-118155000D01*
X147834348Y-118155000D01*
X147477029Y-118226075D01*
X147330571Y-118323935D01*
X148571307Y-117083200D01*
X148673466Y-117083200D01*
X148921557Y-116980437D01*
X149111437Y-116790557D01*
X149214200Y-116542466D01*
X149214200Y-116273934D01*
X149111437Y-116025843D01*
X148921557Y-115835963D01*
X148673466Y-115733200D01*
X148404934Y-115733200D01*
X148156843Y-115835963D01*
X147966963Y-116025843D01*
X147864200Y-116273934D01*
X147864200Y-116376093D01*
X146706494Y-117533800D01*
X145426841Y-117533800D01*
X145616678Y-117249689D01*
X145698170Y-116840000D01*
X145616678Y-116430311D01*
X145384607Y-116082993D01*
X145131706Y-115914010D01*
X145137396Y-115885406D01*
X145098589Y-115690316D01*
X145096431Y-115687086D01*
X144988080Y-115524926D01*
X144946332Y-115497031D01*
X144568800Y-115119500D01*
X144568800Y-114961200D01*
X144665117Y-114942042D01*
X144789159Y-114859159D01*
X144872042Y-114735117D01*
X144901146Y-114588800D01*
X144901146Y-114413560D01*
X146114907Y-113199800D01*
X147094006Y-113199800D01*
X147166243Y-113272037D01*
X147414334Y-113374800D01*
X147682866Y-113374800D01*
X147930957Y-113272037D01*
X148120837Y-113082157D01*
X148223600Y-112834066D01*
X148223600Y-112565534D01*
X148120837Y-112317443D01*
X147930957Y-112127563D01*
X147682866Y-112024800D01*
X147414334Y-112024800D01*
X147166243Y-112127563D01*
X147094006Y-112199800D01*
X145957041Y-112199800D01*
X145907799Y-112190005D01*
X145858558Y-112199800D01*
X145858557Y-112199800D01*
X145712710Y-112228811D01*
X145547320Y-112339320D01*
X145519425Y-112381068D01*
X144893372Y-113007122D01*
X144800050Y-112913800D01*
X144143800Y-112913800D01*
X144143800Y-113370050D01*
X144237550Y-113463800D01*
X144436694Y-113463800D01*
X144194040Y-113706454D01*
X143618800Y-113706454D01*
X143472483Y-113735558D01*
X143348441Y-113818441D01*
X143265558Y-113942483D01*
X143236454Y-114088800D01*
X143236454Y-114588800D01*
X143265558Y-114735117D01*
X143348441Y-114859159D01*
X143472483Y-114942042D01*
X143568800Y-114961201D01*
X143568800Y-115277364D01*
X143559005Y-115326606D01*
X143568800Y-115375847D01*
X143568800Y-115375848D01*
X143597811Y-115521695D01*
X143708320Y-115687086D01*
X143750070Y-115714982D01*
X144018951Y-115983863D01*
X143870593Y-116082993D01*
X143684946Y-116360833D01*
X143684946Y-116165000D01*
X143655842Y-116018683D01*
X143572959Y-115894641D01*
X143448917Y-115811758D01*
X143302600Y-115782654D01*
X143171400Y-115782654D01*
X143171400Y-113007550D01*
X143243800Y-113007550D01*
X143243800Y-113163392D01*
X143300890Y-113301220D01*
X143406379Y-113406710D01*
X143544208Y-113463800D01*
X143900050Y-113463800D01*
X143993800Y-113370050D01*
X143993800Y-112913800D01*
X143337550Y-112913800D01*
X143243800Y-113007550D01*
X143171400Y-113007550D01*
X143171400Y-112514208D01*
X143243800Y-112514208D01*
X143243800Y-112670050D01*
X143337550Y-112763800D01*
X143993800Y-112763800D01*
X143993800Y-112307550D01*
X144143800Y-112307550D01*
X144143800Y-112763800D01*
X144800050Y-112763800D01*
X144893800Y-112670050D01*
X144893800Y-112514208D01*
X144836710Y-112376380D01*
X144731221Y-112270890D01*
X144593392Y-112213800D01*
X144237550Y-112213800D01*
X144143800Y-112307550D01*
X143993800Y-112307550D01*
X143900050Y-112213800D01*
X143544208Y-112213800D01*
X143406379Y-112270890D01*
X143300890Y-112376380D01*
X143243800Y-112514208D01*
X143171400Y-112514208D01*
X143171400Y-111938705D01*
X143181685Y-111886999D01*
X143140939Y-111682155D01*
X143126517Y-111660571D01*
X143024904Y-111508496D01*
X142981067Y-111479205D01*
X142746212Y-111244350D01*
X143318800Y-111244350D01*
X143318800Y-111550192D01*
X143375890Y-111688020D01*
X143481379Y-111793510D01*
X143619208Y-111850600D01*
X143900050Y-111850600D01*
X143993800Y-111756850D01*
X143993800Y-111150600D01*
X144143800Y-111150600D01*
X144143800Y-111756850D01*
X144237550Y-111850600D01*
X144518392Y-111850600D01*
X144656221Y-111793510D01*
X144761710Y-111688020D01*
X144818800Y-111550192D01*
X144818800Y-111244350D01*
X148094000Y-111244350D01*
X148094000Y-111550192D01*
X148151090Y-111688020D01*
X148256579Y-111793510D01*
X148394408Y-111850600D01*
X148675250Y-111850600D01*
X148769000Y-111756850D01*
X148769000Y-111150600D01*
X148919000Y-111150600D01*
X148919000Y-111756850D01*
X149012750Y-111850600D01*
X149293592Y-111850600D01*
X149431421Y-111793510D01*
X149536910Y-111688020D01*
X149580600Y-111582543D01*
X149624290Y-111688020D01*
X149729779Y-111793510D01*
X149867608Y-111850600D01*
X150148450Y-111850600D01*
X150242200Y-111756850D01*
X150242200Y-111150600D01*
X149660950Y-111150600D01*
X149580600Y-111230950D01*
X149500250Y-111150600D01*
X148919000Y-111150600D01*
X148769000Y-111150600D01*
X148187750Y-111150600D01*
X148094000Y-111244350D01*
X144818800Y-111244350D01*
X144725050Y-111150600D01*
X144143800Y-111150600D01*
X143993800Y-111150600D01*
X143412550Y-111150600D01*
X143318800Y-111244350D01*
X142746212Y-111244350D01*
X142104600Y-110602739D01*
X142104600Y-110350600D01*
X142350650Y-110350600D01*
X142444400Y-110256850D01*
X142444400Y-109650600D01*
X142594400Y-109650600D01*
X142594400Y-110256850D01*
X142688150Y-110350600D01*
X142968992Y-110350600D01*
X143106821Y-110293510D01*
X143212310Y-110188020D01*
X143269400Y-110050192D01*
X143269400Y-109744350D01*
X143175650Y-109650600D01*
X142594400Y-109650600D01*
X142444400Y-109650600D01*
X142424400Y-109650600D01*
X142424400Y-109500600D01*
X142444400Y-109500600D01*
X142444400Y-109480600D01*
X142594400Y-109480600D01*
X142594400Y-109500600D01*
X143175650Y-109500600D01*
X143269400Y-109406850D01*
X143269400Y-109101008D01*
X143212310Y-108963180D01*
X143106821Y-108857690D01*
X143038324Y-108829318D01*
X143040717Y-108828842D01*
X143164759Y-108745959D01*
X143247642Y-108621917D01*
X143251882Y-108600600D01*
X143441094Y-108600600D01*
X143492800Y-108610885D01*
X143544506Y-108600600D01*
X143697645Y-108570139D01*
X143797628Y-108503332D01*
X143824641Y-108543759D01*
X143948683Y-108626642D01*
X144095000Y-108655746D01*
X144345000Y-108655746D01*
X144470000Y-108630882D01*
X144595000Y-108655746D01*
X144845000Y-108655746D01*
X144970000Y-108630882D01*
X145095000Y-108655746D01*
X145345000Y-108655746D01*
X145470000Y-108630882D01*
X145595000Y-108655746D01*
X145720001Y-108655746D01*
X145720001Y-108700600D01*
X145544352Y-108700600D01*
X145222752Y-108833811D01*
X144980963Y-109075600D01*
X144806255Y-109075600D01*
X144797042Y-109029283D01*
X144714159Y-108905241D01*
X144590117Y-108822358D01*
X144443800Y-108793254D01*
X143693800Y-108793254D01*
X143547483Y-108822358D01*
X143423441Y-108905241D01*
X143340558Y-109029283D01*
X143311454Y-109175600D01*
X143311454Y-109975600D01*
X143340558Y-110121917D01*
X143423441Y-110245959D01*
X143547483Y-110328842D01*
X143549876Y-110329318D01*
X143481379Y-110357690D01*
X143375890Y-110463180D01*
X143318800Y-110601008D01*
X143318800Y-110906850D01*
X143412550Y-111000600D01*
X143993800Y-111000600D01*
X143993800Y-110980600D01*
X144143800Y-110980600D01*
X144143800Y-111000600D01*
X144725050Y-111000600D01*
X144818800Y-110906850D01*
X144818800Y-110601008D01*
X144761710Y-110463180D01*
X144656221Y-110357690D01*
X144587724Y-110329318D01*
X144590117Y-110328842D01*
X144714159Y-110245959D01*
X144797042Y-110121917D01*
X144806255Y-110075600D01*
X144980963Y-110075600D01*
X145222752Y-110317389D01*
X145544352Y-110450600D01*
X145892448Y-110450600D01*
X146214048Y-110317389D01*
X146460189Y-110071248D01*
X146468400Y-110051425D01*
X146476611Y-110071248D01*
X146722752Y-110317389D01*
X147044352Y-110450600D01*
X147392448Y-110450600D01*
X147714048Y-110317389D01*
X147955837Y-110075600D01*
X148106545Y-110075600D01*
X148115758Y-110121917D01*
X148198641Y-110245959D01*
X148322683Y-110328842D01*
X148325076Y-110329318D01*
X148256579Y-110357690D01*
X148151090Y-110463180D01*
X148094000Y-110601008D01*
X148094000Y-110906850D01*
X148187750Y-111000600D01*
X148769000Y-111000600D01*
X148769000Y-110980600D01*
X148919000Y-110980600D01*
X148919000Y-111000600D01*
X149500250Y-111000600D01*
X149580600Y-110920250D01*
X149660950Y-111000600D01*
X150242200Y-111000600D01*
X150242200Y-110980600D01*
X150392200Y-110980600D01*
X150392200Y-111000600D01*
X150412200Y-111000600D01*
X150412200Y-111150600D01*
X150392200Y-111150600D01*
X150392200Y-111756850D01*
X150485950Y-111850600D01*
X150644989Y-111850600D01*
X150644989Y-112206561D01*
X150451464Y-112126400D01*
X150182932Y-112126400D01*
X149934841Y-112229163D01*
X149744961Y-112419043D01*
X149642198Y-112667134D01*
X149642198Y-112935666D01*
X149744961Y-113183757D01*
X149934841Y-113373637D01*
X150147401Y-113461682D01*
X150147400Y-117188161D01*
X150137605Y-117237402D01*
X150147400Y-117286643D01*
X150147400Y-117286644D01*
X150176411Y-117432491D01*
X150286920Y-117597882D01*
X150328670Y-117625779D01*
X150976507Y-118273615D01*
X150760349Y-118184084D01*
X150570000Y-118251239D01*
X150570000Y-119305000D01*
X151623959Y-119305000D01*
X151690923Y-119114650D01*
X151591348Y-118888457D01*
X151802654Y-119099763D01*
X151802654Y-120230000D01*
X151831758Y-120376317D01*
X151914641Y-120500359D01*
X152038683Y-120583242D01*
X152185000Y-120612346D01*
X153885000Y-120612346D01*
X154031317Y-120583242D01*
X154155359Y-120500359D01*
X154238242Y-120376317D01*
X154267346Y-120230000D01*
X154267346Y-118530000D01*
X154238242Y-118383683D01*
X154155359Y-118259641D01*
X154124757Y-118239193D01*
X154190359Y-118195359D01*
X154251760Y-118103466D01*
X154709165Y-118560872D01*
X154468175Y-118921538D01*
X154376981Y-119380000D01*
X154468175Y-119838462D01*
X154727873Y-120227127D01*
X155116538Y-120486825D01*
X155459276Y-120555000D01*
X155690724Y-120555000D01*
X156033462Y-120486825D01*
X156422127Y-120227127D01*
X156681825Y-119838462D01*
X156773019Y-119380000D01*
X156681825Y-118921538D01*
X156422127Y-118532873D01*
X156033462Y-118273175D01*
X155786572Y-118224065D01*
X155577507Y-118015000D01*
X155690724Y-118015000D01*
X156033462Y-117946825D01*
X156422127Y-117687127D01*
X156681825Y-117298462D01*
X156773019Y-116840000D01*
X156681825Y-116381538D01*
X156422127Y-115992873D01*
X156033462Y-115733175D01*
X155690724Y-115665000D01*
X155459276Y-115665000D01*
X155165535Y-115723429D01*
X154693376Y-115251270D01*
X154665480Y-115209520D01*
X154500090Y-115099011D01*
X154354243Y-115070000D01*
X154354241Y-115070000D01*
X154305000Y-115060205D01*
X154291006Y-115062989D01*
X154273242Y-114973683D01*
X154190359Y-114849641D01*
X154066317Y-114766758D01*
X153920000Y-114737654D01*
X153420000Y-114737654D01*
X153273683Y-114766758D01*
X153149641Y-114849641D01*
X153066758Y-114973683D01*
X153037654Y-115120000D01*
X153037654Y-116020000D01*
X153066758Y-116166317D01*
X153149641Y-116290359D01*
X153273683Y-116373242D01*
X153420000Y-116402346D01*
X153920000Y-116402346D01*
X154066317Y-116373242D01*
X154190359Y-116290359D01*
X154241586Y-116213693D01*
X154458429Y-116430535D01*
X154376981Y-116840000D01*
X154404831Y-116980010D01*
X154379643Y-116975000D01*
X154379641Y-116975000D01*
X154330400Y-116965205D01*
X154291973Y-116972849D01*
X154273242Y-116878683D01*
X154190359Y-116754641D01*
X154066317Y-116671758D01*
X153920000Y-116642654D01*
X153420000Y-116642654D01*
X153273683Y-116671758D01*
X153149641Y-116754641D01*
X153066758Y-116878683D01*
X153037654Y-117025000D01*
X153037654Y-117925000D01*
X153066758Y-118071317D01*
X153117765Y-118147654D01*
X152722235Y-118147654D01*
X152773242Y-118071317D01*
X152802346Y-117925000D01*
X152802346Y-117025000D01*
X152773242Y-116878683D01*
X152690359Y-116754641D01*
X152566317Y-116671758D01*
X152420000Y-116642654D01*
X151920000Y-116642654D01*
X151773683Y-116671758D01*
X151665171Y-116744264D01*
X151644988Y-116724082D01*
X151644988Y-116283395D01*
X151649641Y-116290359D01*
X151773683Y-116373242D01*
X151920000Y-116402346D01*
X152420000Y-116402346D01*
X152566317Y-116373242D01*
X152690359Y-116290359D01*
X152773242Y-116166317D01*
X152802346Y-116020000D01*
X152802346Y-115120000D01*
X152773242Y-114973683D01*
X152690359Y-114849641D01*
X152566317Y-114766758D01*
X152420000Y-114737654D01*
X152094999Y-114737654D01*
X152094999Y-114497346D01*
X152420000Y-114497346D01*
X152566317Y-114468242D01*
X152690359Y-114385359D01*
X152773242Y-114261317D01*
X152802346Y-114115000D01*
X152802346Y-113215000D01*
X152792717Y-113166590D01*
X153252133Y-112707174D01*
X153293880Y-112679280D01*
X153359948Y-112580401D01*
X153420000Y-112592346D01*
X153920000Y-112592346D01*
X154066317Y-112563242D01*
X154190359Y-112480359D01*
X154273242Y-112356317D01*
X154302346Y-112210000D01*
X154302346Y-111834760D01*
X154377002Y-111760105D01*
X154468175Y-112218462D01*
X154648122Y-112487771D01*
X154190717Y-112945177D01*
X154190359Y-112944641D01*
X154066317Y-112861758D01*
X153920000Y-112832654D01*
X153420000Y-112832654D01*
X153273683Y-112861758D01*
X153149641Y-112944641D01*
X153066758Y-113068683D01*
X153037654Y-113215000D01*
X153037654Y-114115000D01*
X153066758Y-114261317D01*
X153149641Y-114385359D01*
X153273683Y-114468242D01*
X153420000Y-114497346D01*
X153920000Y-114497346D01*
X154066317Y-114468242D01*
X154190359Y-114385359D01*
X154273242Y-114261317D01*
X154295085Y-114151505D01*
X154373090Y-114135989D01*
X154415202Y-114107851D01*
X154376981Y-114300000D01*
X154468175Y-114758462D01*
X154727873Y-115147127D01*
X155116538Y-115406825D01*
X155459276Y-115475000D01*
X155690724Y-115475000D01*
X156033462Y-115406825D01*
X156422127Y-115147127D01*
X156681825Y-114758462D01*
X156773019Y-114300000D01*
X156681825Y-113841538D01*
X156422127Y-113452873D01*
X156033462Y-113193175D01*
X155690724Y-113125000D01*
X155459276Y-113125000D01*
X155416622Y-113133484D01*
X155615107Y-112935000D01*
X155690724Y-112935000D01*
X156033462Y-112866825D01*
X156422127Y-112607127D01*
X156681825Y-112218462D01*
X156773019Y-111760000D01*
X156681825Y-111301538D01*
X156422127Y-110912873D01*
X156325398Y-110848241D01*
X156338549Y-110828559D01*
X156776001Y-110391108D01*
X156776001Y-120084173D01*
X156693100Y-120401428D01*
X156521339Y-120660493D01*
X156274925Y-120849952D01*
X155962017Y-120955596D01*
X155875957Y-120962524D01*
X155873321Y-120962000D01*
X139993373Y-120962000D01*
X139675917Y-120906024D01*
X139431378Y-120764839D01*
X139249871Y-120548528D01*
X139146419Y-120264295D01*
X139134000Y-120122348D01*
X139134000Y-119380000D01*
X139136981Y-119380000D01*
X139228175Y-119838462D01*
X139487873Y-120227127D01*
X139876538Y-120486825D01*
X140219276Y-120555000D01*
X140450724Y-120555000D01*
X140793462Y-120486825D01*
X141182127Y-120227127D01*
X141441825Y-119838462D01*
X141533019Y-119380000D01*
X141441825Y-118921538D01*
X141182127Y-118532873D01*
X140793462Y-118273175D01*
X140450724Y-118205000D01*
X140219276Y-118205000D01*
X139876538Y-118273175D01*
X139487873Y-118532873D01*
X139228175Y-118921538D01*
X139136981Y-119380000D01*
X139134000Y-119380000D01*
X139134000Y-116840000D01*
X139136981Y-116840000D01*
X139228175Y-117298462D01*
X139487873Y-117687127D01*
X139876538Y-117946825D01*
X140219276Y-118015000D01*
X140450724Y-118015000D01*
X140793462Y-117946825D01*
X141182127Y-117687127D01*
X141441825Y-117298462D01*
X141533019Y-116840000D01*
X141441825Y-116381538D01*
X141182127Y-115992873D01*
X140793462Y-115733175D01*
X140450724Y-115665000D01*
X140219276Y-115665000D01*
X139876538Y-115733175D01*
X139487873Y-115992873D01*
X139228175Y-116381538D01*
X139136981Y-116840000D01*
X139134000Y-116840000D01*
X139134000Y-114300000D01*
X139136981Y-114300000D01*
X139228175Y-114758462D01*
X139487873Y-115147127D01*
X139876538Y-115406825D01*
X140219276Y-115475000D01*
X140450724Y-115475000D01*
X140793462Y-115406825D01*
X141182127Y-115147127D01*
X141441825Y-114758462D01*
X141533019Y-114300000D01*
X141441825Y-113841538D01*
X141182127Y-113452873D01*
X140793462Y-113193175D01*
X140450724Y-113125000D01*
X140219276Y-113125000D01*
X139876538Y-113193175D01*
X139487873Y-113452873D01*
X139228175Y-113841538D01*
X139136981Y-114300000D01*
X139134000Y-114300000D01*
X139134000Y-106680000D01*
X139136981Y-106680000D01*
X139228175Y-107138462D01*
X139487873Y-107527127D01*
X139876538Y-107786825D01*
X140219276Y-107855000D01*
X140450724Y-107855000D01*
X140793462Y-107786825D01*
X141182127Y-107527127D01*
X141441825Y-107138462D01*
X141533019Y-106680000D01*
X141441825Y-106221538D01*
X141182127Y-105832873D01*
X140793462Y-105573175D01*
X140450724Y-105505000D01*
X140219276Y-105505000D01*
X139876538Y-105573175D01*
X139487873Y-105832873D01*
X139228175Y-106221538D01*
X139136981Y-106680000D01*
X139134000Y-106680000D01*
X139134000Y-99317512D01*
X139188565Y-99317512D01*
X139342254Y-99688568D01*
X139658365Y-100020628D01*
X140077487Y-100206442D01*
X140260000Y-100138861D01*
X140260000Y-99135000D01*
X139256354Y-99135000D01*
X139188565Y-99317512D01*
X139134000Y-99317512D01*
X139134000Y-98802488D01*
X139188565Y-98802488D01*
X139256354Y-98985000D01*
X140260000Y-98985000D01*
X140260000Y-97981139D01*
X140077487Y-97913558D01*
X139658365Y-98099372D01*
X139342254Y-98431432D01*
X139188565Y-98802488D01*
X139134000Y-98802488D01*
X139134000Y-96520000D01*
X139136981Y-96520000D01*
X139228175Y-96978462D01*
X139487873Y-97367127D01*
X139876538Y-97626825D01*
X140219276Y-97695000D01*
X140450724Y-97695000D01*
X140793462Y-97626825D01*
X141182127Y-97367127D01*
X141441825Y-96978462D01*
X141533019Y-96520000D01*
X141441825Y-96061538D01*
X141182127Y-95672873D01*
X140793462Y-95413175D01*
X140450724Y-95345000D01*
X140219276Y-95345000D01*
X139876538Y-95413175D01*
X139487873Y-95672873D01*
X139228175Y-96061538D01*
X139136981Y-96520000D01*
X139134000Y-96520000D01*
X139134000Y-93980000D01*
X139136981Y-93980000D01*
X139228175Y-94438462D01*
X139487873Y-94827127D01*
X139876538Y-95086825D01*
X140219276Y-95155000D01*
X140450724Y-95155000D01*
X140793462Y-95086825D01*
X141182127Y-94827127D01*
X141441825Y-94438462D01*
X141533019Y-93980000D01*
X141441825Y-93521538D01*
X141182127Y-93132873D01*
X140793462Y-92873175D01*
X140450724Y-92805000D01*
X140219276Y-92805000D01*
X139876538Y-92873175D01*
X139487873Y-93132873D01*
X139228175Y-93521538D01*
X139136981Y-93980000D01*
X139134000Y-93980000D01*
X139134000Y-85637372D01*
X139189976Y-85319917D01*
X139331161Y-85075378D01*
X139547472Y-84893871D01*
X139711966Y-84834000D01*
X146587163Y-84834000D01*
X146611396Y-84892501D01*
X146611396Y-84892501D01*
G37*
X146611396Y-84892501D02*
X146642176Y-84966813D01*
X146642179Y-84966816D01*
X146814960Y-85225400D01*
X146381105Y-85225400D01*
X146329399Y-85215115D01*
X146277693Y-85225400D01*
X144476106Y-85225400D01*
X144424400Y-85215115D01*
X144372694Y-85225400D01*
X142977505Y-85225400D01*
X142925799Y-85215115D01*
X142823242Y-85235515D01*
X142720955Y-85255861D01*
X142547296Y-85371896D01*
X142526948Y-85402348D01*
X142496496Y-85422696D01*
X142428241Y-85524848D01*
X142395019Y-85444643D01*
X142205139Y-85254763D01*
X141957048Y-85152000D01*
X141688516Y-85152000D01*
X141440425Y-85254763D01*
X141405434Y-85289754D01*
X141405359Y-85289641D01*
X141281317Y-85206758D01*
X141135000Y-85177654D01*
X139535000Y-85177654D01*
X139388683Y-85206758D01*
X139264641Y-85289641D01*
X139181758Y-85413683D01*
X139152654Y-85560000D01*
X139152654Y-87160000D01*
X139181758Y-87306317D01*
X139264641Y-87430359D01*
X139388683Y-87513242D01*
X139535000Y-87542346D01*
X141046617Y-87542346D01*
X141006950Y-87741765D01*
X141017236Y-87793476D01*
X141017236Y-87942696D01*
X140793462Y-87793175D01*
X140450724Y-87725000D01*
X140219276Y-87725000D01*
X139876538Y-87793175D01*
X139487873Y-88052873D01*
X139228175Y-88441538D01*
X139136981Y-88900000D01*
X139228175Y-89358462D01*
X139487873Y-89747127D01*
X139876538Y-90006825D01*
X140219276Y-90075000D01*
X140450724Y-90075000D01*
X140793462Y-90006825D01*
X141017235Y-89857304D01*
X141017235Y-90015303D01*
X140714975Y-90317563D01*
X140450724Y-90265000D01*
X140219276Y-90265000D01*
X139876538Y-90333175D01*
X139487873Y-90592873D01*
X139228175Y-90981538D01*
X139136981Y-91440000D01*
X139228175Y-91898462D01*
X139487873Y-92287127D01*
X139876538Y-92546825D01*
X140219276Y-92615000D01*
X140450724Y-92615000D01*
X140793462Y-92546825D01*
X141182127Y-92287127D01*
X141441825Y-91898462D01*
X141533019Y-91440000D01*
X141457437Y-91060025D01*
X141876903Y-90640559D01*
X141920739Y-90611269D01*
X142036774Y-90437610D01*
X142043263Y-90404989D01*
X142077520Y-90232766D01*
X142067235Y-90181060D01*
X142067235Y-87959226D01*
X142125000Y-87901461D01*
X142125000Y-87959002D01*
X142218748Y-87959002D01*
X142125000Y-88052750D01*
X142125000Y-88358592D01*
X142182090Y-88496420D01*
X142287579Y-88601910D01*
X142422994Y-88658000D01*
X142287579Y-88714090D01*
X142182090Y-88819580D01*
X142125000Y-88957408D01*
X142125000Y-89263250D01*
X142218750Y-89357000D01*
X142800000Y-89357000D01*
X142800000Y-88750750D01*
X142707250Y-88658000D01*
X142800000Y-88565250D01*
X142800000Y-87959000D01*
X142950000Y-87959000D01*
X142950000Y-88565250D01*
X143042750Y-88658000D01*
X142950000Y-88750750D01*
X142950000Y-89357000D01*
X143531250Y-89357000D01*
X143625000Y-89263250D01*
X143625000Y-88957408D01*
X143567910Y-88819580D01*
X143462421Y-88714090D01*
X143327006Y-88658000D01*
X143462421Y-88601910D01*
X143567910Y-88496420D01*
X143625000Y-88358592D01*
X143625000Y-88052750D01*
X143531250Y-87959000D01*
X142950000Y-87959000D01*
X142800000Y-87959000D01*
X142780000Y-87959000D01*
X142780000Y-87809000D01*
X142800000Y-87809000D01*
X142800000Y-87789000D01*
X142950000Y-87789000D01*
X142950000Y-87809000D01*
X143531250Y-87809000D01*
X143625000Y-87715250D01*
X143625000Y-87409408D01*
X143567910Y-87271580D01*
X143462421Y-87166090D01*
X143393924Y-87137718D01*
X143396317Y-87137242D01*
X143520359Y-87054359D01*
X143603242Y-86930317D01*
X143632346Y-86784000D01*
X143632346Y-86275400D01*
X143727283Y-86275400D01*
X143725758Y-86277683D01*
X143696654Y-86424000D01*
X143696654Y-87484000D01*
X143725758Y-87630317D01*
X143808641Y-87754359D01*
X143932683Y-87837242D01*
X144079000Y-87866346D01*
X144729000Y-87866346D01*
X144875317Y-87837242D01*
X144885482Y-87830450D01*
X144954408Y-87859000D01*
X145185250Y-87859000D01*
X145279000Y-87765250D01*
X145279000Y-87029000D01*
X145259000Y-87029000D01*
X145259000Y-86879000D01*
X145279000Y-86879000D01*
X145279000Y-86859000D01*
X145429000Y-86859000D01*
X145429000Y-86879000D01*
X145449000Y-86879000D01*
X145449000Y-87029000D01*
X145429000Y-87029000D01*
X145429000Y-87765250D01*
X145522750Y-87859000D01*
X145753592Y-87859000D01*
X145822518Y-87830450D01*
X145832683Y-87837242D01*
X145979000Y-87866346D01*
X146629000Y-87866346D01*
X146775317Y-87837242D01*
X146899359Y-87754359D01*
X146982242Y-87630317D01*
X147011346Y-87484000D01*
X147011346Y-87179408D01*
X147205000Y-87179408D01*
X147205000Y-87485250D01*
X147298750Y-87579000D01*
X147880000Y-87579000D01*
X147880000Y-86972750D01*
X148030000Y-86972750D01*
X148030000Y-87579000D01*
X148611250Y-87579000D01*
X148705000Y-87485250D01*
X148705000Y-87179408D01*
X148792500Y-87179408D01*
X148792500Y-87485250D01*
X148886250Y-87579000D01*
X149467500Y-87579000D01*
X149467500Y-86972750D01*
X149617500Y-86972750D01*
X149617500Y-87579000D01*
X150198750Y-87579000D01*
X150292500Y-87485250D01*
X150292500Y-87179408D01*
X150235410Y-87041580D01*
X150129921Y-86936090D01*
X149992092Y-86879000D01*
X149711250Y-86879000D01*
X149617500Y-86972750D01*
X149467500Y-86972750D01*
X149373750Y-86879000D01*
X149092908Y-86879000D01*
X148955079Y-86936090D01*
X148849590Y-87041580D01*
X148792500Y-87179408D01*
X148705000Y-87179408D01*
X148647910Y-87041580D01*
X148542421Y-86936090D01*
X148404592Y-86879000D01*
X148123750Y-86879000D01*
X148030000Y-86972750D01*
X147880000Y-86972750D01*
X147786250Y-86879000D01*
X147505408Y-86879000D01*
X147367579Y-86936090D01*
X147262090Y-87041580D01*
X147205000Y-87179408D01*
X147011346Y-87179408D01*
X147011346Y-86424000D01*
X146982242Y-86277683D01*
X146980717Y-86275400D01*
X150519283Y-86275400D01*
X150517758Y-86277683D01*
X150488654Y-86424000D01*
X150488654Y-87484000D01*
X150517758Y-87630317D01*
X150600641Y-87754359D01*
X150724683Y-87837242D01*
X150871000Y-87866346D01*
X151521000Y-87866346D01*
X151667317Y-87837242D01*
X151677482Y-87830450D01*
X151746408Y-87859000D01*
X151977250Y-87859000D01*
X152071000Y-87765250D01*
X152071000Y-87029000D01*
X152051000Y-87029000D01*
X152051000Y-86879000D01*
X152071000Y-86879000D01*
X152071000Y-86859000D01*
X152221000Y-86859000D01*
X152221000Y-86879000D01*
X152241000Y-86879000D01*
X152241000Y-87029000D01*
X152221000Y-87029000D01*
X152221000Y-87765250D01*
X152314750Y-87859000D01*
X152545592Y-87859000D01*
X152614518Y-87830450D01*
X152624683Y-87837242D01*
X152771000Y-87866346D01*
X153421000Y-87866346D01*
X153567317Y-87837242D01*
X153691359Y-87754359D01*
X153774242Y-87630317D01*
X153803346Y-87484000D01*
X153803346Y-86424000D01*
X153790616Y-86360000D01*
X154376981Y-86360000D01*
X154468175Y-86818462D01*
X154727873Y-87207127D01*
X155116538Y-87466825D01*
X155459276Y-87535000D01*
X155690724Y-87535000D01*
X156033462Y-87466825D01*
X156422127Y-87207127D01*
X156681825Y-86818462D01*
X156773019Y-86360000D01*
X156681825Y-85901538D01*
X156422127Y-85512873D01*
X156033462Y-85253175D01*
X155690724Y-85185000D01*
X155459276Y-85185000D01*
X155116538Y-85253175D01*
X154727873Y-85512873D01*
X154468175Y-85901538D01*
X154376981Y-86360000D01*
X153790616Y-86360000D01*
X153774242Y-86277683D01*
X153691359Y-86153641D01*
X153628877Y-86111891D01*
X153590539Y-85919155D01*
X153560177Y-85873715D01*
X153474504Y-85745496D01*
X153430667Y-85716205D01*
X153130196Y-85415735D01*
X153100904Y-85371896D01*
X152927245Y-85255861D01*
X152774106Y-85225400D01*
X152722400Y-85215115D01*
X152670694Y-85225400D01*
X151232506Y-85225400D01*
X151180800Y-85215115D01*
X151129094Y-85225400D01*
X149095040Y-85225400D01*
X149267821Y-84966816D01*
X149267824Y-84966813D01*
X149298604Y-84892501D01*
X149322837Y-84834000D01*
X156234125Y-84834000D01*
X156478622Y-84975161D01*
X156660129Y-85191472D01*
X156763581Y-85475703D01*
X156776000Y-85617651D01*
X156776001Y-108048892D01*
X156321483Y-107594375D01*
X156422127Y-107527127D01*
X156681825Y-107138462D01*
X156773019Y-106680000D01*
X156681825Y-106221538D01*
X156422127Y-105832873D01*
X156033462Y-105573175D01*
X155690724Y-105505000D01*
X155459276Y-105505000D01*
X155116538Y-105573175D01*
X154727873Y-105832873D01*
X154468175Y-106221538D01*
X154376981Y-106680000D01*
X154468175Y-107138462D01*
X154727873Y-107527127D01*
X155116538Y-107786825D01*
X155128259Y-107789156D01*
X155214520Y-107918257D01*
X155256271Y-107946154D01*
X155372398Y-108062281D01*
X155116538Y-108113175D01*
X154727873Y-108372873D01*
X154468175Y-108761538D01*
X154376981Y-109220000D01*
X154468175Y-109678462D01*
X154713944Y-110046281D01*
X154559691Y-110149349D01*
X154531797Y-110191096D01*
X154083463Y-110639430D01*
X153995735Y-110427637D01*
X153885535Y-110317437D01*
X153939921Y-110294910D01*
X154045410Y-110189420D01*
X154102500Y-110051592D01*
X154102500Y-109745750D01*
X154008750Y-109652000D01*
X153427500Y-109652000D01*
X153427500Y-109672000D01*
X153277500Y-109672000D01*
X153277500Y-109652000D01*
X153257500Y-109652000D01*
X153257500Y-109502000D01*
X153277500Y-109502000D01*
X153277500Y-109482000D01*
X153427500Y-109482000D01*
X153427500Y-109502000D01*
X154008750Y-109502000D01*
X154102500Y-109408250D01*
X154102500Y-109102408D01*
X154045410Y-108964580D01*
X153939921Y-108859090D01*
X153871424Y-108830718D01*
X153873817Y-108830242D01*
X153997859Y-108747359D01*
X154080742Y-108623317D01*
X154109846Y-108477000D01*
X154109846Y-107677000D01*
X154080742Y-107530683D01*
X153997859Y-107406641D01*
X153877500Y-107326219D01*
X153877500Y-106831113D01*
X153887785Y-106779407D01*
X153847039Y-106574563D01*
X153817538Y-106530412D01*
X153731004Y-106400904D01*
X153687167Y-106371614D01*
X153646300Y-106330746D01*
X154170000Y-106330746D01*
X154316317Y-106301642D01*
X154440359Y-106218759D01*
X154523242Y-106094717D01*
X154552346Y-105948400D01*
X154552346Y-105698400D01*
X154526392Y-105567917D01*
X154545000Y-105522992D01*
X154545000Y-105479650D01*
X154451250Y-105385900D01*
X154377291Y-105385900D01*
X154316317Y-105345158D01*
X154206931Y-105323400D01*
X154316317Y-105301642D01*
X154377291Y-105260900D01*
X154451250Y-105260900D01*
X154545000Y-105167150D01*
X154545000Y-105123808D01*
X154526392Y-105078883D01*
X154552346Y-104948400D01*
X154552346Y-104724433D01*
X154727873Y-104987127D01*
X155116538Y-105246825D01*
X155459276Y-105315000D01*
X155690724Y-105315000D01*
X156033462Y-105246825D01*
X156422127Y-104987127D01*
X156681825Y-104598462D01*
X156773019Y-104140000D01*
X156681825Y-103681538D01*
X156422127Y-103292873D01*
X156033462Y-103033175D01*
X155690724Y-102965000D01*
X155459276Y-102965000D01*
X155116538Y-103033175D01*
X154727873Y-103292873D01*
X154530453Y-103588333D01*
X154527482Y-103573400D01*
X154552346Y-103448400D01*
X154552346Y-103198400D01*
X154527482Y-103073400D01*
X154552346Y-102948400D01*
X154552346Y-102698400D01*
X154527482Y-102573400D01*
X154552346Y-102448400D01*
X154552346Y-102198400D01*
X154548390Y-102178512D01*
X154727873Y-102447127D01*
X155116538Y-102706825D01*
X155459276Y-102775000D01*
X155690724Y-102775000D01*
X156033462Y-102706825D01*
X156422127Y-102447127D01*
X156681825Y-102058462D01*
X156773019Y-101600000D01*
X156681825Y-101141538D01*
X156422127Y-100752873D01*
X156033462Y-100493175D01*
X155690724Y-100425000D01*
X155459276Y-100425000D01*
X155116538Y-100493175D01*
X154727873Y-100752873D01*
X154533323Y-101044038D01*
X154552346Y-100948400D01*
X154552346Y-100698400D01*
X154526392Y-100567917D01*
X154545000Y-100522992D01*
X154545000Y-100479650D01*
X154451250Y-100385900D01*
X154377291Y-100385900D01*
X154316317Y-100345158D01*
X154206931Y-100323400D01*
X154316317Y-100301642D01*
X154377291Y-100260900D01*
X154451250Y-100260900D01*
X154545000Y-100167150D01*
X154545000Y-100123808D01*
X154526392Y-100078883D01*
X154552346Y-99948400D01*
X154552346Y-99698400D01*
X154537061Y-99621557D01*
X154727873Y-99907127D01*
X155116538Y-100166825D01*
X155459276Y-100235000D01*
X155690724Y-100235000D01*
X156033462Y-100166825D01*
X156422127Y-99907127D01*
X156681825Y-99518462D01*
X156773019Y-99060000D01*
X156681825Y-98601538D01*
X156422127Y-98212873D01*
X156033462Y-97953175D01*
X155690724Y-97885000D01*
X155459276Y-97885000D01*
X155116538Y-97953175D01*
X154995001Y-98034384D01*
X154995001Y-97987642D01*
X155004796Y-97938399D01*
X154988822Y-97858090D01*
X154965990Y-97743309D01*
X154855481Y-97577919D01*
X154830400Y-97561161D01*
X154830400Y-97435633D01*
X155116538Y-97626825D01*
X155459276Y-97695000D01*
X155690724Y-97695000D01*
X156033462Y-97626825D01*
X156422127Y-97367127D01*
X156681825Y-96978462D01*
X156773019Y-96520000D01*
X156681825Y-96061538D01*
X156422127Y-95672873D01*
X156033462Y-95413175D01*
X155690724Y-95345000D01*
X155459276Y-95345000D01*
X155116538Y-95413175D01*
X154727873Y-95672873D01*
X154543105Y-95949398D01*
X154119200Y-95525494D01*
X154119200Y-95372482D01*
X154140517Y-95368242D01*
X154264559Y-95285359D01*
X154347442Y-95161317D01*
X154376546Y-95015000D01*
X154376546Y-94215000D01*
X154347442Y-94068683D01*
X154288186Y-93980000D01*
X154376981Y-93980000D01*
X154468175Y-94438462D01*
X154727873Y-94827127D01*
X155116538Y-95086825D01*
X155459276Y-95155000D01*
X155690724Y-95155000D01*
X156033462Y-95086825D01*
X156422127Y-94827127D01*
X156681825Y-94438462D01*
X156773019Y-93980000D01*
X156681825Y-93521538D01*
X156422127Y-93132873D01*
X156033462Y-92873175D01*
X155690724Y-92805000D01*
X155459276Y-92805000D01*
X155116538Y-92873175D01*
X154727873Y-93132873D01*
X154468175Y-93521538D01*
X154376981Y-93980000D01*
X154288186Y-93980000D01*
X154264559Y-93944641D01*
X154140517Y-93861758D01*
X154138124Y-93861282D01*
X154206621Y-93832910D01*
X154312110Y-93727420D01*
X154369200Y-93589592D01*
X154369200Y-93283750D01*
X154275450Y-93190000D01*
X153694200Y-93190000D01*
X153694200Y-93210000D01*
X153544200Y-93210000D01*
X153544200Y-93190000D01*
X152962950Y-93190000D01*
X152869200Y-93283750D01*
X152869200Y-93589592D01*
X152926290Y-93727420D01*
X153031779Y-93832910D01*
X153100276Y-93861282D01*
X153097883Y-93861758D01*
X152973841Y-93944641D01*
X152890958Y-94068683D01*
X152861854Y-94215000D01*
X152861854Y-95015000D01*
X152890958Y-95161317D01*
X152973841Y-95285359D01*
X153097883Y-95368242D01*
X153119201Y-95372482D01*
X153119201Y-95653860D01*
X152964310Y-95653860D01*
X152716219Y-95756623D01*
X152599442Y-95873400D01*
X152227346Y-95873400D01*
X152198242Y-95727083D01*
X152115359Y-95603041D01*
X151991317Y-95520158D01*
X151845000Y-95491054D01*
X151595000Y-95491054D01*
X151470000Y-95515918D01*
X151345000Y-95491054D01*
X151095000Y-95491054D01*
X150970000Y-95515918D01*
X150845000Y-95491054D01*
X150595000Y-95491054D01*
X150470000Y-95515918D01*
X150345000Y-95491054D01*
X150243274Y-95491054D01*
X150338585Y-95260954D01*
X150338585Y-95109278D01*
X150465710Y-95109278D01*
X150713801Y-95006515D01*
X150903681Y-94816635D01*
X150906781Y-94809150D01*
X151015000Y-94809150D01*
X151015000Y-95114992D01*
X151072090Y-95252820D01*
X151177579Y-95358310D01*
X151315408Y-95415400D01*
X151596250Y-95415400D01*
X151690000Y-95321650D01*
X151690000Y-94715400D01*
X151840000Y-94715400D01*
X151840000Y-95321650D01*
X151933750Y-95415400D01*
X152214592Y-95415400D01*
X152352421Y-95358310D01*
X152457910Y-95252820D01*
X152515000Y-95114992D01*
X152515000Y-94809150D01*
X152421250Y-94715400D01*
X151840000Y-94715400D01*
X151690000Y-94715400D01*
X151108750Y-94715400D01*
X151015000Y-94809150D01*
X150906781Y-94809150D01*
X151006444Y-94568544D01*
X151006444Y-94300012D01*
X150903681Y-94051921D01*
X150713801Y-93862041D01*
X150465710Y-93759278D01*
X150385400Y-93759278D01*
X150385400Y-91081794D01*
X150432444Y-91034750D01*
X150694000Y-91034750D01*
X150694000Y-91315592D01*
X150751090Y-91453421D01*
X150856580Y-91558910D01*
X150994408Y-91616000D01*
X151300250Y-91616000D01*
X151393998Y-91522252D01*
X151393998Y-91578532D01*
X151356449Y-91669183D01*
X151356449Y-91736364D01*
X151354706Y-91738973D01*
X151270461Y-91865054D01*
X151229715Y-92069898D01*
X151240001Y-92121609D01*
X151240001Y-92389618D01*
X151119641Y-92470041D01*
X151036758Y-92594083D01*
X151007654Y-92740400D01*
X151007654Y-93540400D01*
X151036758Y-93686717D01*
X151119641Y-93810759D01*
X151243683Y-93893642D01*
X151246076Y-93894118D01*
X151177579Y-93922490D01*
X151072090Y-94027980D01*
X151015000Y-94165808D01*
X151015000Y-94471650D01*
X151108750Y-94565400D01*
X151690000Y-94565400D01*
X151690000Y-94545400D01*
X151840000Y-94545400D01*
X151840000Y-94565400D01*
X152421250Y-94565400D01*
X152515000Y-94471650D01*
X152515000Y-94165808D01*
X152457910Y-94027980D01*
X152352421Y-93922490D01*
X152283924Y-93894118D01*
X152286317Y-93893642D01*
X152410359Y-93810759D01*
X152493242Y-93686717D01*
X152522346Y-93540400D01*
X152522346Y-92740400D01*
X152502457Y-92640408D01*
X152869200Y-92640408D01*
X152869200Y-92946250D01*
X152962950Y-93040000D01*
X153544200Y-93040000D01*
X153544200Y-92433750D01*
X153694200Y-92433750D01*
X153694200Y-93040000D01*
X154275450Y-93040000D01*
X154369200Y-92946250D01*
X154369200Y-92640408D01*
X154312110Y-92502580D01*
X154206621Y-92397090D01*
X154068792Y-92340000D01*
X153787950Y-92340000D01*
X153694200Y-92433750D01*
X153544200Y-92433750D01*
X153450450Y-92340000D01*
X153169608Y-92340000D01*
X153031779Y-92397090D01*
X152926290Y-92502580D01*
X152869200Y-92640408D01*
X152502457Y-92640408D01*
X152493242Y-92594083D01*
X152410359Y-92470041D01*
X152324506Y-92412675D01*
X152413806Y-92375686D01*
X152603686Y-92185806D01*
X152706449Y-91937715D01*
X152706449Y-91846012D01*
X152929116Y-91623346D01*
X153369000Y-91623346D01*
X153515317Y-91594242D01*
X153639359Y-91511359D01*
X153687040Y-91440000D01*
X154376981Y-91440000D01*
X154468175Y-91898462D01*
X154727873Y-92287127D01*
X155116538Y-92546825D01*
X155459276Y-92615000D01*
X155690724Y-92615000D01*
X156033462Y-92546825D01*
X156422127Y-92287127D01*
X156681825Y-91898462D01*
X156773019Y-91440000D01*
X156681825Y-90981538D01*
X156422127Y-90592873D01*
X156033462Y-90333175D01*
X155690724Y-90265000D01*
X155459276Y-90265000D01*
X155116538Y-90333175D01*
X154727873Y-90592873D01*
X154468175Y-90981538D01*
X154376981Y-91440000D01*
X153687040Y-91440000D01*
X153722242Y-91387317D01*
X153751346Y-91241000D01*
X153751346Y-90491000D01*
X153722242Y-90344683D01*
X153639359Y-90220641D01*
X153621000Y-90208374D01*
X153621000Y-90001372D01*
X153691359Y-89954359D01*
X153774242Y-89830317D01*
X153803346Y-89684000D01*
X153803346Y-88900000D01*
X154376981Y-88900000D01*
X154468175Y-89358462D01*
X154727873Y-89747127D01*
X155116538Y-90006825D01*
X155459276Y-90075000D01*
X155690724Y-90075000D01*
X156033462Y-90006825D01*
X156422127Y-89747127D01*
X156681825Y-89358462D01*
X156773019Y-88900000D01*
X156681825Y-88441538D01*
X156422127Y-88052873D01*
X156033462Y-87793175D01*
X155690724Y-87725000D01*
X155459276Y-87725000D01*
X155116538Y-87793175D01*
X154727873Y-88052873D01*
X154468175Y-88441538D01*
X154376981Y-88900000D01*
X153803346Y-88900000D01*
X153803346Y-88624000D01*
X153774242Y-88477683D01*
X153691359Y-88353641D01*
X153567317Y-88270758D01*
X153421000Y-88241654D01*
X152771000Y-88241654D01*
X152624683Y-88270758D01*
X152500641Y-88353641D01*
X152417758Y-88477683D01*
X152388654Y-88624000D01*
X152388654Y-89684000D01*
X152417758Y-89830317D01*
X152500641Y-89954359D01*
X152571001Y-90001372D01*
X152571001Y-90108654D01*
X152569000Y-90108654D01*
X152422683Y-90137758D01*
X152298641Y-90220641D01*
X152215758Y-90344683D01*
X152215282Y-90347076D01*
X152186910Y-90278579D01*
X152081420Y-90173090D01*
X151943592Y-90116000D01*
X151637750Y-90116000D01*
X151544000Y-90209750D01*
X151544000Y-90791000D01*
X151564000Y-90791000D01*
X151564000Y-90941000D01*
X151544000Y-90941000D01*
X151544000Y-90961000D01*
X151394000Y-90961000D01*
X151394000Y-90941000D01*
X150787750Y-90941000D01*
X150694000Y-91034750D01*
X150432444Y-91034750D01*
X150457637Y-91009557D01*
X150560400Y-90761466D01*
X150560400Y-90492934D01*
X150528702Y-90416408D01*
X150694000Y-90416408D01*
X150694000Y-90697250D01*
X150787750Y-90791000D01*
X151394000Y-90791000D01*
X151394000Y-90209750D01*
X151300250Y-90116000D01*
X150994408Y-90116000D01*
X150856580Y-90173090D01*
X150751090Y-90278579D01*
X150694000Y-90416408D01*
X150528702Y-90416408D01*
X150457637Y-90244843D01*
X150267757Y-90054963D01*
X150019666Y-89952200D01*
X149751134Y-89952200D01*
X149503043Y-90054963D01*
X149313163Y-90244843D01*
X149210400Y-90492934D01*
X149210400Y-90761466D01*
X149313163Y-91009557D01*
X149385400Y-91081794D01*
X149385400Y-91276440D01*
X149385401Y-91276445D01*
X149385400Y-93938993D01*
X149375605Y-93988234D01*
X149385400Y-94037475D01*
X149385400Y-94037476D01*
X149411204Y-94167200D01*
X147791800Y-92547797D01*
X147791800Y-92347136D01*
X147689037Y-92099045D01*
X147499157Y-91909165D01*
X147251066Y-91806402D01*
X146982534Y-91806402D01*
X146734443Y-91909165D01*
X146544563Y-92099045D01*
X146441800Y-92347136D01*
X146441800Y-92615668D01*
X146544563Y-92863759D01*
X146734443Y-93053639D01*
X146982534Y-93156402D01*
X146986193Y-93156402D01*
X148706792Y-94877002D01*
X146910994Y-94877002D01*
X146838757Y-94804765D01*
X146590666Y-94702002D01*
X146322134Y-94702002D01*
X146172346Y-94764046D01*
X146172346Y-94215000D01*
X146143242Y-94068683D01*
X146060359Y-93944641D01*
X145936317Y-93861758D01*
X145933924Y-93861282D01*
X146002421Y-93832910D01*
X146107910Y-93727420D01*
X146165000Y-93589592D01*
X146165000Y-93283750D01*
X146071250Y-93190000D01*
X145490000Y-93190000D01*
X145490000Y-93210000D01*
X145340000Y-93210000D01*
X145340000Y-93190000D01*
X144758750Y-93190000D01*
X144665000Y-93283750D01*
X144665000Y-93589592D01*
X144722090Y-93727420D01*
X144827579Y-93832910D01*
X144896076Y-93861282D01*
X144893683Y-93861758D01*
X144769641Y-93944641D01*
X144686758Y-94068683D01*
X144657654Y-94215000D01*
X144657654Y-94665240D01*
X144480178Y-94842716D01*
X144267346Y-94629884D01*
X144267346Y-94215000D01*
X144238242Y-94068683D01*
X144155359Y-93944641D01*
X144031317Y-93861758D01*
X144028924Y-93861282D01*
X144097421Y-93832910D01*
X144202910Y-93727420D01*
X144260000Y-93589592D01*
X144260000Y-93283750D01*
X144166250Y-93190000D01*
X143585000Y-93190000D01*
X143585000Y-93210000D01*
X143435000Y-93210000D01*
X143435000Y-93190000D01*
X143415000Y-93190000D01*
X143415000Y-93040000D01*
X143435000Y-93040000D01*
X143435000Y-93020000D01*
X143585000Y-93020000D01*
X143585000Y-93040000D01*
X144166250Y-93040000D01*
X144260000Y-92946250D01*
X144260000Y-92758511D01*
X144665000Y-92758511D01*
X144665000Y-92946250D01*
X144758750Y-93040000D01*
X145340000Y-93040000D01*
X145340000Y-93020000D01*
X145490000Y-93020000D01*
X145490000Y-93040000D01*
X146071250Y-93040000D01*
X146165000Y-92946250D01*
X146165000Y-92640408D01*
X146107910Y-92502580D01*
X146002421Y-92397090D01*
X145864592Y-92340000D01*
X145613461Y-92340000D01*
X146264116Y-91689346D01*
X146704000Y-91689346D01*
X146850317Y-91660242D01*
X146974359Y-91577359D01*
X147057242Y-91453317D01*
X147086346Y-91307000D01*
X147086346Y-90557000D01*
X147057242Y-90410683D01*
X146974359Y-90286641D01*
X146850317Y-90203758D01*
X146829000Y-90199518D01*
X146829000Y-90001372D01*
X146899359Y-89954359D01*
X146982242Y-89830317D01*
X147011346Y-89684000D01*
X147011346Y-89679000D01*
X147222518Y-89679000D01*
X147226758Y-89700317D01*
X147309641Y-89824359D01*
X147433683Y-89907242D01*
X147580000Y-89936346D01*
X148330000Y-89936346D01*
X148476317Y-89907242D01*
X148600359Y-89824359D01*
X148683242Y-89700317D01*
X148712346Y-89554000D01*
X148712346Y-88754000D01*
X148785154Y-88754000D01*
X148785154Y-89554000D01*
X148814258Y-89700317D01*
X148897141Y-89824359D01*
X149021183Y-89907242D01*
X149167500Y-89936346D01*
X149917500Y-89936346D01*
X150063817Y-89907242D01*
X150187859Y-89824359D01*
X150270742Y-89700317D01*
X150279955Y-89654000D01*
X150488654Y-89654000D01*
X150488654Y-89684000D01*
X150517758Y-89830317D01*
X150600641Y-89954359D01*
X150724683Y-90037242D01*
X150871000Y-90066346D01*
X151521000Y-90066346D01*
X151667317Y-90037242D01*
X151791359Y-89954359D01*
X151874242Y-89830317D01*
X151903346Y-89684000D01*
X151903346Y-88624000D01*
X151874242Y-88477683D01*
X151791359Y-88353641D01*
X151667317Y-88270758D01*
X151521000Y-88241654D01*
X150871000Y-88241654D01*
X150724683Y-88270758D01*
X150600641Y-88353641D01*
X150517758Y-88477683D01*
X150488654Y-88624000D01*
X150488654Y-88654000D01*
X150279955Y-88654000D01*
X150270742Y-88607683D01*
X150187859Y-88483641D01*
X150063817Y-88400758D01*
X150061424Y-88400282D01*
X150129921Y-88371910D01*
X150235410Y-88266420D01*
X150292500Y-88128592D01*
X150292500Y-87822750D01*
X150198750Y-87729000D01*
X149617500Y-87729000D01*
X149617500Y-87749000D01*
X149467500Y-87749000D01*
X149467500Y-87729000D01*
X148886250Y-87729000D01*
X148792500Y-87822750D01*
X148792500Y-88128592D01*
X148849590Y-88266420D01*
X148955079Y-88371910D01*
X149023576Y-88400282D01*
X149021183Y-88400758D01*
X148897141Y-88483641D01*
X148814258Y-88607683D01*
X148785154Y-88754000D01*
X148712346Y-88754000D01*
X148683242Y-88607683D01*
X148600359Y-88483641D01*
X148476317Y-88400758D01*
X148473924Y-88400282D01*
X148542421Y-88371910D01*
X148647910Y-88266420D01*
X148705000Y-88128592D01*
X148705000Y-87822750D01*
X148611250Y-87729000D01*
X148030000Y-87729000D01*
X148030000Y-87749000D01*
X147880000Y-87749000D01*
X147880000Y-87729000D01*
X147298750Y-87729000D01*
X147205000Y-87822750D01*
X147205000Y-88128592D01*
X147262090Y-88266420D01*
X147367579Y-88371910D01*
X147436076Y-88400282D01*
X147433683Y-88400758D01*
X147309641Y-88483641D01*
X147226758Y-88607683D01*
X147222518Y-88629000D01*
X147011346Y-88629000D01*
X147011346Y-88624000D01*
X146982242Y-88477683D01*
X146899359Y-88353641D01*
X146775317Y-88270758D01*
X146629000Y-88241654D01*
X145979000Y-88241654D01*
X145832683Y-88270758D01*
X145708641Y-88353641D01*
X145625758Y-88477683D01*
X145596654Y-88624000D01*
X145596654Y-89684000D01*
X145625758Y-89830317D01*
X145708641Y-89954359D01*
X145779001Y-90001372D01*
X145779000Y-90199518D01*
X145757683Y-90203758D01*
X145633641Y-90286641D01*
X145550758Y-90410683D01*
X145550282Y-90413076D01*
X145521910Y-90344579D01*
X145416420Y-90239090D01*
X145278592Y-90182000D01*
X144972750Y-90182000D01*
X144879002Y-90275748D01*
X144879002Y-90182000D01*
X144839636Y-90182000D01*
X144874989Y-90129090D01*
X144896009Y-90023416D01*
X144999359Y-89954359D01*
X145082242Y-89830317D01*
X145111346Y-89684000D01*
X145111346Y-88624000D01*
X145082242Y-88477683D01*
X144999359Y-88353641D01*
X144875317Y-88270758D01*
X144729000Y-88241654D01*
X144079000Y-88241654D01*
X143932683Y-88270758D01*
X143808641Y-88353641D01*
X143725758Y-88477683D01*
X143696654Y-88624000D01*
X143696654Y-89684000D01*
X143725758Y-89830317D01*
X143742094Y-89854766D01*
X143578849Y-90018012D01*
X143625000Y-89906592D01*
X143625000Y-89600750D01*
X143531250Y-89507000D01*
X142950000Y-89507000D01*
X142950000Y-89527000D01*
X142800000Y-89527000D01*
X142800000Y-89507000D01*
X142218750Y-89507000D01*
X142125000Y-89600750D01*
X142125000Y-89906592D01*
X142182090Y-90044420D01*
X142287579Y-90149910D01*
X142356076Y-90178282D01*
X142353683Y-90178758D01*
X142229641Y-90261641D01*
X142146758Y-90385683D01*
X142117654Y-90532000D01*
X142117654Y-91332000D01*
X142146758Y-91478317D01*
X142229641Y-91602359D01*
X142353683Y-91685242D01*
X142500000Y-91714346D01*
X142751001Y-91714346D01*
X142627197Y-91738972D01*
X142453538Y-91855007D01*
X142424245Y-91898847D01*
X142193553Y-92129539D01*
X142149713Y-92158832D01*
X142033679Y-92332491D01*
X142033678Y-92332492D01*
X141992932Y-92537336D01*
X142003217Y-92589042D01*
X142003218Y-96713063D01*
X141992932Y-96764774D01*
X142033678Y-96969618D01*
X142041027Y-96980616D01*
X142149714Y-97143278D01*
X142193551Y-97172569D01*
X142844382Y-97823400D01*
X142806931Y-97823400D01*
X142770000Y-97816054D01*
X141770000Y-97816054D01*
X141623683Y-97845158D01*
X141499641Y-97928041D01*
X141416758Y-98052083D01*
X141387654Y-98198400D01*
X141387654Y-98448400D01*
X141412518Y-98573400D01*
X141404092Y-98615758D01*
X141327746Y-98431432D01*
X141011635Y-98099372D01*
X140592513Y-97913558D01*
X140410000Y-97981139D01*
X140410000Y-98985000D01*
X140430000Y-98985000D01*
X140430000Y-99135000D01*
X140410000Y-99135000D01*
X140410000Y-100138861D01*
X140592513Y-100206442D01*
X141011635Y-100020628D01*
X141327746Y-99688568D01*
X141400491Y-99512937D01*
X141412518Y-99573400D01*
X141387654Y-99698400D01*
X141387654Y-99948400D01*
X141412518Y-100073400D01*
X141387654Y-100198400D01*
X141387654Y-100448400D01*
X141412518Y-100573400D01*
X141387654Y-100698400D01*
X141387654Y-100948400D01*
X141412518Y-101073400D01*
X141408797Y-101092108D01*
X141182127Y-100752873D01*
X140793462Y-100493175D01*
X140450724Y-100425000D01*
X140219276Y-100425000D01*
X139876538Y-100493175D01*
X139487873Y-100752873D01*
X139228175Y-101141538D01*
X139136981Y-101600000D01*
X139228175Y-102058462D01*
X139487873Y-102447127D01*
X139876538Y-102706825D01*
X140219276Y-102775000D01*
X140450724Y-102775000D01*
X140793462Y-102706825D01*
X141182127Y-102447127D01*
X141395000Y-102128540D01*
X141395000Y-102167150D01*
X141488750Y-102260900D01*
X141562709Y-102260900D01*
X141623683Y-102301642D01*
X141733069Y-102323400D01*
X141623683Y-102345158D01*
X141562709Y-102385900D01*
X141488750Y-102385900D01*
X141395000Y-102479650D01*
X141395000Y-102522992D01*
X141413608Y-102567917D01*
X141387654Y-102698400D01*
X141387654Y-102948400D01*
X141413608Y-103078883D01*
X141395000Y-103123808D01*
X141395000Y-103167150D01*
X141488750Y-103260900D01*
X141562709Y-103260900D01*
X141623683Y-103301642D01*
X141733069Y-103323400D01*
X141623683Y-103345158D01*
X141562709Y-103385900D01*
X141488750Y-103385900D01*
X141395000Y-103479650D01*
X141395000Y-103522992D01*
X141413608Y-103567917D01*
X141402665Y-103622932D01*
X141182127Y-103292873D01*
X140793462Y-103033175D01*
X140450724Y-102965000D01*
X140219276Y-102965000D01*
X139876538Y-103033175D01*
X139487873Y-103292873D01*
X139228175Y-103681538D01*
X139136981Y-104140000D01*
X139228175Y-104598462D01*
X139487873Y-104987127D01*
X139876538Y-105246825D01*
X140219276Y-105315000D01*
X140450724Y-105315000D01*
X140793462Y-105246825D01*
X141182127Y-104987127D01*
X141392997Y-104671538D01*
X141387654Y-104698400D01*
X141387654Y-104948400D01*
X141413608Y-105078883D01*
X141395000Y-105123808D01*
X141395000Y-105167150D01*
X141488750Y-105260900D01*
X141562709Y-105260900D01*
X141623683Y-105301642D01*
X141733069Y-105323400D01*
X141623683Y-105345158D01*
X141562709Y-105385900D01*
X141488750Y-105385900D01*
X141395000Y-105479650D01*
X141395000Y-105522992D01*
X141413608Y-105567917D01*
X141387654Y-105698400D01*
X141387654Y-105948400D01*
X141416758Y-106094717D01*
X141499641Y-106218759D01*
X141623683Y-106301642D01*
X141745000Y-106325773D01*
X141745000Y-106547354D01*
X141734715Y-106599060D01*
X141763037Y-106741446D01*
X141775461Y-106803904D01*
X141891496Y-106977564D01*
X141935335Y-107006856D01*
X142011022Y-107082543D01*
X142011022Y-107319784D01*
X141998083Y-107322358D01*
X141874041Y-107405241D01*
X141791158Y-107529283D01*
X141762054Y-107675600D01*
X141762054Y-108115484D01*
X141311318Y-108566221D01*
X141182127Y-108372873D01*
X140793462Y-108113175D01*
X140450724Y-108045000D01*
X140219276Y-108045000D01*
X139876538Y-108113175D01*
X139487873Y-108372873D01*
X139228175Y-108761538D01*
X139136981Y-109220000D01*
X139228175Y-109678462D01*
X139487873Y-110067127D01*
X139876538Y-110326825D01*
X140219276Y-110395000D01*
X140450724Y-110395000D01*
X140793462Y-110326825D01*
X141054600Y-110152338D01*
X141054600Y-110768494D01*
X141044315Y-110820200D01*
X141044450Y-110820880D01*
X140793462Y-110653175D01*
X140450724Y-110585000D01*
X140219276Y-110585000D01*
X139876538Y-110653175D01*
X139487873Y-110912873D01*
X139228175Y-111301538D01*
X139136981Y-111760000D01*
X139228175Y-112218462D01*
X139487873Y-112607127D01*
X139876538Y-112866825D01*
X140219276Y-112935000D01*
X140450724Y-112935000D01*
X140793462Y-112866825D01*
X141182127Y-112607127D01*
X141441825Y-112218462D01*
X141533019Y-111760000D01*
X141472453Y-111455514D01*
X142121401Y-112104463D01*
X142121400Y-115782654D01*
X141952600Y-115782654D01*
X141806283Y-115811758D01*
X141682241Y-115894641D01*
X141599358Y-116018683D01*
X141570254Y-116165000D01*
X141570254Y-117515000D01*
X141599358Y-117661317D01*
X141682241Y-117785359D01*
X141806283Y-117868242D01*
X141952600Y-117897346D01*
X143302600Y-117897346D01*
X143448917Y-117868242D01*
X143572959Y-117785359D01*
X143655842Y-117661317D01*
X143684946Y-117515000D01*
X143684946Y-117319167D01*
X143870593Y-117597007D01*
X143922762Y-117631865D01*
X143860720Y-117673320D01*
X143832826Y-117715067D01*
X143326987Y-118220906D01*
X142995652Y-118155000D01*
X142754348Y-118155000D01*
X142397029Y-118226075D01*
X141991824Y-118496824D01*
X141721075Y-118902029D01*
X141626001Y-119380000D01*
X141721075Y-119857971D01*
X141991824Y-120263176D01*
X142397029Y-120533925D01*
X142754348Y-120605000D01*
X142995652Y-120605000D01*
X143352971Y-120533925D01*
X143758176Y-120263176D01*
X144028925Y-119857971D01*
X144123999Y-119380000D01*
X144034094Y-118928013D01*
X144428307Y-118533800D01*
X144507117Y-118533800D01*
X144261075Y-118902029D01*
X144166001Y-119380000D01*
X144261075Y-119857971D01*
X144531824Y-120263176D01*
X144937029Y-120533925D01*
X145294348Y-120605000D01*
X145535652Y-120605000D01*
X145892971Y-120533925D01*
X146298176Y-120263176D01*
X146568925Y-119857971D01*
X146663999Y-119380000D01*
X146568925Y-118902029D01*
X146322883Y-118533800D01*
X146864359Y-118533800D01*
X146913600Y-118543595D01*
X146962841Y-118533800D01*
X146962843Y-118533800D01*
X147060035Y-118514467D01*
X146801075Y-118902029D01*
X146706001Y-119380000D01*
X146801075Y-119857971D01*
X147071824Y-120263176D01*
X147477029Y-120533925D01*
X147834348Y-120605000D01*
X148075652Y-120605000D01*
X148432971Y-120533925D01*
X148838176Y-120263176D01*
X149108925Y-119857971D01*
X149151217Y-119645350D01*
X149299077Y-119645350D01*
X149491656Y-120082811D01*
X149836985Y-120413276D01*
X150229651Y-120575916D01*
X150420000Y-120508761D01*
X150420000Y-119455000D01*
X150570000Y-119455000D01*
X150570000Y-120508761D01*
X150760349Y-120575916D01*
X151153015Y-120413276D01*
X151498344Y-120082811D01*
X151690923Y-119645350D01*
X151623959Y-119455000D01*
X150570000Y-119455000D01*
X150420000Y-119455000D01*
X149366041Y-119455000D01*
X149299077Y-119645350D01*
X149151217Y-119645350D01*
X149203999Y-119380000D01*
X149151218Y-119114650D01*
X149299077Y-119114650D01*
X149366041Y-119305000D01*
X150420000Y-119305000D01*
X150420000Y-118251239D01*
X150229651Y-118184084D01*
X149836985Y-118346724D01*
X149491656Y-118677189D01*
X149299077Y-119114650D01*
X149151218Y-119114650D01*
X149108925Y-118902029D01*
X148838176Y-118496824D01*
X148432971Y-118226075D01*
X148075652Y-118155000D01*
X147834348Y-118155000D01*
X147477029Y-118226075D01*
X147330571Y-118323935D01*
X148571307Y-117083200D01*
X148673466Y-117083200D01*
X148921557Y-116980437D01*
X149111437Y-116790557D01*
X149214200Y-116542466D01*
X149214200Y-116273934D01*
X149111437Y-116025843D01*
X148921557Y-115835963D01*
X148673466Y-115733200D01*
X148404934Y-115733200D01*
X148156843Y-115835963D01*
X147966963Y-116025843D01*
X147864200Y-116273934D01*
X147864200Y-116376093D01*
X146706494Y-117533800D01*
X145426841Y-117533800D01*
X145616678Y-117249689D01*
X145698170Y-116840000D01*
X145616678Y-116430311D01*
X145384607Y-116082993D01*
X145131706Y-115914010D01*
X145137396Y-115885406D01*
X145098589Y-115690316D01*
X145096431Y-115687086D01*
X144988080Y-115524926D01*
X144946332Y-115497031D01*
X144568800Y-115119500D01*
X144568800Y-114961200D01*
X144665117Y-114942042D01*
X144789159Y-114859159D01*
X144872042Y-114735117D01*
X144901146Y-114588800D01*
X144901146Y-114413560D01*
X146114907Y-113199800D01*
X147094006Y-113199800D01*
X147166243Y-113272037D01*
X147414334Y-113374800D01*
X147682866Y-113374800D01*
X147930957Y-113272037D01*
X148120837Y-113082157D01*
X148223600Y-112834066D01*
X148223600Y-112565534D01*
X148120837Y-112317443D01*
X147930957Y-112127563D01*
X147682866Y-112024800D01*
X147414334Y-112024800D01*
X147166243Y-112127563D01*
X147094006Y-112199800D01*
X145957041Y-112199800D01*
X145907799Y-112190005D01*
X145858558Y-112199800D01*
X145858557Y-112199800D01*
X145712710Y-112228811D01*
X145547320Y-112339320D01*
X145519425Y-112381068D01*
X144893372Y-113007122D01*
X144800050Y-112913800D01*
X144143800Y-112913800D01*
X144143800Y-113370050D01*
X144237550Y-113463800D01*
X144436694Y-113463800D01*
X144194040Y-113706454D01*
X143618800Y-113706454D01*
X143472483Y-113735558D01*
X143348441Y-113818441D01*
X143265558Y-113942483D01*
X143236454Y-114088800D01*
X143236454Y-114588800D01*
X143265558Y-114735117D01*
X143348441Y-114859159D01*
X143472483Y-114942042D01*
X143568800Y-114961201D01*
X143568800Y-115277364D01*
X143559005Y-115326606D01*
X143568800Y-115375847D01*
X143568800Y-115375848D01*
X143597811Y-115521695D01*
X143708320Y-115687086D01*
X143750070Y-115714982D01*
X144018951Y-115983863D01*
X143870593Y-116082993D01*
X143684946Y-116360833D01*
X143684946Y-116165000D01*
X143655842Y-116018683D01*
X143572959Y-115894641D01*
X143448917Y-115811758D01*
X143302600Y-115782654D01*
X143171400Y-115782654D01*
X143171400Y-113007550D01*
X143243800Y-113007550D01*
X143243800Y-113163392D01*
X143300890Y-113301220D01*
X143406379Y-113406710D01*
X143544208Y-113463800D01*
X143900050Y-113463800D01*
X143993800Y-113370050D01*
X143993800Y-112913800D01*
X143337550Y-112913800D01*
X143243800Y-113007550D01*
X143171400Y-113007550D01*
X143171400Y-112514208D01*
X143243800Y-112514208D01*
X143243800Y-112670050D01*
X143337550Y-112763800D01*
X143993800Y-112763800D01*
X143993800Y-112307550D01*
X144143800Y-112307550D01*
X144143800Y-112763800D01*
X144800050Y-112763800D01*
X144893800Y-112670050D01*
X144893800Y-112514208D01*
X144836710Y-112376380D01*
X144731221Y-112270890D01*
X144593392Y-112213800D01*
X144237550Y-112213800D01*
X144143800Y-112307550D01*
X143993800Y-112307550D01*
X143900050Y-112213800D01*
X143544208Y-112213800D01*
X143406379Y-112270890D01*
X143300890Y-112376380D01*
X143243800Y-112514208D01*
X143171400Y-112514208D01*
X143171400Y-111938705D01*
X143181685Y-111886999D01*
X143140939Y-111682155D01*
X143126517Y-111660571D01*
X143024904Y-111508496D01*
X142981067Y-111479205D01*
X142746212Y-111244350D01*
X143318800Y-111244350D01*
X143318800Y-111550192D01*
X143375890Y-111688020D01*
X143481379Y-111793510D01*
X143619208Y-111850600D01*
X143900050Y-111850600D01*
X143993800Y-111756850D01*
X143993800Y-111150600D01*
X144143800Y-111150600D01*
X144143800Y-111756850D01*
X144237550Y-111850600D01*
X144518392Y-111850600D01*
X144656221Y-111793510D01*
X144761710Y-111688020D01*
X144818800Y-111550192D01*
X144818800Y-111244350D01*
X148094000Y-111244350D01*
X148094000Y-111550192D01*
X148151090Y-111688020D01*
X148256579Y-111793510D01*
X148394408Y-111850600D01*
X148675250Y-111850600D01*
X148769000Y-111756850D01*
X148769000Y-111150600D01*
X148919000Y-111150600D01*
X148919000Y-111756850D01*
X149012750Y-111850600D01*
X149293592Y-111850600D01*
X149431421Y-111793510D01*
X149536910Y-111688020D01*
X149580600Y-111582543D01*
X149624290Y-111688020D01*
X149729779Y-111793510D01*
X149867608Y-111850600D01*
X150148450Y-111850600D01*
X150242200Y-111756850D01*
X150242200Y-111150600D01*
X149660950Y-111150600D01*
X149580600Y-111230950D01*
X149500250Y-111150600D01*
X148919000Y-111150600D01*
X148769000Y-111150600D01*
X148187750Y-111150600D01*
X148094000Y-111244350D01*
X144818800Y-111244350D01*
X144725050Y-111150600D01*
X144143800Y-111150600D01*
X143993800Y-111150600D01*
X143412550Y-111150600D01*
X143318800Y-111244350D01*
X142746212Y-111244350D01*
X142104600Y-110602739D01*
X142104600Y-110350600D01*
X142350650Y-110350600D01*
X142444400Y-110256850D01*
X142444400Y-109650600D01*
X142594400Y-109650600D01*
X142594400Y-110256850D01*
X142688150Y-110350600D01*
X142968992Y-110350600D01*
X143106821Y-110293510D01*
X143212310Y-110188020D01*
X143269400Y-110050192D01*
X143269400Y-109744350D01*
X143175650Y-109650600D01*
X142594400Y-109650600D01*
X142444400Y-109650600D01*
X142424400Y-109650600D01*
X142424400Y-109500600D01*
X142444400Y-109500600D01*
X142444400Y-109480600D01*
X142594400Y-109480600D01*
X142594400Y-109500600D01*
X143175650Y-109500600D01*
X143269400Y-109406850D01*
X143269400Y-109101008D01*
X143212310Y-108963180D01*
X143106821Y-108857690D01*
X143038324Y-108829318D01*
X143040717Y-108828842D01*
X143164759Y-108745959D01*
X143247642Y-108621917D01*
X143251882Y-108600600D01*
X143441094Y-108600600D01*
X143492800Y-108610885D01*
X143544506Y-108600600D01*
X143697645Y-108570139D01*
X143797628Y-108503332D01*
X143824641Y-108543759D01*
X143948683Y-108626642D01*
X144095000Y-108655746D01*
X144345000Y-108655746D01*
X144470000Y-108630882D01*
X144595000Y-108655746D01*
X144845000Y-108655746D01*
X144970000Y-108630882D01*
X145095000Y-108655746D01*
X145345000Y-108655746D01*
X145470000Y-108630882D01*
X145595000Y-108655746D01*
X145720001Y-108655746D01*
X145720001Y-108700600D01*
X145544352Y-108700600D01*
X145222752Y-108833811D01*
X144980963Y-109075600D01*
X144806255Y-109075600D01*
X144797042Y-109029283D01*
X144714159Y-108905241D01*
X144590117Y-108822358D01*
X144443800Y-108793254D01*
X143693800Y-108793254D01*
X143547483Y-108822358D01*
X143423441Y-108905241D01*
X143340558Y-109029283D01*
X143311454Y-109175600D01*
X143311454Y-109975600D01*
X143340558Y-110121917D01*
X143423441Y-110245959D01*
X143547483Y-110328842D01*
X143549876Y-110329318D01*
X143481379Y-110357690D01*
X143375890Y-110463180D01*
X143318800Y-110601008D01*
X143318800Y-110906850D01*
X143412550Y-111000600D01*
X143993800Y-111000600D01*
X143993800Y-110980600D01*
X144143800Y-110980600D01*
X144143800Y-111000600D01*
X144725050Y-111000600D01*
X144818800Y-110906850D01*
X144818800Y-110601008D01*
X144761710Y-110463180D01*
X144656221Y-110357690D01*
X144587724Y-110329318D01*
X144590117Y-110328842D01*
X144714159Y-110245959D01*
X144797042Y-110121917D01*
X144806255Y-110075600D01*
X144980963Y-110075600D01*
X145222752Y-110317389D01*
X145544352Y-110450600D01*
X145892448Y-110450600D01*
X146214048Y-110317389D01*
X146460189Y-110071248D01*
X146468400Y-110051425D01*
X146476611Y-110071248D01*
X146722752Y-110317389D01*
X147044352Y-110450600D01*
X147392448Y-110450600D01*
X147714048Y-110317389D01*
X147955837Y-110075600D01*
X148106545Y-110075600D01*
X148115758Y-110121917D01*
X148198641Y-110245959D01*
X148322683Y-110328842D01*
X148325076Y-110329318D01*
X148256579Y-110357690D01*
X148151090Y-110463180D01*
X148094000Y-110601008D01*
X148094000Y-110906850D01*
X148187750Y-111000600D01*
X148769000Y-111000600D01*
X148769000Y-110980600D01*
X148919000Y-110980600D01*
X148919000Y-111000600D01*
X149500250Y-111000600D01*
X149580600Y-110920250D01*
X149660950Y-111000600D01*
X150242200Y-111000600D01*
X150242200Y-110980600D01*
X150392200Y-110980600D01*
X150392200Y-111000600D01*
X150412200Y-111000600D01*
X150412200Y-111150600D01*
X150392200Y-111150600D01*
X150392200Y-111756850D01*
X150485950Y-111850600D01*
X150644989Y-111850600D01*
X150644989Y-112206561D01*
X150451464Y-112126400D01*
X150182932Y-112126400D01*
X149934841Y-112229163D01*
X149744961Y-112419043D01*
X149642198Y-112667134D01*
X149642198Y-112935666D01*
X149744961Y-113183757D01*
X149934841Y-113373637D01*
X150147401Y-113461682D01*
X150147400Y-117188161D01*
X150137605Y-117237402D01*
X150147400Y-117286643D01*
X150147400Y-117286644D01*
X150176411Y-117432491D01*
X150286920Y-117597882D01*
X150328670Y-117625779D01*
X150976507Y-118273615D01*
X150760349Y-118184084D01*
X150570000Y-118251239D01*
X150570000Y-119305000D01*
X151623959Y-119305000D01*
X151690923Y-119114650D01*
X151591348Y-118888457D01*
X151802654Y-119099763D01*
X151802654Y-120230000D01*
X151831758Y-120376317D01*
X151914641Y-120500359D01*
X152038683Y-120583242D01*
X152185000Y-120612346D01*
X153885000Y-120612346D01*
X154031317Y-120583242D01*
X154155359Y-120500359D01*
X154238242Y-120376317D01*
X154267346Y-120230000D01*
X154267346Y-118530000D01*
X154238242Y-118383683D01*
X154155359Y-118259641D01*
X154124757Y-118239193D01*
X154190359Y-118195359D01*
X154251760Y-118103466D01*
X154709165Y-118560872D01*
X154468175Y-118921538D01*
X154376981Y-119380000D01*
X154468175Y-119838462D01*
X154727873Y-120227127D01*
X155116538Y-120486825D01*
X155459276Y-120555000D01*
X155690724Y-120555000D01*
X156033462Y-120486825D01*
X156422127Y-120227127D01*
X156681825Y-119838462D01*
X156773019Y-119380000D01*
X156681825Y-118921538D01*
X156422127Y-118532873D01*
X156033462Y-118273175D01*
X155786572Y-118224065D01*
X155577507Y-118015000D01*
X155690724Y-118015000D01*
X156033462Y-117946825D01*
X156422127Y-117687127D01*
X156681825Y-117298462D01*
X156773019Y-116840000D01*
X156681825Y-116381538D01*
X156422127Y-115992873D01*
X156033462Y-115733175D01*
X155690724Y-115665000D01*
X155459276Y-115665000D01*
X155165535Y-115723429D01*
X154693376Y-115251270D01*
X154665480Y-115209520D01*
X154500090Y-115099011D01*
X154354243Y-115070000D01*
X154354241Y-115070000D01*
X154305000Y-115060205D01*
X154291006Y-115062989D01*
X154273242Y-114973683D01*
X154190359Y-114849641D01*
X154066317Y-114766758D01*
X153920000Y-114737654D01*
X153420000Y-114737654D01*
X153273683Y-114766758D01*
X153149641Y-114849641D01*
X153066758Y-114973683D01*
X153037654Y-115120000D01*
X153037654Y-116020000D01*
X153066758Y-116166317D01*
X153149641Y-116290359D01*
X153273683Y-116373242D01*
X153420000Y-116402346D01*
X153920000Y-116402346D01*
X154066317Y-116373242D01*
X154190359Y-116290359D01*
X154241586Y-116213693D01*
X154458429Y-116430535D01*
X154376981Y-116840000D01*
X154404831Y-116980010D01*
X154379643Y-116975000D01*
X154379641Y-116975000D01*
X154330400Y-116965205D01*
X154291973Y-116972849D01*
X154273242Y-116878683D01*
X154190359Y-116754641D01*
X154066317Y-116671758D01*
X153920000Y-116642654D01*
X153420000Y-116642654D01*
X153273683Y-116671758D01*
X153149641Y-116754641D01*
X153066758Y-116878683D01*
X153037654Y-117025000D01*
X153037654Y-117925000D01*
X153066758Y-118071317D01*
X153117765Y-118147654D01*
X152722235Y-118147654D01*
X152773242Y-118071317D01*
X152802346Y-117925000D01*
X152802346Y-117025000D01*
X152773242Y-116878683D01*
X152690359Y-116754641D01*
X152566317Y-116671758D01*
X152420000Y-116642654D01*
X151920000Y-116642654D01*
X151773683Y-116671758D01*
X151665171Y-116744264D01*
X151644988Y-116724082D01*
X151644988Y-116283395D01*
X151649641Y-116290359D01*
X151773683Y-116373242D01*
X151920000Y-116402346D01*
X152420000Y-116402346D01*
X152566317Y-116373242D01*
X152690359Y-116290359D01*
X152773242Y-116166317D01*
X152802346Y-116020000D01*
X152802346Y-115120000D01*
X152773242Y-114973683D01*
X152690359Y-114849641D01*
X152566317Y-114766758D01*
X152420000Y-114737654D01*
X152094999Y-114737654D01*
X152094999Y-114497346D01*
X152420000Y-114497346D01*
X152566317Y-114468242D01*
X152690359Y-114385359D01*
X152773242Y-114261317D01*
X152802346Y-114115000D01*
X152802346Y-113215000D01*
X152792717Y-113166590D01*
X153252133Y-112707174D01*
X153293880Y-112679280D01*
X153359948Y-112580401D01*
X153420000Y-112592346D01*
X153920000Y-112592346D01*
X154066317Y-112563242D01*
X154190359Y-112480359D01*
X154273242Y-112356317D01*
X154302346Y-112210000D01*
X154302346Y-111834760D01*
X154377002Y-111760105D01*
X154468175Y-112218462D01*
X154648122Y-112487771D01*
X154190717Y-112945177D01*
X154190359Y-112944641D01*
X154066317Y-112861758D01*
X153920000Y-112832654D01*
X153420000Y-112832654D01*
X153273683Y-112861758D01*
X153149641Y-112944641D01*
X153066758Y-113068683D01*
X153037654Y-113215000D01*
X153037654Y-114115000D01*
X153066758Y-114261317D01*
X153149641Y-114385359D01*
X153273683Y-114468242D01*
X153420000Y-114497346D01*
X153920000Y-114497346D01*
X154066317Y-114468242D01*
X154190359Y-114385359D01*
X154273242Y-114261317D01*
X154295085Y-114151505D01*
X154373090Y-114135989D01*
X154415202Y-114107851D01*
X154376981Y-114300000D01*
X154468175Y-114758462D01*
X154727873Y-115147127D01*
X155116538Y-115406825D01*
X155459276Y-115475000D01*
X155690724Y-115475000D01*
X156033462Y-115406825D01*
X156422127Y-115147127D01*
X156681825Y-114758462D01*
X156773019Y-114300000D01*
X156681825Y-113841538D01*
X156422127Y-113452873D01*
X156033462Y-113193175D01*
X155690724Y-113125000D01*
X155459276Y-113125000D01*
X155416622Y-113133484D01*
X155615107Y-112935000D01*
X155690724Y-112935000D01*
X156033462Y-112866825D01*
X156422127Y-112607127D01*
X156681825Y-112218462D01*
X156773019Y-111760000D01*
X156681825Y-111301538D01*
X156422127Y-110912873D01*
X156325398Y-110848241D01*
X156338549Y-110828559D01*
X156776001Y-110391108D01*
X156776001Y-120084173D01*
X156693100Y-120401428D01*
X156521339Y-120660493D01*
X156274925Y-120849952D01*
X155962017Y-120955596D01*
X155875957Y-120962524D01*
X155873321Y-120962000D01*
X139993373Y-120962000D01*
X139675917Y-120906024D01*
X139431378Y-120764839D01*
X139249871Y-120548528D01*
X139146419Y-120264295D01*
X139134000Y-120122348D01*
X139134000Y-119380000D01*
X139136981Y-119380000D01*
X139228175Y-119838462D01*
X139487873Y-120227127D01*
X139876538Y-120486825D01*
X140219276Y-120555000D01*
X140450724Y-120555000D01*
X140793462Y-120486825D01*
X141182127Y-120227127D01*
X141441825Y-119838462D01*
X141533019Y-119380000D01*
X141441825Y-118921538D01*
X141182127Y-118532873D01*
X140793462Y-118273175D01*
X140450724Y-118205000D01*
X140219276Y-118205000D01*
X139876538Y-118273175D01*
X139487873Y-118532873D01*
X139228175Y-118921538D01*
X139136981Y-119380000D01*
X139134000Y-119380000D01*
X139134000Y-116840000D01*
X139136981Y-116840000D01*
X139228175Y-117298462D01*
X139487873Y-117687127D01*
X139876538Y-117946825D01*
X140219276Y-118015000D01*
X140450724Y-118015000D01*
X140793462Y-117946825D01*
X141182127Y-117687127D01*
X141441825Y-117298462D01*
X141533019Y-116840000D01*
X141441825Y-116381538D01*
X141182127Y-115992873D01*
X140793462Y-115733175D01*
X140450724Y-115665000D01*
X140219276Y-115665000D01*
X139876538Y-115733175D01*
X139487873Y-115992873D01*
X139228175Y-116381538D01*
X139136981Y-116840000D01*
X139134000Y-116840000D01*
X139134000Y-114300000D01*
X139136981Y-114300000D01*
X139228175Y-114758462D01*
X139487873Y-115147127D01*
X139876538Y-115406825D01*
X140219276Y-115475000D01*
X140450724Y-115475000D01*
X140793462Y-115406825D01*
X141182127Y-115147127D01*
X141441825Y-114758462D01*
X141533019Y-114300000D01*
X141441825Y-113841538D01*
X141182127Y-113452873D01*
X140793462Y-113193175D01*
X140450724Y-113125000D01*
X140219276Y-113125000D01*
X139876538Y-113193175D01*
X139487873Y-113452873D01*
X139228175Y-113841538D01*
X139136981Y-114300000D01*
X139134000Y-114300000D01*
X139134000Y-106680000D01*
X139136981Y-106680000D01*
X139228175Y-107138462D01*
X139487873Y-107527127D01*
X139876538Y-107786825D01*
X140219276Y-107855000D01*
X140450724Y-107855000D01*
X140793462Y-107786825D01*
X141182127Y-107527127D01*
X141441825Y-107138462D01*
X141533019Y-106680000D01*
X141441825Y-106221538D01*
X141182127Y-105832873D01*
X140793462Y-105573175D01*
X140450724Y-105505000D01*
X140219276Y-105505000D01*
X139876538Y-105573175D01*
X139487873Y-105832873D01*
X139228175Y-106221538D01*
X139136981Y-106680000D01*
X139134000Y-106680000D01*
X139134000Y-99317512D01*
X139188565Y-99317512D01*
X139342254Y-99688568D01*
X139658365Y-100020628D01*
X140077487Y-100206442D01*
X140260000Y-100138861D01*
X140260000Y-99135000D01*
X139256354Y-99135000D01*
X139188565Y-99317512D01*
X139134000Y-99317512D01*
X139134000Y-98802488D01*
X139188565Y-98802488D01*
X139256354Y-98985000D01*
X140260000Y-98985000D01*
X140260000Y-97981139D01*
X140077487Y-97913558D01*
X139658365Y-98099372D01*
X139342254Y-98431432D01*
X139188565Y-98802488D01*
X139134000Y-98802488D01*
X139134000Y-96520000D01*
X139136981Y-96520000D01*
X139228175Y-96978462D01*
X139487873Y-97367127D01*
X139876538Y-97626825D01*
X140219276Y-97695000D01*
X140450724Y-97695000D01*
X140793462Y-97626825D01*
X141182127Y-97367127D01*
X141441825Y-96978462D01*
X141533019Y-96520000D01*
X141441825Y-96061538D01*
X141182127Y-95672873D01*
X140793462Y-95413175D01*
X140450724Y-95345000D01*
X140219276Y-95345000D01*
X139876538Y-95413175D01*
X139487873Y-95672873D01*
X139228175Y-96061538D01*
X139136981Y-96520000D01*
X139134000Y-96520000D01*
X139134000Y-93980000D01*
X139136981Y-93980000D01*
X139228175Y-94438462D01*
X139487873Y-94827127D01*
X139876538Y-95086825D01*
X140219276Y-95155000D01*
X140450724Y-95155000D01*
X140793462Y-95086825D01*
X141182127Y-94827127D01*
X141441825Y-94438462D01*
X141533019Y-93980000D01*
X141441825Y-93521538D01*
X141182127Y-93132873D01*
X140793462Y-92873175D01*
X140450724Y-92805000D01*
X140219276Y-92805000D01*
X139876538Y-92873175D01*
X139487873Y-93132873D01*
X139228175Y-93521538D01*
X139136981Y-93980000D01*
X139134000Y-93980000D01*
X139134000Y-85637372D01*
X139189976Y-85319917D01*
X139331161Y-85075378D01*
X139547472Y-84893871D01*
X139711966Y-84834000D01*
X146587163Y-84834000D01*
X146611396Y-84892501D01*
G36*
X149644998Y-108648400D02*
X149695000Y-108648400D01*
X149695001Y-108889766D01*
X149671841Y-108905241D01*
X149588958Y-109029283D01*
X149580600Y-109071302D01*
X149572242Y-109029283D01*
X149489359Y-108905241D01*
X149365317Y-108822358D01*
X149219000Y-108793254D01*
X148469000Y-108793254D01*
X148322683Y-108822358D01*
X148198641Y-108905241D01*
X148115758Y-109029283D01*
X148106545Y-109075600D01*
X147955837Y-109075600D01*
X147714048Y-108833811D01*
X147392448Y-108700600D01*
X147220000Y-108700600D01*
X147220000Y-108655746D01*
X147345000Y-108655746D01*
X147470000Y-108630882D01*
X147595000Y-108655746D01*
X147845000Y-108655746D01*
X147970000Y-108630882D01*
X148095000Y-108655746D01*
X148345000Y-108655746D01*
X148470000Y-108630882D01*
X148595000Y-108655746D01*
X148845000Y-108655746D01*
X148970000Y-108630882D01*
X149095000Y-108655746D01*
X149345000Y-108655746D01*
X149475483Y-108629792D01*
X149520408Y-108648400D01*
X149563750Y-108648400D01*
X149644998Y-108567152D01*
X149644998Y-108648400D01*
X149644998Y-108648400D01*
G37*
X149644998Y-108648400D02*
X149695000Y-108648400D01*
X149695001Y-108889766D01*
X149671841Y-108905241D01*
X149588958Y-109029283D01*
X149580600Y-109071302D01*
X149572242Y-109029283D01*
X149489359Y-108905241D01*
X149365317Y-108822358D01*
X149219000Y-108793254D01*
X148469000Y-108793254D01*
X148322683Y-108822358D01*
X148198641Y-108905241D01*
X148115758Y-109029283D01*
X148106545Y-109075600D01*
X147955837Y-109075600D01*
X147714048Y-108833811D01*
X147392448Y-108700600D01*
X147220000Y-108700600D01*
X147220000Y-108655746D01*
X147345000Y-108655746D01*
X147470000Y-108630882D01*
X147595000Y-108655746D01*
X147845000Y-108655746D01*
X147970000Y-108630882D01*
X148095000Y-108655746D01*
X148345000Y-108655746D01*
X148470000Y-108630882D01*
X148595000Y-108655746D01*
X148845000Y-108655746D01*
X148970000Y-108630882D01*
X149095000Y-108655746D01*
X149345000Y-108655746D01*
X149475483Y-108629792D01*
X149520408Y-108648400D01*
X149563750Y-108648400D01*
X149644998Y-108567152D01*
X149644998Y-108648400D01*
G36*
X144879000Y-90857000D02*
X144899000Y-90857000D01*
X144899000Y-91007000D01*
X144879000Y-91007000D01*
X144879000Y-91027000D01*
X144729000Y-91027000D01*
X144729000Y-91007000D01*
X144709000Y-91007000D01*
X144709000Y-90857000D01*
X144729000Y-90857000D01*
X144729000Y-90837000D01*
X144879000Y-90837000D01*
X144879000Y-90857000D01*
X144879000Y-90857000D01*
G37*
X144879000Y-90857000D02*
X144899000Y-90857000D01*
X144899000Y-91007000D01*
X144879000Y-91007000D01*
X144879000Y-91027000D01*
X144729000Y-91027000D01*
X144729000Y-91007000D01*
X144709000Y-91007000D01*
X144709000Y-90857000D01*
X144729000Y-90857000D01*
X144729000Y-90837000D01*
X144879000Y-90837000D01*
X144879000Y-90857000D01*
G04 #@! TD*
M02*
