G04 #@! TF.GenerationSoftware,KiCad,Pcbnew,(5.1.2-1)-1*
G04 #@! TF.CreationDate,2019-06-12T16:50:37+03:00*
G04 #@! TF.ProjectId,ayx,6179782e-6b69-4636-9164-5f7063625858,rev?*
G04 #@! TF.SameCoordinates,Original*
G04 #@! TF.FileFunction,Copper,L2,Bot*
G04 #@! TF.FilePolarity,Positive*
%FSLAX46Y46*%
G04 Gerber Fmt 4.6, Leading zero omitted, Abs format (unit mm)*
G04 Created by KiCad (PCBNEW (5.1.2-1)-1) date 2019-06-12 16:50:37*
%MOMM*%
%LPD*%
G04 APERTURE LIST*
%ADD10R,1.600000X1.600000*%
%ADD11O,1.600000X1.600000*%
%ADD12R,0.500000X0.900000*%
%ADD13R,1.200000X0.900000*%
%ADD14O,1.700000X1.700000*%
%ADD15R,1.700000X1.700000*%
%ADD16O,1.350000X1.350000*%
%ADD17R,1.350000X1.350000*%
%ADD18R,1.200000X1.200000*%
%ADD19C,1.000000*%
%ADD20C,0.600000*%
%ADD21C,0.300000*%
%ADD22C,0.250000*%
G04 APERTURE END LIST*
D10*
X140335000Y-86360000D03*
D11*
X155575000Y-119380000D03*
X140335000Y-88900000D03*
X155575000Y-116840000D03*
X140335000Y-91440000D03*
X155575000Y-114300000D03*
X140335000Y-93980000D03*
X155575000Y-111760000D03*
X140335000Y-96520000D03*
X155575000Y-109220000D03*
X140335000Y-99060000D03*
X155575000Y-106680000D03*
X140335000Y-101600000D03*
X155575000Y-104140000D03*
X140335000Y-104140000D03*
X155575000Y-101600000D03*
X140335000Y-106680000D03*
X155575000Y-99060000D03*
X140335000Y-109220000D03*
X155575000Y-96520000D03*
X140335000Y-111760000D03*
X155575000Y-93980000D03*
X140335000Y-114300000D03*
X155575000Y-91440000D03*
X140335000Y-116840000D03*
X155575000Y-88900000D03*
X140335000Y-119380000D03*
X155575000Y-86360000D03*
D12*
X148336000Y-99060000D03*
X147320000Y-99060000D03*
D13*
X148250000Y-88646000D03*
X146050000Y-88646000D03*
D14*
X142875000Y-119380000D03*
X145415000Y-119380000D03*
X147955000Y-119380000D03*
X150495000Y-119380000D03*
D15*
X153035000Y-119380000D03*
D13*
X143850000Y-92456000D03*
X146050000Y-92456000D03*
X143850000Y-90551000D03*
X146050000Y-90551000D03*
X143850000Y-88646000D03*
X146050000Y-88646000D03*
X148250000Y-92456000D03*
X146050000Y-92456000D03*
X148250000Y-90551000D03*
X146050000Y-90551000D03*
D16*
X144627600Y-116840000D03*
D17*
X142627600Y-116840000D03*
D18*
X149100000Y-86868000D03*
X146900000Y-86868000D03*
D12*
X144750000Y-86200000D03*
X143250000Y-86200000D03*
D19*
X147218400Y-109575600D03*
X145718400Y-109575600D03*
D20*
X152031449Y-91803449D03*
X151370743Y-109549891D03*
X150289108Y-86490942D03*
X141833600Y-90906600D03*
X154533600Y-108102400D03*
X156235400Y-113030000D03*
X146456400Y-114274600D03*
X154025600Y-91744800D03*
X146558000Y-93980000D03*
X147320000Y-98298000D03*
X147965401Y-97673401D03*
X150317198Y-112801400D03*
X146844816Y-102043375D03*
X144946640Y-97362973D03*
X147157727Y-106882748D03*
X146149210Y-103181824D03*
X148539200Y-116408200D03*
X152362369Y-100545764D03*
X152499451Y-110850143D03*
X153423498Y-110809994D03*
X152633643Y-101298379D03*
X146364996Y-106773788D03*
X146241545Y-105983367D03*
X146865235Y-105182725D03*
X149159435Y-105241892D03*
X149077694Y-102360635D03*
X149083576Y-101548487D03*
X151916120Y-99231602D03*
X152670249Y-98964567D03*
X153098576Y-96328860D03*
X153705390Y-96850200D03*
X153618343Y-97669024D03*
X150951837Y-98251192D03*
X145835290Y-97373401D03*
X146456400Y-95377002D03*
X144180065Y-101432835D03*
X143924611Y-102190966D03*
X143287557Y-104338244D03*
X143270012Y-105257573D03*
X141822782Y-85827000D03*
X145915340Y-103946889D03*
X147548600Y-112699800D03*
X149663585Y-95126688D03*
X152264779Y-104063800D03*
X147116800Y-93218000D03*
X150331444Y-94434278D03*
X152264779Y-103022400D03*
X149885400Y-90627200D03*
D21*
X148971624Y-94863274D02*
X148971624Y-99192116D01*
X151370743Y-109125627D02*
X151370743Y-109549891D01*
X148971624Y-99192116D02*
X150633608Y-100854100D01*
X151370743Y-104050543D02*
X151370743Y-109125627D01*
X150633608Y-103313408D02*
X151370743Y-104050543D01*
X150633608Y-100854100D02*
X150633608Y-103313408D01*
X152031449Y-91803449D02*
X148971624Y-94863274D01*
D22*
X149100000Y-86868000D02*
X149912050Y-86868000D01*
X149912050Y-86868000D02*
X150289108Y-86490942D01*
X147320000Y-99060000D02*
X147320000Y-98298000D01*
X148336000Y-98044000D02*
X147965401Y-97673401D01*
X148336000Y-99060000D02*
X148336000Y-98044000D01*
X150317198Y-112801400D02*
X149845719Y-112329921D01*
X147144815Y-102343374D02*
X146844816Y-102043375D01*
X149850001Y-108872807D02*
X149850001Y-105048560D01*
X149850001Y-105048560D02*
X147144815Y-102343374D01*
X149845719Y-108877089D02*
X149850001Y-108872807D01*
X149845719Y-112329921D02*
X149845719Y-108877089D01*
X141935200Y-100374413D02*
X144646641Y-97662972D01*
X141935200Y-101664802D02*
X141935200Y-100374413D01*
X139599200Y-102920800D02*
X140679202Y-102920800D01*
X147955000Y-119380000D02*
X146507200Y-120827800D01*
X144646641Y-97662972D02*
X144946640Y-97362973D01*
X146507200Y-120827800D02*
X140117798Y-120827800D01*
X139090400Y-103429600D02*
X139599200Y-102920800D01*
X140117798Y-120827800D02*
X139090400Y-119800402D01*
X140679202Y-102920800D02*
X141935200Y-101664802D01*
X139090400Y-119800402D02*
X139090400Y-103429600D01*
X146857728Y-107182747D02*
X147157727Y-106882748D01*
X143535400Y-110505075D02*
X146857728Y-107182747D01*
X143535400Y-113893600D02*
X143535400Y-110505075D01*
X145415000Y-118059200D02*
X145796000Y-117678200D01*
X145415000Y-119380000D02*
X145415000Y-118059200D01*
X145796000Y-117678200D02*
X145796000Y-116154200D01*
X145796000Y-116154200D02*
X143535400Y-113893600D01*
X148539200Y-115983936D02*
X148539200Y-116408200D01*
X148539200Y-105319005D02*
X148539200Y-115983936D01*
X146402019Y-103181824D02*
X148539200Y-105319005D01*
X146149210Y-103181824D02*
X146402019Y-103181824D01*
X152008641Y-100899492D02*
X152008641Y-101598381D01*
X152889789Y-102479529D02*
X152889789Y-110459805D01*
X152889789Y-110459805D02*
X152799450Y-110550144D01*
X152008641Y-101598381D02*
X152889789Y-102479529D01*
X152799450Y-110550144D02*
X152499451Y-110850143D01*
X152362369Y-100545764D02*
X152008641Y-100899492D01*
X153423498Y-102088234D02*
X152933642Y-101598378D01*
X153423498Y-110809994D02*
X153423498Y-102088234D01*
X152933642Y-101598378D02*
X152633643Y-101298379D01*
X142951200Y-110187584D02*
X146064997Y-107073787D01*
X142951200Y-114122200D02*
X142951200Y-110187584D01*
X140335000Y-119380000D02*
X140385800Y-119380000D01*
X146064997Y-107073787D02*
X146364996Y-106773788D01*
X140385800Y-119380000D02*
X141579600Y-118186200D01*
X141579600Y-118186200D02*
X141579600Y-115493800D01*
X141579600Y-115493800D02*
X142951200Y-114122200D01*
X140335000Y-116840000D02*
X140335000Y-115965002D01*
X140335000Y-115965002D02*
X142417800Y-113882202D01*
X145941546Y-106283366D02*
X146241545Y-105983367D01*
X142417800Y-109807112D02*
X145941546Y-106283366D01*
X142417800Y-113882202D02*
X142417800Y-109807112D01*
X141655800Y-112979200D02*
X140335000Y-114300000D01*
X146137975Y-105182725D02*
X141910011Y-109410689D01*
X146865235Y-105182725D02*
X146137975Y-105182725D01*
X141910011Y-109410689D02*
X141910011Y-112724989D01*
X141910011Y-112724989D02*
X141655800Y-112979200D01*
X146355743Y-102438200D02*
X148859436Y-104941893D01*
X146008936Y-102438200D02*
X146355743Y-102438200D01*
X145262600Y-105421691D02*
X145262600Y-103184536D01*
X145262600Y-103184536D02*
X146008936Y-102438200D01*
X141460001Y-110634999D02*
X141460001Y-109224289D01*
X148859436Y-104941893D02*
X149159435Y-105241892D01*
X140335000Y-111760000D02*
X141460001Y-110634999D01*
X141460001Y-109224289D02*
X145262600Y-105421691D01*
X143850000Y-88646000D02*
X143850000Y-90551000D01*
X143850000Y-90551000D02*
X144000000Y-90551000D01*
X140335000Y-96520000D02*
X142748000Y-94107000D01*
X142748000Y-94107000D02*
X142748000Y-93472000D01*
X145905000Y-92456000D02*
X146050000Y-92456000D01*
X142748000Y-93472000D02*
X142748000Y-91922998D01*
X143764000Y-91440000D02*
X143764000Y-90678000D01*
X143523001Y-91680999D02*
X143764000Y-91440000D01*
X142989999Y-91680999D02*
X143523001Y-91680999D01*
X142748000Y-91922998D02*
X142989999Y-91680999D01*
X146075402Y-92481402D02*
X146050000Y-92456000D01*
X146050000Y-92456000D02*
X145900000Y-92456000D01*
X144884000Y-93472000D02*
X142748000Y-93472000D01*
X145900000Y-92456000D02*
X144884000Y-93472000D01*
X144860539Y-87231316D02*
X142256316Y-87231316D01*
X146050000Y-88420777D02*
X144860539Y-87231316D01*
X142256316Y-87231316D02*
X141385000Y-86360000D01*
X141385000Y-86360000D02*
X140335000Y-86360000D01*
X148250000Y-92456000D02*
X148250000Y-90551000D01*
X146050000Y-88646000D02*
X146050000Y-89079000D01*
X146050000Y-88900000D02*
X146050000Y-88420777D01*
X148082000Y-89662000D02*
X146366000Y-89662000D01*
X146050000Y-89346000D02*
X146050000Y-88646000D01*
X146366000Y-89662000D02*
X146050000Y-89346000D01*
X148250000Y-89830000D02*
X148082000Y-89662000D01*
X148250000Y-90551000D02*
X148250000Y-89830000D01*
X149077694Y-102360635D02*
X149045835Y-102360635D01*
X142936080Y-107111800D02*
X142443200Y-107111800D01*
X144812589Y-105235291D02*
X142936080Y-107111800D01*
X146421666Y-101389059D02*
X144812589Y-102998136D01*
X144812589Y-102998136D02*
X144812589Y-105235291D01*
X147999146Y-101389059D02*
X146421666Y-101389059D01*
X148970722Y-102360635D02*
X147999146Y-101389059D01*
X149077694Y-102360635D02*
X148970722Y-102360635D01*
X142443200Y-107111800D02*
X140335000Y-109220000D01*
X144362578Y-105048891D02*
X144362578Y-102811736D01*
X141466370Y-106680000D02*
X141484581Y-106661789D01*
X144362578Y-102811736D02*
X146235266Y-100939048D01*
X146235266Y-100939048D02*
X148474137Y-100939048D01*
X148474137Y-100939048D02*
X148783577Y-101248488D01*
X142749680Y-106661789D02*
X144362578Y-105048891D01*
X148783577Y-101248488D02*
X149083576Y-101548487D01*
X141484581Y-106661789D02*
X142749680Y-106661789D01*
X140335000Y-106680000D02*
X141466370Y-106680000D01*
X151917400Y-99230322D02*
X151916120Y-99231602D01*
X155575000Y-91440000D02*
X151917400Y-95097600D01*
X151917400Y-95097600D02*
X151917400Y-99230322D01*
X154443630Y-93980000D02*
X155575000Y-93980000D01*
X152370250Y-96053380D02*
X154443630Y-93980000D01*
X152670249Y-98964567D02*
X152370250Y-98664568D01*
X152370250Y-98664568D02*
X152370250Y-96053380D01*
X153398575Y-96028861D02*
X153098576Y-96328860D01*
X153466236Y-95961200D02*
X153398575Y-96028861D01*
X155016200Y-95961200D02*
X153466236Y-95961200D01*
X155575000Y-96520000D02*
X155016200Y-95961200D01*
X154775001Y-97919811D02*
X153705390Y-96850200D01*
X155575000Y-99060000D02*
X154775001Y-98260001D01*
X154775001Y-98260001D02*
X154775001Y-97919811D01*
X155575000Y-101600000D02*
X153618343Y-99643343D01*
X153618343Y-98093288D02*
X153618343Y-97669024D01*
X153618343Y-99643343D02*
X153618343Y-98093288D01*
X154076400Y-101339266D02*
X152631923Y-99894789D01*
X155575000Y-104140000D02*
X154076400Y-102641400D01*
X154076400Y-102641400D02*
X154076400Y-101339266D01*
X150951837Y-99204970D02*
X150951837Y-98675456D01*
X150951837Y-98675456D02*
X150951837Y-98251192D01*
X151641656Y-99894789D02*
X150951837Y-99204970D01*
X152631923Y-99894789D02*
X151641656Y-99894789D01*
X145535291Y-97673400D02*
X145835290Y-97373401D01*
X142392400Y-102082600D02*
X142392400Y-100816291D01*
X142392400Y-100816291D02*
X145535291Y-97673400D01*
X140335000Y-104140000D02*
X142392400Y-102082600D01*
X140335000Y-101600000D02*
X141134999Y-100800001D01*
X141134999Y-100800001D02*
X141134999Y-100169089D01*
X146032136Y-95377002D02*
X146456400Y-95377002D01*
X145927086Y-95377002D02*
X146032136Y-95377002D01*
X141134999Y-100169089D02*
X145927086Y-95377002D01*
X155575000Y-109220000D02*
X154775001Y-110019999D01*
X145573874Y-100039026D02*
X144480064Y-101132836D01*
X150158597Y-103755030D02*
X150158597Y-101050856D01*
X150745741Y-109249889D02*
X150750023Y-109245607D01*
X153670000Y-111531400D02*
X152116351Y-111531400D01*
X144480064Y-101132836D02*
X144180065Y-101432835D01*
X150158597Y-101050856D02*
X149146767Y-100039026D01*
X150745741Y-110160790D02*
X150745741Y-109249889D01*
X152116351Y-111531400D02*
X150745741Y-110160790D01*
X154775001Y-110426399D02*
X153670000Y-111531400D01*
X149146767Y-100039026D02*
X145573874Y-100039026D01*
X150750023Y-104346456D02*
X150158597Y-103755030D01*
X150750023Y-109245607D02*
X150750023Y-104346456D01*
X154775001Y-110019999D02*
X154775001Y-110426399D01*
X155575000Y-114300000D02*
X154195584Y-114300000D01*
X150295730Y-109063489D02*
X150300012Y-109059207D01*
X150300012Y-104532856D02*
X149708586Y-103941430D01*
X146048866Y-100489037D02*
X144346937Y-102190966D01*
X150300012Y-109059207D02*
X150300012Y-104532856D01*
X154195584Y-114300000D02*
X150295730Y-110400146D01*
X149708586Y-101237256D02*
X148960367Y-100489037D01*
X149708586Y-103941430D02*
X149708586Y-101237256D01*
X148960367Y-100489037D02*
X146048866Y-100489037D01*
X150295730Y-110400146D02*
X150295730Y-109063489D01*
X144346937Y-102190966D02*
X143924611Y-102190966D01*
X142849600Y-103900287D02*
X142987558Y-104038245D01*
X142987558Y-104038245D02*
X143287557Y-104338244D01*
X142849600Y-101242990D02*
X142849600Y-103900287D01*
X155575000Y-86360000D02*
X155575000Y-86703587D01*
X148046602Y-94231985D02*
X148046602Y-96045988D01*
X155575000Y-86703587D02*
X148046602Y-94231985D01*
X148046602Y-96045988D02*
X142849600Y-101242990D01*
X143912567Y-104615018D02*
X143570011Y-104957574D01*
X155575000Y-88900000D02*
X154051000Y-88900000D01*
X148496613Y-94454387D02*
X148496613Y-96232388D01*
X143570011Y-104957574D02*
X143270012Y-105257573D01*
X154051000Y-88900000D02*
X148496613Y-94454387D01*
X148496613Y-96232388D02*
X143299611Y-101429390D01*
X143299611Y-101429390D02*
X143299611Y-103415287D01*
X143299611Y-103415287D02*
X143912567Y-104028243D01*
X143912567Y-104028243D02*
X143912567Y-104615018D01*
D21*
X142122781Y-86126999D02*
X141822782Y-85827000D01*
X143250000Y-86200000D02*
X142195782Y-86200000D01*
X142195782Y-86200000D02*
X142122781Y-86126999D01*
D22*
X145915340Y-103946889D02*
X146530674Y-103946889D01*
X147848599Y-112399801D02*
X147548600Y-112699800D01*
X148051799Y-105468014D02*
X148051799Y-112196601D01*
X146530674Y-103946889D02*
X148051799Y-105468014D01*
X148051799Y-112196601D02*
X147848599Y-112399801D01*
X144929332Y-87936520D02*
X144929332Y-90319332D01*
X142869509Y-87681327D02*
X144674139Y-87681327D01*
X144929332Y-90319332D02*
X145161000Y-90551000D01*
X141986000Y-91694000D02*
X142532528Y-91147472D01*
X142532528Y-91147472D02*
X142532528Y-88018308D01*
X145161000Y-90551000D02*
X146050000Y-90551000D01*
X141986000Y-92329000D02*
X141986000Y-91694000D01*
X142532528Y-88018308D02*
X142869509Y-87681327D01*
X144674139Y-87681327D02*
X144929332Y-87936520D01*
X140335000Y-93980000D02*
X141986000Y-92329000D01*
X145255000Y-86200000D02*
X145923000Y-86868000D01*
X145923000Y-86868000D02*
X146900000Y-86868000D01*
X144750000Y-86200000D02*
X145255000Y-86200000D01*
X151108619Y-102907640D02*
X151964780Y-103763801D01*
X149663585Y-95126688D02*
X149663585Y-99189539D01*
X149663585Y-99189539D02*
X151108619Y-100634573D01*
X151964780Y-103763801D02*
X152264779Y-104063800D01*
X151108619Y-100634573D02*
X151108619Y-102907640D01*
X144689001Y-92456000D02*
X143850000Y-92456000D01*
X145034000Y-92111001D02*
X144689001Y-92456000D01*
X145034000Y-91836998D02*
X145034000Y-92111001D01*
X145189999Y-91680999D02*
X145034000Y-91836998D01*
X146910001Y-91680999D02*
X145189999Y-91680999D01*
X147116800Y-91887798D02*
X146910001Y-91680999D01*
X147116800Y-93218000D02*
X147116800Y-91887798D01*
X151558630Y-100448173D02*
X151558630Y-102316251D01*
X150331444Y-97946581D02*
X150326835Y-97951190D01*
X150326835Y-99216378D02*
X151558630Y-100448173D01*
X151964780Y-102722401D02*
X152264779Y-103022400D01*
X151558630Y-102316251D02*
X151964780Y-102722401D01*
X150331444Y-94434278D02*
X150331444Y-97946581D01*
X150326835Y-97951190D02*
X150326835Y-99216378D01*
X149885400Y-90202936D02*
X149885400Y-90627200D01*
X149885400Y-90131400D02*
X149885400Y-90202936D01*
X148400000Y-88646000D02*
X149885400Y-90131400D01*
X148250000Y-88646000D02*
X148400000Y-88646000D01*
G36*
X146592222Y-84864311D02*
G01*
X146608306Y-84901838D01*
X146623833Y-84939509D01*
X146626821Y-84945036D01*
X146722348Y-85118797D01*
X146745400Y-85152464D01*
X146767959Y-85186418D01*
X146771964Y-85191260D01*
X146899421Y-85343157D01*
X146928591Y-85371723D01*
X146957301Y-85400634D01*
X146962170Y-85404606D01*
X147116704Y-85528854D01*
X147150845Y-85551196D01*
X147184646Y-85573995D01*
X147190193Y-85576945D01*
X147365917Y-85668811D01*
X147403762Y-85684101D01*
X147441332Y-85699894D01*
X147447343Y-85701709D01*
X147447349Y-85701711D01*
X147637568Y-85757695D01*
X147677631Y-85765338D01*
X147717584Y-85773539D01*
X147723835Y-85774152D01*
X147723837Y-85774152D01*
X147921309Y-85792123D01*
X147962127Y-85791838D01*
X148002878Y-85792123D01*
X148009131Y-85791510D01*
X148206333Y-85770783D01*
X148246269Y-85762585D01*
X148286347Y-85754940D01*
X148292362Y-85753124D01*
X148481784Y-85694489D01*
X148519435Y-85678662D01*
X148557200Y-85663404D01*
X148562742Y-85660458D01*
X148562746Y-85660456D01*
X148562749Y-85660454D01*
X148737171Y-85566144D01*
X148771008Y-85543321D01*
X148805112Y-85521004D01*
X148809981Y-85517033D01*
X148962765Y-85390639D01*
X148991507Y-85361695D01*
X149020644Y-85333163D01*
X149024649Y-85328322D01*
X149149973Y-85174660D01*
X149172554Y-85140673D01*
X149195586Y-85107036D01*
X149198574Y-85101509D01*
X149291665Y-84926431D01*
X149307210Y-84888715D01*
X149323275Y-84851233D01*
X149325133Y-84845231D01*
X149328524Y-84834000D01*
X156241599Y-84834000D01*
X156267652Y-84841866D01*
X156408589Y-84916804D01*
X156532281Y-85017684D01*
X156634023Y-85140670D01*
X156709938Y-85281071D01*
X156757138Y-85433551D01*
X156776000Y-85613013D01*
X156776001Y-120119985D01*
X156758267Y-120300854D01*
X156712134Y-120453653D01*
X156637198Y-120594587D01*
X156536317Y-120718279D01*
X156413334Y-120820021D01*
X156272928Y-120895938D01*
X156120449Y-120943138D01*
X155940987Y-120962000D01*
X147080105Y-120962000D01*
X147515351Y-120526755D01*
X147714858Y-120587275D01*
X147894822Y-120605000D01*
X148015178Y-120605000D01*
X148195142Y-120587275D01*
X148426055Y-120517228D01*
X148638866Y-120403478D01*
X148825397Y-120250397D01*
X148978478Y-120063866D01*
X149092228Y-119851055D01*
X149162275Y-119620142D01*
X149173615Y-119505002D01*
X149256937Y-119505002D01*
X149162101Y-119717669D01*
X149253588Y-119971216D01*
X149392782Y-120202043D01*
X149574333Y-120401280D01*
X149791265Y-120561270D01*
X150035241Y-120675864D01*
X150157332Y-120712893D01*
X150370000Y-120617453D01*
X150370000Y-119505000D01*
X150350000Y-119505000D01*
X150350000Y-119255000D01*
X150370000Y-119255000D01*
X150370000Y-118142547D01*
X150620000Y-118142547D01*
X150620000Y-119255000D01*
X150640000Y-119255000D01*
X150640000Y-119505000D01*
X150620000Y-119505000D01*
X150620000Y-120617453D01*
X150832668Y-120712893D01*
X150954759Y-120675864D01*
X151198735Y-120561270D01*
X151415667Y-120401280D01*
X151597218Y-120202043D01*
X151736412Y-119971216D01*
X151808186Y-119772302D01*
X151808186Y-120230000D01*
X151815426Y-120303513D01*
X151836869Y-120374200D01*
X151871691Y-120439347D01*
X151918552Y-120496448D01*
X151975653Y-120543309D01*
X152040800Y-120578131D01*
X152111487Y-120599574D01*
X152185000Y-120606814D01*
X153885000Y-120606814D01*
X153958513Y-120599574D01*
X154029200Y-120578131D01*
X154094347Y-120543309D01*
X154151448Y-120496448D01*
X154198309Y-120439347D01*
X154233131Y-120374200D01*
X154254574Y-120303513D01*
X154261814Y-120230000D01*
X154261814Y-119380000D01*
X154394315Y-119380000D01*
X154417002Y-119610340D01*
X154484189Y-119831829D01*
X154593296Y-120035953D01*
X154740130Y-120214870D01*
X154919047Y-120361704D01*
X155123171Y-120470811D01*
X155344660Y-120537998D01*
X155517280Y-120555000D01*
X155632720Y-120555000D01*
X155805340Y-120537998D01*
X156026829Y-120470811D01*
X156230953Y-120361704D01*
X156409870Y-120214870D01*
X156556704Y-120035953D01*
X156665811Y-119831829D01*
X156732998Y-119610340D01*
X156755685Y-119380000D01*
X156732998Y-119149660D01*
X156665811Y-118928171D01*
X156556704Y-118724047D01*
X156409870Y-118545130D01*
X156230953Y-118398296D01*
X156026829Y-118289189D01*
X155805340Y-118222002D01*
X155632720Y-118205000D01*
X155517280Y-118205000D01*
X155344660Y-118222002D01*
X155123171Y-118289189D01*
X154919047Y-118398296D01*
X154740130Y-118545130D01*
X154593296Y-118724047D01*
X154484189Y-118928171D01*
X154417002Y-119149660D01*
X154394315Y-119380000D01*
X154261814Y-119380000D01*
X154261814Y-118530000D01*
X154254574Y-118456487D01*
X154233131Y-118385800D01*
X154198309Y-118320653D01*
X154151448Y-118263552D01*
X154094347Y-118216691D01*
X154029200Y-118181869D01*
X153958513Y-118160426D01*
X153885000Y-118153186D01*
X152185000Y-118153186D01*
X152111487Y-118160426D01*
X152040800Y-118181869D01*
X151975653Y-118216691D01*
X151918552Y-118263552D01*
X151871691Y-118320653D01*
X151836869Y-118385800D01*
X151815426Y-118456487D01*
X151808186Y-118530000D01*
X151808186Y-118987698D01*
X151736412Y-118788784D01*
X151597218Y-118557957D01*
X151415667Y-118358720D01*
X151198735Y-118198730D01*
X150954759Y-118084136D01*
X150832668Y-118047107D01*
X150620000Y-118142547D01*
X150370000Y-118142547D01*
X150157332Y-118047107D01*
X150035241Y-118084136D01*
X149791265Y-118198730D01*
X149574333Y-118358720D01*
X149392782Y-118557957D01*
X149253588Y-118788784D01*
X149162101Y-119042331D01*
X149256937Y-119254998D01*
X149173615Y-119254998D01*
X149162275Y-119139858D01*
X149092228Y-118908945D01*
X148978478Y-118696134D01*
X148825397Y-118509603D01*
X148638866Y-118356522D01*
X148426055Y-118242772D01*
X148195142Y-118172725D01*
X148015178Y-118155000D01*
X147894822Y-118155000D01*
X147714858Y-118172725D01*
X147483945Y-118242772D01*
X147271134Y-118356522D01*
X147084603Y-118509603D01*
X146931522Y-118696134D01*
X146817772Y-118908945D01*
X146747725Y-119139858D01*
X146724073Y-119380000D01*
X146747725Y-119620142D01*
X146808245Y-119819649D01*
X146300095Y-120327800D01*
X146191081Y-120327800D01*
X146285397Y-120250397D01*
X146438478Y-120063866D01*
X146552228Y-119851055D01*
X146622275Y-119620142D01*
X146645927Y-119380000D01*
X146622275Y-119139858D01*
X146552228Y-118908945D01*
X146438478Y-118696134D01*
X146285397Y-118509603D01*
X146098866Y-118356522D01*
X145920254Y-118261052D01*
X146132186Y-118049121D01*
X146151264Y-118033464D01*
X146213746Y-117957329D01*
X146260175Y-117870467D01*
X146288765Y-117776217D01*
X146296000Y-117702760D01*
X146296000Y-117702751D01*
X146298418Y-117678201D01*
X146296000Y-117653651D01*
X146296000Y-116178757D01*
X146298419Y-116154199D01*
X146292242Y-116091487D01*
X146288765Y-116056183D01*
X146260175Y-115961933D01*
X146213746Y-115875071D01*
X146151264Y-115798936D01*
X146132181Y-115783275D01*
X144035400Y-113686495D01*
X144035400Y-110712180D01*
X144888662Y-109858919D01*
X144942985Y-109990068D01*
X145038743Y-110133380D01*
X145160620Y-110255257D01*
X145303932Y-110351015D01*
X145463172Y-110416974D01*
X145632220Y-110450600D01*
X145804580Y-110450600D01*
X145973628Y-110416974D01*
X146132868Y-110351015D01*
X146276180Y-110255257D01*
X146398057Y-110133380D01*
X146468400Y-110028104D01*
X146538743Y-110133380D01*
X146660620Y-110255257D01*
X146803932Y-110351015D01*
X146963172Y-110416974D01*
X147132220Y-110450600D01*
X147304580Y-110450600D01*
X147473628Y-110416974D01*
X147551800Y-110384594D01*
X147551800Y-111989495D01*
X147516495Y-112024800D01*
X147482118Y-112024800D01*
X147351710Y-112050740D01*
X147228868Y-112101623D01*
X147118313Y-112175493D01*
X147024293Y-112269513D01*
X146950423Y-112380068D01*
X146899540Y-112502910D01*
X146873600Y-112633318D01*
X146873600Y-112766282D01*
X146899540Y-112896690D01*
X146950423Y-113019532D01*
X147024293Y-113130087D01*
X147118313Y-113224107D01*
X147228868Y-113297977D01*
X147351710Y-113348860D01*
X147482118Y-113374800D01*
X147615082Y-113374800D01*
X147745490Y-113348860D01*
X147868332Y-113297977D01*
X147978887Y-113224107D01*
X148039201Y-113163793D01*
X148039201Y-115953605D01*
X148014893Y-115977913D01*
X147941023Y-116088468D01*
X147890140Y-116211310D01*
X147864200Y-116341718D01*
X147864200Y-116474682D01*
X147890140Y-116605090D01*
X147941023Y-116727932D01*
X148014893Y-116838487D01*
X148108913Y-116932507D01*
X148219468Y-117006377D01*
X148342310Y-117057260D01*
X148472718Y-117083200D01*
X148605682Y-117083200D01*
X148736090Y-117057260D01*
X148858932Y-117006377D01*
X148969487Y-116932507D01*
X149061994Y-116840000D01*
X154394315Y-116840000D01*
X154417002Y-117070340D01*
X154484189Y-117291829D01*
X154593296Y-117495953D01*
X154740130Y-117674870D01*
X154919047Y-117821704D01*
X155123171Y-117930811D01*
X155344660Y-117997998D01*
X155517280Y-118015000D01*
X155632720Y-118015000D01*
X155805340Y-117997998D01*
X156026829Y-117930811D01*
X156230953Y-117821704D01*
X156409870Y-117674870D01*
X156556704Y-117495953D01*
X156665811Y-117291829D01*
X156732998Y-117070340D01*
X156755685Y-116840000D01*
X156732998Y-116609660D01*
X156665811Y-116388171D01*
X156556704Y-116184047D01*
X156409870Y-116005130D01*
X156230953Y-115858296D01*
X156026829Y-115749189D01*
X155805340Y-115682002D01*
X155632720Y-115665000D01*
X155517280Y-115665000D01*
X155344660Y-115682002D01*
X155123171Y-115749189D01*
X154919047Y-115858296D01*
X154740130Y-116005130D01*
X154593296Y-116184047D01*
X154484189Y-116388171D01*
X154417002Y-116609660D01*
X154394315Y-116840000D01*
X149061994Y-116840000D01*
X149063507Y-116838487D01*
X149137377Y-116727932D01*
X149188260Y-116605090D01*
X149214200Y-116474682D01*
X149214200Y-116341718D01*
X149188260Y-116211310D01*
X149137377Y-116088468D01*
X149063507Y-115977913D01*
X149039200Y-115953606D01*
X149039200Y-105906200D01*
X149092953Y-105916892D01*
X149225917Y-105916892D01*
X149350002Y-105892210D01*
X149350001Y-108809054D01*
X149343300Y-108877089D01*
X149345720Y-108901659D01*
X149345719Y-112305361D01*
X149343300Y-112329921D01*
X149347357Y-112371113D01*
X149352954Y-112427937D01*
X149381544Y-112522187D01*
X149427973Y-112609050D01*
X149490455Y-112685185D01*
X149509543Y-112700850D01*
X149642198Y-112833505D01*
X149642198Y-112867882D01*
X149668138Y-112998290D01*
X149719021Y-113121132D01*
X149792891Y-113231687D01*
X149886911Y-113325707D01*
X149997466Y-113399577D01*
X150120308Y-113450460D01*
X150250716Y-113476400D01*
X150383680Y-113476400D01*
X150514088Y-113450460D01*
X150636930Y-113399577D01*
X150747485Y-113325707D01*
X150841505Y-113231687D01*
X150915375Y-113121132D01*
X150966258Y-112998290D01*
X150992198Y-112867882D01*
X150992198Y-112734918D01*
X150966258Y-112604510D01*
X150915375Y-112481668D01*
X150841505Y-112371113D01*
X150747485Y-112277093D01*
X150636930Y-112203223D01*
X150514088Y-112152340D01*
X150383680Y-112126400D01*
X150349303Y-112126400D01*
X150345719Y-112122816D01*
X150345719Y-111157240D01*
X153824664Y-114636187D01*
X153840320Y-114655264D01*
X153916455Y-114717746D01*
X154003317Y-114764175D01*
X154097567Y-114792765D01*
X154171024Y-114800000D01*
X154171033Y-114800000D01*
X154195583Y-114802418D01*
X154220133Y-114800000D01*
X154509937Y-114800000D01*
X154593296Y-114955953D01*
X154740130Y-115134870D01*
X154919047Y-115281704D01*
X155123171Y-115390811D01*
X155344660Y-115457998D01*
X155517280Y-115475000D01*
X155632720Y-115475000D01*
X155805340Y-115457998D01*
X156026829Y-115390811D01*
X156230953Y-115281704D01*
X156409870Y-115134870D01*
X156556704Y-114955953D01*
X156665811Y-114751829D01*
X156732998Y-114530340D01*
X156755685Y-114300000D01*
X156732998Y-114069660D01*
X156665811Y-113848171D01*
X156556704Y-113644047D01*
X156409870Y-113465130D01*
X156230953Y-113318296D01*
X156026829Y-113209189D01*
X155805340Y-113142002D01*
X155632720Y-113125000D01*
X155517280Y-113125000D01*
X155344660Y-113142002D01*
X155123171Y-113209189D01*
X154919047Y-113318296D01*
X154740130Y-113465130D01*
X154593296Y-113644047D01*
X154509937Y-113800000D01*
X154402691Y-113800000D01*
X152634090Y-112031400D01*
X153645440Y-112031400D01*
X153670000Y-112033819D01*
X153694560Y-112031400D01*
X153768017Y-112024165D01*
X153862267Y-111995575D01*
X153949129Y-111949146D01*
X154025264Y-111886664D01*
X154040929Y-111867576D01*
X154433616Y-111474890D01*
X154417002Y-111529660D01*
X154394315Y-111760000D01*
X154417002Y-111990340D01*
X154484189Y-112211829D01*
X154593296Y-112415953D01*
X154740130Y-112594870D01*
X154919047Y-112741704D01*
X155123171Y-112850811D01*
X155344660Y-112917998D01*
X155517280Y-112935000D01*
X155632720Y-112935000D01*
X155805340Y-112917998D01*
X156026829Y-112850811D01*
X156230953Y-112741704D01*
X156409870Y-112594870D01*
X156556704Y-112415953D01*
X156665811Y-112211829D01*
X156732998Y-111990340D01*
X156755685Y-111760000D01*
X156732998Y-111529660D01*
X156665811Y-111308171D01*
X156556704Y-111104047D01*
X156409870Y-110925130D01*
X156230953Y-110778296D01*
X156026829Y-110669189D01*
X155805340Y-110602002D01*
X155632720Y-110585000D01*
X155517280Y-110585000D01*
X155344660Y-110602002D01*
X155229394Y-110636967D01*
X155239176Y-110618666D01*
X155267766Y-110524415D01*
X155275001Y-110450958D01*
X155275001Y-110450950D01*
X155277419Y-110426400D01*
X155275001Y-110401850D01*
X155275001Y-110356867D01*
X155344660Y-110377998D01*
X155517280Y-110395000D01*
X155632720Y-110395000D01*
X155805340Y-110377998D01*
X156026829Y-110310811D01*
X156230953Y-110201704D01*
X156409870Y-110054870D01*
X156556704Y-109875953D01*
X156665811Y-109671829D01*
X156732998Y-109450340D01*
X156755685Y-109220000D01*
X156732998Y-108989660D01*
X156665811Y-108768171D01*
X156556704Y-108564047D01*
X156409870Y-108385130D01*
X156230953Y-108238296D01*
X156026829Y-108129189D01*
X155805340Y-108062002D01*
X155632720Y-108045000D01*
X155517280Y-108045000D01*
X155344660Y-108062002D01*
X155123171Y-108129189D01*
X154919047Y-108238296D01*
X154740130Y-108385130D01*
X154593296Y-108564047D01*
X154484189Y-108768171D01*
X154417002Y-108989660D01*
X154394315Y-109220000D01*
X154417002Y-109450340D01*
X154468334Y-109619561D01*
X154438825Y-109649070D01*
X154419737Y-109664735D01*
X154357255Y-109740870D01*
X154310826Y-109827733D01*
X154296199Y-109875953D01*
X154282236Y-109921982D01*
X154272582Y-110019999D01*
X154275001Y-110044559D01*
X154275001Y-110219292D01*
X154014608Y-110479686D01*
X153947805Y-110379707D01*
X153923498Y-110355400D01*
X153923498Y-106680000D01*
X154394315Y-106680000D01*
X154417002Y-106910340D01*
X154484189Y-107131829D01*
X154593296Y-107335953D01*
X154740130Y-107514870D01*
X154919047Y-107661704D01*
X155123171Y-107770811D01*
X155344660Y-107837998D01*
X155517280Y-107855000D01*
X155632720Y-107855000D01*
X155805340Y-107837998D01*
X156026829Y-107770811D01*
X156230953Y-107661704D01*
X156409870Y-107514870D01*
X156556704Y-107335953D01*
X156665811Y-107131829D01*
X156732998Y-106910340D01*
X156755685Y-106680000D01*
X156732998Y-106449660D01*
X156665811Y-106228171D01*
X156556704Y-106024047D01*
X156409870Y-105845130D01*
X156230953Y-105698296D01*
X156026829Y-105589189D01*
X155805340Y-105522002D01*
X155632720Y-105505000D01*
X155517280Y-105505000D01*
X155344660Y-105522002D01*
X155123171Y-105589189D01*
X154919047Y-105698296D01*
X154740130Y-105845130D01*
X154593296Y-106024047D01*
X154484189Y-106228171D01*
X154417002Y-106449660D01*
X154394315Y-106680000D01*
X153923498Y-106680000D01*
X153923498Y-103195603D01*
X154468334Y-103740440D01*
X154417002Y-103909660D01*
X154394315Y-104140000D01*
X154417002Y-104370340D01*
X154484189Y-104591829D01*
X154593296Y-104795953D01*
X154740130Y-104974870D01*
X154919047Y-105121704D01*
X155123171Y-105230811D01*
X155344660Y-105297998D01*
X155517280Y-105315000D01*
X155632720Y-105315000D01*
X155805340Y-105297998D01*
X156026829Y-105230811D01*
X156230953Y-105121704D01*
X156409870Y-104974870D01*
X156556704Y-104795953D01*
X156665811Y-104591829D01*
X156732998Y-104370340D01*
X156755685Y-104140000D01*
X156732998Y-103909660D01*
X156665811Y-103688171D01*
X156556704Y-103484047D01*
X156409870Y-103305130D01*
X156230953Y-103158296D01*
X156026829Y-103049189D01*
X155805340Y-102982002D01*
X155632720Y-102965000D01*
X155517280Y-102965000D01*
X155344660Y-102982002D01*
X155175440Y-103033334D01*
X154576400Y-102434295D01*
X154576400Y-102224343D01*
X154593296Y-102255953D01*
X154740130Y-102434870D01*
X154919047Y-102581704D01*
X155123171Y-102690811D01*
X155344660Y-102757998D01*
X155517280Y-102775000D01*
X155632720Y-102775000D01*
X155805340Y-102757998D01*
X156026829Y-102690811D01*
X156230953Y-102581704D01*
X156409870Y-102434870D01*
X156556704Y-102255953D01*
X156665811Y-102051829D01*
X156732998Y-101830340D01*
X156755685Y-101600000D01*
X156732998Y-101369660D01*
X156665811Y-101148171D01*
X156556704Y-100944047D01*
X156409870Y-100765130D01*
X156230953Y-100618296D01*
X156026829Y-100509189D01*
X155805340Y-100442002D01*
X155632720Y-100425000D01*
X155517280Y-100425000D01*
X155344660Y-100442002D01*
X155175440Y-100493334D01*
X154118343Y-99436238D01*
X154118343Y-98123618D01*
X154142650Y-98099311D01*
X154184605Y-98036521D01*
X154275001Y-98126918D01*
X154275001Y-98235441D01*
X154272582Y-98260001D01*
X154278699Y-98322109D01*
X154282236Y-98358017D01*
X154310826Y-98452267D01*
X154357255Y-98539130D01*
X154419737Y-98615265D01*
X154438825Y-98630930D01*
X154468334Y-98660439D01*
X154417002Y-98829660D01*
X154394315Y-99060000D01*
X154417002Y-99290340D01*
X154484189Y-99511829D01*
X154593296Y-99715953D01*
X154740130Y-99894870D01*
X154919047Y-100041704D01*
X155123171Y-100150811D01*
X155344660Y-100217998D01*
X155517280Y-100235000D01*
X155632720Y-100235000D01*
X155805340Y-100217998D01*
X156026829Y-100150811D01*
X156230953Y-100041704D01*
X156409870Y-99894870D01*
X156556704Y-99715953D01*
X156665811Y-99511829D01*
X156732998Y-99290340D01*
X156755685Y-99060000D01*
X156732998Y-98829660D01*
X156665811Y-98608171D01*
X156556704Y-98404047D01*
X156409870Y-98225130D01*
X156230953Y-98078296D01*
X156026829Y-97969189D01*
X155805340Y-97902002D01*
X155632720Y-97885000D01*
X155517280Y-97885000D01*
X155344660Y-97902002D01*
X155277156Y-97922479D01*
X155277419Y-97919810D01*
X155275001Y-97895260D01*
X155275001Y-97895252D01*
X155267766Y-97821795D01*
X155239176Y-97727544D01*
X155192747Y-97640682D01*
X155183169Y-97629011D01*
X155344660Y-97677998D01*
X155517280Y-97695000D01*
X155632720Y-97695000D01*
X155805340Y-97677998D01*
X156026829Y-97610811D01*
X156230953Y-97501704D01*
X156409870Y-97354870D01*
X156556704Y-97175953D01*
X156665811Y-96971829D01*
X156732998Y-96750340D01*
X156755685Y-96520000D01*
X156732998Y-96289660D01*
X156665811Y-96068171D01*
X156556704Y-95864047D01*
X156409870Y-95685130D01*
X156230953Y-95538296D01*
X156026829Y-95429189D01*
X155805340Y-95362002D01*
X155632720Y-95345000D01*
X155517280Y-95345000D01*
X155344660Y-95362002D01*
X155123171Y-95429189D01*
X155059778Y-95463073D01*
X155040760Y-95461200D01*
X155016200Y-95458781D01*
X154991640Y-95461200D01*
X153669535Y-95461200D01*
X154558981Y-94571755D01*
X154593296Y-94635953D01*
X154740130Y-94814870D01*
X154919047Y-94961704D01*
X155123171Y-95070811D01*
X155344660Y-95137998D01*
X155517280Y-95155000D01*
X155632720Y-95155000D01*
X155805340Y-95137998D01*
X156026829Y-95070811D01*
X156230953Y-94961704D01*
X156409870Y-94814870D01*
X156556704Y-94635953D01*
X156665811Y-94431829D01*
X156732998Y-94210340D01*
X156755685Y-93980000D01*
X156732998Y-93749660D01*
X156665811Y-93528171D01*
X156556704Y-93324047D01*
X156409870Y-93145130D01*
X156230953Y-92998296D01*
X156026829Y-92889189D01*
X155805340Y-92822002D01*
X155632720Y-92805000D01*
X155517280Y-92805000D01*
X155344660Y-92822002D01*
X155123171Y-92889189D01*
X154919047Y-92998296D01*
X154740130Y-93145130D01*
X154593296Y-93324047D01*
X154509937Y-93480000D01*
X154468187Y-93480000D01*
X154443629Y-93477581D01*
X154419071Y-93480000D01*
X154419070Y-93480000D01*
X154345613Y-93487235D01*
X154251363Y-93515825D01*
X154164501Y-93562254D01*
X154138576Y-93583530D01*
X155175440Y-92546666D01*
X155344660Y-92597998D01*
X155517280Y-92615000D01*
X155632720Y-92615000D01*
X155805340Y-92597998D01*
X156026829Y-92530811D01*
X156230953Y-92421704D01*
X156409870Y-92274870D01*
X156556704Y-92095953D01*
X156665811Y-91891829D01*
X156732998Y-91670340D01*
X156755685Y-91440000D01*
X156732998Y-91209660D01*
X156665811Y-90988171D01*
X156556704Y-90784047D01*
X156409870Y-90605130D01*
X156230953Y-90458296D01*
X156026829Y-90349189D01*
X155805340Y-90282002D01*
X155632720Y-90265000D01*
X155517280Y-90265000D01*
X155344660Y-90282002D01*
X155123171Y-90349189D01*
X154919047Y-90458296D01*
X154740130Y-90605130D01*
X154593296Y-90784047D01*
X154484189Y-90988171D01*
X154417002Y-91209660D01*
X154394315Y-91440000D01*
X154417002Y-91670340D01*
X154468334Y-91839560D01*
X151581224Y-94726671D01*
X151562136Y-94742336D01*
X151499654Y-94818471D01*
X151453225Y-94905334D01*
X151437072Y-94958585D01*
X151424635Y-94999583D01*
X151414981Y-95097600D01*
X151417400Y-95122160D01*
X151417401Y-97762162D01*
X151382124Y-97726885D01*
X151271569Y-97653015D01*
X151148727Y-97602132D01*
X151018319Y-97576192D01*
X150885355Y-97576192D01*
X150831444Y-97586916D01*
X150831444Y-94888872D01*
X150855751Y-94864565D01*
X150929621Y-94754010D01*
X150980504Y-94631168D01*
X151006444Y-94500760D01*
X151006444Y-94367796D01*
X150980504Y-94237388D01*
X150929621Y-94114546D01*
X150855751Y-94003991D01*
X150761731Y-93909971D01*
X150705177Y-93872183D01*
X152099154Y-92478206D01*
X152228339Y-92452509D01*
X152351181Y-92401626D01*
X152461736Y-92327756D01*
X152555756Y-92233736D01*
X152629626Y-92123181D01*
X152680509Y-92000339D01*
X152706449Y-91869931D01*
X152706449Y-91736967D01*
X152680509Y-91606559D01*
X152629626Y-91483717D01*
X152555756Y-91373162D01*
X152461736Y-91279142D01*
X152412118Y-91245988D01*
X154258107Y-89400000D01*
X154509937Y-89400000D01*
X154593296Y-89555953D01*
X154740130Y-89734870D01*
X154919047Y-89881704D01*
X155123171Y-89990811D01*
X155344660Y-90057998D01*
X155517280Y-90075000D01*
X155632720Y-90075000D01*
X155805340Y-90057998D01*
X156026829Y-89990811D01*
X156230953Y-89881704D01*
X156409870Y-89734870D01*
X156556704Y-89555953D01*
X156665811Y-89351829D01*
X156732998Y-89130340D01*
X156755685Y-88900000D01*
X156732998Y-88669660D01*
X156665811Y-88448171D01*
X156556704Y-88244047D01*
X156409870Y-88065130D01*
X156230953Y-87918296D01*
X156026829Y-87809189D01*
X155805340Y-87742002D01*
X155632720Y-87725000D01*
X155517280Y-87725000D01*
X155344660Y-87742002D01*
X155199728Y-87785966D01*
X155456664Y-87529030D01*
X155517280Y-87535000D01*
X155632720Y-87535000D01*
X155805340Y-87517998D01*
X156026829Y-87450811D01*
X156230953Y-87341704D01*
X156409870Y-87194870D01*
X156556704Y-87015953D01*
X156665811Y-86811829D01*
X156732998Y-86590340D01*
X156755685Y-86360000D01*
X156732998Y-86129660D01*
X156665811Y-85908171D01*
X156556704Y-85704047D01*
X156409870Y-85525130D01*
X156230953Y-85378296D01*
X156026829Y-85269189D01*
X155805340Y-85202002D01*
X155632720Y-85185000D01*
X155517280Y-85185000D01*
X155344660Y-85202002D01*
X155123171Y-85269189D01*
X154919047Y-85378296D01*
X154740130Y-85525130D01*
X154593296Y-85704047D01*
X154484189Y-85908171D01*
X154417002Y-86129660D01*
X154394315Y-86360000D01*
X154417002Y-86590340D01*
X154484189Y-86811829D01*
X154580140Y-86991340D01*
X149226814Y-92344668D01*
X149226814Y-92006000D01*
X149219574Y-91932487D01*
X149198131Y-91861800D01*
X149163309Y-91796653D01*
X149116448Y-91739552D01*
X149059347Y-91692691D01*
X148994200Y-91657869D01*
X148923513Y-91636426D01*
X148850000Y-91629186D01*
X148750000Y-91629186D01*
X148750000Y-91377814D01*
X148850000Y-91377814D01*
X148923513Y-91370574D01*
X148994200Y-91349131D01*
X149059347Y-91314309D01*
X149116448Y-91267448D01*
X149163309Y-91210347D01*
X149198131Y-91145200D01*
X149219574Y-91074513D01*
X149226814Y-91001000D01*
X149226814Y-90776200D01*
X149236340Y-90824090D01*
X149287223Y-90946932D01*
X149361093Y-91057487D01*
X149455113Y-91151507D01*
X149565668Y-91225377D01*
X149688510Y-91276260D01*
X149818918Y-91302200D01*
X149951882Y-91302200D01*
X150082290Y-91276260D01*
X150205132Y-91225377D01*
X150315687Y-91151507D01*
X150409707Y-91057487D01*
X150483577Y-90946932D01*
X150534460Y-90824090D01*
X150560400Y-90693682D01*
X150560400Y-90560718D01*
X150534460Y-90430310D01*
X150483577Y-90307468D01*
X150409707Y-90196913D01*
X150385400Y-90172606D01*
X150385400Y-90155960D01*
X150387819Y-90131400D01*
X150378165Y-90033383D01*
X150354934Y-89956800D01*
X150349575Y-89939133D01*
X150303146Y-89852271D01*
X150240664Y-89776136D01*
X150221587Y-89760480D01*
X149226814Y-88765708D01*
X149226814Y-88196000D01*
X149219574Y-88122487D01*
X149198131Y-88051800D01*
X149166702Y-87993000D01*
X149225002Y-87993000D01*
X149225002Y-87861752D01*
X149356250Y-87993000D01*
X149700000Y-87995540D01*
X149802918Y-87985403D01*
X149901881Y-87955383D01*
X149993086Y-87906633D01*
X150073027Y-87841027D01*
X150138633Y-87761086D01*
X150187383Y-87669881D01*
X150217403Y-87570918D01*
X150227540Y-87468000D01*
X150225000Y-87124250D01*
X150093750Y-86993000D01*
X149225000Y-86993000D01*
X149225000Y-87013000D01*
X148975000Y-87013000D01*
X148975000Y-86993000D01*
X148106250Y-86993000D01*
X147975000Y-87124250D01*
X147972460Y-87468000D01*
X147982597Y-87570918D01*
X148012617Y-87669881D01*
X148061367Y-87761086D01*
X148109049Y-87819186D01*
X147650000Y-87819186D01*
X147626500Y-87821500D01*
X147644200Y-87816131D01*
X147709347Y-87781309D01*
X147766448Y-87734448D01*
X147813309Y-87677347D01*
X147848131Y-87612200D01*
X147869574Y-87541513D01*
X147876814Y-87468000D01*
X147876814Y-86268000D01*
X147972460Y-86268000D01*
X147975000Y-86611750D01*
X148106250Y-86743000D01*
X148975000Y-86743000D01*
X148975000Y-85874250D01*
X149225000Y-85874250D01*
X149225000Y-86743000D01*
X150093750Y-86743000D01*
X150225000Y-86611750D01*
X150227540Y-86268000D01*
X150217403Y-86165082D01*
X150187383Y-86066119D01*
X150138633Y-85974914D01*
X150073027Y-85894973D01*
X149993086Y-85829367D01*
X149901881Y-85780617D01*
X149802918Y-85750597D01*
X149700000Y-85740460D01*
X149356250Y-85743000D01*
X149225000Y-85874250D01*
X148975000Y-85874250D01*
X148843750Y-85743000D01*
X148500000Y-85740460D01*
X148397082Y-85750597D01*
X148298119Y-85780617D01*
X148206914Y-85829367D01*
X148126973Y-85894973D01*
X148061367Y-85974914D01*
X148012617Y-86066119D01*
X147982597Y-86165082D01*
X147972460Y-86268000D01*
X147876814Y-86268000D01*
X147869574Y-86194487D01*
X147848131Y-86123800D01*
X147813309Y-86058653D01*
X147766448Y-86001552D01*
X147709347Y-85954691D01*
X147644200Y-85919869D01*
X147573513Y-85898426D01*
X147500000Y-85891186D01*
X146300000Y-85891186D01*
X146226487Y-85898426D01*
X146155800Y-85919869D01*
X146090653Y-85954691D01*
X146033552Y-86001552D01*
X145986691Y-86058653D01*
X145951869Y-86123800D01*
X145936516Y-86174410D01*
X145625929Y-85863824D01*
X145610264Y-85844736D01*
X145534129Y-85782254D01*
X145447267Y-85735825D01*
X145373205Y-85713359D01*
X145369574Y-85676487D01*
X145348131Y-85605800D01*
X145313309Y-85540653D01*
X145266448Y-85483552D01*
X145209347Y-85436691D01*
X145144200Y-85401869D01*
X145073513Y-85380426D01*
X145000000Y-85373186D01*
X144500000Y-85373186D01*
X144426487Y-85380426D01*
X144355800Y-85401869D01*
X144290653Y-85436691D01*
X144233552Y-85483552D01*
X144186691Y-85540653D01*
X144151869Y-85605800D01*
X144130426Y-85676487D01*
X144123186Y-85750000D01*
X144123186Y-86650000D01*
X144130426Y-86723513D01*
X144132793Y-86731316D01*
X143867207Y-86731316D01*
X143869574Y-86723513D01*
X143876814Y-86650000D01*
X143876814Y-85750000D01*
X143869574Y-85676487D01*
X143848131Y-85605800D01*
X143813309Y-85540653D01*
X143766448Y-85483552D01*
X143709347Y-85436691D01*
X143644200Y-85401869D01*
X143573513Y-85380426D01*
X143500000Y-85373186D01*
X143000000Y-85373186D01*
X142926487Y-85380426D01*
X142855800Y-85401869D01*
X142790653Y-85436691D01*
X142733552Y-85483552D01*
X142686691Y-85540653D01*
X142651869Y-85605800D01*
X142630877Y-85675000D01*
X142480771Y-85675000D01*
X142471842Y-85630110D01*
X142420959Y-85507268D01*
X142347089Y-85396713D01*
X142253069Y-85302693D01*
X142142514Y-85228823D01*
X142019672Y-85177940D01*
X141889264Y-85152000D01*
X141756300Y-85152000D01*
X141625892Y-85177940D01*
X141503050Y-85228823D01*
X141403122Y-85295592D01*
X141401448Y-85293552D01*
X141344347Y-85246691D01*
X141279200Y-85211869D01*
X141208513Y-85190426D01*
X141135000Y-85183186D01*
X139535000Y-85183186D01*
X139461487Y-85190426D01*
X139390800Y-85211869D01*
X139325653Y-85246691D01*
X139268552Y-85293552D01*
X139221691Y-85350653D01*
X139186869Y-85415800D01*
X139165426Y-85486487D01*
X139158186Y-85560000D01*
X139158186Y-87160000D01*
X139165426Y-87233513D01*
X139186869Y-87304200D01*
X139221691Y-87369347D01*
X139268552Y-87426448D01*
X139325653Y-87473309D01*
X139390800Y-87508131D01*
X139461487Y-87529574D01*
X139535000Y-87536814D01*
X141135000Y-87536814D01*
X141208513Y-87529574D01*
X141279200Y-87508131D01*
X141344347Y-87473309D01*
X141401448Y-87426448D01*
X141448309Y-87369347D01*
X141483131Y-87304200D01*
X141504574Y-87233513D01*
X141508773Y-87190879D01*
X141885395Y-87567502D01*
X141901052Y-87586580D01*
X141977187Y-87649062D01*
X142064049Y-87695491D01*
X142133378Y-87716521D01*
X142114783Y-87739179D01*
X142093314Y-87779345D01*
X142068354Y-87826041D01*
X142039763Y-87920291D01*
X142030109Y-88018308D01*
X142032529Y-88042878D01*
X142032528Y-90940365D01*
X141649819Y-91323076D01*
X141630737Y-91338736D01*
X141568255Y-91414871D01*
X141554823Y-91440001D01*
X141521826Y-91501733D01*
X141503729Y-91561390D01*
X141515685Y-91440000D01*
X141492998Y-91209660D01*
X141425811Y-90988171D01*
X141316704Y-90784047D01*
X141169870Y-90605130D01*
X140990953Y-90458296D01*
X140786829Y-90349189D01*
X140565340Y-90282002D01*
X140392720Y-90265000D01*
X140277280Y-90265000D01*
X140104660Y-90282002D01*
X139883171Y-90349189D01*
X139679047Y-90458296D01*
X139500130Y-90605130D01*
X139353296Y-90784047D01*
X139244189Y-90988171D01*
X139177002Y-91209660D01*
X139154315Y-91440000D01*
X139177002Y-91670340D01*
X139244189Y-91891829D01*
X139353296Y-92095953D01*
X139500130Y-92274870D01*
X139679047Y-92421704D01*
X139883171Y-92530811D01*
X140104660Y-92597998D01*
X140277280Y-92615000D01*
X140392720Y-92615000D01*
X140565340Y-92597998D01*
X140786829Y-92530811D01*
X140990953Y-92421704D01*
X141169870Y-92274870D01*
X141316704Y-92095953D01*
X141425811Y-91891829D01*
X141484130Y-91699574D01*
X141486001Y-91718570D01*
X141486000Y-92121893D01*
X140734560Y-92873334D01*
X140565340Y-92822002D01*
X140392720Y-92805000D01*
X140277280Y-92805000D01*
X140104660Y-92822002D01*
X139883171Y-92889189D01*
X139679047Y-92998296D01*
X139500130Y-93145130D01*
X139353296Y-93324047D01*
X139244189Y-93528171D01*
X139177002Y-93749660D01*
X139154315Y-93980000D01*
X139177002Y-94210340D01*
X139244189Y-94431829D01*
X139353296Y-94635953D01*
X139500130Y-94814870D01*
X139679047Y-94961704D01*
X139883171Y-95070811D01*
X140104660Y-95137998D01*
X140277280Y-95155000D01*
X140392720Y-95155000D01*
X140565340Y-95137998D01*
X140786829Y-95070811D01*
X140990953Y-94961704D01*
X141169870Y-94814870D01*
X141316704Y-94635953D01*
X141425811Y-94431829D01*
X141492998Y-94210340D01*
X141515685Y-93980000D01*
X141492998Y-93749660D01*
X141441666Y-93580440D01*
X142248000Y-92774106D01*
X142248000Y-93447440D01*
X142245581Y-93472000D01*
X142248001Y-93496570D01*
X142248000Y-93899893D01*
X140734561Y-95413334D01*
X140565340Y-95362002D01*
X140392720Y-95345000D01*
X140277280Y-95345000D01*
X140104660Y-95362002D01*
X139883171Y-95429189D01*
X139679047Y-95538296D01*
X139500130Y-95685130D01*
X139353296Y-95864047D01*
X139244189Y-96068171D01*
X139177002Y-96289660D01*
X139154315Y-96520000D01*
X139177002Y-96750340D01*
X139244189Y-96971829D01*
X139353296Y-97175953D01*
X139500130Y-97354870D01*
X139679047Y-97501704D01*
X139883171Y-97610811D01*
X140104660Y-97677998D01*
X140277280Y-97695000D01*
X140392720Y-97695000D01*
X140565340Y-97677998D01*
X140786829Y-97610811D01*
X140990953Y-97501704D01*
X141169870Y-97354870D01*
X141316704Y-97175953D01*
X141425811Y-96971829D01*
X141492998Y-96750340D01*
X141515685Y-96520000D01*
X141492998Y-96289660D01*
X141441666Y-96120439D01*
X143084187Y-94477920D01*
X143103264Y-94462264D01*
X143165746Y-94386129D01*
X143212175Y-94299267D01*
X143240765Y-94205017D01*
X143248000Y-94131560D01*
X143248000Y-94131551D01*
X143250418Y-94107001D01*
X143248000Y-94082451D01*
X143248000Y-93972000D01*
X144859440Y-93972000D01*
X144884000Y-93974419D01*
X144908560Y-93972000D01*
X144982017Y-93964765D01*
X145076267Y-93936175D01*
X145163129Y-93889746D01*
X145239264Y-93827264D01*
X145254929Y-93808176D01*
X145780292Y-93282814D01*
X146441800Y-93282814D01*
X146441800Y-93284482D01*
X146467740Y-93414890D01*
X146518623Y-93537732D01*
X146592493Y-93648287D01*
X146686513Y-93742307D01*
X146797068Y-93816177D01*
X146919910Y-93867060D01*
X147050318Y-93893000D01*
X147183282Y-93893000D01*
X147313690Y-93867060D01*
X147436532Y-93816177D01*
X147547087Y-93742307D01*
X147641107Y-93648287D01*
X147714977Y-93537732D01*
X147765860Y-93414890D01*
X147791800Y-93284482D01*
X147791800Y-93282814D01*
X148288668Y-93282814D01*
X147710426Y-93861056D01*
X147691338Y-93876721D01*
X147628856Y-93952856D01*
X147582427Y-94039719D01*
X147570507Y-94079014D01*
X147553837Y-94133968D01*
X147544183Y-94231985D01*
X147546602Y-94256545D01*
X147546603Y-95838880D01*
X146392751Y-96992733D01*
X146359597Y-96943114D01*
X146265577Y-96849094D01*
X146155022Y-96775224D01*
X146032180Y-96724341D01*
X145901772Y-96698401D01*
X145768808Y-96698401D01*
X145638400Y-96724341D01*
X145515558Y-96775224D01*
X145405003Y-96849094D01*
X145396179Y-96857918D01*
X145376927Y-96838666D01*
X145266372Y-96764796D01*
X145252249Y-96758946D01*
X146076331Y-95934864D01*
X146136668Y-95975179D01*
X146259510Y-96026062D01*
X146389918Y-96052002D01*
X146522882Y-96052002D01*
X146653290Y-96026062D01*
X146776132Y-95975179D01*
X146886687Y-95901309D01*
X146980707Y-95807289D01*
X147054577Y-95696734D01*
X147105460Y-95573892D01*
X147131400Y-95443484D01*
X147131400Y-95310520D01*
X147105460Y-95180112D01*
X147054577Y-95057270D01*
X146980707Y-94946715D01*
X146886687Y-94852695D01*
X146776132Y-94778825D01*
X146653290Y-94727942D01*
X146522882Y-94702002D01*
X146389918Y-94702002D01*
X146259510Y-94727942D01*
X146136668Y-94778825D01*
X146026113Y-94852695D01*
X146001806Y-94877002D01*
X145951635Y-94877002D01*
X145927085Y-94874584D01*
X145902535Y-94877002D01*
X145902526Y-94877002D01*
X145829069Y-94884237D01*
X145734819Y-94912827D01*
X145647957Y-94959256D01*
X145571822Y-95021738D01*
X145556166Y-95040815D01*
X141660000Y-98936983D01*
X141660000Y-98934998D01*
X141522188Y-98934998D01*
X141618296Y-98730188D01*
X141585259Y-98621266D01*
X141475643Y-98385783D01*
X141322193Y-98176209D01*
X141130805Y-98000599D01*
X140908835Y-97865701D01*
X140664813Y-97776699D01*
X140460000Y-97872154D01*
X140460000Y-98935000D01*
X140480000Y-98935000D01*
X140480000Y-99185000D01*
X140460000Y-99185000D01*
X140460000Y-100247846D01*
X140635000Y-100329406D01*
X140635000Y-100463133D01*
X140565340Y-100442002D01*
X140392720Y-100425000D01*
X140277280Y-100425000D01*
X140104660Y-100442002D01*
X139883171Y-100509189D01*
X139679047Y-100618296D01*
X139500130Y-100765130D01*
X139353296Y-100944047D01*
X139244189Y-101148171D01*
X139177002Y-101369660D01*
X139154315Y-101600000D01*
X139177002Y-101830340D01*
X139244189Y-102051829D01*
X139353296Y-102255953D01*
X139495849Y-102429653D01*
X139406933Y-102456625D01*
X139320071Y-102503054D01*
X139243936Y-102565536D01*
X139228279Y-102584614D01*
X139134000Y-102678893D01*
X139134000Y-99604555D01*
X139194357Y-99734217D01*
X139347807Y-99943791D01*
X139539195Y-100119401D01*
X139761165Y-100254299D01*
X140005187Y-100343301D01*
X140210000Y-100247846D01*
X140210000Y-99185000D01*
X140190000Y-99185000D01*
X140190000Y-98935000D01*
X140210000Y-98935000D01*
X140210000Y-97872154D01*
X140005187Y-97776699D01*
X139761165Y-97865701D01*
X139539195Y-98000599D01*
X139347807Y-98176209D01*
X139194357Y-98385783D01*
X139134000Y-98515445D01*
X139134000Y-88900000D01*
X139154315Y-88900000D01*
X139177002Y-89130340D01*
X139244189Y-89351829D01*
X139353296Y-89555953D01*
X139500130Y-89734870D01*
X139679047Y-89881704D01*
X139883171Y-89990811D01*
X140104660Y-90057998D01*
X140277280Y-90075000D01*
X140392720Y-90075000D01*
X140565340Y-90057998D01*
X140786829Y-89990811D01*
X140990953Y-89881704D01*
X141169870Y-89734870D01*
X141316704Y-89555953D01*
X141425811Y-89351829D01*
X141492998Y-89130340D01*
X141515685Y-88900000D01*
X141492998Y-88669660D01*
X141425811Y-88448171D01*
X141316704Y-88244047D01*
X141169870Y-88065130D01*
X140990953Y-87918296D01*
X140786829Y-87809189D01*
X140565340Y-87742002D01*
X140392720Y-87725000D01*
X140277280Y-87725000D01*
X140104660Y-87742002D01*
X139883171Y-87809189D01*
X139679047Y-87918296D01*
X139500130Y-88065130D01*
X139353296Y-88244047D01*
X139244189Y-88448171D01*
X139177002Y-88669660D01*
X139154315Y-88900000D01*
X139134000Y-88900000D01*
X139134000Y-85620005D01*
X139151733Y-85439146D01*
X139197866Y-85286348D01*
X139272804Y-85145411D01*
X139373684Y-85021719D01*
X139496670Y-84919977D01*
X139637071Y-84844062D01*
X139669576Y-84834000D01*
X146582607Y-84834000D01*
X146592222Y-84864311D01*
X146592222Y-84864311D01*
G37*
X146592222Y-84864311D02*
X146608306Y-84901838D01*
X146623833Y-84939509D01*
X146626821Y-84945036D01*
X146722348Y-85118797D01*
X146745400Y-85152464D01*
X146767959Y-85186418D01*
X146771964Y-85191260D01*
X146899421Y-85343157D01*
X146928591Y-85371723D01*
X146957301Y-85400634D01*
X146962170Y-85404606D01*
X147116704Y-85528854D01*
X147150845Y-85551196D01*
X147184646Y-85573995D01*
X147190193Y-85576945D01*
X147365917Y-85668811D01*
X147403762Y-85684101D01*
X147441332Y-85699894D01*
X147447343Y-85701709D01*
X147447349Y-85701711D01*
X147637568Y-85757695D01*
X147677631Y-85765338D01*
X147717584Y-85773539D01*
X147723835Y-85774152D01*
X147723837Y-85774152D01*
X147921309Y-85792123D01*
X147962127Y-85791838D01*
X148002878Y-85792123D01*
X148009131Y-85791510D01*
X148206333Y-85770783D01*
X148246269Y-85762585D01*
X148286347Y-85754940D01*
X148292362Y-85753124D01*
X148481784Y-85694489D01*
X148519435Y-85678662D01*
X148557200Y-85663404D01*
X148562742Y-85660458D01*
X148562746Y-85660456D01*
X148562749Y-85660454D01*
X148737171Y-85566144D01*
X148771008Y-85543321D01*
X148805112Y-85521004D01*
X148809981Y-85517033D01*
X148962765Y-85390639D01*
X148991507Y-85361695D01*
X149020644Y-85333163D01*
X149024649Y-85328322D01*
X149149973Y-85174660D01*
X149172554Y-85140673D01*
X149195586Y-85107036D01*
X149198574Y-85101509D01*
X149291665Y-84926431D01*
X149307210Y-84888715D01*
X149323275Y-84851233D01*
X149325133Y-84845231D01*
X149328524Y-84834000D01*
X156241599Y-84834000D01*
X156267652Y-84841866D01*
X156408589Y-84916804D01*
X156532281Y-85017684D01*
X156634023Y-85140670D01*
X156709938Y-85281071D01*
X156757138Y-85433551D01*
X156776000Y-85613013D01*
X156776001Y-120119985D01*
X156758267Y-120300854D01*
X156712134Y-120453653D01*
X156637198Y-120594587D01*
X156536317Y-120718279D01*
X156413334Y-120820021D01*
X156272928Y-120895938D01*
X156120449Y-120943138D01*
X155940987Y-120962000D01*
X147080105Y-120962000D01*
X147515351Y-120526755D01*
X147714858Y-120587275D01*
X147894822Y-120605000D01*
X148015178Y-120605000D01*
X148195142Y-120587275D01*
X148426055Y-120517228D01*
X148638866Y-120403478D01*
X148825397Y-120250397D01*
X148978478Y-120063866D01*
X149092228Y-119851055D01*
X149162275Y-119620142D01*
X149173615Y-119505002D01*
X149256937Y-119505002D01*
X149162101Y-119717669D01*
X149253588Y-119971216D01*
X149392782Y-120202043D01*
X149574333Y-120401280D01*
X149791265Y-120561270D01*
X150035241Y-120675864D01*
X150157332Y-120712893D01*
X150370000Y-120617453D01*
X150370000Y-119505000D01*
X150350000Y-119505000D01*
X150350000Y-119255000D01*
X150370000Y-119255000D01*
X150370000Y-118142547D01*
X150620000Y-118142547D01*
X150620000Y-119255000D01*
X150640000Y-119255000D01*
X150640000Y-119505000D01*
X150620000Y-119505000D01*
X150620000Y-120617453D01*
X150832668Y-120712893D01*
X150954759Y-120675864D01*
X151198735Y-120561270D01*
X151415667Y-120401280D01*
X151597218Y-120202043D01*
X151736412Y-119971216D01*
X151808186Y-119772302D01*
X151808186Y-120230000D01*
X151815426Y-120303513D01*
X151836869Y-120374200D01*
X151871691Y-120439347D01*
X151918552Y-120496448D01*
X151975653Y-120543309D01*
X152040800Y-120578131D01*
X152111487Y-120599574D01*
X152185000Y-120606814D01*
X153885000Y-120606814D01*
X153958513Y-120599574D01*
X154029200Y-120578131D01*
X154094347Y-120543309D01*
X154151448Y-120496448D01*
X154198309Y-120439347D01*
X154233131Y-120374200D01*
X154254574Y-120303513D01*
X154261814Y-120230000D01*
X154261814Y-119380000D01*
X154394315Y-119380000D01*
X154417002Y-119610340D01*
X154484189Y-119831829D01*
X154593296Y-120035953D01*
X154740130Y-120214870D01*
X154919047Y-120361704D01*
X155123171Y-120470811D01*
X155344660Y-120537998D01*
X155517280Y-120555000D01*
X155632720Y-120555000D01*
X155805340Y-120537998D01*
X156026829Y-120470811D01*
X156230953Y-120361704D01*
X156409870Y-120214870D01*
X156556704Y-120035953D01*
X156665811Y-119831829D01*
X156732998Y-119610340D01*
X156755685Y-119380000D01*
X156732998Y-119149660D01*
X156665811Y-118928171D01*
X156556704Y-118724047D01*
X156409870Y-118545130D01*
X156230953Y-118398296D01*
X156026829Y-118289189D01*
X155805340Y-118222002D01*
X155632720Y-118205000D01*
X155517280Y-118205000D01*
X155344660Y-118222002D01*
X155123171Y-118289189D01*
X154919047Y-118398296D01*
X154740130Y-118545130D01*
X154593296Y-118724047D01*
X154484189Y-118928171D01*
X154417002Y-119149660D01*
X154394315Y-119380000D01*
X154261814Y-119380000D01*
X154261814Y-118530000D01*
X154254574Y-118456487D01*
X154233131Y-118385800D01*
X154198309Y-118320653D01*
X154151448Y-118263552D01*
X154094347Y-118216691D01*
X154029200Y-118181869D01*
X153958513Y-118160426D01*
X153885000Y-118153186D01*
X152185000Y-118153186D01*
X152111487Y-118160426D01*
X152040800Y-118181869D01*
X151975653Y-118216691D01*
X151918552Y-118263552D01*
X151871691Y-118320653D01*
X151836869Y-118385800D01*
X151815426Y-118456487D01*
X151808186Y-118530000D01*
X151808186Y-118987698D01*
X151736412Y-118788784D01*
X151597218Y-118557957D01*
X151415667Y-118358720D01*
X151198735Y-118198730D01*
X150954759Y-118084136D01*
X150832668Y-118047107D01*
X150620000Y-118142547D01*
X150370000Y-118142547D01*
X150157332Y-118047107D01*
X150035241Y-118084136D01*
X149791265Y-118198730D01*
X149574333Y-118358720D01*
X149392782Y-118557957D01*
X149253588Y-118788784D01*
X149162101Y-119042331D01*
X149256937Y-119254998D01*
X149173615Y-119254998D01*
X149162275Y-119139858D01*
X149092228Y-118908945D01*
X148978478Y-118696134D01*
X148825397Y-118509603D01*
X148638866Y-118356522D01*
X148426055Y-118242772D01*
X148195142Y-118172725D01*
X148015178Y-118155000D01*
X147894822Y-118155000D01*
X147714858Y-118172725D01*
X147483945Y-118242772D01*
X147271134Y-118356522D01*
X147084603Y-118509603D01*
X146931522Y-118696134D01*
X146817772Y-118908945D01*
X146747725Y-119139858D01*
X146724073Y-119380000D01*
X146747725Y-119620142D01*
X146808245Y-119819649D01*
X146300095Y-120327800D01*
X146191081Y-120327800D01*
X146285397Y-120250397D01*
X146438478Y-120063866D01*
X146552228Y-119851055D01*
X146622275Y-119620142D01*
X146645927Y-119380000D01*
X146622275Y-119139858D01*
X146552228Y-118908945D01*
X146438478Y-118696134D01*
X146285397Y-118509603D01*
X146098866Y-118356522D01*
X145920254Y-118261052D01*
X146132186Y-118049121D01*
X146151264Y-118033464D01*
X146213746Y-117957329D01*
X146260175Y-117870467D01*
X146288765Y-117776217D01*
X146296000Y-117702760D01*
X146296000Y-117702751D01*
X146298418Y-117678201D01*
X146296000Y-117653651D01*
X146296000Y-116178757D01*
X146298419Y-116154199D01*
X146292242Y-116091487D01*
X146288765Y-116056183D01*
X146260175Y-115961933D01*
X146213746Y-115875071D01*
X146151264Y-115798936D01*
X146132181Y-115783275D01*
X144035400Y-113686495D01*
X144035400Y-110712180D01*
X144888662Y-109858919D01*
X144942985Y-109990068D01*
X145038743Y-110133380D01*
X145160620Y-110255257D01*
X145303932Y-110351015D01*
X145463172Y-110416974D01*
X145632220Y-110450600D01*
X145804580Y-110450600D01*
X145973628Y-110416974D01*
X146132868Y-110351015D01*
X146276180Y-110255257D01*
X146398057Y-110133380D01*
X146468400Y-110028104D01*
X146538743Y-110133380D01*
X146660620Y-110255257D01*
X146803932Y-110351015D01*
X146963172Y-110416974D01*
X147132220Y-110450600D01*
X147304580Y-110450600D01*
X147473628Y-110416974D01*
X147551800Y-110384594D01*
X147551800Y-111989495D01*
X147516495Y-112024800D01*
X147482118Y-112024800D01*
X147351710Y-112050740D01*
X147228868Y-112101623D01*
X147118313Y-112175493D01*
X147024293Y-112269513D01*
X146950423Y-112380068D01*
X146899540Y-112502910D01*
X146873600Y-112633318D01*
X146873600Y-112766282D01*
X146899540Y-112896690D01*
X146950423Y-113019532D01*
X147024293Y-113130087D01*
X147118313Y-113224107D01*
X147228868Y-113297977D01*
X147351710Y-113348860D01*
X147482118Y-113374800D01*
X147615082Y-113374800D01*
X147745490Y-113348860D01*
X147868332Y-113297977D01*
X147978887Y-113224107D01*
X148039201Y-113163793D01*
X148039201Y-115953605D01*
X148014893Y-115977913D01*
X147941023Y-116088468D01*
X147890140Y-116211310D01*
X147864200Y-116341718D01*
X147864200Y-116474682D01*
X147890140Y-116605090D01*
X147941023Y-116727932D01*
X148014893Y-116838487D01*
X148108913Y-116932507D01*
X148219468Y-117006377D01*
X148342310Y-117057260D01*
X148472718Y-117083200D01*
X148605682Y-117083200D01*
X148736090Y-117057260D01*
X148858932Y-117006377D01*
X148969487Y-116932507D01*
X149061994Y-116840000D01*
X154394315Y-116840000D01*
X154417002Y-117070340D01*
X154484189Y-117291829D01*
X154593296Y-117495953D01*
X154740130Y-117674870D01*
X154919047Y-117821704D01*
X155123171Y-117930811D01*
X155344660Y-117997998D01*
X155517280Y-118015000D01*
X155632720Y-118015000D01*
X155805340Y-117997998D01*
X156026829Y-117930811D01*
X156230953Y-117821704D01*
X156409870Y-117674870D01*
X156556704Y-117495953D01*
X156665811Y-117291829D01*
X156732998Y-117070340D01*
X156755685Y-116840000D01*
X156732998Y-116609660D01*
X156665811Y-116388171D01*
X156556704Y-116184047D01*
X156409870Y-116005130D01*
X156230953Y-115858296D01*
X156026829Y-115749189D01*
X155805340Y-115682002D01*
X155632720Y-115665000D01*
X155517280Y-115665000D01*
X155344660Y-115682002D01*
X155123171Y-115749189D01*
X154919047Y-115858296D01*
X154740130Y-116005130D01*
X154593296Y-116184047D01*
X154484189Y-116388171D01*
X154417002Y-116609660D01*
X154394315Y-116840000D01*
X149061994Y-116840000D01*
X149063507Y-116838487D01*
X149137377Y-116727932D01*
X149188260Y-116605090D01*
X149214200Y-116474682D01*
X149214200Y-116341718D01*
X149188260Y-116211310D01*
X149137377Y-116088468D01*
X149063507Y-115977913D01*
X149039200Y-115953606D01*
X149039200Y-105906200D01*
X149092953Y-105916892D01*
X149225917Y-105916892D01*
X149350002Y-105892210D01*
X149350001Y-108809054D01*
X149343300Y-108877089D01*
X149345720Y-108901659D01*
X149345719Y-112305361D01*
X149343300Y-112329921D01*
X149347357Y-112371113D01*
X149352954Y-112427937D01*
X149381544Y-112522187D01*
X149427973Y-112609050D01*
X149490455Y-112685185D01*
X149509543Y-112700850D01*
X149642198Y-112833505D01*
X149642198Y-112867882D01*
X149668138Y-112998290D01*
X149719021Y-113121132D01*
X149792891Y-113231687D01*
X149886911Y-113325707D01*
X149997466Y-113399577D01*
X150120308Y-113450460D01*
X150250716Y-113476400D01*
X150383680Y-113476400D01*
X150514088Y-113450460D01*
X150636930Y-113399577D01*
X150747485Y-113325707D01*
X150841505Y-113231687D01*
X150915375Y-113121132D01*
X150966258Y-112998290D01*
X150992198Y-112867882D01*
X150992198Y-112734918D01*
X150966258Y-112604510D01*
X150915375Y-112481668D01*
X150841505Y-112371113D01*
X150747485Y-112277093D01*
X150636930Y-112203223D01*
X150514088Y-112152340D01*
X150383680Y-112126400D01*
X150349303Y-112126400D01*
X150345719Y-112122816D01*
X150345719Y-111157240D01*
X153824664Y-114636187D01*
X153840320Y-114655264D01*
X153916455Y-114717746D01*
X154003317Y-114764175D01*
X154097567Y-114792765D01*
X154171024Y-114800000D01*
X154171033Y-114800000D01*
X154195583Y-114802418D01*
X154220133Y-114800000D01*
X154509937Y-114800000D01*
X154593296Y-114955953D01*
X154740130Y-115134870D01*
X154919047Y-115281704D01*
X155123171Y-115390811D01*
X155344660Y-115457998D01*
X155517280Y-115475000D01*
X155632720Y-115475000D01*
X155805340Y-115457998D01*
X156026829Y-115390811D01*
X156230953Y-115281704D01*
X156409870Y-115134870D01*
X156556704Y-114955953D01*
X156665811Y-114751829D01*
X156732998Y-114530340D01*
X156755685Y-114300000D01*
X156732998Y-114069660D01*
X156665811Y-113848171D01*
X156556704Y-113644047D01*
X156409870Y-113465130D01*
X156230953Y-113318296D01*
X156026829Y-113209189D01*
X155805340Y-113142002D01*
X155632720Y-113125000D01*
X155517280Y-113125000D01*
X155344660Y-113142002D01*
X155123171Y-113209189D01*
X154919047Y-113318296D01*
X154740130Y-113465130D01*
X154593296Y-113644047D01*
X154509937Y-113800000D01*
X154402691Y-113800000D01*
X152634090Y-112031400D01*
X153645440Y-112031400D01*
X153670000Y-112033819D01*
X153694560Y-112031400D01*
X153768017Y-112024165D01*
X153862267Y-111995575D01*
X153949129Y-111949146D01*
X154025264Y-111886664D01*
X154040929Y-111867576D01*
X154433616Y-111474890D01*
X154417002Y-111529660D01*
X154394315Y-111760000D01*
X154417002Y-111990340D01*
X154484189Y-112211829D01*
X154593296Y-112415953D01*
X154740130Y-112594870D01*
X154919047Y-112741704D01*
X155123171Y-112850811D01*
X155344660Y-112917998D01*
X155517280Y-112935000D01*
X155632720Y-112935000D01*
X155805340Y-112917998D01*
X156026829Y-112850811D01*
X156230953Y-112741704D01*
X156409870Y-112594870D01*
X156556704Y-112415953D01*
X156665811Y-112211829D01*
X156732998Y-111990340D01*
X156755685Y-111760000D01*
X156732998Y-111529660D01*
X156665811Y-111308171D01*
X156556704Y-111104047D01*
X156409870Y-110925130D01*
X156230953Y-110778296D01*
X156026829Y-110669189D01*
X155805340Y-110602002D01*
X155632720Y-110585000D01*
X155517280Y-110585000D01*
X155344660Y-110602002D01*
X155229394Y-110636967D01*
X155239176Y-110618666D01*
X155267766Y-110524415D01*
X155275001Y-110450958D01*
X155275001Y-110450950D01*
X155277419Y-110426400D01*
X155275001Y-110401850D01*
X155275001Y-110356867D01*
X155344660Y-110377998D01*
X155517280Y-110395000D01*
X155632720Y-110395000D01*
X155805340Y-110377998D01*
X156026829Y-110310811D01*
X156230953Y-110201704D01*
X156409870Y-110054870D01*
X156556704Y-109875953D01*
X156665811Y-109671829D01*
X156732998Y-109450340D01*
X156755685Y-109220000D01*
X156732998Y-108989660D01*
X156665811Y-108768171D01*
X156556704Y-108564047D01*
X156409870Y-108385130D01*
X156230953Y-108238296D01*
X156026829Y-108129189D01*
X155805340Y-108062002D01*
X155632720Y-108045000D01*
X155517280Y-108045000D01*
X155344660Y-108062002D01*
X155123171Y-108129189D01*
X154919047Y-108238296D01*
X154740130Y-108385130D01*
X154593296Y-108564047D01*
X154484189Y-108768171D01*
X154417002Y-108989660D01*
X154394315Y-109220000D01*
X154417002Y-109450340D01*
X154468334Y-109619561D01*
X154438825Y-109649070D01*
X154419737Y-109664735D01*
X154357255Y-109740870D01*
X154310826Y-109827733D01*
X154296199Y-109875953D01*
X154282236Y-109921982D01*
X154272582Y-110019999D01*
X154275001Y-110044559D01*
X154275001Y-110219292D01*
X154014608Y-110479686D01*
X153947805Y-110379707D01*
X153923498Y-110355400D01*
X153923498Y-106680000D01*
X154394315Y-106680000D01*
X154417002Y-106910340D01*
X154484189Y-107131829D01*
X154593296Y-107335953D01*
X154740130Y-107514870D01*
X154919047Y-107661704D01*
X155123171Y-107770811D01*
X155344660Y-107837998D01*
X155517280Y-107855000D01*
X155632720Y-107855000D01*
X155805340Y-107837998D01*
X156026829Y-107770811D01*
X156230953Y-107661704D01*
X156409870Y-107514870D01*
X156556704Y-107335953D01*
X156665811Y-107131829D01*
X156732998Y-106910340D01*
X156755685Y-106680000D01*
X156732998Y-106449660D01*
X156665811Y-106228171D01*
X156556704Y-106024047D01*
X156409870Y-105845130D01*
X156230953Y-105698296D01*
X156026829Y-105589189D01*
X155805340Y-105522002D01*
X155632720Y-105505000D01*
X155517280Y-105505000D01*
X155344660Y-105522002D01*
X155123171Y-105589189D01*
X154919047Y-105698296D01*
X154740130Y-105845130D01*
X154593296Y-106024047D01*
X154484189Y-106228171D01*
X154417002Y-106449660D01*
X154394315Y-106680000D01*
X153923498Y-106680000D01*
X153923498Y-103195603D01*
X154468334Y-103740440D01*
X154417002Y-103909660D01*
X154394315Y-104140000D01*
X154417002Y-104370340D01*
X154484189Y-104591829D01*
X154593296Y-104795953D01*
X154740130Y-104974870D01*
X154919047Y-105121704D01*
X155123171Y-105230811D01*
X155344660Y-105297998D01*
X155517280Y-105315000D01*
X155632720Y-105315000D01*
X155805340Y-105297998D01*
X156026829Y-105230811D01*
X156230953Y-105121704D01*
X156409870Y-104974870D01*
X156556704Y-104795953D01*
X156665811Y-104591829D01*
X156732998Y-104370340D01*
X156755685Y-104140000D01*
X156732998Y-103909660D01*
X156665811Y-103688171D01*
X156556704Y-103484047D01*
X156409870Y-103305130D01*
X156230953Y-103158296D01*
X156026829Y-103049189D01*
X155805340Y-102982002D01*
X155632720Y-102965000D01*
X155517280Y-102965000D01*
X155344660Y-102982002D01*
X155175440Y-103033334D01*
X154576400Y-102434295D01*
X154576400Y-102224343D01*
X154593296Y-102255953D01*
X154740130Y-102434870D01*
X154919047Y-102581704D01*
X155123171Y-102690811D01*
X155344660Y-102757998D01*
X155517280Y-102775000D01*
X155632720Y-102775000D01*
X155805340Y-102757998D01*
X156026829Y-102690811D01*
X156230953Y-102581704D01*
X156409870Y-102434870D01*
X156556704Y-102255953D01*
X156665811Y-102051829D01*
X156732998Y-101830340D01*
X156755685Y-101600000D01*
X156732998Y-101369660D01*
X156665811Y-101148171D01*
X156556704Y-100944047D01*
X156409870Y-100765130D01*
X156230953Y-100618296D01*
X156026829Y-100509189D01*
X155805340Y-100442002D01*
X155632720Y-100425000D01*
X155517280Y-100425000D01*
X155344660Y-100442002D01*
X155175440Y-100493334D01*
X154118343Y-99436238D01*
X154118343Y-98123618D01*
X154142650Y-98099311D01*
X154184605Y-98036521D01*
X154275001Y-98126918D01*
X154275001Y-98235441D01*
X154272582Y-98260001D01*
X154278699Y-98322109D01*
X154282236Y-98358017D01*
X154310826Y-98452267D01*
X154357255Y-98539130D01*
X154419737Y-98615265D01*
X154438825Y-98630930D01*
X154468334Y-98660439D01*
X154417002Y-98829660D01*
X154394315Y-99060000D01*
X154417002Y-99290340D01*
X154484189Y-99511829D01*
X154593296Y-99715953D01*
X154740130Y-99894870D01*
X154919047Y-100041704D01*
X155123171Y-100150811D01*
X155344660Y-100217998D01*
X155517280Y-100235000D01*
X155632720Y-100235000D01*
X155805340Y-100217998D01*
X156026829Y-100150811D01*
X156230953Y-100041704D01*
X156409870Y-99894870D01*
X156556704Y-99715953D01*
X156665811Y-99511829D01*
X156732998Y-99290340D01*
X156755685Y-99060000D01*
X156732998Y-98829660D01*
X156665811Y-98608171D01*
X156556704Y-98404047D01*
X156409870Y-98225130D01*
X156230953Y-98078296D01*
X156026829Y-97969189D01*
X155805340Y-97902002D01*
X155632720Y-97885000D01*
X155517280Y-97885000D01*
X155344660Y-97902002D01*
X155277156Y-97922479D01*
X155277419Y-97919810D01*
X155275001Y-97895260D01*
X155275001Y-97895252D01*
X155267766Y-97821795D01*
X155239176Y-97727544D01*
X155192747Y-97640682D01*
X155183169Y-97629011D01*
X155344660Y-97677998D01*
X155517280Y-97695000D01*
X155632720Y-97695000D01*
X155805340Y-97677998D01*
X156026829Y-97610811D01*
X156230953Y-97501704D01*
X156409870Y-97354870D01*
X156556704Y-97175953D01*
X156665811Y-96971829D01*
X156732998Y-96750340D01*
X156755685Y-96520000D01*
X156732998Y-96289660D01*
X156665811Y-96068171D01*
X156556704Y-95864047D01*
X156409870Y-95685130D01*
X156230953Y-95538296D01*
X156026829Y-95429189D01*
X155805340Y-95362002D01*
X155632720Y-95345000D01*
X155517280Y-95345000D01*
X155344660Y-95362002D01*
X155123171Y-95429189D01*
X155059778Y-95463073D01*
X155040760Y-95461200D01*
X155016200Y-95458781D01*
X154991640Y-95461200D01*
X153669535Y-95461200D01*
X154558981Y-94571755D01*
X154593296Y-94635953D01*
X154740130Y-94814870D01*
X154919047Y-94961704D01*
X155123171Y-95070811D01*
X155344660Y-95137998D01*
X155517280Y-95155000D01*
X155632720Y-95155000D01*
X155805340Y-95137998D01*
X156026829Y-95070811D01*
X156230953Y-94961704D01*
X156409870Y-94814870D01*
X156556704Y-94635953D01*
X156665811Y-94431829D01*
X156732998Y-94210340D01*
X156755685Y-93980000D01*
X156732998Y-93749660D01*
X156665811Y-93528171D01*
X156556704Y-93324047D01*
X156409870Y-93145130D01*
X156230953Y-92998296D01*
X156026829Y-92889189D01*
X155805340Y-92822002D01*
X155632720Y-92805000D01*
X155517280Y-92805000D01*
X155344660Y-92822002D01*
X155123171Y-92889189D01*
X154919047Y-92998296D01*
X154740130Y-93145130D01*
X154593296Y-93324047D01*
X154509937Y-93480000D01*
X154468187Y-93480000D01*
X154443629Y-93477581D01*
X154419071Y-93480000D01*
X154419070Y-93480000D01*
X154345613Y-93487235D01*
X154251363Y-93515825D01*
X154164501Y-93562254D01*
X154138576Y-93583530D01*
X155175440Y-92546666D01*
X155344660Y-92597998D01*
X155517280Y-92615000D01*
X155632720Y-92615000D01*
X155805340Y-92597998D01*
X156026829Y-92530811D01*
X156230953Y-92421704D01*
X156409870Y-92274870D01*
X156556704Y-92095953D01*
X156665811Y-91891829D01*
X156732998Y-91670340D01*
X156755685Y-91440000D01*
X156732998Y-91209660D01*
X156665811Y-90988171D01*
X156556704Y-90784047D01*
X156409870Y-90605130D01*
X156230953Y-90458296D01*
X156026829Y-90349189D01*
X155805340Y-90282002D01*
X155632720Y-90265000D01*
X155517280Y-90265000D01*
X155344660Y-90282002D01*
X155123171Y-90349189D01*
X154919047Y-90458296D01*
X154740130Y-90605130D01*
X154593296Y-90784047D01*
X154484189Y-90988171D01*
X154417002Y-91209660D01*
X154394315Y-91440000D01*
X154417002Y-91670340D01*
X154468334Y-91839560D01*
X151581224Y-94726671D01*
X151562136Y-94742336D01*
X151499654Y-94818471D01*
X151453225Y-94905334D01*
X151437072Y-94958585D01*
X151424635Y-94999583D01*
X151414981Y-95097600D01*
X151417400Y-95122160D01*
X151417401Y-97762162D01*
X151382124Y-97726885D01*
X151271569Y-97653015D01*
X151148727Y-97602132D01*
X151018319Y-97576192D01*
X150885355Y-97576192D01*
X150831444Y-97586916D01*
X150831444Y-94888872D01*
X150855751Y-94864565D01*
X150929621Y-94754010D01*
X150980504Y-94631168D01*
X151006444Y-94500760D01*
X151006444Y-94367796D01*
X150980504Y-94237388D01*
X150929621Y-94114546D01*
X150855751Y-94003991D01*
X150761731Y-93909971D01*
X150705177Y-93872183D01*
X152099154Y-92478206D01*
X152228339Y-92452509D01*
X152351181Y-92401626D01*
X152461736Y-92327756D01*
X152555756Y-92233736D01*
X152629626Y-92123181D01*
X152680509Y-92000339D01*
X152706449Y-91869931D01*
X152706449Y-91736967D01*
X152680509Y-91606559D01*
X152629626Y-91483717D01*
X152555756Y-91373162D01*
X152461736Y-91279142D01*
X152412118Y-91245988D01*
X154258107Y-89400000D01*
X154509937Y-89400000D01*
X154593296Y-89555953D01*
X154740130Y-89734870D01*
X154919047Y-89881704D01*
X155123171Y-89990811D01*
X155344660Y-90057998D01*
X155517280Y-90075000D01*
X155632720Y-90075000D01*
X155805340Y-90057998D01*
X156026829Y-89990811D01*
X156230953Y-89881704D01*
X156409870Y-89734870D01*
X156556704Y-89555953D01*
X156665811Y-89351829D01*
X156732998Y-89130340D01*
X156755685Y-88900000D01*
X156732998Y-88669660D01*
X156665811Y-88448171D01*
X156556704Y-88244047D01*
X156409870Y-88065130D01*
X156230953Y-87918296D01*
X156026829Y-87809189D01*
X155805340Y-87742002D01*
X155632720Y-87725000D01*
X155517280Y-87725000D01*
X155344660Y-87742002D01*
X155199728Y-87785966D01*
X155456664Y-87529030D01*
X155517280Y-87535000D01*
X155632720Y-87535000D01*
X155805340Y-87517998D01*
X156026829Y-87450811D01*
X156230953Y-87341704D01*
X156409870Y-87194870D01*
X156556704Y-87015953D01*
X156665811Y-86811829D01*
X156732998Y-86590340D01*
X156755685Y-86360000D01*
X156732998Y-86129660D01*
X156665811Y-85908171D01*
X156556704Y-85704047D01*
X156409870Y-85525130D01*
X156230953Y-85378296D01*
X156026829Y-85269189D01*
X155805340Y-85202002D01*
X155632720Y-85185000D01*
X155517280Y-85185000D01*
X155344660Y-85202002D01*
X155123171Y-85269189D01*
X154919047Y-85378296D01*
X154740130Y-85525130D01*
X154593296Y-85704047D01*
X154484189Y-85908171D01*
X154417002Y-86129660D01*
X154394315Y-86360000D01*
X154417002Y-86590340D01*
X154484189Y-86811829D01*
X154580140Y-86991340D01*
X149226814Y-92344668D01*
X149226814Y-92006000D01*
X149219574Y-91932487D01*
X149198131Y-91861800D01*
X149163309Y-91796653D01*
X149116448Y-91739552D01*
X149059347Y-91692691D01*
X148994200Y-91657869D01*
X148923513Y-91636426D01*
X148850000Y-91629186D01*
X148750000Y-91629186D01*
X148750000Y-91377814D01*
X148850000Y-91377814D01*
X148923513Y-91370574D01*
X148994200Y-91349131D01*
X149059347Y-91314309D01*
X149116448Y-91267448D01*
X149163309Y-91210347D01*
X149198131Y-91145200D01*
X149219574Y-91074513D01*
X149226814Y-91001000D01*
X149226814Y-90776200D01*
X149236340Y-90824090D01*
X149287223Y-90946932D01*
X149361093Y-91057487D01*
X149455113Y-91151507D01*
X149565668Y-91225377D01*
X149688510Y-91276260D01*
X149818918Y-91302200D01*
X149951882Y-91302200D01*
X150082290Y-91276260D01*
X150205132Y-91225377D01*
X150315687Y-91151507D01*
X150409707Y-91057487D01*
X150483577Y-90946932D01*
X150534460Y-90824090D01*
X150560400Y-90693682D01*
X150560400Y-90560718D01*
X150534460Y-90430310D01*
X150483577Y-90307468D01*
X150409707Y-90196913D01*
X150385400Y-90172606D01*
X150385400Y-90155960D01*
X150387819Y-90131400D01*
X150378165Y-90033383D01*
X150354934Y-89956800D01*
X150349575Y-89939133D01*
X150303146Y-89852271D01*
X150240664Y-89776136D01*
X150221587Y-89760480D01*
X149226814Y-88765708D01*
X149226814Y-88196000D01*
X149219574Y-88122487D01*
X149198131Y-88051800D01*
X149166702Y-87993000D01*
X149225002Y-87993000D01*
X149225002Y-87861752D01*
X149356250Y-87993000D01*
X149700000Y-87995540D01*
X149802918Y-87985403D01*
X149901881Y-87955383D01*
X149993086Y-87906633D01*
X150073027Y-87841027D01*
X150138633Y-87761086D01*
X150187383Y-87669881D01*
X150217403Y-87570918D01*
X150227540Y-87468000D01*
X150225000Y-87124250D01*
X150093750Y-86993000D01*
X149225000Y-86993000D01*
X149225000Y-87013000D01*
X148975000Y-87013000D01*
X148975000Y-86993000D01*
X148106250Y-86993000D01*
X147975000Y-87124250D01*
X147972460Y-87468000D01*
X147982597Y-87570918D01*
X148012617Y-87669881D01*
X148061367Y-87761086D01*
X148109049Y-87819186D01*
X147650000Y-87819186D01*
X147626500Y-87821500D01*
X147644200Y-87816131D01*
X147709347Y-87781309D01*
X147766448Y-87734448D01*
X147813309Y-87677347D01*
X147848131Y-87612200D01*
X147869574Y-87541513D01*
X147876814Y-87468000D01*
X147876814Y-86268000D01*
X147972460Y-86268000D01*
X147975000Y-86611750D01*
X148106250Y-86743000D01*
X148975000Y-86743000D01*
X148975000Y-85874250D01*
X149225000Y-85874250D01*
X149225000Y-86743000D01*
X150093750Y-86743000D01*
X150225000Y-86611750D01*
X150227540Y-86268000D01*
X150217403Y-86165082D01*
X150187383Y-86066119D01*
X150138633Y-85974914D01*
X150073027Y-85894973D01*
X149993086Y-85829367D01*
X149901881Y-85780617D01*
X149802918Y-85750597D01*
X149700000Y-85740460D01*
X149356250Y-85743000D01*
X149225000Y-85874250D01*
X148975000Y-85874250D01*
X148843750Y-85743000D01*
X148500000Y-85740460D01*
X148397082Y-85750597D01*
X148298119Y-85780617D01*
X148206914Y-85829367D01*
X148126973Y-85894973D01*
X148061367Y-85974914D01*
X148012617Y-86066119D01*
X147982597Y-86165082D01*
X147972460Y-86268000D01*
X147876814Y-86268000D01*
X147869574Y-86194487D01*
X147848131Y-86123800D01*
X147813309Y-86058653D01*
X147766448Y-86001552D01*
X147709347Y-85954691D01*
X147644200Y-85919869D01*
X147573513Y-85898426D01*
X147500000Y-85891186D01*
X146300000Y-85891186D01*
X146226487Y-85898426D01*
X146155800Y-85919869D01*
X146090653Y-85954691D01*
X146033552Y-86001552D01*
X145986691Y-86058653D01*
X145951869Y-86123800D01*
X145936516Y-86174410D01*
X145625929Y-85863824D01*
X145610264Y-85844736D01*
X145534129Y-85782254D01*
X145447267Y-85735825D01*
X145373205Y-85713359D01*
X145369574Y-85676487D01*
X145348131Y-85605800D01*
X145313309Y-85540653D01*
X145266448Y-85483552D01*
X145209347Y-85436691D01*
X145144200Y-85401869D01*
X145073513Y-85380426D01*
X145000000Y-85373186D01*
X144500000Y-85373186D01*
X144426487Y-85380426D01*
X144355800Y-85401869D01*
X144290653Y-85436691D01*
X144233552Y-85483552D01*
X144186691Y-85540653D01*
X144151869Y-85605800D01*
X144130426Y-85676487D01*
X144123186Y-85750000D01*
X144123186Y-86650000D01*
X144130426Y-86723513D01*
X144132793Y-86731316D01*
X143867207Y-86731316D01*
X143869574Y-86723513D01*
X143876814Y-86650000D01*
X143876814Y-85750000D01*
X143869574Y-85676487D01*
X143848131Y-85605800D01*
X143813309Y-85540653D01*
X143766448Y-85483552D01*
X143709347Y-85436691D01*
X143644200Y-85401869D01*
X143573513Y-85380426D01*
X143500000Y-85373186D01*
X143000000Y-85373186D01*
X142926487Y-85380426D01*
X142855800Y-85401869D01*
X142790653Y-85436691D01*
X142733552Y-85483552D01*
X142686691Y-85540653D01*
X142651869Y-85605800D01*
X142630877Y-85675000D01*
X142480771Y-85675000D01*
X142471842Y-85630110D01*
X142420959Y-85507268D01*
X142347089Y-85396713D01*
X142253069Y-85302693D01*
X142142514Y-85228823D01*
X142019672Y-85177940D01*
X141889264Y-85152000D01*
X141756300Y-85152000D01*
X141625892Y-85177940D01*
X141503050Y-85228823D01*
X141403122Y-85295592D01*
X141401448Y-85293552D01*
X141344347Y-85246691D01*
X141279200Y-85211869D01*
X141208513Y-85190426D01*
X141135000Y-85183186D01*
X139535000Y-85183186D01*
X139461487Y-85190426D01*
X139390800Y-85211869D01*
X139325653Y-85246691D01*
X139268552Y-85293552D01*
X139221691Y-85350653D01*
X139186869Y-85415800D01*
X139165426Y-85486487D01*
X139158186Y-85560000D01*
X139158186Y-87160000D01*
X139165426Y-87233513D01*
X139186869Y-87304200D01*
X139221691Y-87369347D01*
X139268552Y-87426448D01*
X139325653Y-87473309D01*
X139390800Y-87508131D01*
X139461487Y-87529574D01*
X139535000Y-87536814D01*
X141135000Y-87536814D01*
X141208513Y-87529574D01*
X141279200Y-87508131D01*
X141344347Y-87473309D01*
X141401448Y-87426448D01*
X141448309Y-87369347D01*
X141483131Y-87304200D01*
X141504574Y-87233513D01*
X141508773Y-87190879D01*
X141885395Y-87567502D01*
X141901052Y-87586580D01*
X141977187Y-87649062D01*
X142064049Y-87695491D01*
X142133378Y-87716521D01*
X142114783Y-87739179D01*
X142093314Y-87779345D01*
X142068354Y-87826041D01*
X142039763Y-87920291D01*
X142030109Y-88018308D01*
X142032529Y-88042878D01*
X142032528Y-90940365D01*
X141649819Y-91323076D01*
X141630737Y-91338736D01*
X141568255Y-91414871D01*
X141554823Y-91440001D01*
X141521826Y-91501733D01*
X141503729Y-91561390D01*
X141515685Y-91440000D01*
X141492998Y-91209660D01*
X141425811Y-90988171D01*
X141316704Y-90784047D01*
X141169870Y-90605130D01*
X140990953Y-90458296D01*
X140786829Y-90349189D01*
X140565340Y-90282002D01*
X140392720Y-90265000D01*
X140277280Y-90265000D01*
X140104660Y-90282002D01*
X139883171Y-90349189D01*
X139679047Y-90458296D01*
X139500130Y-90605130D01*
X139353296Y-90784047D01*
X139244189Y-90988171D01*
X139177002Y-91209660D01*
X139154315Y-91440000D01*
X139177002Y-91670340D01*
X139244189Y-91891829D01*
X139353296Y-92095953D01*
X139500130Y-92274870D01*
X139679047Y-92421704D01*
X139883171Y-92530811D01*
X140104660Y-92597998D01*
X140277280Y-92615000D01*
X140392720Y-92615000D01*
X140565340Y-92597998D01*
X140786829Y-92530811D01*
X140990953Y-92421704D01*
X141169870Y-92274870D01*
X141316704Y-92095953D01*
X141425811Y-91891829D01*
X141484130Y-91699574D01*
X141486001Y-91718570D01*
X141486000Y-92121893D01*
X140734560Y-92873334D01*
X140565340Y-92822002D01*
X140392720Y-92805000D01*
X140277280Y-92805000D01*
X140104660Y-92822002D01*
X139883171Y-92889189D01*
X139679047Y-92998296D01*
X139500130Y-93145130D01*
X139353296Y-93324047D01*
X139244189Y-93528171D01*
X139177002Y-93749660D01*
X139154315Y-93980000D01*
X139177002Y-94210340D01*
X139244189Y-94431829D01*
X139353296Y-94635953D01*
X139500130Y-94814870D01*
X139679047Y-94961704D01*
X139883171Y-95070811D01*
X140104660Y-95137998D01*
X140277280Y-95155000D01*
X140392720Y-95155000D01*
X140565340Y-95137998D01*
X140786829Y-95070811D01*
X140990953Y-94961704D01*
X141169870Y-94814870D01*
X141316704Y-94635953D01*
X141425811Y-94431829D01*
X141492998Y-94210340D01*
X141515685Y-93980000D01*
X141492998Y-93749660D01*
X141441666Y-93580440D01*
X142248000Y-92774106D01*
X142248000Y-93447440D01*
X142245581Y-93472000D01*
X142248001Y-93496570D01*
X142248000Y-93899893D01*
X140734561Y-95413334D01*
X140565340Y-95362002D01*
X140392720Y-95345000D01*
X140277280Y-95345000D01*
X140104660Y-95362002D01*
X139883171Y-95429189D01*
X139679047Y-95538296D01*
X139500130Y-95685130D01*
X139353296Y-95864047D01*
X139244189Y-96068171D01*
X139177002Y-96289660D01*
X139154315Y-96520000D01*
X139177002Y-96750340D01*
X139244189Y-96971829D01*
X139353296Y-97175953D01*
X139500130Y-97354870D01*
X139679047Y-97501704D01*
X139883171Y-97610811D01*
X140104660Y-97677998D01*
X140277280Y-97695000D01*
X140392720Y-97695000D01*
X140565340Y-97677998D01*
X140786829Y-97610811D01*
X140990953Y-97501704D01*
X141169870Y-97354870D01*
X141316704Y-97175953D01*
X141425811Y-96971829D01*
X141492998Y-96750340D01*
X141515685Y-96520000D01*
X141492998Y-96289660D01*
X141441666Y-96120439D01*
X143084187Y-94477920D01*
X143103264Y-94462264D01*
X143165746Y-94386129D01*
X143212175Y-94299267D01*
X143240765Y-94205017D01*
X143248000Y-94131560D01*
X143248000Y-94131551D01*
X143250418Y-94107001D01*
X143248000Y-94082451D01*
X143248000Y-93972000D01*
X144859440Y-93972000D01*
X144884000Y-93974419D01*
X144908560Y-93972000D01*
X144982017Y-93964765D01*
X145076267Y-93936175D01*
X145163129Y-93889746D01*
X145239264Y-93827264D01*
X145254929Y-93808176D01*
X145780292Y-93282814D01*
X146441800Y-93282814D01*
X146441800Y-93284482D01*
X146467740Y-93414890D01*
X146518623Y-93537732D01*
X146592493Y-93648287D01*
X146686513Y-93742307D01*
X146797068Y-93816177D01*
X146919910Y-93867060D01*
X147050318Y-93893000D01*
X147183282Y-93893000D01*
X147313690Y-93867060D01*
X147436532Y-93816177D01*
X147547087Y-93742307D01*
X147641107Y-93648287D01*
X147714977Y-93537732D01*
X147765860Y-93414890D01*
X147791800Y-93284482D01*
X147791800Y-93282814D01*
X148288668Y-93282814D01*
X147710426Y-93861056D01*
X147691338Y-93876721D01*
X147628856Y-93952856D01*
X147582427Y-94039719D01*
X147570507Y-94079014D01*
X147553837Y-94133968D01*
X147544183Y-94231985D01*
X147546602Y-94256545D01*
X147546603Y-95838880D01*
X146392751Y-96992733D01*
X146359597Y-96943114D01*
X146265577Y-96849094D01*
X146155022Y-96775224D01*
X146032180Y-96724341D01*
X145901772Y-96698401D01*
X145768808Y-96698401D01*
X145638400Y-96724341D01*
X145515558Y-96775224D01*
X145405003Y-96849094D01*
X145396179Y-96857918D01*
X145376927Y-96838666D01*
X145266372Y-96764796D01*
X145252249Y-96758946D01*
X146076331Y-95934864D01*
X146136668Y-95975179D01*
X146259510Y-96026062D01*
X146389918Y-96052002D01*
X146522882Y-96052002D01*
X146653290Y-96026062D01*
X146776132Y-95975179D01*
X146886687Y-95901309D01*
X146980707Y-95807289D01*
X147054577Y-95696734D01*
X147105460Y-95573892D01*
X147131400Y-95443484D01*
X147131400Y-95310520D01*
X147105460Y-95180112D01*
X147054577Y-95057270D01*
X146980707Y-94946715D01*
X146886687Y-94852695D01*
X146776132Y-94778825D01*
X146653290Y-94727942D01*
X146522882Y-94702002D01*
X146389918Y-94702002D01*
X146259510Y-94727942D01*
X146136668Y-94778825D01*
X146026113Y-94852695D01*
X146001806Y-94877002D01*
X145951635Y-94877002D01*
X145927085Y-94874584D01*
X145902535Y-94877002D01*
X145902526Y-94877002D01*
X145829069Y-94884237D01*
X145734819Y-94912827D01*
X145647957Y-94959256D01*
X145571822Y-95021738D01*
X145556166Y-95040815D01*
X141660000Y-98936983D01*
X141660000Y-98934998D01*
X141522188Y-98934998D01*
X141618296Y-98730188D01*
X141585259Y-98621266D01*
X141475643Y-98385783D01*
X141322193Y-98176209D01*
X141130805Y-98000599D01*
X140908835Y-97865701D01*
X140664813Y-97776699D01*
X140460000Y-97872154D01*
X140460000Y-98935000D01*
X140480000Y-98935000D01*
X140480000Y-99185000D01*
X140460000Y-99185000D01*
X140460000Y-100247846D01*
X140635000Y-100329406D01*
X140635000Y-100463133D01*
X140565340Y-100442002D01*
X140392720Y-100425000D01*
X140277280Y-100425000D01*
X140104660Y-100442002D01*
X139883171Y-100509189D01*
X139679047Y-100618296D01*
X139500130Y-100765130D01*
X139353296Y-100944047D01*
X139244189Y-101148171D01*
X139177002Y-101369660D01*
X139154315Y-101600000D01*
X139177002Y-101830340D01*
X139244189Y-102051829D01*
X139353296Y-102255953D01*
X139495849Y-102429653D01*
X139406933Y-102456625D01*
X139320071Y-102503054D01*
X139243936Y-102565536D01*
X139228279Y-102584614D01*
X139134000Y-102678893D01*
X139134000Y-99604555D01*
X139194357Y-99734217D01*
X139347807Y-99943791D01*
X139539195Y-100119401D01*
X139761165Y-100254299D01*
X140005187Y-100343301D01*
X140210000Y-100247846D01*
X140210000Y-99185000D01*
X140190000Y-99185000D01*
X140190000Y-98935000D01*
X140210000Y-98935000D01*
X140210000Y-97872154D01*
X140005187Y-97776699D01*
X139761165Y-97865701D01*
X139539195Y-98000599D01*
X139347807Y-98176209D01*
X139194357Y-98385783D01*
X139134000Y-98515445D01*
X139134000Y-88900000D01*
X139154315Y-88900000D01*
X139177002Y-89130340D01*
X139244189Y-89351829D01*
X139353296Y-89555953D01*
X139500130Y-89734870D01*
X139679047Y-89881704D01*
X139883171Y-89990811D01*
X140104660Y-90057998D01*
X140277280Y-90075000D01*
X140392720Y-90075000D01*
X140565340Y-90057998D01*
X140786829Y-89990811D01*
X140990953Y-89881704D01*
X141169870Y-89734870D01*
X141316704Y-89555953D01*
X141425811Y-89351829D01*
X141492998Y-89130340D01*
X141515685Y-88900000D01*
X141492998Y-88669660D01*
X141425811Y-88448171D01*
X141316704Y-88244047D01*
X141169870Y-88065130D01*
X140990953Y-87918296D01*
X140786829Y-87809189D01*
X140565340Y-87742002D01*
X140392720Y-87725000D01*
X140277280Y-87725000D01*
X140104660Y-87742002D01*
X139883171Y-87809189D01*
X139679047Y-87918296D01*
X139500130Y-88065130D01*
X139353296Y-88244047D01*
X139244189Y-88448171D01*
X139177002Y-88669660D01*
X139154315Y-88900000D01*
X139134000Y-88900000D01*
X139134000Y-85620005D01*
X139151733Y-85439146D01*
X139197866Y-85286348D01*
X139272804Y-85145411D01*
X139373684Y-85021719D01*
X139496670Y-84919977D01*
X139637071Y-84844062D01*
X139669576Y-84834000D01*
X146582607Y-84834000D01*
X146592222Y-84864311D01*
M02*
