G04 #@! TF.GenerationSoftware,KiCad,Pcbnew,5.0.1-33cea8e~68~ubuntu16.04.1*
G04 #@! TF.CreationDate,2018-11-17T04:31:05+03:00*
G04 #@! TF.ProjectId,ayx,6179782E6B696361645F706362000000,rev?*
G04 #@! TF.SameCoordinates,Original*
G04 #@! TF.FileFunction,Soldermask,Top*
G04 #@! TF.FilePolarity,Negative*
%FSLAX46Y46*%
G04 Gerber Fmt 4.6, Leading zero omitted, Abs format (unit mm)*
G04 Created by KiCad (PCBNEW 5.0.1-33cea8e~68~ubuntu16.04.1) date Сб 17 ноя 2018 04:31:05*
%MOMM*%
%LPD*%
G01*
G04 APERTURE LIST*
%ADD10C,0.150000*%
%ADD11C,0.100000*%
G04 APERTURE END LIST*
D10*
X146939000Y-84328000D02*
G75*
G03X148971000Y-84328000I1016000J0D01*
G01*
X146939000Y-84328000D02*
X139954000Y-84328000D01*
X155829000Y-121417761D02*
G75*
G03X157226000Y-120142000I0J1402761D01*
G01*
X138684000Y-120142000D02*
G75*
G03X139954000Y-121412000I1270000J0D01*
G01*
X157226000Y-85598000D02*
G75*
G03X155956000Y-84328000I-1270000J0D01*
G01*
X139954000Y-84328000D02*
G75*
G03X138684000Y-85598000I0J-1270000D01*
G01*
X138684000Y-120142000D02*
X138684000Y-85598000D01*
X155829000Y-121412000D02*
X139954000Y-121412000D01*
X157226000Y-85598000D02*
X157226000Y-120142000D01*
X148971000Y-84328000D02*
X155956000Y-84328000D01*
D11*
G36*
X152620000Y-118205000D02*
X152622402Y-118229386D01*
X152629515Y-118252835D01*
X152641066Y-118274446D01*
X152656612Y-118293388D01*
X152675554Y-118308934D01*
X152697165Y-118320485D01*
X152720614Y-118327598D01*
X152745000Y-118330000D01*
X153095000Y-118330000D01*
X153119386Y-118327598D01*
X153142835Y-118320485D01*
X153164446Y-118308934D01*
X153183388Y-118293388D01*
X153198934Y-118274446D01*
X153210485Y-118252835D01*
X153217598Y-118229386D01*
X153220000Y-118205000D01*
X153220000Y-116825000D01*
X154120000Y-116825000D01*
X154120000Y-118163576D01*
X154106066Y-118180554D01*
X154094515Y-118202165D01*
X154087402Y-118225614D01*
X154085000Y-118250000D01*
X154085000Y-120430000D01*
X151985000Y-120430000D01*
X151985000Y-118250000D01*
X151982598Y-118225614D01*
X151975485Y-118202165D01*
X151963934Y-118180554D01*
X151948388Y-118161612D01*
X151929446Y-118146066D01*
X151907835Y-118134515D01*
X151884386Y-118127402D01*
X151860000Y-118125000D01*
X151720000Y-118125000D01*
X151720000Y-116825000D01*
X152620000Y-116825000D01*
X152620000Y-118205000D01*
X152620000Y-118205000D01*
G37*
G36*
X150623707Y-118337596D02*
X150700836Y-118345193D01*
X150832787Y-118385220D01*
X150898763Y-118405233D01*
X151081172Y-118502733D01*
X151241054Y-118633946D01*
X151372267Y-118793828D01*
X151469767Y-118976237D01*
X151489780Y-119042213D01*
X151529807Y-119174164D01*
X151550080Y-119380000D01*
X151529807Y-119585836D01*
X151489780Y-119717787D01*
X151469767Y-119783763D01*
X151372267Y-119966172D01*
X151241054Y-120126054D01*
X151081172Y-120257267D01*
X150898763Y-120354767D01*
X150863281Y-120365530D01*
X150700836Y-120414807D01*
X150623707Y-120422404D01*
X150546580Y-120430000D01*
X150443420Y-120430000D01*
X150366293Y-120422404D01*
X150289164Y-120414807D01*
X150126719Y-120365530D01*
X150091237Y-120354767D01*
X149908828Y-120257267D01*
X149748946Y-120126054D01*
X149617733Y-119966172D01*
X149520233Y-119783763D01*
X149500220Y-119717787D01*
X149460193Y-119585836D01*
X149439920Y-119380000D01*
X149460193Y-119174164D01*
X149500220Y-119042213D01*
X149520233Y-118976237D01*
X149617733Y-118793828D01*
X149748946Y-118633946D01*
X149908828Y-118502733D01*
X150091237Y-118405233D01*
X150157213Y-118385220D01*
X150289164Y-118345193D01*
X150366293Y-118337596D01*
X150443420Y-118330000D01*
X150546580Y-118330000D01*
X150623707Y-118337596D01*
X150623707Y-118337596D01*
G37*
G36*
X148083707Y-118337596D02*
X148160836Y-118345193D01*
X148292787Y-118385220D01*
X148358763Y-118405233D01*
X148541172Y-118502733D01*
X148701054Y-118633946D01*
X148832267Y-118793828D01*
X148929767Y-118976237D01*
X148949780Y-119042213D01*
X148989807Y-119174164D01*
X149010080Y-119380000D01*
X148989807Y-119585836D01*
X148949780Y-119717787D01*
X148929767Y-119783763D01*
X148832267Y-119966172D01*
X148701054Y-120126054D01*
X148541172Y-120257267D01*
X148358763Y-120354767D01*
X148323281Y-120365530D01*
X148160836Y-120414807D01*
X148083707Y-120422404D01*
X148006580Y-120430000D01*
X147903420Y-120430000D01*
X147826293Y-120422404D01*
X147749164Y-120414807D01*
X147586719Y-120365530D01*
X147551237Y-120354767D01*
X147368828Y-120257267D01*
X147208946Y-120126054D01*
X147077733Y-119966172D01*
X146980233Y-119783763D01*
X146960220Y-119717787D01*
X146920193Y-119585836D01*
X146899920Y-119380000D01*
X146920193Y-119174164D01*
X146960220Y-119042213D01*
X146980233Y-118976237D01*
X147077733Y-118793828D01*
X147208946Y-118633946D01*
X147368828Y-118502733D01*
X147551237Y-118405233D01*
X147617213Y-118385220D01*
X147749164Y-118345193D01*
X147826293Y-118337596D01*
X147903420Y-118330000D01*
X148006580Y-118330000D01*
X148083707Y-118337596D01*
X148083707Y-118337596D01*
G37*
G36*
X145543707Y-118337596D02*
X145620836Y-118345193D01*
X145752787Y-118385220D01*
X145818763Y-118405233D01*
X146001172Y-118502733D01*
X146161054Y-118633946D01*
X146292267Y-118793828D01*
X146389767Y-118976237D01*
X146409780Y-119042213D01*
X146449807Y-119174164D01*
X146470080Y-119380000D01*
X146449807Y-119585836D01*
X146409780Y-119717787D01*
X146389767Y-119783763D01*
X146292267Y-119966172D01*
X146161054Y-120126054D01*
X146001172Y-120257267D01*
X145818763Y-120354767D01*
X145783281Y-120365530D01*
X145620836Y-120414807D01*
X145543707Y-120422404D01*
X145466580Y-120430000D01*
X145363420Y-120430000D01*
X145286293Y-120422404D01*
X145209164Y-120414807D01*
X145046719Y-120365530D01*
X145011237Y-120354767D01*
X144828828Y-120257267D01*
X144668946Y-120126054D01*
X144537733Y-119966172D01*
X144440233Y-119783763D01*
X144420220Y-119717787D01*
X144380193Y-119585836D01*
X144359920Y-119380000D01*
X144380193Y-119174164D01*
X144420220Y-119042213D01*
X144440233Y-118976237D01*
X144537733Y-118793828D01*
X144668946Y-118633946D01*
X144828828Y-118502733D01*
X145011237Y-118405233D01*
X145077213Y-118385220D01*
X145209164Y-118345193D01*
X145286293Y-118337596D01*
X145363420Y-118330000D01*
X145466580Y-118330000D01*
X145543707Y-118337596D01*
X145543707Y-118337596D01*
G37*
G36*
X143003707Y-118337596D02*
X143080836Y-118345193D01*
X143212787Y-118385220D01*
X143278763Y-118405233D01*
X143461172Y-118502733D01*
X143621054Y-118633946D01*
X143752267Y-118793828D01*
X143849767Y-118976237D01*
X143869780Y-119042213D01*
X143909807Y-119174164D01*
X143930080Y-119380000D01*
X143909807Y-119585836D01*
X143869780Y-119717787D01*
X143849767Y-119783763D01*
X143752267Y-119966172D01*
X143621054Y-120126054D01*
X143461172Y-120257267D01*
X143278763Y-120354767D01*
X143243281Y-120365530D01*
X143080836Y-120414807D01*
X143003707Y-120422404D01*
X142926580Y-120430000D01*
X142823420Y-120430000D01*
X142746293Y-120422404D01*
X142669164Y-120414807D01*
X142506719Y-120365530D01*
X142471237Y-120354767D01*
X142288828Y-120257267D01*
X142128946Y-120126054D01*
X141997733Y-119966172D01*
X141900233Y-119783763D01*
X141880220Y-119717787D01*
X141840193Y-119585836D01*
X141819920Y-119380000D01*
X141840193Y-119174164D01*
X141880220Y-119042213D01*
X141900233Y-118976237D01*
X141997733Y-118793828D01*
X142128946Y-118633946D01*
X142288828Y-118502733D01*
X142471237Y-118405233D01*
X142537213Y-118385220D01*
X142669164Y-118345193D01*
X142746293Y-118337596D01*
X142823420Y-118330000D01*
X142926580Y-118330000D01*
X143003707Y-118337596D01*
X143003707Y-118337596D01*
G37*
G36*
X140531030Y-118394469D02*
X140531033Y-118394470D01*
X140531034Y-118394470D01*
X140719535Y-118451651D01*
X140719537Y-118451652D01*
X140893260Y-118544509D01*
X141045528Y-118669472D01*
X141170491Y-118821740D01*
X141170492Y-118821742D01*
X141263349Y-118995465D01*
X141317557Y-119174166D01*
X141320531Y-119183970D01*
X141339838Y-119380000D01*
X141320531Y-119576030D01*
X141320530Y-119576033D01*
X141320530Y-119576034D01*
X141317557Y-119585836D01*
X141263348Y-119764537D01*
X141170491Y-119938260D01*
X141045528Y-120090528D01*
X140893260Y-120215491D01*
X140893258Y-120215492D01*
X140719535Y-120308349D01*
X140531034Y-120365530D01*
X140531033Y-120365530D01*
X140531030Y-120365531D01*
X140384124Y-120380000D01*
X140285876Y-120380000D01*
X140138970Y-120365531D01*
X140138967Y-120365530D01*
X140138966Y-120365530D01*
X139950465Y-120308349D01*
X139776742Y-120215492D01*
X139776740Y-120215491D01*
X139624472Y-120090528D01*
X139499509Y-119938260D01*
X139406652Y-119764537D01*
X139352444Y-119585836D01*
X139349470Y-119576034D01*
X139349470Y-119576033D01*
X139349469Y-119576030D01*
X139330162Y-119380000D01*
X139349469Y-119183970D01*
X139352443Y-119174166D01*
X139406651Y-118995465D01*
X139499508Y-118821742D01*
X139499509Y-118821740D01*
X139624472Y-118669472D01*
X139776740Y-118544509D01*
X139950463Y-118451652D01*
X139950465Y-118451651D01*
X140138966Y-118394470D01*
X140138967Y-118394470D01*
X140138970Y-118394469D01*
X140285876Y-118380000D01*
X140384124Y-118380000D01*
X140531030Y-118394469D01*
X140531030Y-118394469D01*
G37*
G36*
X155771030Y-118394469D02*
X155771033Y-118394470D01*
X155771034Y-118394470D01*
X155959535Y-118451651D01*
X155959537Y-118451652D01*
X156133260Y-118544509D01*
X156285528Y-118669472D01*
X156410491Y-118821740D01*
X156410492Y-118821742D01*
X156503349Y-118995465D01*
X156557557Y-119174166D01*
X156560531Y-119183970D01*
X156579838Y-119380000D01*
X156560531Y-119576030D01*
X156560530Y-119576033D01*
X156560530Y-119576034D01*
X156557557Y-119585836D01*
X156503348Y-119764537D01*
X156410491Y-119938260D01*
X156285528Y-120090528D01*
X156133260Y-120215491D01*
X156133258Y-120215492D01*
X155959535Y-120308349D01*
X155771034Y-120365530D01*
X155771033Y-120365530D01*
X155771030Y-120365531D01*
X155624124Y-120380000D01*
X155525876Y-120380000D01*
X155378970Y-120365531D01*
X155378967Y-120365530D01*
X155378966Y-120365530D01*
X155190465Y-120308349D01*
X155016742Y-120215492D01*
X155016740Y-120215491D01*
X154864472Y-120090528D01*
X154739509Y-119938260D01*
X154646652Y-119764537D01*
X154592444Y-119585836D01*
X154589470Y-119576034D01*
X154589470Y-119576033D01*
X154589469Y-119576030D01*
X154570162Y-119380000D01*
X154589469Y-119183970D01*
X154592443Y-119174166D01*
X154646651Y-118995465D01*
X154739508Y-118821742D01*
X154739509Y-118821740D01*
X154864472Y-118669472D01*
X155016740Y-118544509D01*
X155190463Y-118451652D01*
X155190465Y-118451651D01*
X155378966Y-118394470D01*
X155378967Y-118394470D01*
X155378970Y-118394469D01*
X155525876Y-118380000D01*
X155624124Y-118380000D01*
X155771030Y-118394469D01*
X155771030Y-118394469D01*
G37*
G36*
X140531030Y-115854469D02*
X140531033Y-115854470D01*
X140531034Y-115854470D01*
X140719535Y-115911651D01*
X140719537Y-115911652D01*
X140893260Y-116004509D01*
X141045528Y-116129472D01*
X141170491Y-116281740D01*
X141170492Y-116281742D01*
X141263349Y-116455465D01*
X141277930Y-116503532D01*
X141320531Y-116643970D01*
X141339838Y-116840000D01*
X141320531Y-117036030D01*
X141263349Y-117224535D01*
X141170491Y-117398260D01*
X141045528Y-117550528D01*
X140893260Y-117675491D01*
X140893258Y-117675492D01*
X140719535Y-117768349D01*
X140531034Y-117825530D01*
X140531033Y-117825530D01*
X140531030Y-117825531D01*
X140384124Y-117840000D01*
X140285876Y-117840000D01*
X140138970Y-117825531D01*
X140138967Y-117825530D01*
X140138966Y-117825530D01*
X139950465Y-117768349D01*
X139776742Y-117675492D01*
X139776740Y-117675491D01*
X139624472Y-117550528D01*
X139499509Y-117398260D01*
X139406651Y-117224535D01*
X139349469Y-117036030D01*
X139330162Y-116840000D01*
X139349469Y-116643970D01*
X139392070Y-116503532D01*
X139406651Y-116455465D01*
X139499508Y-116281742D01*
X139499509Y-116281740D01*
X139624472Y-116129472D01*
X139776740Y-116004509D01*
X139950463Y-115911652D01*
X139950465Y-115911651D01*
X140138966Y-115854470D01*
X140138967Y-115854470D01*
X140138970Y-115854469D01*
X140285876Y-115840000D01*
X140384124Y-115840000D01*
X140531030Y-115854469D01*
X140531030Y-115854469D01*
G37*
G36*
X155771030Y-115854469D02*
X155771033Y-115854470D01*
X155771034Y-115854470D01*
X155959535Y-115911651D01*
X155959537Y-115911652D01*
X156133260Y-116004509D01*
X156285528Y-116129472D01*
X156410491Y-116281740D01*
X156410492Y-116281742D01*
X156503349Y-116455465D01*
X156517930Y-116503532D01*
X156560531Y-116643970D01*
X156579838Y-116840000D01*
X156560531Y-117036030D01*
X156503349Y-117224535D01*
X156410491Y-117398260D01*
X156285528Y-117550528D01*
X156133260Y-117675491D01*
X156133258Y-117675492D01*
X155959535Y-117768349D01*
X155771034Y-117825530D01*
X155771033Y-117825530D01*
X155771030Y-117825531D01*
X155624124Y-117840000D01*
X155525876Y-117840000D01*
X155378970Y-117825531D01*
X155378967Y-117825530D01*
X155378966Y-117825530D01*
X155190465Y-117768349D01*
X155016742Y-117675492D01*
X155016740Y-117675491D01*
X154864472Y-117550528D01*
X154739509Y-117398260D01*
X154646651Y-117224535D01*
X154589469Y-117036030D01*
X154570162Y-116840000D01*
X154589469Y-116643970D01*
X154632070Y-116503532D01*
X154646651Y-116455465D01*
X154739508Y-116281742D01*
X154739509Y-116281740D01*
X154864472Y-116129472D01*
X155016740Y-116004509D01*
X155190463Y-115911652D01*
X155190465Y-115911651D01*
X155378966Y-115854470D01*
X155378967Y-115854470D01*
X155378970Y-115854469D01*
X155525876Y-115840000D01*
X155624124Y-115840000D01*
X155771030Y-115854469D01*
X155771030Y-115854469D01*
G37*
G36*
X143502600Y-116790880D02*
X143505002Y-116815266D01*
X143512115Y-116838715D01*
X143513082Y-116840524D01*
X143507982Y-116852835D01*
X143502600Y-116889120D01*
X143502600Y-117715000D01*
X141752600Y-117715000D01*
X141752600Y-115965000D01*
X143502600Y-115965000D01*
X143502600Y-116790880D01*
X143502600Y-116790880D01*
G37*
G36*
X144713429Y-115969220D02*
X144799130Y-115977661D01*
X144887635Y-116004509D01*
X144964069Y-116027695D01*
X145014737Y-116054778D01*
X145116076Y-116108944D01*
X145249312Y-116218288D01*
X145358656Y-116351524D01*
X145412822Y-116452863D01*
X145439905Y-116503531D01*
X145439905Y-116503532D01*
X145489939Y-116668470D01*
X145506833Y-116840000D01*
X145489939Y-117011530D01*
X145456583Y-117121489D01*
X145439905Y-117176469D01*
X145414213Y-117224535D01*
X145358656Y-117328476D01*
X145249312Y-117461712D01*
X145116076Y-117571056D01*
X145014737Y-117625222D01*
X144964069Y-117652305D01*
X144909089Y-117668983D01*
X144799130Y-117702339D01*
X144713429Y-117710780D01*
X144670580Y-117715000D01*
X144584620Y-117715000D01*
X144541771Y-117710780D01*
X144456070Y-117702339D01*
X144346111Y-117668983D01*
X144291131Y-117652305D01*
X144240463Y-117625222D01*
X144139124Y-117571056D01*
X144005888Y-117461712D01*
X143896544Y-117328476D01*
X143840987Y-117224535D01*
X143815295Y-117176469D01*
X143798617Y-117121489D01*
X143765261Y-117011530D01*
X143751998Y-116876868D01*
X143747217Y-116852834D01*
X143742118Y-116840524D01*
X143743085Y-116838715D01*
X143751998Y-116803132D01*
X143765261Y-116668472D01*
X143765261Y-116668470D01*
X143815295Y-116503532D01*
X143815295Y-116503531D01*
X143842378Y-116452863D01*
X143896544Y-116351524D01*
X144005888Y-116218288D01*
X144139124Y-116108944D01*
X144240463Y-116054778D01*
X144291131Y-116027695D01*
X144367565Y-116004509D01*
X144456070Y-115977661D01*
X144541771Y-115969220D01*
X144584620Y-115965000D01*
X144670580Y-115965000D01*
X144713429Y-115969220D01*
X144713429Y-115969220D01*
G37*
G36*
X152620000Y-116220000D02*
X151720000Y-116220000D01*
X151720000Y-114920000D01*
X152620000Y-114920000D01*
X152620000Y-116220000D01*
X152620000Y-116220000D01*
G37*
G36*
X154120000Y-116220000D02*
X153220000Y-116220000D01*
X153220000Y-114920000D01*
X154120000Y-114920000D01*
X154120000Y-116220000D01*
X154120000Y-116220000D01*
G37*
G36*
X155771030Y-113314469D02*
X155771033Y-113314470D01*
X155771034Y-113314470D01*
X155959535Y-113371651D01*
X155959537Y-113371652D01*
X156133260Y-113464509D01*
X156285528Y-113589472D01*
X156410491Y-113741740D01*
X156503348Y-113915463D01*
X156560531Y-114103970D01*
X156579838Y-114300000D01*
X156560531Y-114496030D01*
X156503348Y-114684537D01*
X156410491Y-114858260D01*
X156285528Y-115010528D01*
X156133260Y-115135491D01*
X156133258Y-115135492D01*
X155959535Y-115228349D01*
X155771034Y-115285530D01*
X155771033Y-115285530D01*
X155771030Y-115285531D01*
X155624124Y-115300000D01*
X155525876Y-115300000D01*
X155378970Y-115285531D01*
X155378967Y-115285530D01*
X155378966Y-115285530D01*
X155190465Y-115228349D01*
X155016742Y-115135492D01*
X155016740Y-115135491D01*
X154864472Y-115010528D01*
X154739509Y-114858260D01*
X154646652Y-114684537D01*
X154589469Y-114496030D01*
X154570162Y-114300000D01*
X154589469Y-114103970D01*
X154646652Y-113915463D01*
X154739509Y-113741740D01*
X154864472Y-113589472D01*
X155016740Y-113464509D01*
X155190463Y-113371652D01*
X155190465Y-113371651D01*
X155378966Y-113314470D01*
X155378967Y-113314470D01*
X155378970Y-113314469D01*
X155525876Y-113300000D01*
X155624124Y-113300000D01*
X155771030Y-113314469D01*
X155771030Y-113314469D01*
G37*
G36*
X140531030Y-113314469D02*
X140531033Y-113314470D01*
X140531034Y-113314470D01*
X140719535Y-113371651D01*
X140719537Y-113371652D01*
X140893260Y-113464509D01*
X141045528Y-113589472D01*
X141170491Y-113741740D01*
X141263348Y-113915463D01*
X141320531Y-114103970D01*
X141339838Y-114300000D01*
X141320531Y-114496030D01*
X141263348Y-114684537D01*
X141170491Y-114858260D01*
X141045528Y-115010528D01*
X140893260Y-115135491D01*
X140893258Y-115135492D01*
X140719535Y-115228349D01*
X140531034Y-115285530D01*
X140531033Y-115285530D01*
X140531030Y-115285531D01*
X140384124Y-115300000D01*
X140285876Y-115300000D01*
X140138970Y-115285531D01*
X140138967Y-115285530D01*
X140138966Y-115285530D01*
X139950465Y-115228349D01*
X139776742Y-115135492D01*
X139776740Y-115135491D01*
X139624472Y-115010528D01*
X139499509Y-114858260D01*
X139406652Y-114684537D01*
X139349469Y-114496030D01*
X139330162Y-114300000D01*
X139349469Y-114103970D01*
X139406652Y-113915463D01*
X139499509Y-113741740D01*
X139624472Y-113589472D01*
X139776740Y-113464509D01*
X139950463Y-113371652D01*
X139950465Y-113371651D01*
X140138966Y-113314470D01*
X140138967Y-113314470D01*
X140138970Y-113314469D01*
X140285876Y-113300000D01*
X140384124Y-113300000D01*
X140531030Y-113314469D01*
X140531030Y-113314469D01*
G37*
G36*
X144718800Y-114788800D02*
X143418800Y-114788800D01*
X143418800Y-113888800D01*
X144718800Y-113888800D01*
X144718800Y-114788800D01*
X144718800Y-114788800D01*
G37*
G36*
X154120000Y-114315000D02*
X153220000Y-114315000D01*
X153220000Y-113015000D01*
X154120000Y-113015000D01*
X154120000Y-114315000D01*
X154120000Y-114315000D01*
G37*
G36*
X152620000Y-114315000D02*
X151720000Y-114315000D01*
X151720000Y-113015000D01*
X152620000Y-113015000D01*
X152620000Y-114315000D01*
X152620000Y-114315000D01*
G37*
G36*
X144718800Y-113288800D02*
X143418800Y-113288800D01*
X143418800Y-112388800D01*
X144718800Y-112388800D01*
X144718800Y-113288800D01*
X144718800Y-113288800D01*
G37*
G36*
X140531030Y-110774469D02*
X140531033Y-110774470D01*
X140531034Y-110774470D01*
X140719535Y-110831651D01*
X140719537Y-110831652D01*
X140893260Y-110924509D01*
X141045528Y-111049472D01*
X141170491Y-111201740D01*
X141263348Y-111375463D01*
X141320531Y-111563970D01*
X141339838Y-111760000D01*
X141320531Y-111956030D01*
X141263348Y-112144537D01*
X141170491Y-112318260D01*
X141045528Y-112470528D01*
X140893260Y-112595491D01*
X140893258Y-112595492D01*
X140719535Y-112688349D01*
X140531034Y-112745530D01*
X140531033Y-112745530D01*
X140531030Y-112745531D01*
X140384124Y-112760000D01*
X140285876Y-112760000D01*
X140138970Y-112745531D01*
X140138967Y-112745530D01*
X140138966Y-112745530D01*
X139950465Y-112688349D01*
X139776742Y-112595492D01*
X139776740Y-112595491D01*
X139624472Y-112470528D01*
X139499509Y-112318260D01*
X139406652Y-112144537D01*
X139349469Y-111956030D01*
X139330162Y-111760000D01*
X139349469Y-111563970D01*
X139406652Y-111375463D01*
X139499509Y-111201740D01*
X139624472Y-111049472D01*
X139776740Y-110924509D01*
X139950463Y-110831652D01*
X139950465Y-110831651D01*
X140138966Y-110774470D01*
X140138967Y-110774470D01*
X140138970Y-110774469D01*
X140285876Y-110760000D01*
X140384124Y-110760000D01*
X140531030Y-110774469D01*
X140531030Y-110774469D01*
G37*
G36*
X155771030Y-110774469D02*
X155771033Y-110774470D01*
X155771034Y-110774470D01*
X155959535Y-110831651D01*
X155959537Y-110831652D01*
X156133260Y-110924509D01*
X156285528Y-111049472D01*
X156410491Y-111201740D01*
X156503348Y-111375463D01*
X156560531Y-111563970D01*
X156579838Y-111760000D01*
X156560531Y-111956030D01*
X156503348Y-112144537D01*
X156410491Y-112318260D01*
X156285528Y-112470528D01*
X156133260Y-112595491D01*
X156133258Y-112595492D01*
X155959535Y-112688349D01*
X155771034Y-112745530D01*
X155771033Y-112745530D01*
X155771030Y-112745531D01*
X155624124Y-112760000D01*
X155525876Y-112760000D01*
X155378970Y-112745531D01*
X155378967Y-112745530D01*
X155378966Y-112745530D01*
X155190465Y-112688349D01*
X155016742Y-112595492D01*
X155016740Y-112595491D01*
X154864472Y-112470528D01*
X154739509Y-112318260D01*
X154646652Y-112144537D01*
X154589469Y-111956030D01*
X154570162Y-111760000D01*
X154589469Y-111563970D01*
X154646652Y-111375463D01*
X154739509Y-111201740D01*
X154864472Y-111049472D01*
X155016740Y-110924509D01*
X155190463Y-110831652D01*
X155190465Y-110831651D01*
X155378966Y-110774470D01*
X155378967Y-110774470D01*
X155378970Y-110774469D01*
X155525876Y-110760000D01*
X155624124Y-110760000D01*
X155771030Y-110774469D01*
X155771030Y-110774469D01*
G37*
G36*
X152620000Y-112410000D02*
X151720000Y-112410000D01*
X151720000Y-111110000D01*
X152620000Y-111110000D01*
X152620000Y-112410000D01*
X152620000Y-112410000D01*
G37*
G36*
X154120000Y-112410000D02*
X153220000Y-112410000D01*
X153220000Y-111110000D01*
X154120000Y-111110000D01*
X154120000Y-112410000D01*
X154120000Y-112410000D01*
G37*
G36*
X144643800Y-111675600D02*
X143493800Y-111675600D01*
X143493800Y-110475600D01*
X144643800Y-110475600D01*
X144643800Y-111675600D01*
X144643800Y-111675600D01*
G37*
G36*
X150892200Y-111675600D02*
X149742200Y-111675600D01*
X149742200Y-110475600D01*
X150892200Y-110475600D01*
X150892200Y-111675600D01*
X150892200Y-111675600D01*
G37*
G36*
X149419000Y-111675600D02*
X148269000Y-111675600D01*
X148269000Y-110475600D01*
X149419000Y-110475600D01*
X149419000Y-111675600D01*
X149419000Y-111675600D01*
G37*
G36*
X145922583Y-108902500D02*
X146049974Y-108955268D01*
X146152795Y-109023970D01*
X146164625Y-109031875D01*
X146262125Y-109129375D01*
X146338731Y-109244024D01*
X146352915Y-109278266D01*
X146364466Y-109299876D01*
X146380012Y-109318818D01*
X146398954Y-109334364D01*
X146420565Y-109345915D01*
X146444014Y-109353028D01*
X146468400Y-109355430D01*
X146492786Y-109353028D01*
X146516236Y-109345915D01*
X146537846Y-109334364D01*
X146556788Y-109318818D01*
X146572334Y-109299876D01*
X146583885Y-109278266D01*
X146598069Y-109244024D01*
X146674675Y-109129375D01*
X146772175Y-109031875D01*
X146784006Y-109023970D01*
X146886826Y-108955268D01*
X147014217Y-108902500D01*
X147149455Y-108875600D01*
X147287345Y-108875600D01*
X147422583Y-108902500D01*
X147549974Y-108955268D01*
X147652795Y-109023970D01*
X147664625Y-109031875D01*
X147762125Y-109129375D01*
X147838732Y-109244026D01*
X147891500Y-109371417D01*
X147918400Y-109506655D01*
X147918400Y-109644545D01*
X147891500Y-109779783D01*
X147869712Y-109832382D01*
X147838732Y-109907174D01*
X147762126Y-110021824D01*
X147664624Y-110119326D01*
X147580403Y-110175600D01*
X147549974Y-110195932D01*
X147422583Y-110248700D01*
X147287345Y-110275600D01*
X147149455Y-110275600D01*
X147014217Y-110248700D01*
X146886826Y-110195932D01*
X146856397Y-110175600D01*
X146772176Y-110119326D01*
X146674674Y-110021824D01*
X146636631Y-109964888D01*
X146598069Y-109907176D01*
X146583885Y-109872934D01*
X146572334Y-109851324D01*
X146556788Y-109832382D01*
X146537846Y-109816836D01*
X146516235Y-109805285D01*
X146492786Y-109798172D01*
X146468400Y-109795770D01*
X146444014Y-109798172D01*
X146420564Y-109805285D01*
X146398954Y-109816836D01*
X146380012Y-109832382D01*
X146364466Y-109851324D01*
X146352915Y-109872934D01*
X146338731Y-109907176D01*
X146300169Y-109964888D01*
X146262126Y-110021824D01*
X146164624Y-110119326D01*
X146080403Y-110175600D01*
X146049974Y-110195932D01*
X145922583Y-110248700D01*
X145787345Y-110275600D01*
X145649455Y-110275600D01*
X145514217Y-110248700D01*
X145386826Y-110195932D01*
X145356397Y-110175600D01*
X145272176Y-110119326D01*
X145174674Y-110021824D01*
X145098068Y-109907174D01*
X145067088Y-109832382D01*
X145045300Y-109779783D01*
X145018400Y-109644545D01*
X145018400Y-109506655D01*
X145045300Y-109371417D01*
X145098068Y-109244026D01*
X145174675Y-109129375D01*
X145272175Y-109031875D01*
X145284006Y-109023970D01*
X145386826Y-108955268D01*
X145514217Y-108902500D01*
X145649455Y-108875600D01*
X145787345Y-108875600D01*
X145922583Y-108902500D01*
X145922583Y-108902500D01*
G37*
G36*
X155771030Y-108234469D02*
X155771033Y-108234470D01*
X155771034Y-108234470D01*
X155959535Y-108291651D01*
X155959537Y-108291652D01*
X156133260Y-108384509D01*
X156285528Y-108509472D01*
X156410491Y-108661740D01*
X156410492Y-108661742D01*
X156503349Y-108835465D01*
X156545858Y-108975600D01*
X156560531Y-109023970D01*
X156579838Y-109220000D01*
X156560531Y-109416030D01*
X156503348Y-109604537D01*
X156410491Y-109778260D01*
X156285528Y-109930528D01*
X156133260Y-110055491D01*
X156133258Y-110055492D01*
X155959535Y-110148349D01*
X155771034Y-110205530D01*
X155771033Y-110205530D01*
X155771030Y-110205531D01*
X155624124Y-110220000D01*
X155525876Y-110220000D01*
X155378970Y-110205531D01*
X155378967Y-110205530D01*
X155378966Y-110205530D01*
X155190465Y-110148349D01*
X155016742Y-110055492D01*
X155016740Y-110055491D01*
X154864472Y-109930528D01*
X154739509Y-109778260D01*
X154646652Y-109604537D01*
X154589469Y-109416030D01*
X154570162Y-109220000D01*
X154589469Y-109023970D01*
X154604142Y-108975600D01*
X154646651Y-108835465D01*
X154739508Y-108661742D01*
X154739509Y-108661740D01*
X154864472Y-108509472D01*
X155016740Y-108384509D01*
X155190463Y-108291652D01*
X155190465Y-108291651D01*
X155378966Y-108234470D01*
X155378967Y-108234470D01*
X155378970Y-108234469D01*
X155525876Y-108220000D01*
X155624124Y-108220000D01*
X155771030Y-108234469D01*
X155771030Y-108234469D01*
G37*
G36*
X140531030Y-108234469D02*
X140531033Y-108234470D01*
X140531034Y-108234470D01*
X140719535Y-108291651D01*
X140719537Y-108291652D01*
X140893260Y-108384509D01*
X141045528Y-108509472D01*
X141170491Y-108661740D01*
X141170492Y-108661742D01*
X141263349Y-108835465D01*
X141305858Y-108975600D01*
X141320531Y-109023970D01*
X141339838Y-109220000D01*
X141320531Y-109416030D01*
X141263348Y-109604537D01*
X141170491Y-109778260D01*
X141045528Y-109930528D01*
X140893260Y-110055491D01*
X140893258Y-110055492D01*
X140719535Y-110148349D01*
X140531034Y-110205530D01*
X140531033Y-110205530D01*
X140531030Y-110205531D01*
X140384124Y-110220000D01*
X140285876Y-110220000D01*
X140138970Y-110205531D01*
X140138967Y-110205530D01*
X140138966Y-110205530D01*
X139950465Y-110148349D01*
X139776742Y-110055492D01*
X139776740Y-110055491D01*
X139624472Y-109930528D01*
X139499509Y-109778260D01*
X139406652Y-109604537D01*
X139349469Y-109416030D01*
X139330162Y-109220000D01*
X139349469Y-109023970D01*
X139364142Y-108975600D01*
X139406651Y-108835465D01*
X139499508Y-108661742D01*
X139499509Y-108661740D01*
X139624472Y-108509472D01*
X139776740Y-108384509D01*
X139950463Y-108291652D01*
X139950465Y-108291651D01*
X140138966Y-108234470D01*
X140138967Y-108234470D01*
X140138970Y-108234469D01*
X140285876Y-108220000D01*
X140384124Y-108220000D01*
X140531030Y-108234469D01*
X140531030Y-108234469D01*
G37*
G36*
X153927500Y-110177000D02*
X152777500Y-110177000D01*
X152777500Y-108977000D01*
X153927500Y-108977000D01*
X153927500Y-110177000D01*
X153927500Y-110177000D01*
G37*
G36*
X150892200Y-110175600D02*
X149742200Y-110175600D01*
X149742200Y-108975600D01*
X150892200Y-108975600D01*
X150892200Y-110175600D01*
X150892200Y-110175600D01*
G37*
G36*
X149419000Y-110175600D02*
X148269000Y-110175600D01*
X148269000Y-108975600D01*
X149419000Y-108975600D01*
X149419000Y-110175600D01*
X149419000Y-110175600D01*
G37*
G36*
X143094400Y-110175600D02*
X141944400Y-110175600D01*
X141944400Y-108975600D01*
X143094400Y-108975600D01*
X143094400Y-110175600D01*
X143094400Y-110175600D01*
G37*
G36*
X144643800Y-110175600D02*
X143493800Y-110175600D01*
X143493800Y-108975600D01*
X144643800Y-108975600D01*
X144643800Y-110175600D01*
X144643800Y-110175600D01*
G37*
G36*
X153927500Y-108677000D02*
X152777500Y-108677000D01*
X152777500Y-107477000D01*
X153927500Y-107477000D01*
X153927500Y-108677000D01*
X153927500Y-108677000D01*
G37*
G36*
X143094400Y-108675600D02*
X141944400Y-108675600D01*
X141944400Y-107475600D01*
X143094400Y-107475600D01*
X143094400Y-108675600D01*
X143094400Y-108675600D01*
G37*
G36*
X152045000Y-108473400D02*
X143895000Y-108473400D01*
X143895000Y-107073400D01*
X152045000Y-107073400D01*
X152045000Y-108473400D01*
X152045000Y-108473400D01*
G37*
G36*
X155771030Y-105694469D02*
X155771033Y-105694470D01*
X155771034Y-105694470D01*
X155959535Y-105751651D01*
X155959537Y-105751652D01*
X156133260Y-105844509D01*
X156285528Y-105969472D01*
X156410491Y-106121740D01*
X156503348Y-106295463D01*
X156560531Y-106483970D01*
X156579838Y-106680000D01*
X156560531Y-106876030D01*
X156503348Y-107064537D01*
X156410491Y-107238260D01*
X156285528Y-107390528D01*
X156133260Y-107515491D01*
X156133258Y-107515492D01*
X155959535Y-107608349D01*
X155771034Y-107665530D01*
X155771033Y-107665530D01*
X155771030Y-107665531D01*
X155624124Y-107680000D01*
X155525876Y-107680000D01*
X155378970Y-107665531D01*
X155378967Y-107665530D01*
X155378966Y-107665530D01*
X155190465Y-107608349D01*
X155016742Y-107515492D01*
X155016740Y-107515491D01*
X154864472Y-107390528D01*
X154739509Y-107238260D01*
X154646652Y-107064537D01*
X154589469Y-106876030D01*
X154570162Y-106680000D01*
X154589469Y-106483970D01*
X154646652Y-106295463D01*
X154739509Y-106121740D01*
X154864472Y-105969472D01*
X155016740Y-105844509D01*
X155190463Y-105751652D01*
X155190465Y-105751651D01*
X155378966Y-105694470D01*
X155378967Y-105694470D01*
X155378970Y-105694469D01*
X155525876Y-105680000D01*
X155624124Y-105680000D01*
X155771030Y-105694469D01*
X155771030Y-105694469D01*
G37*
G36*
X140531030Y-105694469D02*
X140531033Y-105694470D01*
X140531034Y-105694470D01*
X140719535Y-105751651D01*
X140719537Y-105751652D01*
X140893260Y-105844509D01*
X141045528Y-105969472D01*
X141170491Y-106121740D01*
X141263348Y-106295463D01*
X141320531Y-106483970D01*
X141339838Y-106680000D01*
X141320531Y-106876030D01*
X141263348Y-107064537D01*
X141170491Y-107238260D01*
X141045528Y-107390528D01*
X140893260Y-107515491D01*
X140893258Y-107515492D01*
X140719535Y-107608349D01*
X140531034Y-107665530D01*
X140531033Y-107665530D01*
X140531030Y-107665531D01*
X140384124Y-107680000D01*
X140285876Y-107680000D01*
X140138970Y-107665531D01*
X140138967Y-107665530D01*
X140138966Y-107665530D01*
X139950465Y-107608349D01*
X139776742Y-107515492D01*
X139776740Y-107515491D01*
X139624472Y-107390528D01*
X139499509Y-107238260D01*
X139406652Y-107064537D01*
X139349469Y-106876030D01*
X139330162Y-106680000D01*
X139349469Y-106483970D01*
X139406652Y-106295463D01*
X139499509Y-106121740D01*
X139624472Y-105969472D01*
X139776740Y-105844509D01*
X139950463Y-105751652D01*
X139950465Y-105751651D01*
X140138966Y-105694470D01*
X140138967Y-105694470D01*
X140138970Y-105694469D01*
X140285876Y-105680000D01*
X140384124Y-105680000D01*
X140531030Y-105694469D01*
X140531030Y-105694469D01*
G37*
G36*
X142970000Y-106148400D02*
X141570000Y-106148400D01*
X141570000Y-104347562D01*
X141567598Y-104323176D01*
X141560485Y-104299727D01*
X141548934Y-104278116D01*
X141533388Y-104259174D01*
X141514446Y-104243628D01*
X141492835Y-104232077D01*
X141469386Y-104224964D01*
X141445000Y-104222562D01*
X141420614Y-104224964D01*
X141397165Y-104232077D01*
X141375554Y-104243628D01*
X141356612Y-104259174D01*
X141341066Y-104278116D01*
X141329515Y-104299727D01*
X141322402Y-104323176D01*
X141320602Y-104335310D01*
X141320531Y-104336030D01*
X141320530Y-104336033D01*
X141320530Y-104336034D01*
X141263350Y-104524533D01*
X141263348Y-104524537D01*
X141170491Y-104698260D01*
X141045528Y-104850528D01*
X140893260Y-104975491D01*
X140893258Y-104975492D01*
X140719535Y-105068349D01*
X140531034Y-105125530D01*
X140531033Y-105125530D01*
X140531030Y-105125531D01*
X140384124Y-105140000D01*
X140285876Y-105140000D01*
X140138970Y-105125531D01*
X140138967Y-105125530D01*
X140138966Y-105125530D01*
X139950465Y-105068349D01*
X139776742Y-104975492D01*
X139776740Y-104975491D01*
X139624472Y-104850528D01*
X139499509Y-104698260D01*
X139406652Y-104524537D01*
X139406651Y-104524533D01*
X139349470Y-104336034D01*
X139349470Y-104336033D01*
X139349469Y-104336030D01*
X139330162Y-104140000D01*
X139349469Y-103943970D01*
X139349470Y-103943966D01*
X139406651Y-103755465D01*
X139406652Y-103755463D01*
X139499509Y-103581740D01*
X139624472Y-103429472D01*
X139776740Y-103304509D01*
X139950463Y-103211652D01*
X139950465Y-103211651D01*
X140138966Y-103154470D01*
X140138967Y-103154470D01*
X140138970Y-103154469D01*
X140285876Y-103140000D01*
X140384124Y-103140000D01*
X140531030Y-103154469D01*
X140531033Y-103154470D01*
X140531034Y-103154470D01*
X140719535Y-103211651D01*
X140719537Y-103211652D01*
X140893260Y-103304509D01*
X141045528Y-103429472D01*
X141170491Y-103581740D01*
X141263348Y-103755463D01*
X141263349Y-103755465D01*
X141320530Y-103943966D01*
X141320531Y-103943970D01*
X141320602Y-103944690D01*
X141325382Y-103968723D01*
X141334760Y-103991362D01*
X141348374Y-104011737D01*
X141365701Y-104029064D01*
X141386075Y-104042678D01*
X141408714Y-104052055D01*
X141432748Y-104056836D01*
X141457252Y-104056836D01*
X141481285Y-104052056D01*
X141503924Y-104042678D01*
X141524299Y-104029064D01*
X141541626Y-104011737D01*
X141555240Y-103991363D01*
X141564617Y-103968724D01*
X141569398Y-103944690D01*
X141570000Y-103932438D01*
X141570000Y-101807562D01*
X141567598Y-101783176D01*
X141560485Y-101759727D01*
X141548934Y-101738116D01*
X141533388Y-101719174D01*
X141514446Y-101703628D01*
X141492835Y-101692077D01*
X141469386Y-101684964D01*
X141445000Y-101682562D01*
X141420614Y-101684964D01*
X141397165Y-101692077D01*
X141375554Y-101703628D01*
X141356612Y-101719174D01*
X141341066Y-101738116D01*
X141329515Y-101759727D01*
X141322402Y-101783176D01*
X141320602Y-101795310D01*
X141320531Y-101796030D01*
X141320530Y-101796033D01*
X141320530Y-101796034D01*
X141263350Y-101984533D01*
X141263348Y-101984537D01*
X141170491Y-102158260D01*
X141045528Y-102310528D01*
X140893260Y-102435491D01*
X140893258Y-102435492D01*
X140719535Y-102528349D01*
X140531034Y-102585530D01*
X140531033Y-102585530D01*
X140531030Y-102585531D01*
X140384124Y-102600000D01*
X140285876Y-102600000D01*
X140138970Y-102585531D01*
X140138967Y-102585530D01*
X140138966Y-102585530D01*
X139950465Y-102528349D01*
X139776742Y-102435492D01*
X139776740Y-102435491D01*
X139624472Y-102310528D01*
X139499509Y-102158260D01*
X139406652Y-101984537D01*
X139406651Y-101984533D01*
X139349470Y-101796034D01*
X139349470Y-101796033D01*
X139349469Y-101796030D01*
X139330162Y-101600000D01*
X139349469Y-101403970D01*
X139349470Y-101403966D01*
X139406651Y-101215465D01*
X139499508Y-101041742D01*
X139499509Y-101041740D01*
X139624472Y-100889472D01*
X139776740Y-100764509D01*
X139950463Y-100671652D01*
X139950465Y-100671651D01*
X140138966Y-100614470D01*
X140138967Y-100614470D01*
X140138970Y-100614469D01*
X140285876Y-100600000D01*
X140384124Y-100600000D01*
X140531030Y-100614469D01*
X140531033Y-100614470D01*
X140531034Y-100614470D01*
X140719535Y-100671651D01*
X140719537Y-100671652D01*
X140893260Y-100764509D01*
X141045528Y-100889472D01*
X141170491Y-101041740D01*
X141170492Y-101041742D01*
X141263349Y-101215465D01*
X141320530Y-101403966D01*
X141320531Y-101403970D01*
X141320602Y-101404690D01*
X141325382Y-101428723D01*
X141334760Y-101451362D01*
X141348374Y-101471737D01*
X141365701Y-101489064D01*
X141386075Y-101502678D01*
X141408714Y-101512055D01*
X141432748Y-101516836D01*
X141457252Y-101516836D01*
X141481285Y-101512056D01*
X141503924Y-101502678D01*
X141524299Y-101489064D01*
X141541626Y-101471737D01*
X141555240Y-101451363D01*
X141564617Y-101428724D01*
X141569398Y-101404690D01*
X141570000Y-101392438D01*
X141570000Y-99267562D01*
X141567598Y-99243176D01*
X141560485Y-99219727D01*
X141548934Y-99198116D01*
X141533388Y-99179174D01*
X141514446Y-99163628D01*
X141492835Y-99152077D01*
X141469386Y-99144964D01*
X141445000Y-99142562D01*
X141420614Y-99144964D01*
X141397165Y-99152077D01*
X141375554Y-99163628D01*
X141356612Y-99179174D01*
X141341066Y-99198116D01*
X141329515Y-99219727D01*
X141322402Y-99243176D01*
X141320602Y-99255310D01*
X141320531Y-99256030D01*
X141320530Y-99256033D01*
X141320530Y-99256034D01*
X141263350Y-99444533D01*
X141263348Y-99444537D01*
X141170491Y-99618260D01*
X141045528Y-99770528D01*
X140893260Y-99895491D01*
X140893258Y-99895492D01*
X140719535Y-99988349D01*
X140531034Y-100045530D01*
X140531033Y-100045530D01*
X140531030Y-100045531D01*
X140384124Y-100060000D01*
X140285876Y-100060000D01*
X140138970Y-100045531D01*
X140138967Y-100045530D01*
X140138966Y-100045530D01*
X139950465Y-99988349D01*
X139776742Y-99895492D01*
X139776740Y-99895491D01*
X139624472Y-99770528D01*
X139499509Y-99618260D01*
X139406652Y-99444537D01*
X139406651Y-99444533D01*
X139349470Y-99256034D01*
X139349470Y-99256033D01*
X139349469Y-99256030D01*
X139330162Y-99060000D01*
X139349469Y-98863970D01*
X139349470Y-98863966D01*
X139406651Y-98675465D01*
X139406652Y-98675463D01*
X139499509Y-98501740D01*
X139624472Y-98349472D01*
X139776740Y-98224509D01*
X139950463Y-98131652D01*
X139950465Y-98131651D01*
X140138966Y-98074470D01*
X140138967Y-98074470D01*
X140138970Y-98074469D01*
X140285876Y-98060000D01*
X140384124Y-98060000D01*
X140531030Y-98074469D01*
X140531033Y-98074470D01*
X140531034Y-98074470D01*
X140719535Y-98131651D01*
X140719537Y-98131652D01*
X140893260Y-98224509D01*
X141045528Y-98349472D01*
X141170491Y-98501740D01*
X141263348Y-98675463D01*
X141263349Y-98675465D01*
X141320530Y-98863966D01*
X141320531Y-98863970D01*
X141320602Y-98864690D01*
X141325382Y-98888723D01*
X141334760Y-98911362D01*
X141348374Y-98931737D01*
X141365701Y-98949064D01*
X141386075Y-98962678D01*
X141408714Y-98972055D01*
X141432748Y-98976836D01*
X141457252Y-98976836D01*
X141481285Y-98972056D01*
X141503924Y-98962678D01*
X141524299Y-98949064D01*
X141541626Y-98931737D01*
X141555240Y-98911363D01*
X141564617Y-98888724D01*
X141569398Y-98864690D01*
X141570000Y-98852438D01*
X141570000Y-97998400D01*
X142970000Y-97998400D01*
X142970000Y-106148400D01*
X142970000Y-106148400D01*
G37*
G36*
X154370000Y-98744778D02*
X154372402Y-98769164D01*
X154379515Y-98792613D01*
X154391066Y-98814224D01*
X154406612Y-98833166D01*
X154425554Y-98848712D01*
X154447165Y-98860263D01*
X154470614Y-98867376D01*
X154495000Y-98869778D01*
X154519386Y-98867376D01*
X154542835Y-98860263D01*
X154564446Y-98848712D01*
X154583388Y-98833166D01*
X154598934Y-98814224D01*
X154614617Y-98781064D01*
X154646650Y-98675467D01*
X154739509Y-98501740D01*
X154864472Y-98349472D01*
X155016740Y-98224509D01*
X155190463Y-98131652D01*
X155190465Y-98131651D01*
X155378966Y-98074470D01*
X155378967Y-98074470D01*
X155378970Y-98074469D01*
X155525876Y-98060000D01*
X155624124Y-98060000D01*
X155771030Y-98074469D01*
X155771033Y-98074470D01*
X155771034Y-98074470D01*
X155959535Y-98131651D01*
X155959537Y-98131652D01*
X156133260Y-98224509D01*
X156285528Y-98349472D01*
X156410491Y-98501740D01*
X156503348Y-98675463D01*
X156503349Y-98675465D01*
X156560530Y-98863966D01*
X156560531Y-98863970D01*
X156579838Y-99060000D01*
X156560531Y-99256030D01*
X156560530Y-99256033D01*
X156560530Y-99256034D01*
X156503350Y-99444533D01*
X156503348Y-99444537D01*
X156410491Y-99618260D01*
X156285528Y-99770528D01*
X156133260Y-99895491D01*
X156133258Y-99895492D01*
X155959535Y-99988349D01*
X155771034Y-100045530D01*
X155771033Y-100045530D01*
X155771030Y-100045531D01*
X155624124Y-100060000D01*
X155525876Y-100060000D01*
X155378970Y-100045531D01*
X155378967Y-100045530D01*
X155378966Y-100045530D01*
X155190465Y-99988349D01*
X155016742Y-99895492D01*
X155016740Y-99895491D01*
X154864472Y-99770528D01*
X154739509Y-99618260D01*
X154693080Y-99531397D01*
X154646651Y-99444535D01*
X154646650Y-99444533D01*
X154614617Y-99338936D01*
X154605240Y-99316297D01*
X154591626Y-99295923D01*
X154574299Y-99278596D01*
X154553924Y-99264982D01*
X154531285Y-99255604D01*
X154507252Y-99250824D01*
X154482748Y-99250824D01*
X154458714Y-99255605D01*
X154436075Y-99264982D01*
X154415701Y-99278596D01*
X154398374Y-99295923D01*
X154384760Y-99316298D01*
X154375382Y-99338937D01*
X154370000Y-99375222D01*
X154370000Y-101284778D01*
X154372402Y-101309164D01*
X154379515Y-101332613D01*
X154391066Y-101354224D01*
X154406612Y-101373166D01*
X154425554Y-101388712D01*
X154447165Y-101400263D01*
X154470614Y-101407376D01*
X154495000Y-101409778D01*
X154519386Y-101407376D01*
X154542835Y-101400263D01*
X154564446Y-101388712D01*
X154583388Y-101373166D01*
X154598934Y-101354224D01*
X154614617Y-101321064D01*
X154646650Y-101215467D01*
X154739509Y-101041740D01*
X154864472Y-100889472D01*
X155016740Y-100764509D01*
X155190463Y-100671652D01*
X155190465Y-100671651D01*
X155378966Y-100614470D01*
X155378967Y-100614470D01*
X155378970Y-100614469D01*
X155525876Y-100600000D01*
X155624124Y-100600000D01*
X155771030Y-100614469D01*
X155771033Y-100614470D01*
X155771034Y-100614470D01*
X155959535Y-100671651D01*
X155959537Y-100671652D01*
X156133260Y-100764509D01*
X156285528Y-100889472D01*
X156410491Y-101041740D01*
X156410492Y-101041742D01*
X156503349Y-101215465D01*
X156560530Y-101403966D01*
X156560531Y-101403970D01*
X156579838Y-101600000D01*
X156560531Y-101796030D01*
X156560530Y-101796033D01*
X156560530Y-101796034D01*
X156503350Y-101984533D01*
X156503348Y-101984537D01*
X156410491Y-102158260D01*
X156285528Y-102310528D01*
X156133260Y-102435491D01*
X156133258Y-102435492D01*
X155959535Y-102528349D01*
X155771034Y-102585530D01*
X155771033Y-102585530D01*
X155771030Y-102585531D01*
X155624124Y-102600000D01*
X155525876Y-102600000D01*
X155378970Y-102585531D01*
X155378967Y-102585530D01*
X155378966Y-102585530D01*
X155190465Y-102528349D01*
X155016742Y-102435492D01*
X155016740Y-102435491D01*
X154864472Y-102310528D01*
X154739509Y-102158260D01*
X154646650Y-101984533D01*
X154614617Y-101878936D01*
X154605240Y-101856297D01*
X154591626Y-101835923D01*
X154574299Y-101818596D01*
X154553924Y-101804982D01*
X154531285Y-101795604D01*
X154507252Y-101790824D01*
X154482748Y-101790824D01*
X154458714Y-101795605D01*
X154436075Y-101804982D01*
X154415701Y-101818596D01*
X154398374Y-101835923D01*
X154384760Y-101856298D01*
X154375382Y-101878937D01*
X154370000Y-101915222D01*
X154370000Y-103824778D01*
X154372402Y-103849164D01*
X154379515Y-103872613D01*
X154391066Y-103894224D01*
X154406612Y-103913166D01*
X154425554Y-103928712D01*
X154447165Y-103940263D01*
X154470614Y-103947376D01*
X154495000Y-103949778D01*
X154519386Y-103947376D01*
X154542835Y-103940263D01*
X154564446Y-103928712D01*
X154583388Y-103913166D01*
X154598934Y-103894224D01*
X154614617Y-103861064D01*
X154646650Y-103755467D01*
X154739509Y-103581740D01*
X154864472Y-103429472D01*
X155016740Y-103304509D01*
X155190463Y-103211652D01*
X155190465Y-103211651D01*
X155378966Y-103154470D01*
X155378967Y-103154470D01*
X155378970Y-103154469D01*
X155525876Y-103140000D01*
X155624124Y-103140000D01*
X155771030Y-103154469D01*
X155771033Y-103154470D01*
X155771034Y-103154470D01*
X155959535Y-103211651D01*
X155959537Y-103211652D01*
X156133260Y-103304509D01*
X156285528Y-103429472D01*
X156410491Y-103581740D01*
X156503348Y-103755463D01*
X156503349Y-103755465D01*
X156560530Y-103943966D01*
X156560531Y-103943970D01*
X156579838Y-104140000D01*
X156560531Y-104336030D01*
X156560530Y-104336033D01*
X156560530Y-104336034D01*
X156503350Y-104524533D01*
X156503348Y-104524537D01*
X156410491Y-104698260D01*
X156285528Y-104850528D01*
X156133260Y-104975491D01*
X156133258Y-104975492D01*
X155959535Y-105068349D01*
X155771034Y-105125530D01*
X155771033Y-105125530D01*
X155771030Y-105125531D01*
X155624124Y-105140000D01*
X155525876Y-105140000D01*
X155378970Y-105125531D01*
X155378967Y-105125530D01*
X155378966Y-105125530D01*
X155190465Y-105068349D01*
X155016742Y-104975492D01*
X155016740Y-104975491D01*
X154864472Y-104850528D01*
X154739509Y-104698260D01*
X154646650Y-104524533D01*
X154614617Y-104418936D01*
X154605240Y-104396297D01*
X154591626Y-104375923D01*
X154574299Y-104358596D01*
X154553924Y-104344982D01*
X154531285Y-104335604D01*
X154507252Y-104330824D01*
X154482748Y-104330824D01*
X154458714Y-104335605D01*
X154436075Y-104344982D01*
X154415701Y-104358596D01*
X154398374Y-104375923D01*
X154384760Y-104396298D01*
X154375382Y-104418937D01*
X154370000Y-104455222D01*
X154370000Y-106148400D01*
X152970000Y-106148400D01*
X152970000Y-97998400D01*
X154370000Y-97998400D01*
X154370000Y-98744778D01*
X154370000Y-98744778D01*
G37*
G36*
X155771030Y-95534469D02*
X155771033Y-95534470D01*
X155771034Y-95534470D01*
X155959535Y-95591651D01*
X155959537Y-95591652D01*
X156133260Y-95684509D01*
X156285528Y-95809472D01*
X156410491Y-95961740D01*
X156503348Y-96135463D01*
X156560531Y-96323970D01*
X156579838Y-96520000D01*
X156560531Y-96716030D01*
X156503348Y-96904537D01*
X156410491Y-97078260D01*
X156285528Y-97230528D01*
X156133260Y-97355491D01*
X156133258Y-97355492D01*
X155959535Y-97448349D01*
X155771034Y-97505530D01*
X155771033Y-97505530D01*
X155771030Y-97505531D01*
X155624124Y-97520000D01*
X155525876Y-97520000D01*
X155378970Y-97505531D01*
X155378967Y-97505530D01*
X155378966Y-97505530D01*
X155190465Y-97448349D01*
X155016742Y-97355492D01*
X155016740Y-97355491D01*
X154864472Y-97230528D01*
X154739509Y-97078260D01*
X154646652Y-96904537D01*
X154589469Y-96716030D01*
X154570162Y-96520000D01*
X154589469Y-96323970D01*
X154646652Y-96135463D01*
X154739509Y-95961740D01*
X154864472Y-95809472D01*
X155016740Y-95684509D01*
X155190463Y-95591652D01*
X155190465Y-95591651D01*
X155378966Y-95534470D01*
X155378967Y-95534470D01*
X155378970Y-95534469D01*
X155525876Y-95520000D01*
X155624124Y-95520000D01*
X155771030Y-95534469D01*
X155771030Y-95534469D01*
G37*
G36*
X140531030Y-95534469D02*
X140531033Y-95534470D01*
X140531034Y-95534470D01*
X140719535Y-95591651D01*
X140719537Y-95591652D01*
X140893260Y-95684509D01*
X141045528Y-95809472D01*
X141170491Y-95961740D01*
X141263348Y-96135463D01*
X141320531Y-96323970D01*
X141339838Y-96520000D01*
X141320531Y-96716030D01*
X141263348Y-96904537D01*
X141170491Y-97078260D01*
X141045528Y-97230528D01*
X140893260Y-97355491D01*
X140893258Y-97355492D01*
X140719535Y-97448349D01*
X140531034Y-97505530D01*
X140531033Y-97505530D01*
X140531030Y-97505531D01*
X140384124Y-97520000D01*
X140285876Y-97520000D01*
X140138970Y-97505531D01*
X140138967Y-97505530D01*
X140138966Y-97505530D01*
X139950465Y-97448349D01*
X139776742Y-97355492D01*
X139776740Y-97355491D01*
X139624472Y-97230528D01*
X139499509Y-97078260D01*
X139406652Y-96904537D01*
X139349469Y-96716030D01*
X139330162Y-96520000D01*
X139349469Y-96323970D01*
X139406652Y-96135463D01*
X139499509Y-95961740D01*
X139624472Y-95809472D01*
X139776740Y-95684509D01*
X139950463Y-95591652D01*
X139950465Y-95591651D01*
X140138966Y-95534470D01*
X140138967Y-95534470D01*
X140138970Y-95534469D01*
X140285876Y-95520000D01*
X140384124Y-95520000D01*
X140531030Y-95534469D01*
X140531030Y-95534469D01*
G37*
G36*
X152045000Y-97073400D02*
X143895000Y-97073400D01*
X143895000Y-95673400D01*
X152045000Y-95673400D01*
X152045000Y-97073400D01*
X152045000Y-97073400D01*
G37*
G36*
X152340000Y-95240400D02*
X151190000Y-95240400D01*
X151190000Y-94040400D01*
X152340000Y-94040400D01*
X152340000Y-95240400D01*
X152340000Y-95240400D01*
G37*
G36*
X145990000Y-95215000D02*
X144840000Y-95215000D01*
X144840000Y-94015000D01*
X145990000Y-94015000D01*
X145990000Y-95215000D01*
X145990000Y-95215000D01*
G37*
G36*
X144085000Y-95215000D02*
X142935000Y-95215000D01*
X142935000Y-94015000D01*
X144085000Y-94015000D01*
X144085000Y-95215000D01*
X144085000Y-95215000D01*
G37*
G36*
X154194200Y-95215000D02*
X153044200Y-95215000D01*
X153044200Y-94015000D01*
X154194200Y-94015000D01*
X154194200Y-95215000D01*
X154194200Y-95215000D01*
G37*
G36*
X140531030Y-92994469D02*
X140531033Y-92994470D01*
X140531034Y-92994470D01*
X140719535Y-93051651D01*
X140719537Y-93051652D01*
X140893260Y-93144509D01*
X141045528Y-93269472D01*
X141170491Y-93421740D01*
X141263348Y-93595463D01*
X141320531Y-93783970D01*
X141339838Y-93980000D01*
X141320531Y-94176030D01*
X141263348Y-94364537D01*
X141170491Y-94538260D01*
X141045528Y-94690528D01*
X140893260Y-94815491D01*
X140893258Y-94815492D01*
X140719535Y-94908349D01*
X140531034Y-94965530D01*
X140531033Y-94965530D01*
X140531030Y-94965531D01*
X140384124Y-94980000D01*
X140285876Y-94980000D01*
X140138970Y-94965531D01*
X140138967Y-94965530D01*
X140138966Y-94965530D01*
X139950465Y-94908349D01*
X139776742Y-94815492D01*
X139776740Y-94815491D01*
X139624472Y-94690528D01*
X139499509Y-94538260D01*
X139406652Y-94364537D01*
X139349469Y-94176030D01*
X139330162Y-93980000D01*
X139349469Y-93783970D01*
X139406652Y-93595463D01*
X139499509Y-93421740D01*
X139624472Y-93269472D01*
X139776740Y-93144509D01*
X139950463Y-93051652D01*
X139950465Y-93051651D01*
X140138966Y-92994470D01*
X140138967Y-92994470D01*
X140138970Y-92994469D01*
X140285876Y-92980000D01*
X140384124Y-92980000D01*
X140531030Y-92994469D01*
X140531030Y-92994469D01*
G37*
G36*
X155771030Y-92994469D02*
X155771033Y-92994470D01*
X155771034Y-92994470D01*
X155959535Y-93051651D01*
X155959537Y-93051652D01*
X156133260Y-93144509D01*
X156285528Y-93269472D01*
X156410491Y-93421740D01*
X156503348Y-93595463D01*
X156560531Y-93783970D01*
X156579838Y-93980000D01*
X156560531Y-94176030D01*
X156503348Y-94364537D01*
X156410491Y-94538260D01*
X156285528Y-94690528D01*
X156133260Y-94815491D01*
X156133258Y-94815492D01*
X155959535Y-94908349D01*
X155771034Y-94965530D01*
X155771033Y-94965530D01*
X155771030Y-94965531D01*
X155624124Y-94980000D01*
X155525876Y-94980000D01*
X155378970Y-94965531D01*
X155378967Y-94965530D01*
X155378966Y-94965530D01*
X155190465Y-94908349D01*
X155016742Y-94815492D01*
X155016740Y-94815491D01*
X154864472Y-94690528D01*
X154739509Y-94538260D01*
X154646652Y-94364537D01*
X154589469Y-94176030D01*
X154570162Y-93980000D01*
X154589469Y-93783970D01*
X154646652Y-93595463D01*
X154739509Y-93421740D01*
X154864472Y-93269472D01*
X155016740Y-93144509D01*
X155190463Y-93051652D01*
X155190465Y-93051651D01*
X155378966Y-92994470D01*
X155378967Y-92994470D01*
X155378970Y-92994469D01*
X155525876Y-92980000D01*
X155624124Y-92980000D01*
X155771030Y-92994469D01*
X155771030Y-92994469D01*
G37*
G36*
X152340000Y-93740400D02*
X151190000Y-93740400D01*
X151190000Y-92540400D01*
X152340000Y-92540400D01*
X152340000Y-93740400D01*
X152340000Y-93740400D01*
G37*
G36*
X145990000Y-93715000D02*
X144840000Y-93715000D01*
X144840000Y-92515000D01*
X145990000Y-92515000D01*
X145990000Y-93715000D01*
X145990000Y-93715000D01*
G37*
G36*
X144085000Y-93715000D02*
X142935000Y-93715000D01*
X142935000Y-92515000D01*
X144085000Y-92515000D01*
X144085000Y-93715000D01*
X144085000Y-93715000D01*
G37*
G36*
X154194200Y-93715000D02*
X153044200Y-93715000D01*
X153044200Y-92515000D01*
X154194200Y-92515000D01*
X154194200Y-93715000D01*
X154194200Y-93715000D01*
G37*
G36*
X140531030Y-90454469D02*
X140531033Y-90454470D01*
X140531034Y-90454470D01*
X140719535Y-90511651D01*
X140719537Y-90511652D01*
X140893260Y-90604509D01*
X141045528Y-90729472D01*
X141170491Y-90881740D01*
X141263348Y-91055463D01*
X141320531Y-91243970D01*
X141339838Y-91440000D01*
X141320531Y-91636030D01*
X141263348Y-91824537D01*
X141170491Y-91998260D01*
X141045528Y-92150528D01*
X140893260Y-92275491D01*
X140893258Y-92275492D01*
X140719535Y-92368349D01*
X140531034Y-92425530D01*
X140531033Y-92425530D01*
X140531030Y-92425531D01*
X140384124Y-92440000D01*
X140285876Y-92440000D01*
X140138970Y-92425531D01*
X140138967Y-92425530D01*
X140138966Y-92425530D01*
X139950465Y-92368349D01*
X139776742Y-92275492D01*
X139776740Y-92275491D01*
X139624472Y-92150528D01*
X139499509Y-91998260D01*
X139406652Y-91824537D01*
X139349469Y-91636030D01*
X139330162Y-91440000D01*
X139349469Y-91243970D01*
X139406652Y-91055463D01*
X139499509Y-90881740D01*
X139624472Y-90729472D01*
X139776740Y-90604509D01*
X139950463Y-90511652D01*
X139950465Y-90511651D01*
X140138966Y-90454470D01*
X140138967Y-90454470D01*
X140138970Y-90454469D01*
X140285876Y-90440000D01*
X140384124Y-90440000D01*
X140531030Y-90454469D01*
X140531030Y-90454469D01*
G37*
G36*
X155771030Y-90454469D02*
X155771033Y-90454470D01*
X155771034Y-90454470D01*
X155959535Y-90511651D01*
X155959537Y-90511652D01*
X156133260Y-90604509D01*
X156285528Y-90729472D01*
X156410491Y-90881740D01*
X156503348Y-91055463D01*
X156560531Y-91243970D01*
X156579838Y-91440000D01*
X156560531Y-91636030D01*
X156503348Y-91824537D01*
X156410491Y-91998260D01*
X156285528Y-92150528D01*
X156133260Y-92275491D01*
X156133258Y-92275492D01*
X155959535Y-92368349D01*
X155771034Y-92425530D01*
X155771033Y-92425530D01*
X155771030Y-92425531D01*
X155624124Y-92440000D01*
X155525876Y-92440000D01*
X155378970Y-92425531D01*
X155378967Y-92425530D01*
X155378966Y-92425530D01*
X155190465Y-92368349D01*
X155016742Y-92275492D01*
X155016740Y-92275491D01*
X154864472Y-92150528D01*
X154739509Y-91998260D01*
X154646652Y-91824537D01*
X154589469Y-91636030D01*
X154570162Y-91440000D01*
X154589469Y-91243970D01*
X154646652Y-91055463D01*
X154739509Y-90881740D01*
X154864472Y-90729472D01*
X155016740Y-90604509D01*
X155190463Y-90511652D01*
X155190465Y-90511651D01*
X155378966Y-90454470D01*
X155378967Y-90454470D01*
X155378970Y-90454469D01*
X155525876Y-90440000D01*
X155624124Y-90440000D01*
X155771030Y-90454469D01*
X155771030Y-90454469D01*
G37*
G36*
X143450000Y-91532000D02*
X142300000Y-91532000D01*
X142300000Y-90332000D01*
X143450000Y-90332000D01*
X143450000Y-91532000D01*
X143450000Y-91532000D01*
G37*
G36*
X145404000Y-91507000D02*
X144204000Y-91507000D01*
X144204000Y-90357000D01*
X145404000Y-90357000D01*
X145404000Y-91507000D01*
X145404000Y-91507000D01*
G37*
G36*
X146904000Y-91507000D02*
X145704000Y-91507000D01*
X145704000Y-90357000D01*
X146904000Y-90357000D01*
X146904000Y-91507000D01*
X146904000Y-91507000D01*
G37*
G36*
X153569000Y-91441000D02*
X152369000Y-91441000D01*
X152369000Y-90291000D01*
X153569000Y-90291000D01*
X153569000Y-91441000D01*
X153569000Y-91441000D01*
G37*
G36*
X152069000Y-91441000D02*
X150869000Y-91441000D01*
X150869000Y-90291000D01*
X152069000Y-90291000D01*
X152069000Y-91441000D01*
X152069000Y-91441000D01*
G37*
G36*
X143450000Y-90032000D02*
X142300000Y-90032000D01*
X142300000Y-88832000D01*
X143450000Y-88832000D01*
X143450000Y-90032000D01*
X143450000Y-90032000D01*
G37*
G36*
X155771030Y-87914469D02*
X155771033Y-87914470D01*
X155771034Y-87914470D01*
X155959535Y-87971651D01*
X155959537Y-87971652D01*
X156133260Y-88064509D01*
X156285528Y-88189472D01*
X156410491Y-88341740D01*
X156503348Y-88515463D01*
X156560531Y-88703970D01*
X156579838Y-88900000D01*
X156560531Y-89096030D01*
X156503348Y-89284537D01*
X156410491Y-89458260D01*
X156285528Y-89610528D01*
X156133260Y-89735491D01*
X156133258Y-89735492D01*
X155959535Y-89828349D01*
X155771034Y-89885530D01*
X155771033Y-89885530D01*
X155771030Y-89885531D01*
X155624124Y-89900000D01*
X155525876Y-89900000D01*
X155378970Y-89885531D01*
X155378967Y-89885530D01*
X155378966Y-89885530D01*
X155190465Y-89828349D01*
X155016742Y-89735492D01*
X155016740Y-89735491D01*
X154864472Y-89610528D01*
X154739509Y-89458260D01*
X154646652Y-89284537D01*
X154589469Y-89096030D01*
X154570162Y-88900000D01*
X154589469Y-88703970D01*
X154646652Y-88515463D01*
X154739509Y-88341740D01*
X154864472Y-88189472D01*
X155016740Y-88064509D01*
X155190463Y-87971652D01*
X155190465Y-87971651D01*
X155378966Y-87914470D01*
X155378967Y-87914470D01*
X155378970Y-87914469D01*
X155525876Y-87900000D01*
X155624124Y-87900000D01*
X155771030Y-87914469D01*
X155771030Y-87914469D01*
G37*
G36*
X140531030Y-87914469D02*
X140531033Y-87914470D01*
X140531034Y-87914470D01*
X140719535Y-87971651D01*
X140719537Y-87971652D01*
X140893260Y-88064509D01*
X141045528Y-88189472D01*
X141170491Y-88341740D01*
X141263348Y-88515463D01*
X141320531Y-88703970D01*
X141339838Y-88900000D01*
X141320531Y-89096030D01*
X141263348Y-89284537D01*
X141170491Y-89458260D01*
X141045528Y-89610528D01*
X140893260Y-89735491D01*
X140893258Y-89735492D01*
X140719535Y-89828349D01*
X140531034Y-89885530D01*
X140531033Y-89885530D01*
X140531030Y-89885531D01*
X140384124Y-89900000D01*
X140285876Y-89900000D01*
X140138970Y-89885531D01*
X140138967Y-89885530D01*
X140138966Y-89885530D01*
X139950465Y-89828349D01*
X139776742Y-89735492D01*
X139776740Y-89735491D01*
X139624472Y-89610528D01*
X139499509Y-89458260D01*
X139406652Y-89284537D01*
X139349469Y-89096030D01*
X139330162Y-88900000D01*
X139349469Y-88703970D01*
X139406652Y-88515463D01*
X139499509Y-88341740D01*
X139624472Y-88189472D01*
X139776740Y-88064509D01*
X139950463Y-87971652D01*
X139950465Y-87971651D01*
X140138966Y-87914470D01*
X140138967Y-87914470D01*
X140138970Y-87914469D01*
X140285876Y-87900000D01*
X140384124Y-87900000D01*
X140531030Y-87914469D01*
X140531030Y-87914469D01*
G37*
G36*
X146829000Y-89884000D02*
X145779000Y-89884000D01*
X145779000Y-88424000D01*
X146829000Y-88424000D01*
X146829000Y-89884000D01*
X146829000Y-89884000D01*
G37*
G36*
X144929000Y-89884000D02*
X143879000Y-89884000D01*
X143879000Y-88424000D01*
X144929000Y-88424000D01*
X144929000Y-89884000D01*
X144929000Y-89884000D01*
G37*
G36*
X151721000Y-89884000D02*
X150671000Y-89884000D01*
X150671000Y-88424000D01*
X151721000Y-88424000D01*
X151721000Y-89884000D01*
X151721000Y-89884000D01*
G37*
G36*
X153621000Y-89884000D02*
X152571000Y-89884000D01*
X152571000Y-88424000D01*
X153621000Y-88424000D01*
X153621000Y-89884000D01*
X153621000Y-89884000D01*
G37*
G36*
X148530000Y-89754000D02*
X147380000Y-89754000D01*
X147380000Y-88554000D01*
X148530000Y-88554000D01*
X148530000Y-89754000D01*
X148530000Y-89754000D01*
G37*
G36*
X150117500Y-89754000D02*
X148967500Y-89754000D01*
X148967500Y-88554000D01*
X150117500Y-88554000D01*
X150117500Y-89754000D01*
X150117500Y-89754000D01*
G37*
G36*
X143450000Y-88484000D02*
X142300000Y-88484000D01*
X142300000Y-87284000D01*
X143450000Y-87284000D01*
X143450000Y-88484000D01*
X143450000Y-88484000D01*
G37*
G36*
X148530000Y-88254000D02*
X147380000Y-88254000D01*
X147380000Y-87054000D01*
X148530000Y-87054000D01*
X148530000Y-88254000D01*
X148530000Y-88254000D01*
G37*
G36*
X150117500Y-88254000D02*
X148967500Y-88254000D01*
X148967500Y-87054000D01*
X150117500Y-87054000D01*
X150117500Y-88254000D01*
X150117500Y-88254000D01*
G37*
G36*
X153621000Y-87684000D02*
X150671000Y-87684000D01*
X150671000Y-86224000D01*
X153621000Y-86224000D01*
X153621000Y-87684000D01*
X153621000Y-87684000D01*
G37*
G36*
X146829000Y-87684000D02*
X143879000Y-87684000D01*
X143879000Y-86224000D01*
X146829000Y-86224000D01*
X146829000Y-87684000D01*
X146829000Y-87684000D01*
G37*
G36*
X141335000Y-87360000D02*
X139335000Y-87360000D01*
X139335000Y-85360000D01*
X141335000Y-85360000D01*
X141335000Y-87360000D01*
X141335000Y-87360000D01*
G37*
G36*
X155771030Y-85374469D02*
X155771033Y-85374470D01*
X155771034Y-85374470D01*
X155959535Y-85431651D01*
X155959537Y-85431652D01*
X156133260Y-85524509D01*
X156285528Y-85649472D01*
X156410491Y-85801740D01*
X156503348Y-85975463D01*
X156560531Y-86163970D01*
X156579838Y-86360000D01*
X156560531Y-86556030D01*
X156503348Y-86744537D01*
X156410491Y-86918260D01*
X156285528Y-87070528D01*
X156133260Y-87195491D01*
X155959537Y-87288348D01*
X155959535Y-87288349D01*
X155771034Y-87345530D01*
X155771033Y-87345530D01*
X155771030Y-87345531D01*
X155624124Y-87360000D01*
X155525876Y-87360000D01*
X155378970Y-87345531D01*
X155378967Y-87345530D01*
X155378966Y-87345530D01*
X155190465Y-87288349D01*
X155190463Y-87288348D01*
X155016740Y-87195491D01*
X154864472Y-87070528D01*
X154739509Y-86918260D01*
X154646652Y-86744537D01*
X154589469Y-86556030D01*
X154570162Y-86360000D01*
X154589469Y-86163970D01*
X154646652Y-85975463D01*
X154739509Y-85801740D01*
X154864472Y-85649472D01*
X155016740Y-85524509D01*
X155190463Y-85431652D01*
X155190465Y-85431651D01*
X155378966Y-85374470D01*
X155378967Y-85374470D01*
X155378970Y-85374469D01*
X155525876Y-85360000D01*
X155624124Y-85360000D01*
X155771030Y-85374469D01*
X155771030Y-85374469D01*
G37*
G36*
X143450000Y-86984000D02*
X142300000Y-86984000D01*
X142300000Y-85784000D01*
X143450000Y-85784000D01*
X143450000Y-86984000D01*
X143450000Y-86984000D01*
G37*
M02*
