G04 #@! TF.GenerationSoftware,KiCad,Pcbnew,(5.1.2-1)-1*
G04 #@! TF.CreationDate,2019-06-12T16:50:37+03:00*
G04 #@! TF.ProjectId,ayx,6179782e-6b69-4636-9164-5f7063625858,rev?*
G04 #@! TF.SameCoordinates,Original*
G04 #@! TF.FileFunction,Soldermask,Top*
G04 #@! TF.FilePolarity,Negative*
%FSLAX46Y46*%
G04 Gerber Fmt 4.6, Leading zero omitted, Abs format (unit mm)*
G04 Created by KiCad (PCBNEW (5.1.2-1)-1) date 2019-06-12 16:50:37*
%MOMM*%
%LPD*%
G04 APERTURE LIST*
%ADD10C,0.100000*%
G04 APERTURE END LIST*
D10*
G36*
X152620000Y-118205001D02*
G01*
X152622402Y-118229387D01*
X152629515Y-118252836D01*
X152641066Y-118274447D01*
X152656611Y-118293389D01*
X152675553Y-118308934D01*
X152697164Y-118320485D01*
X152720613Y-118327598D01*
X152744999Y-118330000D01*
X153095001Y-118330000D01*
X153119387Y-118327598D01*
X153142836Y-118320485D01*
X153164447Y-118308934D01*
X153183389Y-118293389D01*
X153198934Y-118274447D01*
X153210485Y-118252836D01*
X153217598Y-118229387D01*
X153220000Y-118205001D01*
X153220000Y-116825000D01*
X154120000Y-116825000D01*
X154120000Y-118163574D01*
X154106066Y-118180553D01*
X154094515Y-118202164D01*
X154087402Y-118225613D01*
X154085000Y-118249999D01*
X154085000Y-120430000D01*
X151985000Y-120430000D01*
X151985000Y-118249999D01*
X151982598Y-118225613D01*
X151975485Y-118202164D01*
X151963934Y-118180553D01*
X151948389Y-118161611D01*
X151929447Y-118146066D01*
X151907836Y-118134515D01*
X151884387Y-118127402D01*
X151860001Y-118125000D01*
X151720000Y-118125000D01*
X151720000Y-116825000D01*
X152620000Y-116825000D01*
X152620000Y-118205001D01*
X152620000Y-118205001D01*
G37*
G36*
X150623707Y-118337596D02*
G01*
X150700836Y-118345193D01*
X150898762Y-118405233D01*
X150898765Y-118405234D01*
X151081170Y-118502732D01*
X151241055Y-118633945D01*
X151372268Y-118793830D01*
X151469766Y-118976235D01*
X151469767Y-118976238D01*
X151529807Y-119174164D01*
X151550080Y-119380000D01*
X151529807Y-119585836D01*
X151475599Y-119764535D01*
X151469766Y-119783765D01*
X151372268Y-119966170D01*
X151241055Y-120126055D01*
X151081170Y-120257268D01*
X150898765Y-120354766D01*
X150898762Y-120354767D01*
X150700836Y-120414807D01*
X150623707Y-120422404D01*
X150546580Y-120430000D01*
X150443420Y-120430000D01*
X150366293Y-120422404D01*
X150289164Y-120414807D01*
X150091238Y-120354767D01*
X150091235Y-120354766D01*
X149908830Y-120257268D01*
X149748945Y-120126055D01*
X149617732Y-119966170D01*
X149520234Y-119783765D01*
X149514401Y-119764535D01*
X149460193Y-119585836D01*
X149439920Y-119380000D01*
X149460193Y-119174164D01*
X149520233Y-118976238D01*
X149520234Y-118976235D01*
X149617732Y-118793830D01*
X149748945Y-118633945D01*
X149908830Y-118502732D01*
X150091235Y-118405234D01*
X150091238Y-118405233D01*
X150289164Y-118345193D01*
X150366293Y-118337596D01*
X150443420Y-118330000D01*
X150546580Y-118330000D01*
X150623707Y-118337596D01*
X150623707Y-118337596D01*
G37*
G36*
X148083707Y-118337596D02*
G01*
X148160836Y-118345193D01*
X148358762Y-118405233D01*
X148358765Y-118405234D01*
X148541170Y-118502732D01*
X148701055Y-118633945D01*
X148832268Y-118793830D01*
X148929766Y-118976235D01*
X148929767Y-118976238D01*
X148989807Y-119174164D01*
X149010080Y-119380000D01*
X148989807Y-119585836D01*
X148935599Y-119764535D01*
X148929766Y-119783765D01*
X148832268Y-119966170D01*
X148701055Y-120126055D01*
X148541170Y-120257268D01*
X148358765Y-120354766D01*
X148358762Y-120354767D01*
X148160836Y-120414807D01*
X148083707Y-120422404D01*
X148006580Y-120430000D01*
X147903420Y-120430000D01*
X147826293Y-120422404D01*
X147749164Y-120414807D01*
X147551238Y-120354767D01*
X147551235Y-120354766D01*
X147368830Y-120257268D01*
X147208945Y-120126055D01*
X147077732Y-119966170D01*
X146980234Y-119783765D01*
X146974401Y-119764535D01*
X146920193Y-119585836D01*
X146899920Y-119380000D01*
X146920193Y-119174164D01*
X146980233Y-118976238D01*
X146980234Y-118976235D01*
X147077732Y-118793830D01*
X147208945Y-118633945D01*
X147368830Y-118502732D01*
X147551235Y-118405234D01*
X147551238Y-118405233D01*
X147749164Y-118345193D01*
X147826293Y-118337596D01*
X147903420Y-118330000D01*
X148006580Y-118330000D01*
X148083707Y-118337596D01*
X148083707Y-118337596D01*
G37*
G36*
X145543707Y-118337596D02*
G01*
X145620836Y-118345193D01*
X145818762Y-118405233D01*
X145818765Y-118405234D01*
X146001170Y-118502732D01*
X146161055Y-118633945D01*
X146292268Y-118793830D01*
X146389766Y-118976235D01*
X146389767Y-118976238D01*
X146449807Y-119174164D01*
X146470080Y-119380000D01*
X146449807Y-119585836D01*
X146395599Y-119764535D01*
X146389766Y-119783765D01*
X146292268Y-119966170D01*
X146161055Y-120126055D01*
X146001170Y-120257268D01*
X145818765Y-120354766D01*
X145818762Y-120354767D01*
X145620836Y-120414807D01*
X145543707Y-120422404D01*
X145466580Y-120430000D01*
X145363420Y-120430000D01*
X145286293Y-120422404D01*
X145209164Y-120414807D01*
X145011238Y-120354767D01*
X145011235Y-120354766D01*
X144828830Y-120257268D01*
X144668945Y-120126055D01*
X144537732Y-119966170D01*
X144440234Y-119783765D01*
X144434401Y-119764535D01*
X144380193Y-119585836D01*
X144359920Y-119380000D01*
X144380193Y-119174164D01*
X144440233Y-118976238D01*
X144440234Y-118976235D01*
X144537732Y-118793830D01*
X144668945Y-118633945D01*
X144828830Y-118502732D01*
X145011235Y-118405234D01*
X145011238Y-118405233D01*
X145209164Y-118345193D01*
X145286293Y-118337596D01*
X145363420Y-118330000D01*
X145466580Y-118330000D01*
X145543707Y-118337596D01*
X145543707Y-118337596D01*
G37*
G36*
X143003707Y-118337596D02*
G01*
X143080836Y-118345193D01*
X143278762Y-118405233D01*
X143278765Y-118405234D01*
X143461170Y-118502732D01*
X143621055Y-118633945D01*
X143752268Y-118793830D01*
X143849766Y-118976235D01*
X143849767Y-118976238D01*
X143909807Y-119174164D01*
X143930080Y-119380000D01*
X143909807Y-119585836D01*
X143855599Y-119764535D01*
X143849766Y-119783765D01*
X143752268Y-119966170D01*
X143621055Y-120126055D01*
X143461170Y-120257268D01*
X143278765Y-120354766D01*
X143278762Y-120354767D01*
X143080836Y-120414807D01*
X143003707Y-120422404D01*
X142926580Y-120430000D01*
X142823420Y-120430000D01*
X142746293Y-120422404D01*
X142669164Y-120414807D01*
X142471238Y-120354767D01*
X142471235Y-120354766D01*
X142288830Y-120257268D01*
X142128945Y-120126055D01*
X141997732Y-119966170D01*
X141900234Y-119783765D01*
X141894401Y-119764535D01*
X141840193Y-119585836D01*
X141819920Y-119380000D01*
X141840193Y-119174164D01*
X141900233Y-118976238D01*
X141900234Y-118976235D01*
X141997732Y-118793830D01*
X142128945Y-118633945D01*
X142288830Y-118502732D01*
X142471235Y-118405234D01*
X142471238Y-118405233D01*
X142669164Y-118345193D01*
X142746293Y-118337596D01*
X142823420Y-118330000D01*
X142926580Y-118330000D01*
X143003707Y-118337596D01*
X143003707Y-118337596D01*
G37*
G36*
X155771032Y-118394469D02*
G01*
X155865284Y-118423060D01*
X155959535Y-118451651D01*
X155959537Y-118451652D01*
X156133258Y-118544507D01*
X156285528Y-118669472D01*
X156410493Y-118821742D01*
X156503348Y-118995463D01*
X156560531Y-119183968D01*
X156579838Y-119380000D01*
X156560531Y-119576032D01*
X156503348Y-119764537D01*
X156410493Y-119938258D01*
X156285528Y-120090528D01*
X156133258Y-120215493D01*
X155959537Y-120308348D01*
X155959535Y-120308349D01*
X155865285Y-120336939D01*
X155771032Y-120365531D01*
X155624124Y-120380000D01*
X155525876Y-120380000D01*
X155378968Y-120365531D01*
X155284715Y-120336939D01*
X155190465Y-120308349D01*
X155190463Y-120308348D01*
X155016742Y-120215493D01*
X154864472Y-120090528D01*
X154739507Y-119938258D01*
X154646652Y-119764537D01*
X154589469Y-119576032D01*
X154570162Y-119380000D01*
X154589469Y-119183968D01*
X154646652Y-118995463D01*
X154739507Y-118821742D01*
X154864472Y-118669472D01*
X155016742Y-118544507D01*
X155190463Y-118451652D01*
X155190465Y-118451651D01*
X155284716Y-118423060D01*
X155378968Y-118394469D01*
X155525876Y-118380000D01*
X155624124Y-118380000D01*
X155771032Y-118394469D01*
X155771032Y-118394469D01*
G37*
G36*
X140531032Y-118394469D02*
G01*
X140625284Y-118423060D01*
X140719535Y-118451651D01*
X140719537Y-118451652D01*
X140893258Y-118544507D01*
X141045528Y-118669472D01*
X141170493Y-118821742D01*
X141263348Y-118995463D01*
X141320531Y-119183968D01*
X141339838Y-119380000D01*
X141320531Y-119576032D01*
X141263348Y-119764537D01*
X141170493Y-119938258D01*
X141045528Y-120090528D01*
X140893258Y-120215493D01*
X140719537Y-120308348D01*
X140719535Y-120308349D01*
X140625285Y-120336939D01*
X140531032Y-120365531D01*
X140384124Y-120380000D01*
X140285876Y-120380000D01*
X140138968Y-120365531D01*
X140044715Y-120336939D01*
X139950465Y-120308349D01*
X139950463Y-120308348D01*
X139776742Y-120215493D01*
X139624472Y-120090528D01*
X139499507Y-119938258D01*
X139406652Y-119764537D01*
X139349469Y-119576032D01*
X139330162Y-119380000D01*
X139349469Y-119183968D01*
X139406652Y-118995463D01*
X139499507Y-118821742D01*
X139624472Y-118669472D01*
X139776742Y-118544507D01*
X139950463Y-118451652D01*
X139950465Y-118451651D01*
X140044716Y-118423060D01*
X140138968Y-118394469D01*
X140285876Y-118380000D01*
X140384124Y-118380000D01*
X140531032Y-118394469D01*
X140531032Y-118394469D01*
G37*
G36*
X155771032Y-115854469D02*
G01*
X155865284Y-115883060D01*
X155959535Y-115911651D01*
X155959537Y-115911652D01*
X156133258Y-116004507D01*
X156285528Y-116129472D01*
X156410493Y-116281742D01*
X156503348Y-116455463D01*
X156560531Y-116643968D01*
X156579838Y-116840000D01*
X156560531Y-117036032D01*
X156503348Y-117224537D01*
X156410493Y-117398258D01*
X156285528Y-117550528D01*
X156133258Y-117675493D01*
X155959537Y-117768348D01*
X155959535Y-117768349D01*
X155865284Y-117796940D01*
X155771032Y-117825531D01*
X155624124Y-117840000D01*
X155525876Y-117840000D01*
X155378968Y-117825531D01*
X155284715Y-117796939D01*
X155190465Y-117768349D01*
X155190463Y-117768348D01*
X155016742Y-117675493D01*
X154864472Y-117550528D01*
X154739507Y-117398258D01*
X154646652Y-117224537D01*
X154589469Y-117036032D01*
X154570162Y-116840000D01*
X154589469Y-116643968D01*
X154646652Y-116455463D01*
X154739507Y-116281742D01*
X154864472Y-116129472D01*
X155016742Y-116004507D01*
X155190463Y-115911652D01*
X155190465Y-115911651D01*
X155284715Y-115883061D01*
X155378968Y-115854469D01*
X155525876Y-115840000D01*
X155624124Y-115840000D01*
X155771032Y-115854469D01*
X155771032Y-115854469D01*
G37*
G36*
X140531032Y-115854469D02*
G01*
X140625284Y-115883060D01*
X140719535Y-115911651D01*
X140719537Y-115911652D01*
X140893258Y-116004507D01*
X141045528Y-116129472D01*
X141170493Y-116281742D01*
X141263348Y-116455463D01*
X141320531Y-116643968D01*
X141339838Y-116840000D01*
X141320531Y-117036032D01*
X141263348Y-117224537D01*
X141170493Y-117398258D01*
X141045528Y-117550528D01*
X140893258Y-117675493D01*
X140719537Y-117768348D01*
X140719535Y-117768349D01*
X140625285Y-117796939D01*
X140531032Y-117825531D01*
X140384124Y-117840000D01*
X140285876Y-117840000D01*
X140138968Y-117825531D01*
X140044715Y-117796939D01*
X139950465Y-117768349D01*
X139950463Y-117768348D01*
X139776742Y-117675493D01*
X139624472Y-117550528D01*
X139499507Y-117398258D01*
X139406652Y-117224537D01*
X139349469Y-117036032D01*
X139330162Y-116840000D01*
X139349469Y-116643968D01*
X139406652Y-116455463D01*
X139499507Y-116281742D01*
X139624472Y-116129472D01*
X139776742Y-116004507D01*
X139950463Y-115911652D01*
X139950465Y-115911651D01*
X140044716Y-115883060D01*
X140138968Y-115854469D01*
X140285876Y-115840000D01*
X140384124Y-115840000D01*
X140531032Y-115854469D01*
X140531032Y-115854469D01*
G37*
G36*
X143502600Y-116790900D02*
G01*
X143505002Y-116815286D01*
X143512115Y-116838735D01*
X143513072Y-116840526D01*
X143507982Y-116852815D01*
X143502600Y-116889100D01*
X143502600Y-117715000D01*
X141752600Y-117715000D01*
X141752600Y-115965000D01*
X143502600Y-115965000D01*
X143502600Y-116790900D01*
X143502600Y-116790900D01*
G37*
G36*
X144713429Y-115969220D02*
G01*
X144799130Y-115977661D01*
X144964068Y-116027695D01*
X145116076Y-116108944D01*
X145249312Y-116218288D01*
X145358656Y-116351524D01*
X145439905Y-116503532D01*
X145489939Y-116668470D01*
X145506833Y-116840000D01*
X145489939Y-117011530D01*
X145439905Y-117176468D01*
X145358656Y-117328476D01*
X145249312Y-117461712D01*
X145116076Y-117571056D01*
X144964068Y-117652305D01*
X144799130Y-117702339D01*
X144713429Y-117710780D01*
X144670580Y-117715000D01*
X144584620Y-117715000D01*
X144541771Y-117710780D01*
X144456070Y-117702339D01*
X144291132Y-117652305D01*
X144139124Y-117571056D01*
X144005888Y-117461712D01*
X143896544Y-117328476D01*
X143815295Y-117176468D01*
X143765261Y-117011530D01*
X143751996Y-116876848D01*
X143747216Y-116852814D01*
X143742126Y-116840526D01*
X143743083Y-116838735D01*
X143751996Y-116803152D01*
X143765261Y-116668472D01*
X143765261Y-116668470D01*
X143815295Y-116503532D01*
X143896544Y-116351524D01*
X144005888Y-116218288D01*
X144139124Y-116108944D01*
X144291132Y-116027695D01*
X144456070Y-115977661D01*
X144541771Y-115969220D01*
X144584620Y-115965000D01*
X144670580Y-115965000D01*
X144713429Y-115969220D01*
X144713429Y-115969220D01*
G37*
G36*
X154120000Y-116220000D02*
G01*
X153220000Y-116220000D01*
X153220000Y-114920000D01*
X154120000Y-114920000D01*
X154120000Y-116220000D01*
X154120000Y-116220000D01*
G37*
G36*
X152620000Y-116220000D02*
G01*
X151720000Y-116220000D01*
X151720000Y-114920000D01*
X152620000Y-114920000D01*
X152620000Y-116220000D01*
X152620000Y-116220000D01*
G37*
G36*
X140531032Y-113314469D02*
G01*
X140625284Y-113343060D01*
X140719535Y-113371651D01*
X140719537Y-113371652D01*
X140893258Y-113464507D01*
X141045528Y-113589472D01*
X141170493Y-113741742D01*
X141263348Y-113915463D01*
X141320531Y-114103968D01*
X141339838Y-114300000D01*
X141320531Y-114496032D01*
X141263348Y-114684537D01*
X141170493Y-114858258D01*
X141045528Y-115010528D01*
X140893258Y-115135493D01*
X140719537Y-115228348D01*
X140719535Y-115228349D01*
X140625285Y-115256939D01*
X140531032Y-115285531D01*
X140384124Y-115300000D01*
X140285876Y-115300000D01*
X140138968Y-115285531D01*
X140044715Y-115256939D01*
X139950465Y-115228349D01*
X139950463Y-115228348D01*
X139776742Y-115135493D01*
X139624472Y-115010528D01*
X139499507Y-114858258D01*
X139406652Y-114684537D01*
X139349469Y-114496032D01*
X139330162Y-114300000D01*
X139349469Y-114103968D01*
X139406652Y-113915463D01*
X139499507Y-113741742D01*
X139624472Y-113589472D01*
X139776742Y-113464507D01*
X139950463Y-113371652D01*
X139950465Y-113371651D01*
X140044716Y-113343060D01*
X140138968Y-113314469D01*
X140285876Y-113300000D01*
X140384124Y-113300000D01*
X140531032Y-113314469D01*
X140531032Y-113314469D01*
G37*
G36*
X155771032Y-113314469D02*
G01*
X155865284Y-113343060D01*
X155959535Y-113371651D01*
X155959537Y-113371652D01*
X156133258Y-113464507D01*
X156285528Y-113589472D01*
X156410493Y-113741742D01*
X156503348Y-113915463D01*
X156560531Y-114103968D01*
X156579838Y-114300000D01*
X156560531Y-114496032D01*
X156503348Y-114684537D01*
X156410493Y-114858258D01*
X156285528Y-115010528D01*
X156133258Y-115135493D01*
X155959537Y-115228348D01*
X155959535Y-115228349D01*
X155865285Y-115256939D01*
X155771032Y-115285531D01*
X155624124Y-115300000D01*
X155525876Y-115300000D01*
X155378968Y-115285531D01*
X155284715Y-115256939D01*
X155190465Y-115228349D01*
X155190463Y-115228348D01*
X155016742Y-115135493D01*
X154864472Y-115010528D01*
X154739507Y-114858258D01*
X154646652Y-114684537D01*
X154589469Y-114496032D01*
X154570162Y-114300000D01*
X154589469Y-114103968D01*
X154646652Y-113915463D01*
X154739507Y-113741742D01*
X154864472Y-113589472D01*
X155016742Y-113464507D01*
X155190463Y-113371652D01*
X155190465Y-113371651D01*
X155284716Y-113343060D01*
X155378968Y-113314469D01*
X155525876Y-113300000D01*
X155624124Y-113300000D01*
X155771032Y-113314469D01*
X155771032Y-113314469D01*
G37*
G36*
X144718800Y-114788800D02*
G01*
X143418800Y-114788800D01*
X143418800Y-113888800D01*
X144718800Y-113888800D01*
X144718800Y-114788800D01*
X144718800Y-114788800D01*
G37*
G36*
X154120000Y-114315000D02*
G01*
X153220000Y-114315000D01*
X153220000Y-113015000D01*
X154120000Y-113015000D01*
X154120000Y-114315000D01*
X154120000Y-114315000D01*
G37*
G36*
X152620000Y-114315000D02*
G01*
X151720000Y-114315000D01*
X151720000Y-113015000D01*
X152620000Y-113015000D01*
X152620000Y-114315000D01*
X152620000Y-114315000D01*
G37*
G36*
X144718800Y-113288800D02*
G01*
X143418800Y-113288800D01*
X143418800Y-112388800D01*
X144718800Y-112388800D01*
X144718800Y-113288800D01*
X144718800Y-113288800D01*
G37*
G36*
X155771032Y-110774469D02*
G01*
X155865285Y-110803061D01*
X155959535Y-110831651D01*
X155959537Y-110831652D01*
X156133258Y-110924507D01*
X156285528Y-111049472D01*
X156410493Y-111201742D01*
X156503348Y-111375463D01*
X156560531Y-111563968D01*
X156579838Y-111760000D01*
X156560531Y-111956032D01*
X156503348Y-112144537D01*
X156410493Y-112318258D01*
X156285528Y-112470528D01*
X156133258Y-112595493D01*
X155959537Y-112688348D01*
X155959535Y-112688349D01*
X155865284Y-112716940D01*
X155771032Y-112745531D01*
X155624124Y-112760000D01*
X155525876Y-112760000D01*
X155378968Y-112745531D01*
X155284716Y-112716940D01*
X155190465Y-112688349D01*
X155190463Y-112688348D01*
X155016742Y-112595493D01*
X154864472Y-112470528D01*
X154739507Y-112318258D01*
X154646652Y-112144537D01*
X154589469Y-111956032D01*
X154570162Y-111760000D01*
X154589469Y-111563968D01*
X154646652Y-111375463D01*
X154739507Y-111201742D01*
X154864472Y-111049472D01*
X155016742Y-110924507D01*
X155190463Y-110831652D01*
X155190465Y-110831651D01*
X155284715Y-110803061D01*
X155378968Y-110774469D01*
X155525876Y-110760000D01*
X155624124Y-110760000D01*
X155771032Y-110774469D01*
X155771032Y-110774469D01*
G37*
G36*
X140531032Y-110774469D02*
G01*
X140625285Y-110803061D01*
X140719535Y-110831651D01*
X140719537Y-110831652D01*
X140893258Y-110924507D01*
X141045528Y-111049472D01*
X141170493Y-111201742D01*
X141263348Y-111375463D01*
X141320531Y-111563968D01*
X141339838Y-111760000D01*
X141320531Y-111956032D01*
X141263348Y-112144537D01*
X141170493Y-112318258D01*
X141045528Y-112470528D01*
X140893258Y-112595493D01*
X140719537Y-112688348D01*
X140719535Y-112688349D01*
X140625284Y-112716940D01*
X140531032Y-112745531D01*
X140384124Y-112760000D01*
X140285876Y-112760000D01*
X140138968Y-112745531D01*
X140044716Y-112716940D01*
X139950465Y-112688349D01*
X139950463Y-112688348D01*
X139776742Y-112595493D01*
X139624472Y-112470528D01*
X139499507Y-112318258D01*
X139406652Y-112144537D01*
X139349469Y-111956032D01*
X139330162Y-111760000D01*
X139349469Y-111563968D01*
X139406652Y-111375463D01*
X139499507Y-111201742D01*
X139624472Y-111049472D01*
X139776742Y-110924507D01*
X139950463Y-110831652D01*
X139950465Y-110831651D01*
X140044715Y-110803061D01*
X140138968Y-110774469D01*
X140285876Y-110760000D01*
X140384124Y-110760000D01*
X140531032Y-110774469D01*
X140531032Y-110774469D01*
G37*
G36*
X152620000Y-112410000D02*
G01*
X151720000Y-112410000D01*
X151720000Y-111110000D01*
X152620000Y-111110000D01*
X152620000Y-112410000D01*
X152620000Y-112410000D01*
G37*
G36*
X154120000Y-112410000D02*
G01*
X153220000Y-112410000D01*
X153220000Y-111110000D01*
X154120000Y-111110000D01*
X154120000Y-112410000D01*
X154120000Y-112410000D01*
G37*
G36*
X149419000Y-111675600D02*
G01*
X148269000Y-111675600D01*
X148269000Y-110475600D01*
X149419000Y-110475600D01*
X149419000Y-111675600D01*
X149419000Y-111675600D01*
G37*
G36*
X144643800Y-111675600D02*
G01*
X143493800Y-111675600D01*
X143493800Y-110475600D01*
X144643800Y-110475600D01*
X144643800Y-111675600D01*
X144643800Y-111675600D01*
G37*
G36*
X150892200Y-111675600D02*
G01*
X149742200Y-111675600D01*
X149742200Y-110475600D01*
X150892200Y-110475600D01*
X150892200Y-111675600D01*
X150892200Y-111675600D01*
G37*
G36*
X145922582Y-108902500D02*
G01*
X146049973Y-108955267D01*
X146049974Y-108955268D01*
X146164624Y-109031874D01*
X146262126Y-109129376D01*
X146262127Y-109129378D01*
X146338733Y-109244027D01*
X146352916Y-109278268D01*
X146364467Y-109299878D01*
X146380012Y-109318820D01*
X146398954Y-109334366D01*
X146420565Y-109345917D01*
X146444013Y-109353030D01*
X146468400Y-109355432D01*
X146492786Y-109353030D01*
X146516235Y-109345917D01*
X146537845Y-109334366D01*
X146556787Y-109318821D01*
X146572333Y-109299879D01*
X146583884Y-109278268D01*
X146598067Y-109244027D01*
X146674673Y-109129378D01*
X146674674Y-109129376D01*
X146772176Y-109031874D01*
X146886826Y-108955268D01*
X146886827Y-108955267D01*
X147014218Y-108902500D01*
X147149455Y-108875600D01*
X147287345Y-108875600D01*
X147422582Y-108902500D01*
X147549973Y-108955267D01*
X147549974Y-108955268D01*
X147664624Y-109031874D01*
X147762126Y-109129376D01*
X147762127Y-109129378D01*
X147838733Y-109244027D01*
X147891500Y-109371418D01*
X147918400Y-109506655D01*
X147918400Y-109644545D01*
X147891500Y-109779782D01*
X147838733Y-109907173D01*
X147800689Y-109964110D01*
X147762126Y-110021824D01*
X147664624Y-110119326D01*
X147621189Y-110148348D01*
X147549973Y-110195933D01*
X147422582Y-110248700D01*
X147287345Y-110275600D01*
X147149455Y-110275600D01*
X147014218Y-110248700D01*
X146886827Y-110195933D01*
X146815611Y-110148348D01*
X146772176Y-110119326D01*
X146674674Y-110021824D01*
X146636111Y-109964110D01*
X146598067Y-109907173D01*
X146583884Y-109872932D01*
X146572333Y-109851322D01*
X146556788Y-109832380D01*
X146537846Y-109816834D01*
X146516235Y-109805283D01*
X146492787Y-109798170D01*
X146468400Y-109795768D01*
X146444014Y-109798170D01*
X146420565Y-109805283D01*
X146398955Y-109816834D01*
X146380013Y-109832379D01*
X146364467Y-109851321D01*
X146352916Y-109872932D01*
X146338733Y-109907173D01*
X146300689Y-109964110D01*
X146262126Y-110021824D01*
X146164624Y-110119326D01*
X146121189Y-110148348D01*
X146049973Y-110195933D01*
X145922582Y-110248700D01*
X145787345Y-110275600D01*
X145649455Y-110275600D01*
X145514218Y-110248700D01*
X145386827Y-110195933D01*
X145315611Y-110148348D01*
X145272176Y-110119326D01*
X145174674Y-110021824D01*
X145136111Y-109964110D01*
X145098067Y-109907173D01*
X145045300Y-109779782D01*
X145018400Y-109644545D01*
X145018400Y-109506655D01*
X145045300Y-109371418D01*
X145098067Y-109244027D01*
X145174673Y-109129378D01*
X145174674Y-109129376D01*
X145272176Y-109031874D01*
X145386826Y-108955268D01*
X145386827Y-108955267D01*
X145514218Y-108902500D01*
X145649455Y-108875600D01*
X145787345Y-108875600D01*
X145922582Y-108902500D01*
X145922582Y-108902500D01*
G37*
G36*
X155771032Y-108234469D02*
G01*
X155865284Y-108263060D01*
X155959535Y-108291651D01*
X155959537Y-108291652D01*
X156133258Y-108384507D01*
X156285528Y-108509472D01*
X156410493Y-108661742D01*
X156503348Y-108835463D01*
X156560531Y-109023968D01*
X156579838Y-109220000D01*
X156560531Y-109416032D01*
X156503348Y-109604537D01*
X156410493Y-109778258D01*
X156285528Y-109930528D01*
X156133258Y-110055493D01*
X155959537Y-110148348D01*
X155959535Y-110148349D01*
X155869700Y-110175600D01*
X155771032Y-110205531D01*
X155624124Y-110220000D01*
X155525876Y-110220000D01*
X155378968Y-110205531D01*
X155280300Y-110175600D01*
X155190465Y-110148349D01*
X155190463Y-110148348D01*
X155016742Y-110055493D01*
X154864472Y-109930528D01*
X154739507Y-109778258D01*
X154646652Y-109604537D01*
X154589469Y-109416032D01*
X154570162Y-109220000D01*
X154589469Y-109023968D01*
X154646652Y-108835463D01*
X154739507Y-108661742D01*
X154864472Y-108509472D01*
X155016742Y-108384507D01*
X155190463Y-108291652D01*
X155190465Y-108291651D01*
X155284716Y-108263060D01*
X155378968Y-108234469D01*
X155525876Y-108220000D01*
X155624124Y-108220000D01*
X155771032Y-108234469D01*
X155771032Y-108234469D01*
G37*
G36*
X140531032Y-108234469D02*
G01*
X140625284Y-108263060D01*
X140719535Y-108291651D01*
X140719537Y-108291652D01*
X140893258Y-108384507D01*
X141045528Y-108509472D01*
X141170493Y-108661742D01*
X141263348Y-108835463D01*
X141320531Y-109023968D01*
X141339838Y-109220000D01*
X141320531Y-109416032D01*
X141263348Y-109604537D01*
X141170493Y-109778258D01*
X141045528Y-109930528D01*
X140893258Y-110055493D01*
X140719537Y-110148348D01*
X140719535Y-110148349D01*
X140629700Y-110175600D01*
X140531032Y-110205531D01*
X140384124Y-110220000D01*
X140285876Y-110220000D01*
X140138968Y-110205531D01*
X140040300Y-110175600D01*
X139950465Y-110148349D01*
X139950463Y-110148348D01*
X139776742Y-110055493D01*
X139624472Y-109930528D01*
X139499507Y-109778258D01*
X139406652Y-109604537D01*
X139349469Y-109416032D01*
X139330162Y-109220000D01*
X139349469Y-109023968D01*
X139406652Y-108835463D01*
X139499507Y-108661742D01*
X139624472Y-108509472D01*
X139776742Y-108384507D01*
X139950463Y-108291652D01*
X139950465Y-108291651D01*
X140044716Y-108263060D01*
X140138968Y-108234469D01*
X140285876Y-108220000D01*
X140384124Y-108220000D01*
X140531032Y-108234469D01*
X140531032Y-108234469D01*
G37*
G36*
X153927500Y-110177000D02*
G01*
X152777500Y-110177000D01*
X152777500Y-108977000D01*
X153927500Y-108977000D01*
X153927500Y-110177000D01*
X153927500Y-110177000D01*
G37*
G36*
X143094400Y-110175600D02*
G01*
X141944400Y-110175600D01*
X141944400Y-108975600D01*
X143094400Y-108975600D01*
X143094400Y-110175600D01*
X143094400Y-110175600D01*
G37*
G36*
X150892200Y-110175600D02*
G01*
X149742200Y-110175600D01*
X149742200Y-108975600D01*
X150892200Y-108975600D01*
X150892200Y-110175600D01*
X150892200Y-110175600D01*
G37*
G36*
X149419000Y-110175600D02*
G01*
X148269000Y-110175600D01*
X148269000Y-108975600D01*
X149419000Y-108975600D01*
X149419000Y-110175600D01*
X149419000Y-110175600D01*
G37*
G36*
X144643800Y-110175600D02*
G01*
X143493800Y-110175600D01*
X143493800Y-108975600D01*
X144643800Y-108975600D01*
X144643800Y-110175600D01*
X144643800Y-110175600D01*
G37*
G36*
X153927500Y-108677000D02*
G01*
X152777500Y-108677000D01*
X152777500Y-107477000D01*
X153927500Y-107477000D01*
X153927500Y-108677000D01*
X153927500Y-108677000D01*
G37*
G36*
X143094400Y-108675600D02*
G01*
X141944400Y-108675600D01*
X141944400Y-107475600D01*
X143094400Y-107475600D01*
X143094400Y-108675600D01*
X143094400Y-108675600D01*
G37*
G36*
X152045000Y-108473400D02*
G01*
X143895000Y-108473400D01*
X143895000Y-107073400D01*
X152045000Y-107073400D01*
X152045000Y-108473400D01*
X152045000Y-108473400D01*
G37*
G36*
X140531032Y-105694469D02*
G01*
X140625284Y-105723060D01*
X140719535Y-105751651D01*
X140719537Y-105751652D01*
X140893258Y-105844507D01*
X141045528Y-105969472D01*
X141170493Y-106121742D01*
X141263348Y-106295463D01*
X141320531Y-106483968D01*
X141339838Y-106680000D01*
X141320531Y-106876032D01*
X141263348Y-107064537D01*
X141170493Y-107238258D01*
X141045528Y-107390528D01*
X140893258Y-107515493D01*
X140719537Y-107608348D01*
X140719535Y-107608349D01*
X140625285Y-107636939D01*
X140531032Y-107665531D01*
X140384124Y-107680000D01*
X140285876Y-107680000D01*
X140138968Y-107665531D01*
X140044715Y-107636939D01*
X139950465Y-107608349D01*
X139950463Y-107608348D01*
X139776742Y-107515493D01*
X139624472Y-107390528D01*
X139499507Y-107238258D01*
X139406652Y-107064537D01*
X139349469Y-106876032D01*
X139330162Y-106680000D01*
X139349469Y-106483968D01*
X139406652Y-106295463D01*
X139499507Y-106121742D01*
X139624472Y-105969472D01*
X139776742Y-105844507D01*
X139950463Y-105751652D01*
X139950465Y-105751651D01*
X140044716Y-105723060D01*
X140138968Y-105694469D01*
X140285876Y-105680000D01*
X140384124Y-105680000D01*
X140531032Y-105694469D01*
X140531032Y-105694469D01*
G37*
G36*
X155771032Y-105694469D02*
G01*
X155865284Y-105723060D01*
X155959535Y-105751651D01*
X155959537Y-105751652D01*
X156133258Y-105844507D01*
X156285528Y-105969472D01*
X156410493Y-106121742D01*
X156503348Y-106295463D01*
X156560531Y-106483968D01*
X156579838Y-106680000D01*
X156560531Y-106876032D01*
X156503348Y-107064537D01*
X156410493Y-107238258D01*
X156285528Y-107390528D01*
X156133258Y-107515493D01*
X155959537Y-107608348D01*
X155959535Y-107608349D01*
X155865285Y-107636939D01*
X155771032Y-107665531D01*
X155624124Y-107680000D01*
X155525876Y-107680000D01*
X155378968Y-107665531D01*
X155284715Y-107636939D01*
X155190465Y-107608349D01*
X155190463Y-107608348D01*
X155016742Y-107515493D01*
X154864472Y-107390528D01*
X154739507Y-107238258D01*
X154646652Y-107064537D01*
X154589469Y-106876032D01*
X154570162Y-106680000D01*
X154589469Y-106483968D01*
X154646652Y-106295463D01*
X154739507Y-106121742D01*
X154864472Y-105969472D01*
X155016742Y-105844507D01*
X155190463Y-105751652D01*
X155190465Y-105751651D01*
X155284716Y-105723060D01*
X155378968Y-105694469D01*
X155525876Y-105680000D01*
X155624124Y-105680000D01*
X155771032Y-105694469D01*
X155771032Y-105694469D01*
G37*
G36*
X142970000Y-106148400D02*
G01*
X141570000Y-106148400D01*
X141570000Y-104347542D01*
X141567598Y-104323156D01*
X141560485Y-104299707D01*
X141548934Y-104278096D01*
X141533389Y-104259154D01*
X141514447Y-104243609D01*
X141492836Y-104232058D01*
X141469387Y-104224945D01*
X141445001Y-104222543D01*
X141420615Y-104224945D01*
X141397166Y-104232058D01*
X141375555Y-104243609D01*
X141356613Y-104259154D01*
X141341068Y-104278096D01*
X141329517Y-104299707D01*
X141320604Y-104335290D01*
X141320531Y-104336032D01*
X141263348Y-104524537D01*
X141170493Y-104698258D01*
X141045528Y-104850528D01*
X140893258Y-104975493D01*
X140719537Y-105068348D01*
X140719535Y-105068349D01*
X140625284Y-105096940D01*
X140531032Y-105125531D01*
X140384124Y-105140000D01*
X140285876Y-105140000D01*
X140138968Y-105125531D01*
X140044716Y-105096940D01*
X139950465Y-105068349D01*
X139950463Y-105068348D01*
X139776742Y-104975493D01*
X139624472Y-104850528D01*
X139499507Y-104698258D01*
X139406652Y-104524537D01*
X139349469Y-104336032D01*
X139330162Y-104140000D01*
X139349469Y-103943968D01*
X139406652Y-103755463D01*
X139499507Y-103581742D01*
X139624472Y-103429472D01*
X139776742Y-103304507D01*
X139950463Y-103211652D01*
X139950465Y-103211651D01*
X140044715Y-103183061D01*
X140138968Y-103154469D01*
X140285876Y-103140000D01*
X140384124Y-103140000D01*
X140531032Y-103154469D01*
X140625285Y-103183061D01*
X140719535Y-103211651D01*
X140719537Y-103211652D01*
X140893258Y-103304507D01*
X141045528Y-103429472D01*
X141170493Y-103581742D01*
X141263348Y-103755463D01*
X141320531Y-103943968D01*
X141320604Y-103944710D01*
X141325384Y-103968743D01*
X141334762Y-103991382D01*
X141348376Y-104011757D01*
X141365703Y-104029084D01*
X141386077Y-104042697D01*
X141408716Y-104052075D01*
X141432749Y-104056855D01*
X141457253Y-104056855D01*
X141481286Y-104052075D01*
X141503925Y-104042697D01*
X141524300Y-104029083D01*
X141541627Y-104011756D01*
X141555240Y-103991382D01*
X141564618Y-103968743D01*
X141570000Y-103932458D01*
X141570000Y-101807542D01*
X141567598Y-101783156D01*
X141560485Y-101759707D01*
X141548934Y-101738096D01*
X141533389Y-101719154D01*
X141514447Y-101703609D01*
X141492836Y-101692058D01*
X141469387Y-101684945D01*
X141445001Y-101682543D01*
X141420615Y-101684945D01*
X141397166Y-101692058D01*
X141375555Y-101703609D01*
X141356613Y-101719154D01*
X141341068Y-101738096D01*
X141329517Y-101759707D01*
X141320604Y-101795290D01*
X141320531Y-101796032D01*
X141263348Y-101984537D01*
X141170493Y-102158258D01*
X141045528Y-102310528D01*
X140893258Y-102435493D01*
X140775566Y-102498400D01*
X140719535Y-102528349D01*
X140625285Y-102556939D01*
X140531032Y-102585531D01*
X140384124Y-102600000D01*
X140285876Y-102600000D01*
X140138968Y-102585531D01*
X140044715Y-102556939D01*
X139950465Y-102528349D01*
X139894434Y-102498400D01*
X139776742Y-102435493D01*
X139624472Y-102310528D01*
X139499507Y-102158258D01*
X139406652Y-101984537D01*
X139349469Y-101796032D01*
X139330162Y-101600000D01*
X139349469Y-101403968D01*
X139406652Y-101215463D01*
X139499507Y-101041742D01*
X139624472Y-100889472D01*
X139776742Y-100764507D01*
X139950463Y-100671652D01*
X139950465Y-100671651D01*
X140044716Y-100643060D01*
X140138968Y-100614469D01*
X140285876Y-100600000D01*
X140384124Y-100600000D01*
X140531032Y-100614469D01*
X140625284Y-100643060D01*
X140719535Y-100671651D01*
X140719537Y-100671652D01*
X140893258Y-100764507D01*
X141045528Y-100889472D01*
X141170493Y-101041742D01*
X141263348Y-101215463D01*
X141320531Y-101403968D01*
X141320604Y-101404710D01*
X141325384Y-101428743D01*
X141334762Y-101451382D01*
X141348376Y-101471757D01*
X141365703Y-101489084D01*
X141386077Y-101502697D01*
X141408716Y-101512075D01*
X141432749Y-101516855D01*
X141457253Y-101516855D01*
X141481286Y-101512075D01*
X141503925Y-101502697D01*
X141524300Y-101489083D01*
X141541627Y-101471756D01*
X141555240Y-101451382D01*
X141564618Y-101428743D01*
X141570000Y-101392458D01*
X141570000Y-99267542D01*
X141567598Y-99243156D01*
X141560485Y-99219707D01*
X141548934Y-99198096D01*
X141533389Y-99179154D01*
X141514447Y-99163609D01*
X141492836Y-99152058D01*
X141469387Y-99144945D01*
X141445001Y-99142543D01*
X141420615Y-99144945D01*
X141397166Y-99152058D01*
X141375555Y-99163609D01*
X141356613Y-99179154D01*
X141341068Y-99198096D01*
X141329517Y-99219707D01*
X141320604Y-99255290D01*
X141320531Y-99256032D01*
X141263348Y-99444537D01*
X141170493Y-99618258D01*
X141045528Y-99770528D01*
X140893258Y-99895493D01*
X140719537Y-99988348D01*
X140719535Y-99988349D01*
X140625284Y-100016940D01*
X140531032Y-100045531D01*
X140384124Y-100060000D01*
X140285876Y-100060000D01*
X140138968Y-100045531D01*
X140044716Y-100016940D01*
X139950465Y-99988349D01*
X139950463Y-99988348D01*
X139776742Y-99895493D01*
X139624472Y-99770528D01*
X139499507Y-99618258D01*
X139406652Y-99444537D01*
X139349469Y-99256032D01*
X139330162Y-99060000D01*
X139349469Y-98863968D01*
X139406652Y-98675463D01*
X139499507Y-98501742D01*
X139624472Y-98349472D01*
X139776742Y-98224507D01*
X139950463Y-98131652D01*
X139950465Y-98131651D01*
X140044715Y-98103061D01*
X140138968Y-98074469D01*
X140285876Y-98060000D01*
X140384124Y-98060000D01*
X140531032Y-98074469D01*
X140625285Y-98103061D01*
X140719535Y-98131651D01*
X140719537Y-98131652D01*
X140893258Y-98224507D01*
X141045528Y-98349472D01*
X141170493Y-98501742D01*
X141263348Y-98675463D01*
X141320531Y-98863968D01*
X141320604Y-98864710D01*
X141325384Y-98888743D01*
X141334762Y-98911382D01*
X141348376Y-98931757D01*
X141365703Y-98949084D01*
X141386077Y-98962697D01*
X141408716Y-98972075D01*
X141432749Y-98976855D01*
X141457253Y-98976855D01*
X141481286Y-98972075D01*
X141503925Y-98962697D01*
X141524300Y-98949083D01*
X141541627Y-98931756D01*
X141555240Y-98911382D01*
X141564618Y-98888743D01*
X141570000Y-98852458D01*
X141570000Y-97998400D01*
X142970000Y-97998400D01*
X142970000Y-106148400D01*
X142970000Y-106148400D01*
G37*
G36*
X154370000Y-98744785D02*
G01*
X154372402Y-98769171D01*
X154379515Y-98792620D01*
X154391066Y-98814231D01*
X154406611Y-98833173D01*
X154425553Y-98848718D01*
X154447164Y-98860269D01*
X154470613Y-98867382D01*
X154494999Y-98869784D01*
X154519385Y-98867382D01*
X154542834Y-98860269D01*
X154564445Y-98848718D01*
X154583387Y-98833173D01*
X154598932Y-98814231D01*
X154614615Y-98781071D01*
X154646650Y-98675466D01*
X154739507Y-98501742D01*
X154864472Y-98349472D01*
X155016742Y-98224507D01*
X155190463Y-98131652D01*
X155190465Y-98131651D01*
X155284715Y-98103061D01*
X155378968Y-98074469D01*
X155525876Y-98060000D01*
X155624124Y-98060000D01*
X155771032Y-98074469D01*
X155865285Y-98103061D01*
X155959535Y-98131651D01*
X155959537Y-98131652D01*
X156133258Y-98224507D01*
X156285528Y-98349472D01*
X156410493Y-98501742D01*
X156503348Y-98675463D01*
X156560531Y-98863968D01*
X156579838Y-99060000D01*
X156560531Y-99256032D01*
X156503348Y-99444537D01*
X156410493Y-99618258D01*
X156285528Y-99770528D01*
X156133258Y-99895493D01*
X155959537Y-99988348D01*
X155959535Y-99988349D01*
X155865284Y-100016940D01*
X155771032Y-100045531D01*
X155624124Y-100060000D01*
X155525876Y-100060000D01*
X155378968Y-100045531D01*
X155284716Y-100016940D01*
X155190465Y-99988349D01*
X155190463Y-99988348D01*
X155016742Y-99895493D01*
X154864472Y-99770528D01*
X154739507Y-99618258D01*
X154646650Y-99444534D01*
X154614615Y-99338929D01*
X154605238Y-99316291D01*
X154591624Y-99295916D01*
X154574297Y-99278589D01*
X154553923Y-99264976D01*
X154531284Y-99255598D01*
X154507251Y-99250818D01*
X154482747Y-99250818D01*
X154458713Y-99255599D01*
X154436075Y-99264976D01*
X154415700Y-99278590D01*
X154398373Y-99295917D01*
X154384760Y-99316291D01*
X154375382Y-99338930D01*
X154370000Y-99375215D01*
X154370000Y-101284785D01*
X154372402Y-101309171D01*
X154379515Y-101332620D01*
X154391066Y-101354231D01*
X154406611Y-101373173D01*
X154425553Y-101388718D01*
X154447164Y-101400269D01*
X154470613Y-101407382D01*
X154494999Y-101409784D01*
X154519385Y-101407382D01*
X154542834Y-101400269D01*
X154564445Y-101388718D01*
X154583387Y-101373173D01*
X154598932Y-101354231D01*
X154614615Y-101321071D01*
X154646650Y-101215466D01*
X154739507Y-101041742D01*
X154864472Y-100889472D01*
X155016742Y-100764507D01*
X155190463Y-100671652D01*
X155190465Y-100671651D01*
X155284716Y-100643060D01*
X155378968Y-100614469D01*
X155525876Y-100600000D01*
X155624124Y-100600000D01*
X155771032Y-100614469D01*
X155865284Y-100643060D01*
X155959535Y-100671651D01*
X155959537Y-100671652D01*
X156133258Y-100764507D01*
X156285528Y-100889472D01*
X156410493Y-101041742D01*
X156503348Y-101215463D01*
X156560531Y-101403968D01*
X156579838Y-101600000D01*
X156560531Y-101796032D01*
X156503348Y-101984537D01*
X156410493Y-102158258D01*
X156285528Y-102310528D01*
X156133258Y-102435493D01*
X156015566Y-102498400D01*
X155959535Y-102528349D01*
X155865285Y-102556939D01*
X155771032Y-102585531D01*
X155624124Y-102600000D01*
X155525876Y-102600000D01*
X155378968Y-102585531D01*
X155284715Y-102556939D01*
X155190465Y-102528349D01*
X155134434Y-102498400D01*
X155016742Y-102435493D01*
X154864472Y-102310528D01*
X154739507Y-102158258D01*
X154646650Y-101984534D01*
X154614615Y-101878929D01*
X154605238Y-101856291D01*
X154591624Y-101835916D01*
X154574297Y-101818589D01*
X154553923Y-101804976D01*
X154531284Y-101795598D01*
X154507251Y-101790818D01*
X154482747Y-101790818D01*
X154458713Y-101795599D01*
X154436075Y-101804976D01*
X154415700Y-101818590D01*
X154398373Y-101835917D01*
X154384760Y-101856291D01*
X154375382Y-101878930D01*
X154370000Y-101915215D01*
X154370000Y-103824785D01*
X154372402Y-103849171D01*
X154379515Y-103872620D01*
X154391066Y-103894231D01*
X154406611Y-103913173D01*
X154425553Y-103928718D01*
X154447164Y-103940269D01*
X154470613Y-103947382D01*
X154494999Y-103949784D01*
X154519385Y-103947382D01*
X154542834Y-103940269D01*
X154564445Y-103928718D01*
X154583387Y-103913173D01*
X154598932Y-103894231D01*
X154614615Y-103861071D01*
X154646650Y-103755466D01*
X154739507Y-103581742D01*
X154864472Y-103429472D01*
X155016742Y-103304507D01*
X155190463Y-103211652D01*
X155190465Y-103211651D01*
X155284715Y-103183061D01*
X155378968Y-103154469D01*
X155525876Y-103140000D01*
X155624124Y-103140000D01*
X155771032Y-103154469D01*
X155865285Y-103183061D01*
X155959535Y-103211651D01*
X155959537Y-103211652D01*
X156133258Y-103304507D01*
X156285528Y-103429472D01*
X156410493Y-103581742D01*
X156503348Y-103755463D01*
X156560531Y-103943968D01*
X156579838Y-104140000D01*
X156560531Y-104336032D01*
X156503348Y-104524537D01*
X156410493Y-104698258D01*
X156285528Y-104850528D01*
X156133258Y-104975493D01*
X155959537Y-105068348D01*
X155959535Y-105068349D01*
X155865284Y-105096940D01*
X155771032Y-105125531D01*
X155624124Y-105140000D01*
X155525876Y-105140000D01*
X155378968Y-105125531D01*
X155284716Y-105096940D01*
X155190465Y-105068349D01*
X155190463Y-105068348D01*
X155016742Y-104975493D01*
X154864472Y-104850528D01*
X154739507Y-104698258D01*
X154646650Y-104524534D01*
X154614615Y-104418929D01*
X154605238Y-104396291D01*
X154591624Y-104375916D01*
X154574297Y-104358589D01*
X154553923Y-104344976D01*
X154531284Y-104335598D01*
X154507251Y-104330818D01*
X154482747Y-104330818D01*
X154458713Y-104335599D01*
X154436075Y-104344976D01*
X154415700Y-104358590D01*
X154398373Y-104375917D01*
X154384760Y-104396291D01*
X154375382Y-104418930D01*
X154370000Y-104455215D01*
X154370000Y-106148400D01*
X152970000Y-106148400D01*
X152970000Y-97998400D01*
X154370000Y-97998400D01*
X154370000Y-98744785D01*
X154370000Y-98744785D01*
G37*
G36*
X155771032Y-95534469D02*
G01*
X155865285Y-95563061D01*
X155959535Y-95591651D01*
X155959537Y-95591652D01*
X156133258Y-95684507D01*
X156285528Y-95809472D01*
X156410493Y-95961742D01*
X156503348Y-96135463D01*
X156560531Y-96323968D01*
X156579838Y-96520000D01*
X156560531Y-96716032D01*
X156503348Y-96904537D01*
X156410493Y-97078258D01*
X156285528Y-97230528D01*
X156133258Y-97355493D01*
X155959537Y-97448348D01*
X155959535Y-97448349D01*
X155865284Y-97476940D01*
X155771032Y-97505531D01*
X155624124Y-97520000D01*
X155525876Y-97520000D01*
X155378968Y-97505531D01*
X155284716Y-97476940D01*
X155190465Y-97448349D01*
X155190463Y-97448348D01*
X155016742Y-97355493D01*
X154864472Y-97230528D01*
X154739507Y-97078258D01*
X154646652Y-96904537D01*
X154589469Y-96716032D01*
X154570162Y-96520000D01*
X154589469Y-96323968D01*
X154646652Y-96135463D01*
X154739507Y-95961742D01*
X154864472Y-95809472D01*
X155016742Y-95684507D01*
X155190463Y-95591652D01*
X155190465Y-95591651D01*
X155284715Y-95563061D01*
X155378968Y-95534469D01*
X155525876Y-95520000D01*
X155624124Y-95520000D01*
X155771032Y-95534469D01*
X155771032Y-95534469D01*
G37*
G36*
X140531032Y-95534469D02*
G01*
X140625285Y-95563061D01*
X140719535Y-95591651D01*
X140719537Y-95591652D01*
X140893258Y-95684507D01*
X141045528Y-95809472D01*
X141170493Y-95961742D01*
X141263348Y-96135463D01*
X141320531Y-96323968D01*
X141339838Y-96520000D01*
X141320531Y-96716032D01*
X141263348Y-96904537D01*
X141170493Y-97078258D01*
X141045528Y-97230528D01*
X140893258Y-97355493D01*
X140719537Y-97448348D01*
X140719535Y-97448349D01*
X140625284Y-97476940D01*
X140531032Y-97505531D01*
X140384124Y-97520000D01*
X140285876Y-97520000D01*
X140138968Y-97505531D01*
X140044716Y-97476940D01*
X139950465Y-97448349D01*
X139950463Y-97448348D01*
X139776742Y-97355493D01*
X139624472Y-97230528D01*
X139499507Y-97078258D01*
X139406652Y-96904537D01*
X139349469Y-96716032D01*
X139330162Y-96520000D01*
X139349469Y-96323968D01*
X139406652Y-96135463D01*
X139499507Y-95961742D01*
X139624472Y-95809472D01*
X139776742Y-95684507D01*
X139950463Y-95591652D01*
X139950465Y-95591651D01*
X140044715Y-95563061D01*
X140138968Y-95534469D01*
X140285876Y-95520000D01*
X140384124Y-95520000D01*
X140531032Y-95534469D01*
X140531032Y-95534469D01*
G37*
G36*
X152045000Y-97073400D02*
G01*
X143895000Y-97073400D01*
X143895000Y-95673400D01*
X152045000Y-95673400D01*
X152045000Y-97073400D01*
X152045000Y-97073400D01*
G37*
G36*
X152340000Y-95240400D02*
G01*
X151190000Y-95240400D01*
X151190000Y-94040400D01*
X152340000Y-94040400D01*
X152340000Y-95240400D01*
X152340000Y-95240400D01*
G37*
G36*
X144085000Y-95215000D02*
G01*
X142935000Y-95215000D01*
X142935000Y-94015000D01*
X144085000Y-94015000D01*
X144085000Y-95215000D01*
X144085000Y-95215000D01*
G37*
G36*
X154194200Y-95215000D02*
G01*
X153044200Y-95215000D01*
X153044200Y-94015000D01*
X154194200Y-94015000D01*
X154194200Y-95215000D01*
X154194200Y-95215000D01*
G37*
G36*
X145990000Y-95215000D02*
G01*
X144840000Y-95215000D01*
X144840000Y-94015000D01*
X145990000Y-94015000D01*
X145990000Y-95215000D01*
X145990000Y-95215000D01*
G37*
G36*
X155771032Y-92994469D02*
G01*
X155865284Y-93023060D01*
X155959535Y-93051651D01*
X155959537Y-93051652D01*
X156133258Y-93144507D01*
X156285528Y-93269472D01*
X156410493Y-93421742D01*
X156503348Y-93595463D01*
X156560531Y-93783968D01*
X156579838Y-93980000D01*
X156560531Y-94176032D01*
X156503348Y-94364537D01*
X156410493Y-94538258D01*
X156285528Y-94690528D01*
X156133258Y-94815493D01*
X155959537Y-94908348D01*
X155959535Y-94908349D01*
X155865285Y-94936939D01*
X155771032Y-94965531D01*
X155624124Y-94980000D01*
X155525876Y-94980000D01*
X155378968Y-94965531D01*
X155284715Y-94936939D01*
X155190465Y-94908349D01*
X155190463Y-94908348D01*
X155016742Y-94815493D01*
X154864472Y-94690528D01*
X154739507Y-94538258D01*
X154646652Y-94364537D01*
X154589469Y-94176032D01*
X154570162Y-93980000D01*
X154589469Y-93783968D01*
X154646652Y-93595463D01*
X154739507Y-93421742D01*
X154864472Y-93269472D01*
X155016742Y-93144507D01*
X155190463Y-93051652D01*
X155190465Y-93051651D01*
X155284716Y-93023060D01*
X155378968Y-92994469D01*
X155525876Y-92980000D01*
X155624124Y-92980000D01*
X155771032Y-92994469D01*
X155771032Y-92994469D01*
G37*
G36*
X140531032Y-92994469D02*
G01*
X140625284Y-93023060D01*
X140719535Y-93051651D01*
X140719537Y-93051652D01*
X140893258Y-93144507D01*
X141045528Y-93269472D01*
X141170493Y-93421742D01*
X141263348Y-93595463D01*
X141320531Y-93783968D01*
X141339838Y-93980000D01*
X141320531Y-94176032D01*
X141263348Y-94364537D01*
X141170493Y-94538258D01*
X141045528Y-94690528D01*
X140893258Y-94815493D01*
X140719537Y-94908348D01*
X140719535Y-94908349D01*
X140625285Y-94936939D01*
X140531032Y-94965531D01*
X140384124Y-94980000D01*
X140285876Y-94980000D01*
X140138968Y-94965531D01*
X140044715Y-94936939D01*
X139950465Y-94908349D01*
X139950463Y-94908348D01*
X139776742Y-94815493D01*
X139624472Y-94690528D01*
X139499507Y-94538258D01*
X139406652Y-94364537D01*
X139349469Y-94176032D01*
X139330162Y-93980000D01*
X139349469Y-93783968D01*
X139406652Y-93595463D01*
X139499507Y-93421742D01*
X139624472Y-93269472D01*
X139776742Y-93144507D01*
X139950463Y-93051652D01*
X139950465Y-93051651D01*
X140044716Y-93023060D01*
X140138968Y-92994469D01*
X140285876Y-92980000D01*
X140384124Y-92980000D01*
X140531032Y-92994469D01*
X140531032Y-92994469D01*
G37*
G36*
X152340000Y-93740400D02*
G01*
X151190000Y-93740400D01*
X151190000Y-92540400D01*
X152340000Y-92540400D01*
X152340000Y-93740400D01*
X152340000Y-93740400D01*
G37*
G36*
X145990000Y-93715000D02*
G01*
X144840000Y-93715000D01*
X144840000Y-92515000D01*
X145990000Y-92515000D01*
X145990000Y-93715000D01*
X145990000Y-93715000D01*
G37*
G36*
X154194200Y-93715000D02*
G01*
X153044200Y-93715000D01*
X153044200Y-92515000D01*
X154194200Y-92515000D01*
X154194200Y-93715000D01*
X154194200Y-93715000D01*
G37*
G36*
X144085000Y-93715000D02*
G01*
X142935000Y-93715000D01*
X142935000Y-92515000D01*
X144085000Y-92515000D01*
X144085000Y-93715000D01*
X144085000Y-93715000D01*
G37*
G36*
X140531032Y-90454469D02*
G01*
X140625285Y-90483061D01*
X140719535Y-90511651D01*
X140719537Y-90511652D01*
X140893258Y-90604507D01*
X141045528Y-90729472D01*
X141170493Y-90881742D01*
X141263348Y-91055463D01*
X141320531Y-91243968D01*
X141339838Y-91440000D01*
X141320531Y-91636032D01*
X141263348Y-91824537D01*
X141170493Y-91998258D01*
X141045528Y-92150528D01*
X140893258Y-92275493D01*
X140719537Y-92368348D01*
X140719535Y-92368349D01*
X140625284Y-92396940D01*
X140531032Y-92425531D01*
X140384124Y-92440000D01*
X140285876Y-92440000D01*
X140138968Y-92425531D01*
X140044716Y-92396940D01*
X139950465Y-92368349D01*
X139950463Y-92368348D01*
X139776742Y-92275493D01*
X139624472Y-92150528D01*
X139499507Y-91998258D01*
X139406652Y-91824537D01*
X139349469Y-91636032D01*
X139330162Y-91440000D01*
X139349469Y-91243968D01*
X139406652Y-91055463D01*
X139499507Y-90881742D01*
X139624472Y-90729472D01*
X139776742Y-90604507D01*
X139950463Y-90511652D01*
X139950465Y-90511651D01*
X140044715Y-90483061D01*
X140138968Y-90454469D01*
X140285876Y-90440000D01*
X140384124Y-90440000D01*
X140531032Y-90454469D01*
X140531032Y-90454469D01*
G37*
G36*
X155771032Y-90454469D02*
G01*
X155865285Y-90483061D01*
X155959535Y-90511651D01*
X155959537Y-90511652D01*
X156133258Y-90604507D01*
X156285528Y-90729472D01*
X156410493Y-90881742D01*
X156503348Y-91055463D01*
X156560531Y-91243968D01*
X156579838Y-91440000D01*
X156560531Y-91636032D01*
X156503348Y-91824537D01*
X156410493Y-91998258D01*
X156285528Y-92150528D01*
X156133258Y-92275493D01*
X155959537Y-92368348D01*
X155959535Y-92368349D01*
X155865284Y-92396940D01*
X155771032Y-92425531D01*
X155624124Y-92440000D01*
X155525876Y-92440000D01*
X155378968Y-92425531D01*
X155284716Y-92396940D01*
X155190465Y-92368349D01*
X155190463Y-92368348D01*
X155016742Y-92275493D01*
X154864472Y-92150528D01*
X154739507Y-91998258D01*
X154646652Y-91824537D01*
X154589469Y-91636032D01*
X154570162Y-91440000D01*
X154589469Y-91243968D01*
X154646652Y-91055463D01*
X154739507Y-90881742D01*
X154864472Y-90729472D01*
X155016742Y-90604507D01*
X155190463Y-90511652D01*
X155190465Y-90511651D01*
X155284715Y-90483061D01*
X155378968Y-90454469D01*
X155525876Y-90440000D01*
X155624124Y-90440000D01*
X155771032Y-90454469D01*
X155771032Y-90454469D01*
G37*
G36*
X143450000Y-91532000D02*
G01*
X142300000Y-91532000D01*
X142300000Y-90332000D01*
X143450000Y-90332000D01*
X143450000Y-91532000D01*
X143450000Y-91532000D01*
G37*
G36*
X146904000Y-91507000D02*
G01*
X145704000Y-91507000D01*
X145704000Y-90357000D01*
X146904000Y-90357000D01*
X146904000Y-91507000D01*
X146904000Y-91507000D01*
G37*
G36*
X145404000Y-91507000D02*
G01*
X144204000Y-91507000D01*
X144204000Y-90357000D01*
X145404000Y-90357000D01*
X145404000Y-91507000D01*
X145404000Y-91507000D01*
G37*
G36*
X152069000Y-91441000D02*
G01*
X150869000Y-91441000D01*
X150869000Y-90291000D01*
X152069000Y-90291000D01*
X152069000Y-91441000D01*
X152069000Y-91441000D01*
G37*
G36*
X153569000Y-91441000D02*
G01*
X152369000Y-91441000D01*
X152369000Y-90291000D01*
X153569000Y-90291000D01*
X153569000Y-91441000D01*
X153569000Y-91441000D01*
G37*
G36*
X143450000Y-90032000D02*
G01*
X142300000Y-90032000D01*
X142300000Y-88832000D01*
X143450000Y-88832000D01*
X143450000Y-90032000D01*
X143450000Y-90032000D01*
G37*
G36*
X140531032Y-87914469D02*
G01*
X140625285Y-87943061D01*
X140719535Y-87971651D01*
X140719537Y-87971652D01*
X140893258Y-88064507D01*
X141045528Y-88189472D01*
X141170493Y-88341742D01*
X141263348Y-88515463D01*
X141320531Y-88703968D01*
X141339838Y-88900000D01*
X141320531Y-89096032D01*
X141263348Y-89284537D01*
X141170493Y-89458258D01*
X141045528Y-89610528D01*
X140893258Y-89735493D01*
X140719537Y-89828348D01*
X140719535Y-89828349D01*
X140625284Y-89856940D01*
X140531032Y-89885531D01*
X140384124Y-89900000D01*
X140285876Y-89900000D01*
X140138968Y-89885531D01*
X140044716Y-89856940D01*
X139950465Y-89828349D01*
X139950463Y-89828348D01*
X139776742Y-89735493D01*
X139624472Y-89610528D01*
X139499507Y-89458258D01*
X139406652Y-89284537D01*
X139349469Y-89096032D01*
X139330162Y-88900000D01*
X139349469Y-88703968D01*
X139406652Y-88515463D01*
X139499507Y-88341742D01*
X139624472Y-88189472D01*
X139776742Y-88064507D01*
X139950463Y-87971652D01*
X139950465Y-87971651D01*
X140044715Y-87943061D01*
X140138968Y-87914469D01*
X140285876Y-87900000D01*
X140384124Y-87900000D01*
X140531032Y-87914469D01*
X140531032Y-87914469D01*
G37*
G36*
X155771032Y-87914469D02*
G01*
X155865285Y-87943061D01*
X155959535Y-87971651D01*
X155959537Y-87971652D01*
X156133258Y-88064507D01*
X156285528Y-88189472D01*
X156410493Y-88341742D01*
X156503348Y-88515463D01*
X156560531Y-88703968D01*
X156579838Y-88900000D01*
X156560531Y-89096032D01*
X156503348Y-89284537D01*
X156410493Y-89458258D01*
X156285528Y-89610528D01*
X156133258Y-89735493D01*
X155959537Y-89828348D01*
X155959535Y-89828349D01*
X155865284Y-89856940D01*
X155771032Y-89885531D01*
X155624124Y-89900000D01*
X155525876Y-89900000D01*
X155378968Y-89885531D01*
X155284716Y-89856940D01*
X155190465Y-89828349D01*
X155190463Y-89828348D01*
X155016742Y-89735493D01*
X154864472Y-89610528D01*
X154739507Y-89458258D01*
X154646652Y-89284537D01*
X154589469Y-89096032D01*
X154570162Y-88900000D01*
X154589469Y-88703968D01*
X154646652Y-88515463D01*
X154739507Y-88341742D01*
X154864472Y-88189472D01*
X155016742Y-88064507D01*
X155190463Y-87971652D01*
X155190465Y-87971651D01*
X155284715Y-87943061D01*
X155378968Y-87914469D01*
X155525876Y-87900000D01*
X155624124Y-87900000D01*
X155771032Y-87914469D01*
X155771032Y-87914469D01*
G37*
G36*
X151721000Y-89884000D02*
G01*
X150671000Y-89884000D01*
X150671000Y-88424000D01*
X151721000Y-88424000D01*
X151721000Y-89884000D01*
X151721000Y-89884000D01*
G37*
G36*
X144929000Y-89884000D02*
G01*
X143879000Y-89884000D01*
X143879000Y-88424000D01*
X144929000Y-88424000D01*
X144929000Y-89884000D01*
X144929000Y-89884000D01*
G37*
G36*
X146829000Y-89884000D02*
G01*
X145779000Y-89884000D01*
X145779000Y-88424000D01*
X146829000Y-88424000D01*
X146829000Y-89884000D01*
X146829000Y-89884000D01*
G37*
G36*
X153621000Y-89884000D02*
G01*
X152571000Y-89884000D01*
X152571000Y-88424000D01*
X153621000Y-88424000D01*
X153621000Y-89884000D01*
X153621000Y-89884000D01*
G37*
G36*
X148530000Y-89754000D02*
G01*
X147380000Y-89754000D01*
X147380000Y-88554000D01*
X148530000Y-88554000D01*
X148530000Y-89754000D01*
X148530000Y-89754000D01*
G37*
G36*
X150117500Y-89754000D02*
G01*
X148967500Y-89754000D01*
X148967500Y-88554000D01*
X150117500Y-88554000D01*
X150117500Y-89754000D01*
X150117500Y-89754000D01*
G37*
G36*
X143450000Y-88484000D02*
G01*
X142300000Y-88484000D01*
X142300000Y-87284000D01*
X143450000Y-87284000D01*
X143450000Y-88484000D01*
X143450000Y-88484000D01*
G37*
G36*
X150117500Y-88254000D02*
G01*
X148967500Y-88254000D01*
X148967500Y-87054000D01*
X150117500Y-87054000D01*
X150117500Y-88254000D01*
X150117500Y-88254000D01*
G37*
G36*
X148530000Y-88254000D02*
G01*
X147380000Y-88254000D01*
X147380000Y-87054000D01*
X148530000Y-87054000D01*
X148530000Y-88254000D01*
X148530000Y-88254000D01*
G37*
G36*
X153621000Y-87684000D02*
G01*
X150671000Y-87684000D01*
X150671000Y-86224000D01*
X153621000Y-86224000D01*
X153621000Y-87684000D01*
X153621000Y-87684000D01*
G37*
G36*
X146829000Y-87684000D02*
G01*
X143879000Y-87684000D01*
X143879000Y-86224000D01*
X146829000Y-86224000D01*
X146829000Y-87684000D01*
X146829000Y-87684000D01*
G37*
G36*
X155771032Y-85374469D02*
G01*
X155865284Y-85403060D01*
X155959535Y-85431651D01*
X155959537Y-85431652D01*
X156133258Y-85524507D01*
X156285528Y-85649472D01*
X156410493Y-85801742D01*
X156503348Y-85975463D01*
X156560531Y-86163968D01*
X156579838Y-86360000D01*
X156560531Y-86556032D01*
X156503348Y-86744537D01*
X156410493Y-86918258D01*
X156285528Y-87070528D01*
X156133258Y-87195493D01*
X155959537Y-87288348D01*
X155959535Y-87288349D01*
X155865285Y-87316939D01*
X155771032Y-87345531D01*
X155624124Y-87360000D01*
X155525876Y-87360000D01*
X155378968Y-87345531D01*
X155284715Y-87316939D01*
X155190465Y-87288349D01*
X155190463Y-87288348D01*
X155016742Y-87195493D01*
X154864472Y-87070528D01*
X154739507Y-86918258D01*
X154646652Y-86744537D01*
X154589469Y-86556032D01*
X154570162Y-86360000D01*
X154589469Y-86163968D01*
X154646652Y-85975463D01*
X154739507Y-85801742D01*
X154864472Y-85649472D01*
X155016742Y-85524507D01*
X155190463Y-85431652D01*
X155190465Y-85431651D01*
X155284716Y-85403060D01*
X155378968Y-85374469D01*
X155525876Y-85360000D01*
X155624124Y-85360000D01*
X155771032Y-85374469D01*
X155771032Y-85374469D01*
G37*
G36*
X141335000Y-87360000D02*
G01*
X139335000Y-87360000D01*
X139335000Y-85360000D01*
X141335000Y-85360000D01*
X141335000Y-87360000D01*
X141335000Y-87360000D01*
G37*
G36*
X143450000Y-86984000D02*
G01*
X142300000Y-86984000D01*
X142300000Y-85784000D01*
X143450000Y-85784000D01*
X143450000Y-86984000D01*
X143450000Y-86984000D01*
G37*
M02*
