M48
INCH,TZ
T1C0.0157
T2C0.0197
T3C0.0315
T4C0.0394
%
G90
G05
T1
X55836Y-33790
X55840Y-35790
X56406Y-41440
X56412Y-41078
X56663Y-40233
X56764Y-39934
X57066Y-38332
X57415Y-38336
X57447Y-40924
X57539Y-40623
X57575Y-41726
X57624Y-42037
X57660Y-37550
X57660Y-44990
X57700Y-37000
X57813Y-40175
X57821Y-41411
X57920Y-36700
X57936Y-42080
X58000Y-38700
X58090Y-44370
X58254Y-38454
X58480Y-45830
X58692Y-40299
X58694Y-39980
X58724Y-41434
X58923Y-37451
X59010Y-35680
X59169Y-34052
X59180Y-44410
X59186Y-37179
X59430Y-38682
X59595Y-43130
X59809Y-39068
X59855Y-36143
X59947Y-40560
X59947Y-40970
X59985Y-39585
X60039Y-43642
X60092Y-39881
X60106Y-38962
X60275Y-37925
X60403Y-43626
X60480Y-38452
X60514Y-38130
X60640Y-36120
X60840Y-42560
X61510Y-44500
T2
X57369Y-43140
X57960Y-43140
T3
X55250Y-34000
X55250Y-35000
X55250Y-36000
X55250Y-37000
X55250Y-38000
X55250Y-39000
X55250Y-40000
X55250Y-41000
X55250Y-42000
X55250Y-43000
X55250Y-44000
X55250Y-45000
X55250Y-46000
X55250Y-47000
X61250Y-34000
X61250Y-35000
X61250Y-36000
X61250Y-37000
X61250Y-38000
X61250Y-39000
X61250Y-40000
X61250Y-41000
X61250Y-42000
X61250Y-43000
X61250Y-44000
X61250Y-45000
X61250Y-46000
X61250Y-47000
X56153Y-46000
X56940Y-46000
T4
X56250Y-47000
X57250Y-47000
X58250Y-47000
X59250Y-47000
X60250Y-47000
T0
M30
