M48
INCH,TZ
T1C0.0157
T2C0.0197
T3C0.0315
T4C0.0394
%
G90
G05
T1
X5.5836Y-3.379
X5.584Y-3.579
X5.6406Y-4.144
X5.6412Y-4.1078
X5.6663Y-4.0233
X5.6764Y-3.9934
X5.7066Y-3.8332
X5.7415Y-3.8336
X5.7447Y-4.0924
X5.7539Y-4.0623
X5.7575Y-4.1726
X5.7624Y-4.2037
X5.766Y-3.755
X5.766Y-4.499
X5.777Y-3.697
X5.7813Y-4.0175
X5.7821Y-4.1411
X5.792Y-3.641
X5.7936Y-4.208
X5.809Y-4.437
X5.848Y-4.583
X5.8692Y-4.0299
X5.8694Y-3.998
X5.8724Y-4.1434
X5.8923Y-3.7451
X5.901Y-3.568
X5.9169Y-3.4052
X5.918Y-4.441
X5.9186Y-3.7179
X5.943Y-3.8682
X5.9595Y-4.313
X5.9809Y-3.9068
X5.9855Y-3.6143
X5.9947Y-4.056
X5.9947Y-4.097
X5.9985Y-3.9585
X6.0039Y-4.3642
X6.0092Y-3.9881
X6.0106Y-3.8962
X6.0275Y-3.7925
X6.0403Y-4.3626
X6.048Y-3.8452
X6.0514Y-3.813
X6.064Y-3.612
X6.084Y-4.256
X6.151Y-4.45
T2
X5.7369Y-4.314
X5.796Y-4.314
T3
X5.6153Y-4.6
X5.694Y-4.6
X5.525Y-3.4
X5.525Y-3.5
X5.525Y-3.6
X5.525Y-3.7
X5.525Y-3.8
X5.525Y-3.9
X5.525Y-4.
X5.525Y-4.1
X5.525Y-4.2
X5.525Y-4.3
X5.525Y-4.4
X5.525Y-4.5
X5.525Y-4.6
X5.525Y-4.7
X6.125Y-3.4
X6.125Y-3.5
X6.125Y-3.6
X6.125Y-3.7
X6.125Y-3.8
X6.125Y-3.9
X6.125Y-4.
X6.125Y-4.1
X6.125Y-4.2
X6.125Y-4.3
X6.125Y-4.4
X6.125Y-4.5
X6.125Y-4.6
X6.125Y-4.7
T4
X5.625Y-4.7
X5.725Y-4.7
X5.825Y-4.7
X5.925Y-4.7
X6.025Y-4.7
T0
M30
